<svg id="Слой_1" xmlns="http://www.w3.org/2000/svg" xmlns:xlink="http://www.w3.org/1999/xlink" viewBox="0 0 11648.1 844.8">
    <style>
        .st0{clip-path:url(#SVGID_2_);fill-rule:evenodd;clip-rule:evenodd;fill:#666}
    </style>
    <defs>
        <path id="SVGID_1_" d="M0 0h11648.1v844.8H0z"/>
    </defs>
    <clipPath id="SVGID_2_">
        <use xlink:href="#SVGID_1_" overflow="visible"/>
    </clipPath>
    <path class="st0" d="M11633.5 598.2c-16.7-5.8-33.2-11.6-50.2-17.4-22.2-7.6-45-15.3-67.1-22.9-9.2-3.2-16-6.4-59-9.4l-29.1 2.1c-6.7-.2-13.5-.5-20.3-.7-9.3-1.5-18.6-3.1-27.8-4.6-4.9-4.7-52.7-11.6-30.5-15 16.6-4.9-1.3-11.2-54-19h.2c-26.8-7.5-15.7-14.1-99.1-23-37.1-7.2 11.5-10.8-51.8-19.2-9.4-5-52.8-11.3-44.7-15.5 20.1-1.3 15.8-4-11-7.8-33-5.6 20.9-6.4-14.3-12.1-1-6.3 6.6-12-14.1-19.4h.1c-.1 0-.2-.1-.3-.1-1.1-.4-2.3-.8-3.8-1.2-14.3-5.4 15.5-8.5-16.5-14.9 35-4 6.2-12-6.4-19-1-3.4 11-6-13.2-10.7-2.5-3-4.9-5.9-7.5-8.9-1.4-6.3-2.9-12.7-4.4-19-9.7-5.5-2.5-10.1-29.3-16.5.5-1.8.9-3.6 1.5-5.3 11.7-2.7 20.9-5.5-12.9-10.6 13.3-2.6-3.2-6.8-13.4-10.6 11.5-1.6 39-2.2-3-7.1l.3-11.9c24.5-1.9-6.1-6-29.3-9.7 20-1.1 7.1-4-12.6-8.2-2.8 2.9-4.8 5.1-6.8 7.3-.2 0-.2.1-.1.1-26.7-2.3-29.2-4.4-36.1-6.6-11.8-2.2-23.7-4.4-35.5-6.6 4.5-.4 9-.8 13.4-1.2-5.7-1.4-29-3.5-10.7-3.9h.1c18-.5 6.8-3 3.5-5 36.5-.8 27.2-4.2-17.1-8.6-24-2.4-26-3.5-23.3-5-16.3-2.5 4.7-4.9-44.2-7.6-48.4-2.7-43 .2-37.7 3.3 1.8 1-5.9 1.5-9.1 2.3-7.8-.9-15.5-1.8-23.4-2.7-2.6-.7-5.1-1.4-7.7-2.1 19.2-1.5 11.3-5.1 11.7-8 43.7-.6 14.4-6 4.2-10.1 5.2-.3 10.5-.7 15.6-1 82.1-1.3 26.6-11-7.8-19.5-2.2-.6-2.3-1 .2-1.3 22.5 1 21.4 5.5 47.4 4.8 18.6-.5 47.9-1.4-3.4-6.5-10.3-1.1-20.7-2.3-32.2-3-2.2-1.3-8.3-2.7-21.3-4.1-.7-.2-1.5-.5-2.2-.7 24.8 1 31.5 4.1 50.9 5.7 10.5-5.5-.8-12.3-5.6-18.8 19.2-.4 8.8-2.8 4.4-4.8-2-.7-3.8-1.3-5.6-2-1.8-1.8-3.3-3.6-5.2-5.4 13-6 8.4-12.9-24.8-21.5 39.4-2.3-44.4-9.8-35.9-13.4-.7.1-1.4.3-2.1.4.4-.2 1.1-.3 2.1-.4-11.2-2.2-28.9-3.9-48.8-5.4 9-5.6-66.5-12.7-89.7-18.9-17.3-6.7-16.8-13-91.3-21.1-15.4-4.3-36-8.2-87.8-10-19.5.4-38.8.7-58.1 1.1-8.7-.9-18.2-1.8-25.5-2.7-98.8-12.6-113.2-13.2-156.7-6.6-17.9-2.4-35.9-4.8-53.7-7.3-13.9-2.7-30.3-5.2-56.8-7.4-79-10.4-171.6-15.5-222.1-12.2 1 .5 2.3 1.1 4.3 1.7-30-.6-55.1-.7-40.9 3.4-7 1.4-14 2.9-21.2 4.3-14.4 1.3-28.8 2.5-43.3 3.8-20.1-1.5-39.9-3-59.8-4.5h-1.8 1.6c-23.3-.7-46.3-1.3-69.7-2-13.7-.5-24.7-.7-9.1 1.4 5.9.8 18.2 1.3 27.5 1.9 1.9.6 3.4 1.2 4.4 1.8-2.4.6-4.8 1.1-7.1 1.7-19.1-.3-11.3 1.7-10.5 3.1-4.7 2.2-9.7 4.3-14.6 6.5-16.7.4-22.6 1.8-22.1 3.8-43.6 2.2-37.5 8.5-43.4 13.8-3.7 1.5-7.6 3-11.2 4.5-13.4.6-26.7 1.2-39.8 1.8-3.2-.4-6.4-.8-9.7-1.2 4.8-.7 11.4-1.3 11.7-2.3 12.6-4.6-45.2-5-65.7-7.2-18.8-2-27.7-1.8-33.3-1-14.3-.2-29.1-.1-42.7-.7-31.5-1.4-34.8-.1-31 1.8-13.5-.9-23.3-2.2-29.2-3.9 7.5-.8 15-1.6 22.6-2.4 19.1-.2 5.2-2.6.8-4.3h-.1c-6.2-2-9.3-4-35.3-6.2-1.3-.6-2.3-1.1-3.2-1.6 19.9-.8-8.5-3.4-18.6-5.4 32.2 1.1 55.4.6 73.4-.3 22.4-1.2 8.3-3.5-31.5-5.6-2-.6-4.1-1.2-6-1.8 65 3.7 92.1 2.1 99.5-2.2 10.3-.9 48 1.7 41.1-1.4 42 .4 84.6.8 6.6-7.4-31.1-4-67.4-6.5-104.5-8.8-21.3-1.9-42.5-3.7-63.8-5.6-20-2.9-40.1-5.2-49.9-2.7-3 .8-11.9 1.9 6.4 3.5 34.3 2.8 27.2-.8 43.7-.8 12.4 3.4 35.4 5.9 69.4 7.4 16.7 2.3 46 4.1 52 6.7-3.8.4-7.7.7-11.5 1.1-33.1-2.4-69.1-5.7-87.5-3.5-34.5-.8-67.3-3.3-98.8-7h-.3c-46.2-8-45-1.4-69.7-2.8-11.5.2-10.4 1.4-6 2.8-28.1 1.4-62.4 2.1-53.6 7.1-39.5-.5-44 2.4-41.1 6-5.9-.2-11.7-.5-17.7-.7-14.3-.5-26.4-.8-28.4.4-4.8 3.2-49.8 2.9-37.8 7.6-5.2-.2-10.7-.3-16.4-.6-17.3-2.2-34.5-4.4-51.7-6.6 20.9.4 50.6 1.3 31.2-2.2-14.6-2.6-28.5-1.1-43.2-1.5-15 1.6-8.6 4.6-6.2 7.4h-.1c-3.9.3-7.9.6-11.7.9-11.4-.4-23.1-.8-34.4-1.2-7.6-.8-15.2-1.7-22.7-2.5-35.8-6.3-33.2-.7-53.3-2.1-8.3-1.5-2.7-3.4-26.3-4.4-18.8-.8-11.9 1.5-8.6 3-50.2 2.1 33.7 7.5 51 11.2l1.3.2c-.4-.1-.9-.1-1.3-.2-40.6-1.6-81.2-3.2-122-4.8-5.6-.2-11.2-.5-16.9-.7 8.4-.9 17-1.7 25.4-2.6-7.5-.6-15.7-1.5-22.3-1.8-37.7-1.7-29.3 1-21.1 3.6-20 1.2-16 4.5-23.7 6.8 10.1.8 20.2 1.6 30.3 2.3 3.8.6 8.3 1.2 13.6 1.8 1.4.5 2.7.9 4.1 1.4-.4 0-.8 0-1.2-.1-22.1-.9-32.4-.1-41.3.9-6.2 2.8-43.9 3.2-18.6 8.5h.1c-4.1.3-7.9.7-11.9 1-.8 1.5-8.4 2.2-23.3 2.2 2.8.9 5.6 1.8 8.4 2.6-1.3.1-2.6.2-3.8.4-3.2.4-4.8.9-5 1.5l5.7 1.8c-38.1-.2-2.1 4 6.7 6.5 8.7 1.4 17.1 2.7 25.7 4h1.6c.3.1.7.2 1 .3-.9-.1-1.8-.2-2.6-.4-29.4-.1-108.6-11.2-97.6-2.4 19.3-.9 37.4 1.9 56.1 3.8 3.5 1 7 2.1 10.9 3.1-17.2-.3-27.7.1-23.5 2.1-3.1.3-6.2.6-9.4 1-90.4-7.8-164.3-16.3-221.8-24.5-1.7-.2-3.4-.5-5.1-.7-.3.2-.1.5.7.9-9.5.2-19.1.3-28.7.5-30.2-.6-55.4-3.6-81.2-6.3-1.1-1.6 38.7-.4-.2-4.7-38-4.2-16-5-4.6-6.4 11.7 0 17.6-.3 19.3-.9-5.3-1.3-10.1-2.5-14.4-3.8-3.1-.5-6.5-.9-10.2-1.4-13.2-3.3-41.9-7.5-64.1-6.6-20.9.8-1.8 5.6 28.9 9.8 12.6 3.2-9.9 3.6-12.8 5.6-19.5-1.1-39.2-2.2-61.7-3.4 75.2 10.8 68.4 12.8-28.1 11.5-24.2-.3-30.3 1.5-22 4.4-14.3-.5-26.4-.7-29.4.4-14.1-.5-26-.7-29.1.4-15.5-.1-9.5 3.4-38.5.8-72.6-6.4-83.8-3.2-96 0-9.9.1-19.7.3-29.5.4-26.8-1.4-45.6-1.3-64-1.1-27.3-4-12-5.7-10.8-8.1 15.7.3 43.3 2.3 37.8.2-5.9-2.2-21.8-2.2-29.9-1.7-4.5.3-6 .9-9 1.5-49.6-1.5-44.3 2.3-40.5 6-47.1-.6-69.3 1.8-94.2 4-10.1 1.6-20.5 3.3-30.7 4.9-13.1.5-26.4 1-39.4 1.6-38.3-1-57.5.1-47.4 4.2-30.8-.4-72.7-2.3-71.5 1.7-15.4 3-81.9.6-72.9 6.2-3.5.3-6.8.7-10 1-13 .6-26.1 1.2-38.9 1.9-12.1 1-24.5 2-36.6 3.1-9.4.2-18.7.3-28 .5-33.3-2.7-53.9-2.9-64.7-1.1-27.6.5-26 4.4-64.4 3.6-1.8 5.4-79 4.9-31.6 14.1 2.7.6 5.4 1.3 8 1.9-12.7 2.5-46.3 3.1-37.4 7.6H5304.6c-8-1-18.7-1.9-34.2-2.4-11.4.2-22.7.4-34 .6-5.1-.5-10.7-1-15-1.6-57.9-7.4-66.3-7.8-91.9-3.9-10.5-1.4-21-2.8-31.5-4.3-8.2-1.6-17.7-3.1-33.3-4.3-46.3-6.1-100.6-9.1-130.2-7.2.6.3 1.4.7 2.5 1-17.6-.4-32.3-.4-24 2-4.1.8-8.2 1.7-12.4 2.5-8.4.7-16.9 1.5-25.4 2.2-11.8-.9-23.4-1.8-35.1-2.6h-1 1c-13.6-.4-27.1-.7-40.8-1.2-8-.3-14.4-.4-5.3.8 3.4.4 10.7.7 16.1 1.1 1.1.4 2 .7 2.6 1-1.4.3-2.8.7-4.2 1-11.2-.2-6.6 1-6.2 1.8-2.8 1.3-5.7 2.5-8.5 3.8-9.8.2-13.3 1.1-13 2.2-23.4 1.2-22.4 4.4-24.7 7.3h-38.4c-9.4-.7-22.9-1.1-29.6-1.8-11-1.2-16.2-1.1-19.5-.6-8.4-.1-17.1-.1-25-.4-18.4-.8-20.4-.1-18.2 1.1-7.9-.5-13.7-1.3-17.1-2.3 4.4-.5 8.8-.9 13.3-1.4 11.2-.1 3.1-1.5.5-2.5-3.6-1.2-5.4-2.4-20.7-3.7-.8-.3-1.3-.6-1.9-1 11.6-.5-5-2-10.9-3.2 18.9.6 32.5.4 43-.2 13.1-.7 4.9-2-18.5-3.3-1.2-.4-2.4-.7-3.5-1.1 38.1 2.1 54 1.2 58.3-1.3 6-.5 28.1 1 24.1-.8 24.6.2 49.6.4 3.8-4.3-18.2-2.3-39.5-3.8-61.2-5.2-12.5-1.1-24.9-2.2-37.4-3.3-11.7-1.7-23.5-3-29.2-1.6-1.7.5-7 1.1 3.7 2 20.1 1.7 16-.4 25.6-.5 7.3 2 20.7 3.4 40.7 4.3 9.8 1.3 27 2.4 30.5 3.9-2.2.2-4.5.4-6.7.6-19.4-1.4-40.5-3.3-51.3-2.1-20.2-.5-39.4-1.9-57.9-4.1h-.1c-27.1-4.7-26.4-.8-40.8-1.6-6.8.1-6.1.8-3.5 1.7-16.5.8-36.6 1.2-31.4 4.2-23.1-.3-25.8 1.4-24.1 3.5-3.5-.1-6.8-.3-10.4-.4-8.4-.3-15.5-.5-16.7.3-2.8 1.9-29.2 1.7-22.1 4.4-3.1-.1-6.3-.2-9.6-.4-10.1-1.3-20.2-2.6-30.3-3.8 12.3.2 29.7.7 18.3-1.3-8.6-1.5-16.7-.6-25.3-.9-8.8.9-5 2.7-3.6 4.4l-6.9.6c-6.7-.2-13.5-.5-20.1-.7-4.4-.5-8.9-1-13.3-1.5-21-3.7-19.5-.4-31.3-1.2-4.9-.9-1.6-2-15.4-2.6-11-.5-7 .9-5 1.8-29.4 1.2 19.7 4.4 29.9 6.6l.8.1c-.3 0-.5-.1-.8-.1-23.8-.9-47.6-1.9-71.5-2.8-3.3-.1-6.6-.3-9.9-.4 4.9-.5 10-1 14.9-1.5-4.4-.4-9.2-.9-13-1.1-22.1-1-17.2.6-12.4 2.1-11.7.7-9.4 2.6-13.9 4 5.9.5 11.8.9 17.8 1.4 2.2.4 4.9.7 7.9 1.1.8.3 1.6.5 2.4.8h-.7c-13-.5-19 0-24.2.5-3.6 1.7-25.7 1.9-10.9 5-2.4.2-4.6.4-7 .6-.5.9-4.9 1.3-13.7 1.3 1.7.5 3.3 1 4.9 1.6-.8.1-1.5.1-2.2.2-1.9.2-2.8.5-3 .9 1.1.3 2.2.7 3.4 1-22.3-.1-1.2 2.3 3.9 3.8 2.2.4 4.5.7 6.7 1h-13.1c-19.1-1.6-40.2-3.7-35.7-.1 3.6-.2 7.1-.1 10.5.1H4081c-26.4-2.8-49.6-5.7-69.4-8.6-1-.1-2-.3-3-.4-.2.1 0 .3.4.6l-16.8.3c-17.7-.3-32.5-2.1-47.6-3.7-.7-1 22.7-.3-.1-2.8-22.3-2.4-9.4-2.9-2.7-3.7 6.9 0 10.3-.2 11.3-.5-3.1-.7-5.9-1.5-8.4-2.2-1.8-.3-3.8-.6-6-.8-7.8-1.9-24.5-4.4-37.6-3.9-12.3.5-1 3.3 16.9 5.7 7.4 1.9-5.8 2.1-7.5 3.3-11.5-.6-23-1.3-36.1-2 44.1 6.3 40.1 7.5-16.5 6.7-14.2-.2-17.7.9-12.9 2.6-8.4-.3-15.5-.4-17.2.2-8.3-.3-15.3-.4-17.1.2-9.1 0-5.6 2-22.6.5-42.6-3.7-49.1-1.9-56.2 0h-3.3c-8.5-1.2-18.6-2.5-30.7-3.8-15.4-4.3-36-8.2-87.8-10-19.5.4-38.8.7-58.1 1.1-8.7-.9-18.2-1.8-25.5-2.7-98.8-12.6-113.2-13.2-156.7-6.6-17.9-2.4-35.9-4.8-53.7-7.3-13.9-2.7-30.3-5.2-56.8-7.4-79-10.4-171.6-15.5-222.1-12.2 1 .5 2.3 1.1 4.3 1.7-30-.6-55.1-.7-40.9 3.4-7 1.4-14 2.9-21.2 4.3-14.4 1.3-28.8 2.5-43.3 3.8-20.1-1.5-39.9-3-59.8-4.5h-1.8 1.6c-23.3-.7-46.3-1.3-69.7-2-13.7-.5-24.7-.7-9.1 1.4 5.9.8 18.2 1.3 27.5 1.9 1.9.6 3.4 1.2 4.4 1.8-2.4.6-4.8 1.1-7.1 1.7-19.1-.3-11.3 1.7-10.5 3.1-4.7 2.2-9.7 4.3-14.6 6.5-16.7.4-22.6 1.8-22.1 3.8-43.6 2.2-37.5 8.5-43.4 13.8-3.7 1.5-7.6 3-11.2 4.5-13.4.6-26.7 1.2-39.8 1.8-3.2-.4-6.4-.8-9.7-1.2 4.8-.7 11.4-1.3 11.7-2.3 12.6-4.6-45.2-5-65.7-7.2-18.8-2-27.7-1.8-33.3-1-14.3-.2-29.1-.1-42.7-.7-31.5-1.4-34.8-.1-31 1.8-13.5-.9-23.3-2.2-29.2-3.9 7.5-.8 15-1.6 22.6-2.4 19.1-.2 5.2-2.6.8-4.3h-.1c-6.2-2-9.3-4-35.3-6.2-1.3-.6-2.3-1.1-3.2-1.6 19.9-.8-8.5-3.4-18.6-5.4 32.2 1.1 55.4.6 73.4-.3 22.4-1.2 8.3-3.5-31.5-5.6-2-.6-4.1-1.2-6-1.8 65 3.7 92.1 2.1 99.5-2.2 10.3-.9 48 1.7 41.1-1.4 42 .4 84.6.8 6.6-7.4-31.1-4-67.4-6.5-104.5-8.8-21.3-1.9-42.5-3.7-63.8-5.6-20-2.9-40.1-5.2-49.9-2.7-3 .8-11.9 1.9 6.4 3.5 34.3 2.8 27.2-.8 43.7-.8 12.4 3.4 35.4 5.9 69.4 7.4 16.7 2.3 46 4.1 52 6.7-3.8.4-7.7.7-11.5 1.1-33.1-2.4-69.1-5.7-87.5-3.5-34.5-.8-67.3-3.3-98.8-7h-.3c-46.2-8-45-1.4-69.7-2.8-11.5.2-10.4 1.4-6 2.8-28.1 1.4-62.4 2.1-53.6 7.1-39.5-.5-44 2.4-41.1 6-5.9-.2-11.7-.5-17.7-.7-14.3-.5-26.4-.8-28.4.4-4.8 3.2-49.8 2.9-37.8 7.6-5.2-.2-10.7-.3-16.4-.6-17.3-2.2-34.5-4.4-51.7-6.6 20.9.4 50.6 1.3 31.2-2.2-14.6-2.6-28.5-1.1-43.2-1.5-15 1.6-8.6 4.6-6.2 7.4h-.1c-3.9.3-7.9.6-11.7 1-11.4-.4-23.1-.8-34.4-1.2-7.6-.8-15.2-1.7-22.7-2.5-35.8-6.3-33.2-.7-53.3-2.1-8.3-1.5-2.7-3.4-26.3-4.4-18.8-.8-11.9 1.5-8.6 3-50.2 2.1 33.7 7.5 51 11.2l1.3.2c-.4-.1-.9-.1-1.3-.2-40.6-1.6-81.2-3.2-122-4.8-5.6-.2-11.2-.5-16.9-.7 8.4-.9 17-1.7 25.4-2.6-7.5-.6-15.7-1.5-22.3-1.8-37.7-1.7-29.3 1-21.1 3.6-20 1.2-16 4.5-23.7 6.8 10.1.8 20.2 1.6 30.3 2.3 3.8.6 8.3 1.2 13.6 1.8 1.4.5 2.7.9 4.1 1.4-.4 0-.8 0-1.2-.1-22.1-.9-32.4-.1-41.3.9-6.2 2.8-43.9 3.2-18.6 8.5h.1c-4.1.3-7.9.7-11.9 1-.8 1.5-8.4 2.2-23.3 2.2 2.8.9 5.6 1.8 8.4 2.6-1.3.1-2.6.2-3.8.4-3.2.4-4.8.9-5 1.5l5.7 1.8c-38.1-.2-2.1 4 6.7 6.5 8.7 1.4 17.1 2.7 25.7 4h1.6c.3.1.7.2 1 .3-.9-.1-1.8-.2-2.6-.4-29.4-.1-108.6-11.2-97.6-2.4 19.3-.9 37.4 1.9 56.1 3.8 3.5 1 7 2.1 10.9 3.1-17.2-.3-27.7.1-23.5 2.1-3.1.3-6.2.6-9.4 1-90.4-7.8-164.3-16.3-221.8-24.5-1.7-.2-3.4-.5-5.1-.7-.3.2-.1.5.7.9-9.5.2-19.1.3-28.7.5-30.2-.6-55.4-3.6-81.2-6.3-1.1-1.6 38.7-.4-.2-4.7-38-4.2-16-5-4.6-6.4 11.7 0 17.6-.3 19.3-.9-5.3-1.3-10.1-2.5-14.4-3.8-3.1-.5-6.5-.9-10.2-1.4-13.2-3.3-41.9-7.5-64.1-6.6-20.9.8-1.8 5.6 28.9 9.8 12.6 3.2-9.9 3.6-12.8 5.6-19.5-1.1-39.2-2.2-61.7-3.4 75.2 10.8 68.4 12.8-28.1 11.5-24.2-.3-30.3 1.5-22 4.4-14.3-.5-26.4-.7-29.4.4-14.1-.5-26-.7-29.1.4-15.5-.1-9.5 3.4-38.5.8-72.6-6.4-83.8-3.2-96 0-9.9.1-19.7.3-29.5.4-26.8-1.4-45.6-1.3-64-1.1-27.3-4-12-5.7-10.8-8.1 15.6.3 43.3 2.3 37.8.2-5.9-2.2-21.8-2.2-29.9-1.7-4.5.3-6 .9-9 1.5-49.6-1.5-44.3 2.3-40.5 6-47.1-.6-69.3 1.8-94.2 4-10.1 1.6-20.5 3.3-30.7 4.9-13.1.5-26.4 1-39.4 1.6-38.3-1-57.5.1-47.4 4.2-30.8-.4-72.7-2.3-71.5 1.7-15.4 3-81.9.6-72.9 6.2-3.5.3-6.8.7-10 1-13 .6-26.1 1.2-38.9 1.9-12.1 1-24.5 2-36.6 3.1-9.4.2-18.7.3-28 .5-33.3-2.7-53.9-2.9-64.7-1.1-27.6.5-26 4.4-64.4 3.6-1.8 5.4-79 4.9-31.6 14.1 2.7.6 5.4 1.3 7.9 1.9-12.8 2.5-46.9 3.2-37.2 7.7.5 1.1-8.9 2 10.4 3.8 26 2.3 26.4.5 30.3-.5h.4c16.7.2 33.3.4 50.1.6-2.2 1.3-4.3 2.6-6.5 4-28.3 0-18.5 3.5-30.7 4.9-8.4 2.9-44.8 4.7 37.6 11.1 11.4 1.9 22.7 3.9 34.1 5.8 9.6-.1 19.2-.2 28.9-.4 7.8.8 16 1.6 24 2.4 5.2 1.8 10.3 3.5 15.5 5.3l-.5-.4 5 .2c0 .2.1.3.3.5l-4.8-.3c-5.7.2-8 .5-8.4 1-16.4-.9-26.4-.5-28.6.9-2.9 1.8 16.5 2.2 28.6 2.9 1.1.5 2 1.1 2.8 1.6-40.4-.5-38.6 3-39.9 6.2 1.4.5 2 1 1.9 1.5-33.1-1.3-10.3 6.2-72.7.3-37.6-.6-38.6 2.6-43.5 5.1-8.3 4.5-27.1 8.2-17.2 14-3.6.4-7.2.8-10.9 1.2-35.4-1.3-50.2-.1-49.4 2.9 3.6 1.1 7.4 2.2 11.1 3.4 6.9 2.3 14.2 4.6 21.4 6.9-2.7.2-3.3.5-1.8.9-18.5.9-13.5 3.6-10.9 6.1-5.4 1.3-11.2 2.7-16.7 4-5.1-.2-10-.4-15.1-.6-19.3-1.2-44.3-4.2-52.3-2-33.9-1.4-30.1 1.4-35.9 3 .9 2.6 10.2 5.5 27.7 8.8-2.6.5-5.2.9-8.2 1.4-33.5-2.8-28.9-5.3-50.3-8.7-15.2 3 16.8 8.5 12.7 11.7 17 5.3 33.8 10.5 51 15.8 22.6 7 45.7 14 68.2 20.9 9.4 2.9 16.6 5.8 55.9 8.5 8.4-.6 16.7-1.3 25.1-1.9 6.1.2 12.1.4 18.3.6 8.9 1.4 17.7 2.8 26.4 4.2 6.1 4.3 51.2 10.5 32.7 13.7-12.9 4.5 5.3 10.3 55 17.3h-.2c26.7 6.9 19.2 12.9 96.7 21 35.6 6.6-6.2 9.9 53.2 17.5 10.2 4.5 51.1 10.3 45.5 14.2-17.4 1.2-12.5 3.7 12.7 7.2 31.4 5.1-16.2 5.8 17.2 11 3.2 5.7-1.4 11 19.8 17.8h-.1c.1 0 .2.1.3.1 1.1.4 2.4.7 3.8 1.1 14.8 5-10.6 7.8 20.2 13.6-29.6 3.7-1 11 12.8 17.4 2.2 3.1-7.5 5.5 15.7 9.7 3.3 2.7 6.5 5.4 10 8.1 3.6 5.8 7.3 11.6 11 17.4 10.6 5 6 9.3 32.2 15.1.2 1.6.5 3.3.7 4.9-9.4 2.4-16.5 5 15.4 9.7-10.8 2.4 5.3 6.2 15.9 9.7-9.6 1.5-33.8 2.1 5.3 6.5 1.4 3.6 2.8 7.3 4.2 10.9-21.1 1.8 7.6 5.4 29.6 8.9-17.4 1-4.9 3.6 14.2 7.5 1.4-2.7 2.4-4.7 3.4-6.6.1 0 .2-.1.1-.1 24.6 2.1 27.6 4 34.6 6 11.3 2 22.7 4 34 6-3.9.3-7.7.7-11.4 1.1 5.6 1.3 27.1 3.2 10.9 3.5h-.1c-15.8.5-5 2.7-1.2 4.5-32.1.8-22.6 3.8 18.4 7.9 22.2 2.2 24.4 3.2 22.5 4.5 15.4 2.3-2.3 4.5 42.1 6.9 44 2.4 38.1-.2 32.3-3.1-2-.9 4.7-1.4 7.2-2.1 6.9.8 13.7 1.5 20.6 2.3-1.3 3.1-2.6 6.3-3.6 9.4-24.9.7-13 3.9-2.1 7-.2.9-.5 1.8-.7 2.7-1.9.1-3.8.3-5.7.4-64.9 1.1-29.2 8.4 3.2 15.4-.1.9-.2 1.7-.2 2.6-10.3-1.5-14.9-3.8-32.3-3.3-16.3.5-42 1.3 5.4 6 8.6.9 17.3 1.8 26.7 2.5 0 .7 0 1.5-.1 2.2-6.7-1-12.8-2-21.5-2.8-7.3 5 5.4 11.3 12 17.2-16.9.4-6.8 2.6-2.1 4.4 2.1.6 3.8 1.2 5.7 1.8 2.3 1.6 4.3 3.3 6.7 4.9-6 3.5-5.3 7.4 4.7 11.8 1.7 6.3 3.7 12.5 6.1 18.8 30.4.8 37.2-.9 43.8-2.6 8.3 1.4 14.4 2.8 12.4 3.8.6-.1 1.2-.3 1.7-.4-.3.2-.9.3-1.7.4 10.8 2 27.1 3.5 45.3 4.9-5.9 5.1 63.8 11.6 86.8 17.2 17.9 6.1 19.7 11.9 89 19.2 15.3 3.9 35.1 7.5 81.8 9 11.8-.2 23.4-.5 35-.7-1 1.5-2.5 3-12.4 3.6-1.1 0-2.2.1-3.3.2-14.7 0-23.4.6-29.2 1.4 34.9-.2 70.4-.4 106.3-.5 15.1 1.8 27.6 3.3 38.3 4.4-5.6.2-11.4.4-17.9.5-24-1.5-62.9-5.6-60.8-2 1.2 2.1 35.5 3.5 58 4.5 24.3 1.1 54.9 4 66.1 1.9 5.3 0 10.8.1 16.9.3 3.6 1.2 7.3 2.5 11.2 3.7h-.1c-18.9.7-34.5 2-16.6 5.3 28.4 5.3 26.8 1.6 35.5 1l51.3.3c45.5 3.9 5.7 4.3 15.7 7 40.5.8 49.7-1.1 43.9-4.6 12.4 0 24.9.1 37.3.1 8.5.8 16.9 1.5 25.2 2.1v5c-2.5 0-5 .1-7.5.1-20.4 2.1-1.4 6.7-7.6 10.5 5.6.1 10.7.2 15.1.2v20.5h255.3c-.1 1 6.2 2.4 8.7 3.5h.1c6 2.2 8.6 4.4 36.9 6.9 1.2.6 2.1 1.2 2.8 1.8-22.7.9 8 3.8 18.5 5.9-35.7-1.2-62-.8-82.7.2-25.7 1.2-10.9 3.8 32.8 6.2 2 .7 4.1 1.3 6 2-71.4-4.1-102.6-2.4-113 2.3-12 1-53.2-1.9-46.9 1.5-47.1-.4-94.8-.9-10.8 8.1 33.1 4.4 72.8 7.2 113.5 9.7 23.1 2.1 46.1 4.1 69.2 6.2 21.2 3.1 42.8 5.7 54.9 3 3.7-.9 14.3-2.1-5.6-3.8-37.3-3.1-31 .8-49.5.8-12.4-3.8-37.1-6.5-74.7-8.1-17.7-2.5-49.9-4.5-55.4-7.4 4.4-.4 9-.8 13.4-1.2 36.2 2.7 75.1 6.3 96.8 3.9 38.4 1 74.2 3.6 108 7.8h.3c48.3 8.8 49.9 1.6 77.1 3.1 13.1-.2 12.4-1.5 8-3.1 32.3-1.5 71.2-2.2 63.5-7.7 44.2.6 50.6-2.6 49-6.5 6.6.3 12.9.5 19.6.8 15.8.6 29.4.9 32.2-.5 6.9-3.5 57.3-3.1 46-8.2 5.8.2 11.9.4 18.2.7 18.5 2.4 36.8 4.8 55.1 7.2h-.1c-23.4-.5-56.3-1.4-36.1 2.3 15.2 2.9 31.6 1.2 48 1.7 17.5-1.7 11.8-5.1 10.4-8.1h.1c4.5-.3 9.1-.7 13.6-1 12.6.4 25.6.9 38.1 1.4 8.1.9 16.3 1.8 24.4 2.7 37.4 7 37 .8 59 2.4 8.7 1.7 1.5 3.7 27.6 4.8 20.8.9 14.1-1.6 11-3.3 57.4-2.2-34.5-8.2-52.2-12.3l-1.4-.2c.5.1.9.1 1.4.2 44.9 1.8 89.9 3.6 135 5.4 6.2.3 12.4.5 18.7.8-9.8.9-19.9 1.8-29.7 2.8 8.1.7 17 1.7 24.2 2 41.7 1.9 33.4-1.1 25.4-4 23-1.3 20.1-4.9 29.8-7.4-11-.9-22-1.7-33-2.6-4-.7-8.8-1.4-14.4-2-1.3-.5-2.6-1-4-1.5.4 0 .9.1 1.3.1 24.5 1 36.4.1 46.9-.9 8.3-3.1 50.8-3.4 24.8-9.2h-.1c4.7-.4 9.2-.7 13.9-1.1 1.6-1.6 10.5-2.4 27.3-2.4-2.8-1-5.5-1.9-8.2-2.9 1.6-.1 3-.3 4.5-.4 3.8-.4 5.9-1 6.4-1.7-.7-.2-1.4-.5-2.1-.7H3155c15 2 29.1 4 42.4 6 1.8.3 3.6.5 5.4.8.4-.3.3-.6-.3-1 10.8-.2 21.6-.3 32.5-.5 33.7.7 60.6 4 88.4 7 .5 1.8-43.7.4-2 5.2 40.8 4.6 15.7 5.5 2.3 7-13.2 0-20 .3-22.1 1 5.4 1.4 10.2 2.8 14.4 4.1 3.2.5 6.9 1 10.8 1.6 13.4 3.6 43.7 8.2 69.1 7.3 23.9-.9 4.5-6.1-28.1-10.7-12.7-3.5 12.8-4 17-6.1 21.5 1.2 43.1 2.4 67.8 3.8-79.6-11.9-71.1-14 36.9-12.5 27.1.4 34.8-1.6 26.7-4.7 15.9.6 29.3.8 33.3-.4 15.7.6 29 .8 32.9-.4 17.5.1 12.2-3.7 43.7-.8 78.8 7 92.8 3.6 107.9.2 11.2-.1 22.3-.3 33.4-.4 29.5 1.6 50.7 1.5 71.5 1.2 28.8 4.4 10.9 6.2 8.4 8.8-17.4-.4-47.6-2.6-42.4-.2 5.6 2.5 23.5 2.4 32.9 1.9 5.2-.3 7.1-1 10.8-1.6 55.1 1.7 50.9-2.5 48.3-6.5 52.7.7 78.8-1.9 107.8-4.2 12.2-1.8 24.5-3.6 36.8-5.3 3.6-.1 7.3-.3 10.9-.4h4675.8c-7.2 1.4 9.3 3.3 43.8 5.2 2 .7 4.1 1.3 6 2-71.4-4.1-102.6-2.4-113 2.3-12 1-53.2-1.9-46.9 1.5-47.1-.4-94.8-.9-10.8 8.1 33.1 4.4 72.8 7.2 113.5 9.7 23.1 2.1 46.1 4.1 69.2 6.2 21.2 3.1 42.8 5.7 54.9 3 3.7-.9 14.3-2.1-5.6-3.8-37.3-3.1-31 .8-49.5.8-12.4-3.7-37.1-6.5-74.7-8.1-17.7-2.5-49.9-4.5-55.4-7.4 4.4-.4 9-.8 13.4-1.2 36.2 2.7 75.1 6.3 96.8 3.9 38.4 1 74.2 3.6 108 7.8h.3c48.3 8.8 49.9 1.6 77.1 3.1 13.1-.2 12.4-1.5 8-3.1 32.3-1.5 71.2-2.2 63.5-7.7 44.2.5 50.6-2.6 49-6.5 6.6.3 12.9.5 19.6.8 15.8.6 29.4.9 32.2-.5 6.9-3.5 57.3-3.1 46-8.2 5.8.2 11.9.4 18.2.7 18.5 2.4 36.8 4.8 55.1 7.2h-.1c-23.4-.5-56.3-1.4-36.1 2.3 15.2 2.9 31.6 1.2 48 1.7 17.5-1.7 11.8-5.1 10.4-8.1h.1c4.5-.3 9.1-.7 13.6-1 12.6.4 25.6.9 38.1 1.4 8.1.9 16.3 1.8 24.4 2.7 37.4 7 37 .8 59 2.4 8.7 1.7 1.5 3.7 27.6 4.8 20.8.9 14.1-1.6 11-3.3 57.4-2.2-34.5-8.2-52.2-12.3l-1.4-.2c.5.1.9.1 1.4.2 44.9 1.8 89.9 3.6 135 5.4 6.2.3 12.4.5 18.7.8-9.8.9-19.9 1.8-29.7 2.8 8.1.7 17 1.7 24.2 2 41.7 1.9 33.4-1.1 25.4-4 23-1.3 20.1-4.9 29.8-7.4-11-.9-22-1.7-33-2.6-4-.7-8.8-1.4-14.4-2-1.3-.5-2.6-1-4-1.5.4 0 .9.1 1.3.1 24.5 1 36.4.1 46.9-.9 8.3-3.1 50.8-3.4 24.8-9.2h-.1c4.7-.4 9.2-.7 13.9-1.1 1.6-1.6 10.5-2.4 27.3-2.4-2.8-1-5.5-1.9-8.2-2.9 1.6-.1 3-.3 4.5-.4 3.8-.4 5.9-1 6.4-1.7-1.8-.6-3.7-1.3-5.6-1.9 42.8.3 4.1-4.3-4.5-7.1-9.1-1.5-18-3-27.1-4.4h-1.8c-.3-.1-.6-.2-1-.4.9.1 1.9.3 2.8.4 33 .1 117.1 12.3 108.7 2.7-22.1 1-41.2-2.1-61.4-4.2-3.5-1.1-6.9-2.3-10.8-3.4 19.3.3 31.3-.1 27.4-2.3 3.6-.3 7.3-.7 11-1 98.1 8.6 177.3 18 238.2 27.1 1.8.3 3.6.5 5.4.8.4-.3.3-.6-.3-1 10.8-.2 21.6-.3 32.5-.5 33.7.7 60.6 4 88.4 7 .5 1.8-43.7.4-2 5.2 40.8 4.6 15.7 5.5 2.3 7-13.1 0-20 .3-22.1 1 5.4 1.4 10.2 2.8 14.4 4.1 3.2.5 6.9 1 10.8 1.6 13.4 3.6 43.7 8.2 69.1 7.3 23.9-.9 4.5-6.1-28.1-10.7-12.7-3.5 12.8-4 17-6.1 21.5 1.2 43.1 2.4 67.8 3.8-79.6-11.9-71.1-14 36.9-12.5 27.1.4 34.8-1.6 26.7-4.7 15.9.6 29.3.8 33.3-.4 15.7.6 29 .8 32.9-.4 17.5.1 12.2-3.7 43.7-.8 78.8 7 92.8 3.6 107.9.1 11.2-.1 22.3-.3 33.4-.4 29.5 1.6 50.7 1.5 71.5 1.2 28.8 4.4 10.9 6.2 8.4 8.8-17.4-.4-47.6-2.6-42.4-.2 5.6 2.5 23.5 2.4 32.9 1.9 5.2-.3 7.1-1 10.8-1.6 55.1 1.7 50.9-2.5 48.3-6.5 52.7.7 78.8-1.9 107.8-4.2 12.2-1.8 24.5-3.6 36.8-5.3 15-.5 30.1-1.1 45-1.7 42.6 1.1 64.7 0 55.3-4.5 34.5.4 80.8 2.6 81.2-1.8 18.7-3.3 92.5-.5 84.8-6.7 4.1-.4 8-.7 11.7-1.1 15-.7 29.9-1.3 44.6-2 14.1-1.1 28.5-2.2 42.6-3.3 10.6-.2 21.2-.3 31.8-.5 36.3 3 59.3 3.2 72.2 1.3 31.3-.5 31.3-4.8 74.1-3.9 4.5-5.9 91.1-5.2 42-15.4-2.8-.7-5.5-1.4-8.1-2.1 15.5-2.7 54.2-3.4 45.4-8.4-.1-1.3 10.9-2.2-10-4.1-28.1-2.6-29.4-.6-34.3.6h-.5c-18.8-.2-37.3-.4-56.1-.7 3-1.4 6-2.9 9.1-4.3 31.9.1 22.4-3.8 36.8-5.4 10.7-3.2 52.6-5.1-37.2-12.2-11.9-2.1-23.8-4.3-35.6-6.4-10.9.1-21.7.2-32.7.4-8.5-.9-17.2-1.8-25.9-2.7-5-1.9-10-3.9-15-5.8l.3.5-5.5-.2c0-.2 0-.4-.1-.6 1.7.1 3.5.2 5.2.3 6.5-.2 9.3-.6 9.9-1.1 18.1 1 29.5.6 32.6-.9 4.1-1.9-17.6-2.4-30.8-3.2-1-.6-1.7-1.2-2.4-1.7 45.2.6 44.8-3.2 47.7-6.7-1.3-.6-1.8-1.1-1.4-1.6 36.7 1.5 14.4-6.8 81.9-.2 42 .7 44.6-2.8 51.3-5.5 11.3-4.9 34.2-8.9 25.8-15.2 4.2-.4 8.5-.9 12.8-1.3 39.3 1.4 56.5.2 56.9-3.1-3.5-1.2-7.3-2.4-11-3.7-6.8-2.5-13.8-5-20.9-7.5 3.2-.2 4-.5 2.5-1 21.3-1 16.8-3.9 15.1-6.7 6.7-1.5 13.8-2.9 20.6-4.4 5.7.2 11.1.4 16.7.6 21.1 1.4 47.9 4.6 57.9 2.3 37.5 1.5 34.5-1.4 41.8-3.3.2-2.8-9-6.1-27.1-9.7 3.2-.5 6.3-1 9.8-1.5 36.4 3.1 30.1 5.8 52.5 9.6 18.1-3.6-15.4-9.6-9.3-13.1M4445.4 87.9h-1 .2-.4.2c-.1 0-.1 0-.2-.1.4.1.8.1 1.2.1m-193 1c.9.1 1.6.3 2.2.5-.9 0-1.8-.1-2.6-.1.1-.2.3-.3.4-.4m-3924.8 36l.9.1c-1.1.2-2.4.4-3.7.5 1.2-.2 2.5-.4 3.7-.5-3.9-.2-7.4-.3-10.4-.3-2.1-.2-4.2-.5-6.5-.7-12.3-1-23.3-1.5-33.5-1.6-1.1 0-2.1 0-3 .1-6.6-1.5-13.9-2.8-27.5-3.7.2-1.3-.6-2.7-9.9-4.6 13.7 1.6 28.3 3 45.2 3.8.6 0 1.2 0 1.8.1 15.6 1.4 31.3 1.9 47.1 2.6 2.1 1 4.5 2 6.6 3-3.6.3-7.2.7-10.8 1.2m-211.5 103c-.3 0-.6-.1-.8-.1l.7.1c-1-.1-1.9-.2-2.8-.2h4.7c-.6.1-1.2.2-1.9.2h.1m64 8.8c-.7-.1-1.3-.2-2-.3 1 0 2 .1 3 .1-.3 0-.7.1-1 .2m235.2 39.7c-.2-.1.9-.2 2.5-.2-.9.1-1.8.2-2.5.2m104.5-31.3c-7.8-.9-12.9-1.6-15.9-2.1 5.8.4 11.6 1.1 17.5 2.2-.5 0-1.1-.1-1.6-.1m20.3-24.1c-2.5-.6-4.8-1.2-6.6-1.8 4.4.8 8.4 1.5 6.6 1.8m153.8 143.6c.8.1 1.6.1 2.4.2.4 0 .8.1 1.2.1.4 0 .8 0 1.2.1 4.5.4 8.8.7 12.9 1-5.9-.4-11.8-.8-17.7-1.4m57.2-90l-1.8-.3c1.7-.5 3.1-1 4-1.5 6.8 1 12.6 1.8 18.2 2.5-6.6-.1-13.4-.4-20.4-.7m51.1-178.4c-.8-.1-1.7-.2-2.6-.3 1 .1 2 .1 3 .2-.1 0-.2 0-.4.1M815 326.6c-.3-.1-.5-.1-.8-.2h.1c.6 0 1.3.1 1.9.1-.3 0-.9 0-1.2.1m8.6 187.5c1.1 0 2.2 0 3.3.1.3 0 .6.1.9.1-1.5-.1-2.9-.1-4.2-.2m21.3-21.8c1.1 0 2-.1 3-.1.4.2.9.3 1.3.5-1.4-.2-2.8-.3-4.3-.4m26.1-34.5c-.5-.1-.9-.1-1.5-.2l1.8.1c-.1 0-.2.1-.3.1M919.7 316h5.7c-.1.1.4.2.5.3-2-.1-4-.2-6.2-.3m94.5-64.7c1.1 0 2.2.1 3.3.1.2.1.4.3.6.4-1.5-.1-2.4-.3-3.9-.5m15.6 161.5c4.3.1 7.8.1 10.7.1.6.2 1.1.5 1.6.7-3.9-.3-7.8-.6-12.3-.8m92.5 254.2c-5.9-1-13.9-2-23.6-3 2.5-.1 4.5-.2 6.2-.4 5.9 1.1 11.4 2.4 17.4 3.4m17.6-573.9c.5 0 .9-.1 1.3-.1.3.1.7.2 1 .4-.7-.2-1.5-.2-2.3-.3m85.6 252.8h1.8c.2.1.2.1.5.2-.8 0-1.6-.1-2.3-.2m121-124.1c-.7-.1-1.5-.2-2.2-.3 1.2.1 2.4.2 3.7.3h-1.5m228.6 507.4c-.5 0-1 .1-1.5.1.8-.1 1.6-.3 2.4-.4-.4.1-.6.2-.9.3m53-486.7c-.9-.2-1.7-.4-3-.5-1.1-.1-1.6-.2-2.3-.2-.2-.1-.2-.1-.5-.2 4.3.3 8.2.5 11.4.7-2.3 0-3.8.1-5.6.2m733.1 557.9c-.8-.1-1.5-.1-2.3-.2.7 0 1.3.1 2 .1l-.4-.1h.7-.3c.1.1.2.1.3.2m368.9-1.5c-1.6-.3-2.8-.5-3.8-.8 1.7.1 3.3.1 5 .2-.5.2-.9.4-1.2.6M8940.4 41.1c-.6 0-1.2 0-1.8-.1h.4-.7.3c-.1 0-.2-.1-.3-.1.7 0 1.4.1 2.1.2M8791.8 95c-.4 0-.8.1-1.2.1-1-.1-2-.2-2.9-.2 1.3 0 2.7.1 4.1.1M8615 82c-1.3-.1-2.5-.2-3.7-.3 1.3.1 2.5.1 3.7.3.1-.1 0-.1 0 0m-3.9-39.4c1.5.2 2.7.5 3.7.8-1.5-.1-3-.1-4.5-.2.4-.2.6-.4.8-.6m-731.5 31.1c.3.1.7.2 1 .4-.8-.1-1.6-.1-2.4-.2.6-.1 1-.2 1.4-.2m-338.7 3.1c-.1 0-.3.1-.4.1-.8-.1-1.7-.2-2.6-.3 1.1.1 2.1.2 3 .2m-555 22.7c.2-1.3-.6-2.7-9.9-4.6 13.7 1.6 28.3 3 45.2 3.8.6 0 1.2 0 1.8.1 14.7 1.3 29.4 1.8 44.3 2.4h-63.9c-4.6-.7-10.2-1.3-17.5-1.7M2202.1 60.3c-.6 0-1.2 0-1.8-.1h.4-.7.3c-.1 0-.2-.1-.3-.1.7.1 1.4.2 2.1.2m-325.4 40.9c-1.3-.1-2.5-.2-3.7-.3 1.3.1 2.5.2 3.7.3m-3.9-39.3c1.5.2 2.7.5 3.7.8-1.5-.1-3-.1-4.5-.2.3-.2.6-.4.8-.6m7743.5 574.5c-1.2 1-8.6 1.1-18.3.7 4-.5 7.6-1.2 11.8-2.4 4.7.5 7.3 1.1 6.5 1.7m203.8-53.5c2.7-.1 4.5-.2 6.5-.3 1 .2 1.7.4 3.1.6 1.2.1 1.7.2 2.4.3.2.1.1.1.5.2-4.7-.3-9-.6-12.5-.8m161-119.6c-.2-.1-.9-.2-1.1-.3 1.5.2 2.4.2 3.8.4-.9-.1-1.8-.1-2.7-.1m151.2 142.3h1.6c.8.1 1.6.2 2.4.4-1.4-.2-2.7-.3-4-.4m15.5-240.2c-.4-.3-1.1-.7-1.5-1 1.4.3 3.2.7 3.8 1-.7-.1-1.5 0-2.3 0m133.5-29.2c-.5-.2-1.3-.4-2.2-.7 2.7.2 5.4.5 8.2.7h-6m24.3 410.3c-.3-.1-.6-.3-1-.4.9.1 1.7.2 2.5.2-.5.1-1 .2-1.5.2m19.4-276.4c-.2-.1-.1-.1-.4-.2.8.1 1.7.1 2.4.2-.8-.1-1.5 0-2 0m16.7-213.7c1.2 0 2-.1 2.9-.1 1.2.2 2 .3 3.1.5-2.1-.1-3.8-.2-6-.4m2.1-152.7c-.1-.1-.1-.1 0 0 .2-.1.6-.3.9-.4 1.6.1 3.1.3 4.6.4h-5.5m72.9 108.7c.5 0 1 0 1.5-.1 1.4.1 2.7.2 4 .3-1.8-.1-3.6-.1-5.5-.2m4-34c-.4-.2-.6-.4-.8-.6 3.8.3 6.8.7 9.3 1-2.7-.1-5.4-.3-8.5-.4m96.9 395.1l-.5-.5c1.6.2 2.6.4 4.1.6-1.2.1-2.4 0-3.6-.1m5-453.7c-.4-.1-.7-.2-1.1-.3h3.3c.6.1 1.3.1 1.9.2-1.3 0-2.7.1-4.1.1m43.3 277.4c-.6-.3-1-.5-1.5-.8 4.3.3 8.5.6 13.5.9-4.9-.1-8.8-.2-12-.1m42.7-255.4c-.1 0-.2-.1-.3-.1l-4.2-.3c.3 0 .5 0 .8-.1 1.1.1 2.3.3 3.4.4.4 0 .9.1 1.3.1h-1m-6.4-17.2c-5.5-1.2-11-2.3-23.3-3.1 6.5-.4 9.7-1.2 11.6-2.1 6.2 1.1 14.8 2.1 25.2 3.3-8.3.2-12.6.9-13.5 1.9m48.7 378.5c.1-.1-.4-.2-.4-.3 2.2.1 4.4.2 6.8.3h-6.4m37.1 240.4c.2 0 .3-.1.5-.1.9.1 1.9.2 2.8.3-1.1-.1-2.2-.1-3.3-.2m89.2-395.3c.5.1 1 .1 1.6.2-.7 0-1.3 0-2-.1.1 0 .2 0 .4-.1m3.3 143.7c-.7 0-1.5-.1-2.1-.2.4 0 1.2 0 1.5-.1.3.1.5.1.8.2l-.2.1zm41.8-181.3c-1.2 0-2.3.1-3.4.2l-1.2-.6c1.5.2 3 .3 4.6.4m2.5 239.8c-7.1-1.1-13.3-2-19.3-2.7 7.3.3 14.8.5 22.6.8.6.1 1.3.2 1.9.3-2.2.5-3.9 1.1-5.2 1.6m27.8-263.7c-.4 0-.6-.1-1-.1 1.7.1 3.3.1 4.7.2-1.2 0-2.4-.1-3.7-.1m78.4 163.4c-.4 0-.8-.1-1.2-.1-.4 0-.9-.1-1.3-.1-4.8-.4-9.5-.8-14-1.2 6.4.4 12.8 1 19.2 1.6-1-.1-1.8-.2-2.7-.2m109.7 157.2c2.5.7 4.8 1.3 6.6 1.9-4.6-.7-8.7-1.5-6.6-1.9m32.2-26.3h1.7c8.4 1 13.8 1.7 16.9 2.4-6.2-.5-12.5-1.3-18.6-2.4m161.8 131.6c1.3-.2 2.8-.4 4.4-.6-1.5.2-2.9.4-4.4.6 4.3.2 8.2.3 11.6.4 2.2.3 4.5.5 7 .8 13.4 1.1 25.6 1.6 37 1.8 1.2 0 2.4 0 3.4-.1 6.7 1.6 14.4 3.1 29.2 4-.8 1.5-.6 3 9 5-14.7-1.8-30.5-3.3-49.1-4.2-.7 0-1.3 0-1.9-.1-16.9-1.6-34.4-2.1-51.8-2.9-1.9-1.1-4.1-2.2-6.1-3.3 4.2-.4 8.5-.9 12.8-1.3l-1.1-.1zm-31-165.5c1 0 2-.1 2.9-.2.2.1-1.1.2-2.9.2m248 43.7c.4-.1.8-.1 1.2-.2.7.1 1.4.2 2.2.3-1.2 0-2.3 0-3.4-.1m67.1 9.8c.8-.1 1.4-.2 2.3-.3h-.1c.3 0 .6.1.9.1l-.8-.1c1.1.1 2 .2 3 .3h-5.3"/>
</svg>
