<svg id="Слой_1" xmlns="http://www.w3.org/2000/svg" xmlns:xlink="http://www.w3.org/1999/xlink" viewBox="0 0 994.8 734.7">
    <style>
        .st0{clip-path:url(#SVGID_2_);fill:none;stroke:#2e6b67;stroke-width:2;stroke-linecap:round;stroke-linejoin:round;stroke-miterlimit:10;stroke-dasharray:1,10}
    </style>
    <defs>
        <path id="SVGID_1_" d="M0 0h994.8v734.7H0z"/>
    </defs>
    <clipPath id="SVGID_2_">
        <use xlink:href="#SVGID_1_" overflow="visible"/>
    </clipPath>
    <path class="st0" d="M482.8 215.5c165.6 5 295 8.8 382 110 53.8 62.6 102.5 175.4 64 264-83.3 191.9-534.4 176.5-780 46-129.2-68.7-143.4-138.3-146-154-12.2-74.6 41.1-138.5 54-154 101.5-121.7 286.7-116.2 426-112z"/>
    <path class="st0" d="M32.8 401.5c72.1-186.2 396.7-243.1 624-179.4 54.7 15.3 140 40.5 204.5 120.2 47.9 59.2 102.3 170.9 67.5 247.1-92 201.5-818.3 177.7-904-60-20.1-55.5.3-108 8-127.9z"/>
    <path class="st0" d="M731 246.4c88.4-1.8 161-42.2 182.8-102.9 3.5-9.9 20-60-9-100-24.7-34.2-79.7-56.9-119.2-31.8-39.8 25.3-40.8 84.6-22.8 119.8 28.6 56 115.7 72.1 172 38 47.5-28.8 57.4-83.8 59-94"/>
</svg>
