<svg id="Слой_1" xmlns="http://www.w3.org/2000/svg" xmlns:xlink="http://www.w3.org/1999/xlink" viewBox="0 0 1046.1 695.6">
    <style>
        .st0{clip-path:url(#SVGID_2_);fill:none;stroke:#2e6b67;stroke-width:2;stroke-linecap:round;stroke-linejoin:round;stroke-miterlimit:10;stroke-dasharray:1,10}
    </style>
    <defs>
        <path id="SVGID_1_" d="M0 0h1046.1v695.6H0z"/>
    </defs>
    <clipPath id="SVGID_2_">
        <use xlink:href="#SVGID_1_" overflow="visible"/>
    </clipPath>
    <path class="st0" d="M446.3 185.1c164.8-17.7 293.5-31.6 393.5 56.7 61.9 54.7 125.5 159.7 99.5 252.8C883 696 434.1 742.5 172.9 646.8 35.5 596.5 11.9 529.4 7.2 514.2-15.1 442.1 29 371.4 39.6 354.3 123.5 219.8 307.8 200 446.3 185.1z"/>
    <path class="st0" d="M26 430.9c46-194.3 359.7-295 593.6-263.1 56.3 7.7 144.3 21 219 91.1 55.5 52.1 124.7 155.3 100.7 235.6-63.6 212.3-786.3 288-903.7 64.3C8.1 506.4 21.1 451.7 26 430.9z"/>
    <path class="st0" d="M811.4 219.2c78.6-1.6 143.2-37.5 162.5-91.5 3.1-8.8 17.8-53.3-8-88.9-22-30.4-70.9-50.6-106-28.3C824.6 33 823.7 85.7 839.7 117c25.4 49.8 102.9 64.1 152.9 33.8 42.3-25.6 51-74.5 52.5-83.6"/>
</svg>
