<svg id="Слой_1" xmlns="http://www.w3.org/2000/svg" viewBox="0 0 8106.3 760.2">
    <style>
        .st0{fill:url(#SVGID_1_)}.st1{fill:url(#SVGID_2_)}
    </style>
    <linearGradient id="SVGID_1_" gradientUnits="userSpaceOnUse" y1="-3561.15" x2="8106.299" y2="-3561.15" gradientTransform="matrix(1 0 0 -1 0 -3181.065)">
        <stop offset="0" stop-color="#5ab29f"/>
        <stop offset="1" stop-color="#283f3a"/>
    </linearGradient>
    <path class="st0" d="M7961.6 760.2h144.7V463.1c-.9 0-1.8 0-2.7-.1-.2-.1-.9-.2-1.1-.3 1.5.2 2.4.2 3.8.4V34.8c-75.9-9.2-161.2-13.6-208.8-10.5 1 .5 2.3 1.1 4.3 1.7-30-.6-55.1-.7-40.9 3.4-7 1.4-14 2.9-21.2 4.3-14.4 1.3-28.8 2.5-43.3 3.8-20.1-1.5-39.9-3-59.8-4.5h-1.8 1.6c-23.3-.7-46.3-1.3-69.7-2-13.7-.5-24.7-.7-9.1 1.4 5.9.8 18.2 1.3 27.5 1.9 1.9.6 3.4 1.2 4.4 1.8-2.4.6-4.8 1.1-7.1 1.7-19.1-.3-11.3 1.7-10.5 3.1-4.7 2.2-9.7 4.3-14.6 6.5-16.7.4-22.6 1.8-22.1 3.8-43.6 2.2-37.5 8.5-43.4 13.8-3.7 1.5-7.6 3-11.2 4.5-13.4.6-26.7 1.2-39.8 1.8-3.2-.4-6.4-.8-9.7-1.2 4.8-.7 11.4-1.3 11.7-2.3 12.6-4.6-45.2-5-65.7-7.2-18.8-2-27.7-1.8-33.3-1-14.3-.2-29.1-.1-42.7-.7-31.5-1.4-34.8-.1-31 1.8-13.5-.9-23.3-2.2-29.2-3.9 7.5-.8 15-1.6 22.6-2.4 19.1-.2 5.2-2.6.8-4.3h-.1c-6.2-2-9.3-4-35.3-6.2-1.3-.6-2.3-1.1-3.2-1.6 19.9-.8-8.5-3.4-18.6-5.4 32.2 1.1 55.4.6 73.4-.3 22.4-1.2 8.3-3.5-31.5-5.6-2-.6-4.1-1.2-6-1.8 65 3.7 92.1 2.1 99.5-2.2 10.3-.9 48 1.7 41.1-1.4 42 .4 84.6.8 6.6-7.4-31.1-4-67.4-6.5-104.5-8.8-21.3-1.9-42.5-3.7-63.8-5.6-20-2.9-40.1-5.2-49.9-2.7-3 .8-11.9 1.9 6.4 3.5 34.3 2.8 27.2-.8 43.7-.8 12.4 3.4 35.4 5.9 69.4 7.4 16.7 2.3 46 4.1 52 6.7-3.8.4-7.7.7-11.5 1.1-33.1-2.4-69.1-5.7-87.5-3.5-34.5-.8-67.3-3.3-98.8-7h-.3c-46.2-8-45-1.4-69.7-2.8-11.5.2-10.4 1.4-6 2.8-28.1 1.4-62.4 2.1-53.6 7.1-39.5-.5-44 2.4-41.1 6-5.9-.2-11.7-.5-17.7-.7-14.3-.5-26.4-.8-28.4.4-4.8 3.2-49.8 2.9-37.8 7.6-5.2-.2-10.7-.3-16.4-.6-17.3-2.2-34.5-4.4-51.7-6.6 20.9.4 50.6 1.3 31.2-2.2-14.6-2.6-28.5-1.1-43.2-1.5-15 1.6-8.6 4.6-6.2 7.4h-.1c-3.9.3-7.9.6-11.7.9-11.4-.4-23.1-.8-34.4-1.2-7.6-.8-15.2-1.7-22.7-2.5-35.8-6.3-33.2-.7-53.3-2.1-8.3-1.5-2.7-3.4-26.3-4.4-18.8-.8-11.9 1.5-8.6 3-50.2 2.1 33.7 7.5 51 11.2l1.3.2c-.4-.1-.9-.1-1.3-.2-40.6-1.6-81.2-3.2-122-4.8-5.6-.2-11.2-.5-16.9-.7 8.4-.9 17-1.7 25.4-2.6-7.5-.6-15.7-1.5-22.3-1.8-37.7-1.7-29.3 1-21.1 3.6-20 1.2-16 4.5-23.7 6.8 10.1.8 20.2 1.6 30.3 2.3 3.8.6 8.3 1.2 13.6 1.8 1.4.5 2.7.9 4.1 1.4-.4 0-.8 0-1.2-.1-22.1-.9-32.4-.1-41.3.9-6.2 2.8-43.9 3.2-18.6 8.5h.1c-4.1.3-7.9.7-11.9 1-.8 1.5-8.4 2.2-23.3 2.2 2.8.9 5.6 1.8 8.4 2.6-1.3.1-2.6.2-3.8.4-3.2.4-4.8.9-5 1.5l5.7 1.8c-38.1-.2-2.1 4 6.7 6.5 8.7 1.4 17.1 2.7 25.7 4h1.6c.3.1.7.2 1 .3-.9-.1-1.8-.2-2.6-.4-29.4-.1-108.6-11.2-97.6-2.4 19.3-.9 37.4 1.9 56.1 3.8 3.5 1 7 2.1 10.9 3.1-17.2-.3-27.7.1-23.5 2.1-3.1.3-6.2.6-9.4 1-90.4-7.8-164.3-16.3-221.8-24.5-1.7-.2-3.4-.5-5.1-.7-.3.2-.1.5.7.9-9.5.2-19.1.3-28.7.5-30.2-.6-55.4-3.6-81.2-6.3-1.1-1.6 38.7-.4-.2-4.7-38-4.2-16-5-4.6-6.4 11.7 0 17.6-.3 19.3-.9-5.3-1.3-10.1-2.5-14.4-3.8-3.1-.5-6.5-.9-10.2-1.4-13.2-3.3-41.9-7.5-64.1-6.6-20.9.8-1.8 5.6 28.9 9.8 12.6 3.2-9.9 3.6-12.8 5.6-19.5-1.1-39.2-2.2-61.7-3.4 75.2 10.8 68.4 12.8-28.1 11.5-24.2-.3-30.3 1.5-22 4.4-14.3-.5-26.4-.7-29.4.4-14.1-.5-26-.7-29.1.4-15.5-.1-9.5 3.4-38.5.8-72.6-6.4-83.8-3.2-96 0-9.9.1-19.7.3-29.5.4-26.8-1.4-45.6-1.3-64-1.1-27.3-4-12-5.7-10.8-8.1 15.6.3 43.3 2.3 37.8.2-5.9-2.2-21.8-2.2-29.9-1.7-4.5.3-6 .9-9 1.5-49.6-1.5-44.3 2.3-40.5 6-47.1-.6-69.3 1.8-94.2 4-10.1 1.6-20.5 3.3-30.7 4.9-13.1.5-26.4 1-39.4 1.6-38.3-1-57.5.1-47.4 4.2-30.8-.4-72.7-2.3-71.5 1.7-15.4 3-81.9.6-72.9 6.2-3.5.3-6.8.7-10 1-13 .6-26.1 1.2-38.9 1.9-12.1 1-24.5 2-36.6 3.1-9.4.2-18.7.3-28 .5-33.3-2.7-53.9-2.9-64.7-1.1-27.6.5-26 4.4-64.4 3.6-1.8 5.4-79 4.9-31.6 14.1 2.7.6 5.4 1.3 7.9 1.9-12.7 2.5-46.3 3.1-37.4 7.6H3427.1c-8-1-18.7-1.9-34.2-2.4-11.4.2-22.7.4-34 .6-5.1-.5-10.7-1-15-1.6-57.9-7.4-66.3-7.8-91.9-3.9-10.5-1.4-21-2.8-31.5-4.3-8.2-1.6-17.7-3.1-33.3-4.3-46.3-6.1-100.6-9.1-130.2-7.2.6.3 1.4.7 2.5 1-17.6-.4-32.3-.4-24 2-4.1.8-8.2 1.7-12.4 2.5-8.4.7-16.9 1.5-25.4 2.2-11.8-.9-23.4-1.8-35.1-2.6h-1 1c-13.6-.4-27.1-.7-40.8-1.2-8-.3-14.4-.4-5.3.8 3.4.4 10.7.7 16.1 1.1 1.1.4 2 .7 2.6 1-1.4.3-2.8.7-4.2 1-11.2-.2-6.6 1-6.2 1.8-2.8 1.3-5.7 2.5-8.5 3.8-9.8.2-13.3 1.1-13 2.2-23.4 1.2-22.4 4.4-24.7 7.3h-38.4c-9.4-.7-22.9-1.1-29.6-1.8-11-1.2-16.2-1.1-19.5-.6-8.4-.1-17.1-.1-25-.4-18.4-.8-20.4-.1-18.2 1.1-7.9-.5-13.7-1.3-17.1-2.3 4.4-.5 8.8-.9 13.3-1.4 11.2-.1 3.1-1.5.5-2.5-3.6-1.2-5.4-2.4-20.7-3.7-.8-.3-1.3-.6-1.9-1 11.6-.5-5-2-10.9-3.2 18.9.6 32.5.4 43-.2 13.1-.7 4.9-2-18.4-3.3-1.2-.4-2.4-.7-3.5-1.1 38.1 2.1 54 1.2 58.3-1.3 6-.5 28.1 1 24.1-.8 24.6.2 49.6.4 3.8-4.3-18.2-2.3-39.5-3.8-61.2-5.2-12.5-1.1-24.9-2.2-37.4-3.3-11.7-1.7-23.5-3-29.2-1.6-1.7.5-7 1.1 3.8 2 20.1 1.7 16-.4 25.6-.5 7.3 2 20.7 3.4 40.7 4.3 9.8 1.3 27 2.4 30.5 3.9-2.2.2-4.5.4-6.7.6-19.4-1.4-40.5-3.3-51.3-2.1-20.2-.5-39.4-1.9-57.9-4.1h-.1c-27.1-4.7-26.4-.8-40.8-1.6-6.8.1-6.1.8-3.5 1.7-16.5.8-36.6 1.2-31.4 4.2-23.1-.3-25.8 1.4-24.1 3.5-3.5-.1-6.8-.3-10.4-.4-8.4-.3-15.5-.5-16.7.3-2.8 1.9-29.2 1.7-22.1 4.4-3.1-.1-6.3-.2-9.6-.4-10.1-1.3-20.2-2.6-30.3-3.8 12.3.2 29.7.7 18.3-1.3-8.6-1.5-16.7-.6-25.3-.9-8.8.9-5 2.7-3.6 4.4l-6.9.6c-6.7-.2-13.5-.5-20.1-.7-4.4-.5-8.9-1-13.3-1.5-21-3.7-19.5-.4-31.3-1.2-4.9-.9-1.6-2-15.4-2.6-11-.5-7 .9-5 1.8-29.4 1.2 19.7 4.4 29.9 6.6l.8.1c-.3 0-.5-.1-.8-.1-23.8-.9-47.6-1.9-71.5-2.8-3.3-.1-6.6-.3-9.9-.4 4.9-.5 10-1 14.9-1.5-4.4-.4-9.2-.9-13-1.1-22.1-1-17.2.6-12.4 2.1-11.7.7-9.4 2.6-13.9 4 5.9.5 11.8.9 17.8 1.4 2.2.4 4.9.7 7.9 1.1.8.3 1.6.5 2.4.8h-.7c-13-.5-19 0-24.2.5-3.6 1.7-25.7 1.9-10.9 5-2.4.2-4.6.4-7 .6-.5.9-4.9 1.3-13.7 1.3 1.7.5 3.3 1 4.9 1.6-.8.1-1.5.1-2.2.2-1.9.2-2.8.5-3 .9 1.1.3 2.2.7 3.4 1-22.3-.1-1.2 2.3 3.9 3.8 2.2.4 4.5.7 6.7 1H2280c-19.1-1.6-40.2-3.7-35.7-.1 3.6-.2 7.1-.1 10.5.1h-51.1c-26.4-2.8-49.6-5.7-69.4-8.6-1-.1-2-.3-3-.4-.2.1 0 .3.4.6l-16.8.3c-17.7-.3-32.5-2.1-47.6-3.7-.7-1 22.7-.3-.1-2.8-22.3-2.4-9.4-2.9-2.7-3.7 6.9 0 10.3-.2 11.3-.5-3.1-.7-5.9-1.5-8.4-2.2-1.8-.3-3.8-.6-6-.8-7.8-1.9-24.5-4.4-37.6-3.9-12.3.5-1 3.3 16.9 5.7 7.4 1.9-5.8 2.1-7.5 3.3-11.5-.6-23-1.3-36.1-2 44.1 6.3 40.1 7.5-16.5 6.7-14.2-.2-17.7.9-12.9 2.6-8.4-.3-15.5-.4-17.2.2-8.3-.3-15.3-.4-17.1.2-9.1 0-5.6 2-22.6.5-42.6-3.7-49.1-1.9-56.2 0h-3.3c-8.5-1.2-18.6-2.5-30.7-3.8-15.4-4.3-36-8.2-87.8-10-19.5.4-38.8.7-58.1 1.1-8.7-.9-18.2-1.8-25.5-2.7-98.8-12.6-113.2-13.2-156.7-6.6-17.9-2.4-35.9-4.8-53.7-7.3-13.9-2.7-30.3-5.2-56.8-7.4-79-10.4-171.6-15.5-222.1-12.2 1 .5 2.3 1.1 4.3 1.7-30-.6-55.1-.7-40.9 3.4-7 1.4-14 2.9-21.2 4.3-14.4 1.3-28.8 2.5-43.3 3.8-20.1-1.5-39.9-3-59.8-4.5h-1.8 1.6c-23.3-.7-46.3-1.3-69.7-2-13.7-.5-24.7-.7-9.1 1.4 5.9.8 18.2 1.3 27.5 1.9 1.9.6 3.4 1.2 4.4 1.8-2.4.6-4.8 1.1-7.1 1.7-19.1-.3-11.3 1.7-10.5 3.1-4.7 2.2-9.7 4.3-14.6 6.5-16.7.4-22.6 1.8-22.1 3.8-43.6 2.2-37.5 8.5-43.4 13.8-3.7 1.5-7.6 3-11.2 4.5-13.4.6-26.7 1.2-39.8 1.8-3.2-.4-6.4-.8-9.7-1.2 4.8-.7 11.4-1.3 11.7-2.3 12.6-4.6-45.2-5-65.7-7.2-18.8-2-27.7-1.8-33.3-1-14.3-.2-29.1-.1-42.7-.7-31.5-1.4-34.8-.1-31 1.8-13.5-.9-23.3-2.2-29.2-3.9 7.5-.8 15-1.6 22.6-2.4 19.1-.2 5.2-2.6.8-4.3h-.1c-6.2-2-9.3-4-35.3-6.2-1.3-.6-2.3-1.1-3.2-1.6 19.9-.8-8.5-3.4-18.6-5.4 32.2 1.1 55.4.6 73.4-.3 22.4-1.2 8.3-3.5-31.5-5.6-2-.6-4.1-1.2-6-1.8 65 3.7 92.1 2.1 99.5-2.2 10.3-.9 48 1.7 41.1-1.4 42 .4 84.6.8 6.6-7.4-31.1-4-67.4-6.5-104.5-8.8-21.3-1.9-42.5-3.7-63.8-5.6-20-2.9-40.1-5.2-49.9-2.7-3 .8-11.9 1.9 6.4 3.5 34.3 2.8 27.2-.8 43.7-.8 12.4 3.4 35.4 5.9 69.4 7.4 16.7 2.3 46 4.1 52 6.7-3.8.4-7.7.7-11.5 1.1-33.1-2.4-69.1-5.7-87.5-3.5-34.5-.8-67.3-3.3-98.8-7h-.3c-46.2-8-45-1.4-69.7-2.8-11.5.2-10.4 1.4-6 2.8-28.1 1.4-62.4 2.1-53.6 7.1-39.5-.5-44 2.4-41.1 6-5.9-.2-11.7-.5-17.7-.7-14.3-.5-26.4-.8-28.4.4-4.8 3.2-49.8 2.9-37.8 7.6-5.2-.2-10.7-.3-16.4-.6-17.3-2.2-34.5-4.4-51.7-6.6 20.9.4 50.6 1.3 31.2-2.2-14.6-2.6-28.5-1.1-43.2-1.5-15 1.6-8.6 4.6-6.2 7.4h-.1c-3.9.3-7.9.6-11.7.9-11.4-.4-23.1-.8-34.4-1.2-7.6-.8-15.2-1.7-22.7-2.5-35.8-6.3-33.2-.7-53.3-2.1-8.3-1.5-2.7-3.4-26.3-4.4-18.8-.8-11.9 1.5-8.6 3-4.3.2-7.6.4-10.1.6v2.9c14.1 2.4 50.3 5.3 61 7.7l1.3.2c-.4-.1-.9-.1-1.3-.2-20.3-.8-40.6-1.6-61-2.4V760h7779.1c-3-.6-5.8-1.2-7.4-1.7-9.1-1.5-18-3-27.1-4.4h-1.8c-.3-.1-.6-.2-1-.4.9.1 1.9.3 2.8.4 21.1.1 62.9 5.1 88.3 6.2h14.9c5-.4 7.2-1.5 5.5-3.5-22.1 1-41.2-2.1-61.4-4.2-3.4-1.1-6.9-2.3-10.8-3.4 19.3.3 31.3-.1 27.4-2.3 3.6-.3 7.3-.7 11-1 52.3 4.7 99.9 9.6 142.1 14.5zM7949 582.3c1 .2 1.7.4 3.1.6 1.2.1 1.7.2 2.4.3.2.1.1.1.5.2-4.7-.3-9-.5-12.5-.8 2.7 0 4.5-.1 6.5-.3zM323.2 60.1h-.7.3c-.1 0-.2-.1-.3-.1.7.1 1.4.1 2.1.2-.6 0-1.2 0-1.8-.1h.4zM2374.4 89c.2-.1.4-.2.5-.3.9.1 1.6.3 2.2.5-1-.1-1.8-.2-2.7-.2zm192.7-1.3h-.4.2c-.1 0-.1 0-.2-.1.4 0 .8.1 1.2.1h-1 .2zM5125.8 101c-4.6-.7-10.1-1.3-17.5-1.8.2-1.3-.6-2.7-9.9-4.6 13.7 1.6 28.3 3 45.2 3.8.6 0 1.2 0 1.8.1 14.7 1.3 29.4 1.8 44.3 2.4h-63.9v.1zM5663 76.7c-.8-.1-1.7-.2-2.6-.3 1 .1 2 .1 3 .2-.1 0-.3.1-.4.1zm337.7-3.1c.5 0 .9-.1 1.3-.1.3.1.7.2 1 .4-.7-.1-1.5-.2-2.3-.3zm732.8-31.2c1.5.2 2.7.5 3.7.8-1.5-.1-3-.1-4.5-.2.4-.2.7-.4.8-.6zm4 39.3c-1.3-.1-2.5-.2-3.7-.3 1.2.2 2.5.2 3.7.3zm175.6 13.2c-1-.1-2-.2-2.9-.2 1.3 0 2.7.1 4.1.1-.4 0-.8.1-1.2.1zm148.4-54.1h-.7.3c-.1 0-.2-.1-.3-.1.7.1 1.4.1 2.1.2-.6 0-1.2 0-1.8-.1h.4zm677.3 595.4c-1.2 1-8.6 1.1-18.3.7 4-.5 7.6-1.2 11.8-2.4 4.6.5 7.3 1 6.5 1.7z"/>
    <linearGradient id="SVGID_2_" gradientUnits="userSpaceOnUse" x1="-3.901" y1="-1616.499" x2="8103.199" y2="-1616.499" gradientTransform="matrix(1 0 0 -1 0 -3181.065)">
        <stop offset="0" stop-color="#d55970"/>
        <stop offset="1" stop-color="#54c3aa"/>
    </linearGradient>
    <path class="st1" d="M7958.5-1184.5h144.7v-297.2c-.9 0-1.8 0-2.7-.1-.2-.1-.9-.2-1.1-.3 1.5.2 2.4.2 3.8.4v-428.2c-75.9-9.2-161.2-13.6-208.8-10.5 1 .5 2.3 1.1 4.3 1.7-30-.6-55.1-.7-40.9 3.4-7 1.4-14 2.9-21.2 4.3-14.4 1.3-28.8 2.5-43.3 3.8-20.1-1.5-39.9-3-59.8-4.5h-1.8 1.6c-23.3-.7-46.3-1.3-69.7-2-13.7-.5-24.7-.7-9.1 1.4 5.9.8 18.2 1.3 27.5 1.9 1.9.6 3.4 1.2 4.4 1.8-2.4.6-4.8 1.1-7.1 1.7-19.1-.3-11.3 1.7-10.5 3.1-4.7 2.2-9.7 4.3-14.6 6.5-16.7.4-22.6 1.8-22.1 3.8-43.6 2.2-37.5 8.5-43.4 13.8-3.7 1.5-7.6 3-11.2 4.5-13.4.6-26.7 1.2-39.8 1.8-3.2-.4-6.4-.8-9.7-1.2 4.8-.7 11.4-1.3 11.7-2.3 12.6-4.6-45.2-5-65.7-7.2-18.8-2-27.7-1.8-33.3-1-14.3-.2-29.1-.1-42.7-.7-31.5-1.4-34.8-.1-31 1.8-13.5-.9-23.3-2.2-29.2-3.9 7.5-.8 15-1.6 22.6-2.4 19.1-.2 5.2-2.6.8-4.3h-.1c-6.2-2-9.3-4-35.3-6.2-1.3-.6-2.3-1.1-3.2-1.6 19.9-.8-8.5-3.4-18.6-5.4 32.2 1.1 55.4.6 73.4-.3 22.4-1.2 8.3-3.5-31.5-5.6-2-.6-4.1-1.2-6-1.8 65 3.7 92.1 2.1 99.5-2.2 10.3-.9 48 1.7 41.1-1.4 42 .4 84.6.8 6.6-7.4-31.1-4-67.4-6.5-104.5-8.8-21.3-1.9-42.5-3.7-63.8-5.6-20-2.9-40.1-5.2-49.9-2.7-3 .8-11.9 1.9 6.4 3.5 34.3 2.8 27.2-.8 43.7-.8 12.4 3.4 35.4 5.9 69.4 7.4 16.7 2.3 46 4.1 52 6.7-3.8.4-7.7.7-11.5 1.1-33.1-2.4-69.1-5.7-87.5-3.5-34.5-.8-67.3-3.3-98.8-7h-.3c-46.2-8-45-1.4-69.7-2.8-11.5.2-10.4 1.4-6 2.8-28.1 1.4-62.4 2.1-53.6 7.1-39.5-.5-44 2.4-41.1 6-5.9-.2-11.7-.5-17.7-.7-14.3-.5-26.4-.8-28.4.4-4.8 3.2-49.8 2.9-37.8 7.6-5.2-.2-10.7-.3-16.4-.6-17.3-2.2-34.5-4.4-51.7-6.6 20.9.4 50.6 1.3 31.2-2.2-14.6-2.6-28.5-1.1-43.2-1.5-15 1.6-8.6 4.6-6.2 7.4h-.1c-3.9.3-7.9.6-11.7.9-11.4-.4-23.1-.8-34.4-1.2-7.6-.8-15.2-1.7-22.7-2.5-35.8-6.3-33.2-.7-53.3-2.1-8.3-1.5-2.7-3.4-26.3-4.4-18.8-.8-11.9 1.5-8.6 3-50.2 2.1 33.7 7.5 51 11.2l1.3.2c-.4-.1-.9-.1-1.3-.2-40.6-1.6-81.2-3.2-122-4.8-5.6-.2-11.2-.5-16.9-.7 8.4-.9 17-1.7 25.4-2.6-7.5-.6-15.7-1.5-22.3-1.8-37.7-1.7-29.3 1-21.1 3.6-20 1.2-16 4.5-23.7 6.8 10.1.8 20.2 1.6 30.3 2.3 3.8.6 8.3 1.2 13.6 1.8 1.4.5 2.7.9 4.1 1.4-.4 0-.8 0-1.2-.1-22.1-.9-32.4-.1-41.3.9-6.2 2.8-43.9 3.2-18.6 8.5h.1c-4.1.3-7.9.7-11.9 1-.8 1.5-8.4 2.2-23.3 2.2 2.8.9 5.6 1.8 8.4 2.6-1.3.1-2.6.2-3.8.4-3.2.4-4.8.9-5 1.5l5.7 1.8c-38.1-.2-2.1 4 6.7 6.5 8.7 1.4 17.1 2.7 25.7 4h1.6c.3.1.7.2 1 .3-.9-.1-1.8-.2-2.6-.4-29.4-.1-108.6-11.2-97.6-2.4 19.3-.9 37.4 1.9 56.1 3.8 3.5 1 7 2.1 10.9 3.1-17.2-.3-27.7.1-23.5 2.1-3.1.3-6.2.6-9.4 1-90.4-7.8-164.3-16.3-221.8-24.5-1.7-.2-3.4-.5-5.1-.7-.3.2-.1.5.7.9-9.5.2-19.1.3-28.7.5-30.2-.6-55.4-3.6-81.2-6.3-1.1-1.6 38.7-.4-.2-4.7-38-4.2-16-5-4.6-6.4 11.7 0 17.6-.3 19.3-.9-5.3-1.3-10.1-2.5-14.4-3.8-3.1-.5-6.5-.9-10.2-1.4-13.2-3.3-41.9-7.5-64.1-6.6-20.9.8-1.8 5.6 28.9 9.8 12.6 3.2-9.9 3.6-12.8 5.6-19.5-1.1-39.2-2.2-61.7-3.4 75.2 10.8 68.4 12.8-28.1 11.5-24.2-.3-30.3 1.5-22 4.4-14.3-.5-26.4-.7-29.4.4-14.1-.5-26-.7-29.1.4-15.5-.1-9.5 3.4-38.5.8-72.6-6.4-83.8-3.2-96 0-9.9.1-19.7.3-29.5.4-26.8-1.4-45.6-1.3-64-1.1-27.3-4-12-5.7-10.8-8.1 15.6.3 43.3 2.3 37.8.2-5.9-2.2-21.8-2.2-29.9-1.7-4.5.3-6 .9-9 1.5-49.6-1.5-44.3 2.3-40.5 6-47.1-.6-69.3 1.8-94.2 4-10.1 1.6-20.5 3.3-30.7 4.9-13.1.5-26.4 1-39.4 1.6-38.3-1-57.5.1-47.4 4.2-30.8-.4-72.7-2.3-71.5 1.7-15.4 3-81.9.6-72.9 6.2-3.5.3-6.8.7-10 1-13 .6-26.1 1.2-38.9 1.9-12.1 1-24.5 2-36.6 3.1-9.4.2-18.7.3-28 .5-33.3-2.7-53.9-2.9-64.7-1.1-27.6.5-26 4.4-64.4 3.6-1.8 5.4-79 4.9-31.6 14.1 2.7.6 5.4 1.3 7.9 1.9-12.7 2.5-46.3 3.1-37.4 7.6H3424c-8-1-18.7-1.9-34.2-2.4-11.4.2-22.7.4-34 .6-5.1-.5-10.7-1-15-1.6-57.9-7.4-66.3-7.8-91.9-3.9-10.5-1.4-21-2.8-31.5-4.3-8.2-1.6-17.7-3.1-33.3-4.3-46.3-6.1-100.6-9.1-130.2-7.2.6.3 1.4.7 2.5 1-17.6-.4-32.3-.4-24 2-4.1.8-8.2 1.7-12.4 2.5-8.4.7-16.9 1.5-25.4 2.2-11.8-.9-23.4-1.8-35.1-2.6h-1 1c-13.6-.4-27.1-.7-40.8-1.2-8-.3-14.4-.4-5.3.8 3.4.4 10.7.7 16.1 1.1 1.1.4 2 .7 2.6 1-1.4.3-2.8.7-4.2 1-11.2-.2-6.6 1-6.2 1.8-2.8 1.3-5.7 2.5-8.5 3.8-9.8.2-13.3 1.1-13 2.2-23.4 1.2-22.4 4.4-24.7 7.3h-38.4c-9.4-.7-22.9-1.1-29.6-1.8-11-1.2-16.2-1.1-19.5-.6-8.4-.1-17.1-.1-25-.4-18.4-.8-20.4-.1-18.2 1.1-7.9-.5-13.7-1.3-17.1-2.3 4.4-.5 8.8-.9 13.3-1.4 11.2-.1 3.1-1.5.5-2.5-3.6-1.2-5.4-2.4-20.7-3.7-.8-.3-1.3-.6-1.9-1 11.6-.5-5-2-10.9-3.2 18.9.6 32.5.4 43-.2 13.1-.7 4.9-2-18.4-3.3-1.2-.4-2.4-.7-3.5-1.1 38.1 2.1 54 1.2 58.3-1.3 6-.5 28.1 1 24.1-.8 24.6.2 49.6.4 3.8-4.3-18.2-2.3-39.5-3.8-61.2-5.2-12.5-1.1-24.9-2.2-37.4-3.3-11.7-1.7-23.5-3-29.2-1.6-1.7.5-7 1.1 3.7 2 20.1 1.7 16-.4 25.6-.5 7.3 2 20.7 3.4 40.7 4.3 9.8 1.3 27 2.4 30.5 3.9-2.2.2-4.5.4-6.7.6-19.4-1.4-40.5-3.3-51.3-2.1-20.2-.5-39.4-1.9-57.9-4.1h-.1c-27.1-4.7-26.4-.8-40.8-1.6-6.8.1-6.1.8-3.5 1.7-16.5.8-36.6 1.2-31.4 4.2-23.1-.3-25.8 1.4-24.1 3.5-3.5-.1-6.8-.3-10.4-.4-8.4-.3-15.5-.5-16.7.3-2.8 1.9-29.2 1.7-22.1 4.4-3.1-.1-6.3-.2-9.6-.4-10.1-1.3-20.2-2.6-30.3-3.8 12.3.2 29.7.7 18.3-1.3-8.6-1.5-16.7-.6-25.3-.9-8.8.9-5 2.7-3.6 4.4l-6.9.6c-6.7-.2-13.5-.5-20.1-.7-4.4-.5-8.9-1-13.3-1.5-21-3.7-19.5-.4-31.3-1.2-4.9-.9-1.6-2-15.4-2.6-11-.5-7 .9-5 1.8-29.4 1.2 19.7 4.4 29.9 6.6l.8.1c-.3 0-.5-.1-.8-.1-23.8-.9-47.6-1.9-71.5-2.8-3.3-.1-6.6-.3-9.9-.4 4.9-.5 10-1 14.9-1.5-4.4-.4-9.2-.9-13-1.1-22.1-1-17.2.6-12.4 2.1-11.7.7-9.4 2.6-13.9 4 5.9.5 11.8.9 17.8 1.4 2.2.4 4.9.7 7.9 1.1.8.3 1.6.5 2.4.8h-.7c-13-.5-19 0-24.2.5-3.6 1.7-25.7 1.9-10.9 5-2.4.2-4.6.4-7 .6-.5.9-4.9 1.3-13.7 1.3 1.7.5 3.3 1 4.9 1.6-.8.1-1.5.1-2.2.2-1.9.2-2.8.5-3 .9 1.1.3 2.2.7 3.4 1-22.3-.1-1.2 2.3 3.9 3.8 2.2.4 4.5.7 6.7 1h-13.1c-19.1-1.6-40.2-3.7-35.7-.1 3.6-.2 7.1-.1 10.5.1h-51.1c-26.4-2.8-49.6-5.7-69.4-8.6-1-.1-2-.3-3-.4-.2.1 0 .3.4.6l-16.8.3c-17.7-.3-32.5-2.1-47.6-3.7-.7-1 22.7-.3-.1-2.8-22.3-2.4-9.4-2.9-2.7-3.7 6.9 0 10.3-.2 11.3-.5-3.1-.7-5.9-1.5-8.4-2.2-1.8-.3-3.8-.6-6-.8-7.8-1.9-24.5-4.4-37.6-3.9-12.3.5-1 3.3 16.9 5.7 7.4 1.9-5.8 2.1-7.5 3.3-11.5-.6-23-1.3-36.1-2 44.1 6.3 40.1 7.5-16.5 6.7-14.2-.2-17.7.9-12.9 2.6-8.4-.3-15.5-.4-17.2.2-8.3-.3-15.3-.4-17.1.2-9.1 0-5.6 2-22.6.5-42.6-3.7-49.1-1.9-56.2 0h-3.3c-8.5-1.2-18.6-2.5-30.7-3.8-15.4-4.3-36-8.2-87.8-10-19.5.4-38.8.7-58.1 1.1-8.7-.9-18.2-1.8-25.5-2.7-98.8-12.6-113.2-13.2-156.7-6.6-17.9-2.4-35.9-4.8-53.7-7.3-13.9-2.7-30.3-5.2-56.8-7.4-79-10.4-171.6-15.5-222.1-12.2 1 .5 2.3 1.1 4.3 1.7-30-.6-55.1-.7-40.9 3.4-7 1.4-14 2.9-21.2 4.3-14.4 1.3-28.8 2.5-43.3 3.8-20.1-1.5-39.9-3-59.8-4.5H994h1.6c-23.3-.7-46.3-1.3-69.7-2-13.7-.5-24.7-.7-9.1 1.4 5.9.8 18.2 1.3 27.5 1.9 1.9.6 3.4 1.2 4.4 1.8-2.4.6-4.8 1.1-7.1 1.7-19.1-.3-11.3 1.7-10.5 3.1-4.7 2.2-9.7 4.3-14.6 6.5-16.7.4-22.6 1.8-22.1 3.8-43.6 2.2-37.5 8.5-43.4 13.8-3.7 1.5-7.6 3-11.2 4.5-13.4.6-26.7 1.2-39.8 1.8-3.2-.4-6.4-.8-9.7-1.2 4.8-.7 11.4-1.3 11.7-2.3 12.6-4.6-45.2-5-65.7-7.2-18.8-2-27.7-1.8-33.3-1-14.3-.2-29.1-.1-42.7-.7-31.5-1.4-34.8-.1-31 1.8-13.5-.9-23.3-2.2-29.2-3.9 7.5-.8 15-1.6 22.6-2.4 19.1-.2 5.2-2.6.8-4.3h-.1c-6.2-2-9.3-4-35.3-6.2-1.3-.6-2.3-1.1-3.2-1.6 19.9-.8-8.5-3.4-18.6-5.4 32.2 1.1 55.4.6 73.4-.3 22.4-1.2 8.3-3.5-31.5-5.6-2-.6-4.1-1.2-6-1.8 65 3.7 92.1 2.1 99.5-2.2 10.3-.9 48 1.7 41.1-1.4 42 .4 84.6.8 6.6-7.4-31.1-4-67.4-6.5-104.5-8.8-21.3-1.9-42.5-3.7-63.8-5.6-20-2.9-40.1-5.2-49.9-2.7-3 .8-11.9 1.9 6.4 3.5 34.3 2.8 27.2-.8 43.7-.8 11.5 3.4 34.5 5.8 68.5 7.3 16.7 2.3 46 4.1 52 6.7-3.8.4-7.7.7-11.5 1.1-33.1-2.4-69.1-5.7-87.5-3.5-34.5-.8-67.3-3.3-98.8-7h-.3c-46.2-8-45-1.4-69.7-2.8-11.5.2-10.4 1.4-6 2.8-28.1 1.4-62.4 2.1-53.6 7.1-39.5-.5-44 2.4-41.1 6-5.9-.2-11.7-.5-17.7-.7-14.3-.5-26.4-.8-28.4.4-4.8 3.2-49.8 2.9-37.8 7.6-5.2-.2-10.7-.3-16.4-.6-17.3-2.2-34.5-4.4-51.7-6.6 20.9.4 50.6 1.3 31.2-2.2-14.6-2.6-28.5-1.1-43.2-1.5-15 1.6-8.6 4.6-6.2 7.4h-.1c-3.9.3-7.9.6-11.7.9-11.4-.4-23.1-.8-34.4-1.2-7.6-.8-15.2-1.7-22.7-2.5-35.8-6.3-33.2-.7-53.3-2.1-8.1-1.3-2.5-3.2-26.1-4.1-18.8-.8-11.9 1.5-8.6 3-4.3.2-7.6.4-10.1.6v2.9c14.1 2.4 50.3 5.3 61 7.7l1.3.2c-.4-.1-.9-.1-1.3-.2-20.3-.8-40.6-1.6-61-2.4v713.1h7779.1c-3-.6-5.8-1.2-7.4-1.7-9.1-1.5-18-3-27.1-4.4h-1.8c-.3-.1-.6-.2-1-.4.9.1 1.9.3 2.8.4 21.1.1 62.9 5.1 88.3 6.2h14.9c5-.4 7.2-1.5 5.5-3.5-22.1 1-41.2-2.1-61.4-4.2-3.4-1.1-6.9-2.3-10.8-3.4 19.3.3 31.3-.1 27.4-2.3 3.6-.3 7.3-.7 11-1 53.2 4.4 100.8 9.3 142.9 14.3zm-12.5-177.9c1 .2 1.7.4 3.1.6 1.2.1 1.7.2 2.4.3.2.1.1.1.5.2-4.7-.3-9-.5-12.5-.8 2.7-.1 4.5-.2 6.5-.3zM320.1-1884.7h-.7.3c-.1 0-.2-.1-.3-.1.7.1 1.4.1 2.1.2-.6 0-1.2 0-1.8-.1h.4zm2051.2 28.9c.2-.1.4-.2.5-.3.9.1 1.6.3 2.2.5-.9-.1-1.8-.1-2.7-.2zm192.7-1.2h-.4.2c-.1 0-.1 0-.2-.1.4 0 .8.1 1.2.1h-1 .2zm2558.7 13.2c-4.6-.7-10.1-1.3-17.5-1.8.2-1.3-.6-2.7-9.9-4.6 13.7 1.6 28.3 3 45.2 3.8.6 0 1.2 0 1.8.1 14.7 1.3 29.4 1.8 44.3 2.4h-63.9v.1zm537.3-24.3c-.8-.1-1.7-.2-2.6-.3 1 .1 2 .1 3 .2-.2.1-.3.1-.4.1zm337.7-3.1c.5 0 .9-.1 1.3-.1.3.1.7.2 1 .4-.8-.1-1.6-.2-2.3-.3zm732.8-31.2c1.5.2 2.7.5 3.7.8-1.5-.1-3-.1-4.5-.2.4-.2.6-.4.8-.6zm4 39.4c-1.3-.1-2.5-.2-3.7-.3 1.2.1 2.4.2 3.7.3 0-.1 0 0 0 0zm175.5 13.2c-1-.1-2-.2-2.9-.2 1.3 0 2.7.1 4.1.1-.4 0-.8 0-1.2.1zm148.4-54.1h-.7.3c-.1 0-.2-.1-.3-.1.7.1 1.4.1 2.1.2-.6 0-1.2 0-1.8-.1h.4zm677.3 595.3c-1.2 1-8.6 1.1-18.3.7 4-.5 7.6-1.2 11.8-2.4 4.7.6 7.3 1.1 6.5 1.7z"/>
</svg>
