<svg id="Слой_1" xmlns="http://www.w3.org/2000/svg" xmlns:xlink="http://www.w3.org/1999/xlink" viewBox="0 0 1045.3 384.9">
    <style>
        .st0{clip-path:url(#SVGID_2_);fill:none;stroke:#f64869;stroke-width:3;stroke-linecap:round;stroke-linejoin:round;stroke-miterlimit:10;stroke-dasharray:5,20}
    </style>
    <defs>
        <path id="SVGID_1_" d="M0 0h1045.3v384.9H0z"/>
    </defs>
    <clipPath id="SVGID_2_">
        <use xlink:href="#SVGID_1_" overflow="visible"/>
    </clipPath>
    <path class="st0" d="M509 17.1c80.1-1.4 291.9-5 430.5 57.7 110.5 50 105 110.7 103.8 120.2-11.1 85.2-191.7 175-447.3 187.1-270.3 12.8-468.7-68.6-534.3-140.3-13.3-14.6-79.6-86.9 20.2-149.5C192.8 22.5 423.7 18.6 509 17.1z"/>
    <path class="st0" d="M275.1 46.3c67.8-17.2 247.1-62.8 449-37.2 161.1 20.4 235.3 73.2 246.5 81.5 101.3 74.8 61.1 187.3-145.2 248.9-218.2 65-496.4 35.5-646.8-12.4-30.5-9.7-182.2-58-177-131.3C7.4 114.3 202.8 64.7 275.1 46.3z"/>
</svg>
