<?xml version="1.0" encoding="utf-8"?>
<!-- Generator: Adobe Illustrator 21.1.0, SVG Export Plug-In . SVG Version: 6.00 Build 0)  -->
<svg version="1.1" id="Слой_1" xmlns="http://www.w3.org/2000/svg" xmlns:xlink="http://www.w3.org/1999/xlink" x="0px" y="0px"
	 viewBox="0 0 97.6 86.7" style="enable-background:new 0 0 97.6 86.7;" xml:space="preserve">
<style type="text/css">
	.st0{clip-path:url(#SVGID_2_);fill:#2E6B67;}
</style>
<g>
	<defs>
		<rect id="SVGID_1_" y="0" width="97.6" height="86.7"/>
	</defs>
	<clipPath id="SVGID_2_">
		<use xlink:href="#SVGID_1_"  style="overflow:visible;"/>
	</clipPath>
	<path class="st0" d="M96.9,11.9L84,0.5C83.6,0.1,83,0,82.5,0c-0.5,0-1,0.3-1.4,0.7l-47,53.5L17.4,32.1c-0.3-0.4-0.8-0.7-1.3-0.8
		c-0.5-0.1-1.1,0.1-1.5,0.4L0.8,42.1c-0.9,0.7-1.1,1.9-0.4,2.8l31,41c0.4,0.5,0.9,0.8,1.5,0.8H33c0.6,0,1.1-0.2,1.5-0.7l62.6-71.3
		C97.8,13.9,97.8,12.6,96.9,11.9"/>
</g>
</svg>
