<?xml version="1.0" encoding="utf-8"?>
<!-- Generator: Adobe Illustrator 21.1.0, SVG Export Plug-In . SVG Version: 6.00 Build 0)  -->
<svg version="1.1" id="Слой_1" xmlns="http://www.w3.org/2000/svg" xmlns:xlink="http://www.w3.org/1999/xlink" x="0px" y="0px"
	 viewBox="0 0 203.9 201.8" style="enable-background:new 0 0 203.9 201.8;" xml:space="preserve">
<style type="text/css">
	.st0{clip-path:url(#SVGID_2_);fill:#FFFFFF;}
</style>
<g>
	<defs>
		<rect id="SVGID_1_" width="203.9" height="201.8"/>
	</defs>
	<clipPath id="SVGID_2_">
		<use xlink:href="#SVGID_1_"  style="overflow:visible;"/>
	</clipPath>
	<path class="st0" d="M142.7,70.4c-0.9-2.4-2.1-4.1-3.9-6c-1.8-1.8-3.6-2.9-6-3.9c-1.8-0.7-4.6-1.6-9.7-1.8
		c-5.5-0.2-7.2-0.3-21.1-0.3s-15.6,0.1-21.1,0.3c-5.1,0.2-7.9,1.1-9.7,1.8c-2.4,0.9-4.2,2.1-6,3.9c-1.8,1.8-3,3.5-3.9,6
		c-0.7,1.8-1.6,4.6-1.8,9.6c-0.3,5.5-0.3,7.1-0.3,20.9c0,13.8,0.1,15.5,0.3,20.9c0.2,5,1.1,7.8,1.8,9.6c0.9,2.4,2.1,4.1,3.9,5.9
		s3.6,2.9,6,3.9c1.8,0.7,4.6,1.6,9.7,1.8c5.5,0.2,7.2,0.3,21.1,0.3c14,0,15.6-0.1,21.1-0.3c5.1-0.2,7.9-1.1,9.7-1.8
		c2.4-0.9,4.2-2.1,6-3.9c1.8-1.8,3-3.5,3.9-5.9c0.7-1.8,1.6-4.6,1.8-9.6c0.3-5.5,0.3-7.1,0.3-20.9c0-13.8-0.1-15.5-0.3-20.9
		C144.3,75,143.4,72.2,142.7,70.4 M102,127.5c-14.8,0-26.8-11.9-26.8-26.6s12-26.6,26.8-26.6s26.9,11.9,26.9,26.6
		S116.8,127.5,102,127.5 M129.9,79.5c-3.5,0-6.3-2.8-6.3-6.2c0-3.4,2.8-6.2,6.3-6.2c3.5,0,6.3,2.8,6.3,6.2
		C136.2,76.7,133.3,79.5,129.9,79.5"/>
	<path class="st0" d="M102,83.7c-9.6,0-17.4,7.7-17.4,17.2c0,9.5,7.8,17.2,17.4,17.2s17.4-7.7,17.4-17.2
		C119.4,91.4,111.6,83.7,102,83.7"/>
	<path class="st0" d="M102,0L102,0C45.7,0,0,45.2,0,100.9v0.1c0,55.7,45.6,100.9,101.9,100.9h0.1c56.3,0,101.9-45.2,101.9-100.9
		v-0.1C203.9,45.2,158.3,0,102,0 M153.9,122.3c-0.3,5.5-1.1,9.3-2.4,12.6c-1.3,3.4-3.1,6.3-6,9.2c-2.9,2.9-5.8,4.6-9.3,6
		c-3.3,1.3-7.1,2.2-12.7,2.4c-5.6,0.3-7.4,0.3-21.6,0.3c-14.2,0-16-0.1-21.6-0.3c-5.6-0.3-9.4-1.1-12.7-2.4c-3.4-1.3-6.4-3.1-9.3-6
		c-2.9-2.9-4.7-5.8-6-9.2c-1.3-3.3-2.2-7.1-2.4-12.6c-0.3-5.5-0.3-7.3-0.3-21.3s0.1-15.8,0.3-21.3c0.3-5.5,1.1-9.3,2.4-12.6
		c1.3-3.4,3.1-6.3,6-9.2c2.9-2.9,5.8-4.6,9.3-6c3.3-1.3,7.1-2.2,12.7-2.4c5.6-0.3,7.4-0.3,21.6-0.3c14.2,0,16,0.1,21.6,0.3
		c5.6,0.3,9.4,1.1,12.7,2.4c3.4,1.3,6.4,3.1,9.3,6c2.9,2.9,4.7,5.8,6,9.2c1.3,3.3,2.2,7.1,2.4,12.6c0.3,5.5,0.3,7.3,0.3,21.3
		S154.2,116.7,153.9,122.3"/>
</g>
</svg>
