<?xml version="1.0" encoding="utf-8"?>
<!-- Generator: Adobe Illustrator 21.1.0, SVG Export Plug-In . SVG Version: 6.00 Build 0)  -->
<svg version="1.1" id="Слой_1" xmlns="http://www.w3.org/2000/svg" xmlns:xlink="http://www.w3.org/1999/xlink" x="0px" y="0px"
	 viewBox="0 0 160.1 135.4" style="enable-background:new 0 0 160.1 135.4;" xml:space="preserve">
<style type="text/css">
	.st0{clip-path:url(#SVGID_2_);fill:#FFFFFF;}
</style>
<g>
	<defs>
		<rect id="SVGID_1_" width="160.1" height="135.4"/>
	</defs>
	<clipPath id="SVGID_2_">
		<use xlink:href="#SVGID_1_"  style="overflow:visible;"/>
	</clipPath>
	<path class="st0" d="M149.5,1.1L6,55.4c-7.8,2.3-7.6,10-1.8,11.9l35.9,11.2l13.8,42.2c1.7,4.6,3,6.4,5.9,6.4c3,0,4.1-1.1,7.3-3.8
		c3.6-3.4,9.2-8.8,18-17.4l37.4,27.6c6.9,3.8,11.8,1.8,13.6-6.4l23.4-116C162,1.1,156.1-1.9,149.5,1.1 M45.8,75.9l81.7-51.3
		c4-2.7,5.3,0.3,3.5,2.4l-67.8,61l-3.5,30.5L45.8,75.9z"/>
</g>
</svg>
