<?xml version="1.0" encoding="utf-8"?>
<!-- Generator: Adobe Illustrator 21.1.0, SVG Export Plug-In . SVG Version: 6.00 Build 0)  -->
<svg version="1.1" id="Слой_1" xmlns="http://www.w3.org/2000/svg" xmlns:xlink="http://www.w3.org/1999/xlink" x="0px" y="0px"
	 viewBox="0 0 143.1 158.5" style="enable-background:new 0 0 143.1 158.5;" xml:space="preserve">
<style type="text/css">
	.st0{clip-path:url(#SVGID_2_);fill:#FFFFFF;}
</style>
<g>
	<defs>
		<rect id="SVGID_1_" width="143.1" height="158.5"/>
	</defs>
	<clipPath id="SVGID_2_">
		<use xlink:href="#SVGID_1_"  style="overflow:visible;"/>
	</clipPath>
	<path class="st0" d="M127.4,14.7c-5.8-5-12.7-8-20-9.9C88.8,0,70.1-1.3,51.2,1.3c-9.6,1.3-18.9,3.8-27.4,8.6
		c-10,5.6-16.9,13.7-19.9,24.9c-2.2,8-3.2,16.1-3.6,24.4C-0.4,71.4,0,83.5,3.1,95.4c3.6,13.7,11.4,23.9,24.9,29.3
		c1.5,0.6,2.8,1.4,4.3,2c1.3,0.6,1.8,1.5,1.7,2.9c-0.1,9.5,0,19,0,28.9c3.5-3.4,6-5.9,7.7-7.9c5.3-6,10.3-11,15.8-16.6
		c2.8-2.9,1.6-2.7,6-2.7c5.1,0.1,13.1,0.3,18.2-0.1c9.7-0.8,19.3-2,28.6-4.8c11.9-3.6,21.4-9.9,26.2-21.9c1.3-3.2,2.5-6.4,3.3-9.7
		c4.6-19.1,4-38.2,0.1-57.3C138.2,28.6,134.4,20.7,127.4,14.7 M68.4,26.3c0.1-1.8,1.2-2.5,2.9-2.5c14.7,0.7,25.8,5.1,34.3,16.6
		c5,6.7,7.7,15.8,8,24.2c0,1.3,0.1,2.5,0,3.8c-0.1,1.4-0.7,2.5-2.3,2.5c-1.6,0-2.4-0.8-2.5-2.5c-0.4-6.2-1.6-12.3-4-18.1
		c-4.6-11.2-13.4-17.2-24.8-20.1c-3-0.8-6-1.4-9.1-1.7C69.6,28.4,68.3,28.1,68.4,26.3 M83.3,41.9c-3-1-6-1.9-9.2-2.3
		c-1.5-0.2-2.6-1-2.3-2.8c0.3-1.7,1.4-2.3,3-2.2c10.3,1,18.3,4.7,23.8,13.6c2.6,4.2,4.1,10.1,3.9,14.5c-0.2,3.1-0.6,3.9-2.4,3.9
		c-2.6-0.1-2.2-2.2-2.4-3.8c-0.3-2.4-0.8-4.8-1.5-7.2C94.2,48.8,89.9,44.3,83.3,41.9 M92,59.2c-0.1,0.9-0.1,1.5-0.2,2
		c-0.3,1.1-1,1.8-2.2,1.9c-1.3,0-1.9-0.7-2.3-1.8c-0.2-0.8-0.3-1.6-0.4-2.3c-0.8-4.1-3.2-6.9-7.3-8c-0.5-0.1-1-0.2-1.5-0.3
		c-1.3-0.4-2.9-0.4-3-2.3c0-1.6,1.2-2.5,3.3-2.6c1.5-0.1,3.7,0.6,5.1,1.3C88.8,49.7,91.3,53.4,92,59.2 M113.6,102.9
		c-2.9,6.5-7.7,10.7-14.6,12.7c-2.5,0.7-4.9,0.1-7.1-0.9c-31.2-13.3-53.7-35.1-66.4-66.7c-0.9-2.3-1.5-4.7-1.4-6.8
		c0-8.1,7.2-15.7,15-16.1c2.2-0.1,4,0.6,5.6,2.1c5.5,5.2,9.9,11.1,13.2,17.9c1.8,3.7,1,6.3-2.1,8.9c-0.5,0.4-1.1,0.8-1.6,1.2
		c-4.2,3.1-5.1,6.2-3.1,11c3.3,7.9,8.6,14.1,15.9,18.7c2.7,1.7,5.5,3.4,8.6,4.3c2.9,0.8,5.2-0.1,7-2.3c0.2-0.3,0.4-0.5,0.6-0.8
		c4-5.6,8.3-6.5,14.1-2.9c5,3.1,9.7,6.6,14.2,10.4C114.4,96.2,115.2,99.3,113.6,102.9"/>
</g>
</svg>
