<?xml version="1.0" encoding="utf-8"?>
<!-- Generator: Adobe Illustrator 21.1.0, SVG Export Plug-In . SVG Version: 6.00 Build 0)  -->
<svg version="1.1" id="Слой_1" xmlns="http://www.w3.org/2000/svg" xmlns:xlink="http://www.w3.org/1999/xlink" x="0px" y="0px"
	 viewBox="0 0 253.8 253.8" style="enable-background:new 0 0 253.8 253.8;" xml:space="preserve">
<style type="text/css">
	.st0{clip-path:url(#SVGID_2_);fill:#FFFFFF;}
</style>
<g>
	<defs>
		<rect id="SVGID_1_" width="253.8" height="253.8"/>
	</defs>
	<clipPath id="SVGID_2_">
		<use xlink:href="#SVGID_1_"  style="overflow:visible;"/>
	</clipPath>
	<path class="st0" d="M126.9,0L126.9,0C56.8,0,0,56.8,0,126.9v0.1c0,70,56.8,126.8,126.8,126.8h0.1c70,0,126.8-56.8,126.8-126.8
		v-0.1C253.7,56.8,196.9,0,126.9,0 M189.8,175.5l-19.8,0.3c0,0-4.3,0.8-9.9-3c-7.4-5.1-14.4-18.3-19.9-16.6
		c-5.5,1.8-5.4,13.7-5.4,13.7s0,2.5-1.2,3.9c-1.4,1.5-4.1,1.8-4.1,1.8h-8.9c0,0-19.6,1.2-36.8-16.8c-18.8-19.6-35.4-58.5-35.4-58.5
		s-1-2.5,0.1-3.8c1.2-1.4,4.4-1.5,4.4-1.5l21.2-0.1c0,0,2,0.3,3.4,1.4c1.2,0.9,1.8,2.5,1.8,2.5s3.4,8.7,8,16.5
		c8.9,15.3,13,18.7,16,17c4.4-2.4,3.1-21.7,3.1-21.7s0.1-7-2.2-10.1c-1.8-2.4-5.1-3.1-6.6-3.3c-1.2-0.2,0.8-2.9,3.3-4.2
		c3.8-1.9,10.6-2,18.5-1.9c6.2,0.1,8,0.4,10.4,1c7.3,1.8,4.8,8.6,4.8,25c0,5.2-0.9,12.6,2.8,15.1c1.6,1.1,5.6,0.2,15.5-16.7
		c4.7-8,8.2-17.4,8.2-17.4s0.8-1.7,2-2.4c1.2-0.7,2.9-0.5,2.9-0.5l22.3-0.1c0,0,6.7-0.8,7.8,2.2c1.1,3.2-2.5,10.6-11.6,22.8
		c-15,20-16.6,18.1-4.2,29.6c11.9,11,14.3,16.4,14.7,17.1C200.2,174.9,189.8,175.5,189.8,175.5"/>
</g>
</svg>
