<?xml version="1.0" encoding="utf-8"?>
<!-- Generator: Adobe Illustrator 21.1.0, SVG Export Plug-In . SVG Version: 6.00 Build 0)  -->
<svg version="1.1" id="Слой_1" xmlns="http://www.w3.org/2000/svg" xmlns:xlink="http://www.w3.org/1999/xlink" x="0px" y="0px"
	 viewBox="0 0 153.4 154.6" style="enable-background:new 0 0 153.4 154.6;" xml:space="preserve">
<style type="text/css">
	.st0{clip-path:url(#SVGID_2_);fill-rule:evenodd;clip-rule:evenodd;fill:#FFFFFF;}
</style>
<g>
	<defs>
		<rect id="SVGID_1_" width="153.4" height="154.6"/>
	</defs>
	<clipPath id="SVGID_2_">
		<use xlink:href="#SVGID_1_"  style="overflow:visible;"/>
	</clipPath>
	<path class="st0" d="M78.1,0C36.5,0,2.8,33.7,2.8,75.3c0,14.2,3.9,27.5,10.8,38.9L0,154.6l41.7-13.3c10.8,6,23.2,9.4,36.4,9.4
		c41.6,0,75.3-33.7,75.3-75.3C153.4,33.7,119.7,0,78.1,0 M78.1,138c-12.7,0-24.6-3.8-34.5-10.4l-24.1,7.7l7.8-23.3
		c-7.5-10.3-11.9-23-11.9-36.8c0-34.6,28.1-62.7,62.7-62.7c34.6,0,62.7,28.1,62.7,62.7C140.8,109.9,112.7,138,78.1,138 M113.4,92.4
		c-1.9-1-11.2-6-12.9-6.7c-1.7-0.7-3-1.1-4.4,0.8c-1.4,1.9-5.2,6.1-6.4,7.3c-1.2,1.2-2.3,1.4-4.2,0.3c-1.9-1-8-3.3-15.1-10.1
		c-5.5-5.3-9.1-11.7-10.2-13.7c-1.1-2,0-3,1-3.9c0.9-0.8,2-2.2,3-3.3c1-1.1,1.4-1.9,2-3.1c0.7-1.3,0.4-2.4,0-3.4
		c-0.4-1-3.9-10.6-5.4-14.5s-3.1-3.3-4.2-3.4c-1.1,0-2.4-0.2-3.7-0.3c-1.3,0-3.4,0.4-5.2,2.2c-1.8,1.9-7,6.3-7.3,15.8
		c-0.4,9.5,6.2,18.9,7.1,20.2c0.9,1.3,12.5,21.8,31.8,30.3c19.3,8.4,19.4,5.9,22.9,5.7c3.5-0.2,11.6-4.2,13.3-8.7
		c1.8-4.4,1.9-8.3,1.5-9.1C116.6,94,115.3,93.5,113.4,92.4"/>
</g>
</svg>
