<?xml version="1.0" encoding="utf-8"?>
<!-- Generator: Adobe Illustrator 21.1.0, SVG Export Plug-In . SVG Version: 6.00 Build 0)  -->
<svg version="1.1" id="Слой_1" xmlns="http://www.w3.org/2000/svg" xmlns:xlink="http://www.w3.org/1999/xlink" x="0px" y="0px"
	 viewBox="0 0 4332 727.2" style="enable-background:new 0 0 4332 727.2;" xml:space="preserve">
<style type="text/css">
	.st0{clip-path:url(#SVGID_2_);fill-rule:evenodd;clip-rule:evenodd;fill:#E8E8E8;}
</style>
<g>
	<defs>
		<rect id="SVGID_1_" y="0" width="4332" height="727.2"/>
	</defs>
	<clipPath id="SVGID_2_">
		<use xlink:href="#SVGID_1_"  style="overflow:visible;"/>
	</clipPath>
	<path class="st0" d="M4332,82H2983.7c-8-1-18.7-1.9-34.2-2.4c-11.4,0.2-22.7,0.4-34,0.6c-5.1-0.5-10.7-1-15-1.6
		c-57.9-7.4-66.3-7.8-91.9-3.9c-10.5-1.4-21-2.8-31.5-4.3c-8.2-1.6-17.7-3.1-33.3-4.3c-46.3-6.1-100.6-9.1-130.2-7.2
		c0.6,0.3,1.4,0.7,2.5,1c-17.6-0.4-32.3-0.4-24,2c-4.1,0.8-8.2,1.7-12.4,2.5c-8.4,0.7-16.9,1.5-25.4,2.2
		c-11.8-0.9-23.4-1.8-35.1-2.6c-0.3,0-0.7,0-1,0c0.3,0,0.6,0,1,0c-13.6-0.4-27.1-0.7-40.8-1.2c-8-0.3-14.4-0.4-5.3,0.8
		c3.4,0.4,10.7,0.7,16.1,1.1c1.1,0.4,2,0.7,2.6,1c-1.4,0.3-2.8,0.7-4.2,1c-11.2-0.2-6.6,1-6.2,1.8c-2.8,1.3-5.7,2.5-8.5,3.8
		c-9.8,0.2-13.3,1.1-13,2.2c-23.4,1.2-22.4,4.4-24.7,7.3h-38.4c-9.4-0.7-22.9-1.1-29.6-1.8c-11-1.2-16.2-1.1-19.5-0.6
		c-8.4-0.1-17.1-0.1-25-0.4c-18.4-0.8-20.4-0.1-18.2,1.1c-7.9-0.5-13.7-1.3-17.1-2.3c4.4-0.5,8.8-0.9,13.3-1.4
		c11.2-0.1,3.1-1.5,0.5-2.5c0,0,0,0,0,0c-3.6-1.2-5.4-2.4-20.7-3.7c-0.8-0.3-1.3-0.6-1.8-1c11.6-0.5-5-2-10.9-3.2
		c18.9,0.6,32.5,0.4,43-0.2c13.1-0.7,4.9-2-18.4-3.3c-1.2-0.4-2.4-0.7-3.5-1.1c38.1,2.2,54,1.2,58.3-1.3c6-0.5,28.1,1,24.1-0.8
		c24.6,0.2,49.6,0.4,3.8-4.3c-18.2-2.3-39.5-3.8-61.2-5.2c-12.5-1.1-24.9-2.2-37.4-3.3c-11.7-1.7-23.5-3-29.2-1.6
		c-1.7,0.5-7,1.1,3.8,2c20.1,1.7,16-0.4,25.6-0.5c7.3,2,20.7,3.4,40.7,4.3c9.8,1.3,27,2.4,30.5,3.9c-2.2,0.2-4.5,0.4-6.7,0.6
		c-19.4-1.4-40.5-3.3-51.3-2.1c-20.2-0.5-39.4-1.9-57.9-4.1l-0.1,0c-27.1-4.7-26.4-0.8-40.8-1.6c-6.8,0.1-6.1,0.8-3.5,1.7
		c-16.5,0.8-36.6,1.2-31.4,4.2c-23.1-0.3-25.8,1.4-24.1,3.5c-3.5-0.1-6.8-0.3-10.4-0.4c-8.4-0.3-15.5-0.5-16.7,0.3
		c-2.8,1.9-29.2,1.7-22.1,4.4c-3.1-0.1-6.3-0.2-9.6-0.4c-10.1-1.3-20.2-2.6-30.3-3.8c0,0,0,0,0,0c12.3,0.2,29.7,0.7,18.3-1.3
		c-8.6-1.5-16.7-0.6-25.3-0.9c-8.8,0.9-5,2.7-3.6,4.4c0,0,0,0,0,0c-2.3,0.2-4.6,0.4-6.9,0.6c-6.7-0.2-13.5-0.5-20.1-0.7
		c-4.4-0.5-8.9-1-13.3-1.5c-21-3.7-19.5-0.4-31.3-1.2c-4.9-0.9-1.6-2-15.4-2.6c-11-0.5-7,0.9-5,1.8c-29.4,1.2,19.7,4.4,29.9,6.6
		l0.8,0.1c0,0,0,0,0,0c-0.3,0-0.5-0.1-0.8-0.1c-23.8-0.9-47.6-1.9-71.5-2.8c-3.3-0.1-6.6-0.3-9.9-0.4c4.9-0.5,10-1,14.9-1.5
		c-4.4-0.4-9.2-0.9-13-1.1c-22.1-1-17.2,0.6-12.4,2.1c-11.7,0.7-9.4,2.6-13.9,4c5.9,0.5,11.8,0.9,17.8,1.4c2.2,0.4,4.9,0.7,7.9,1.1
		c0.8,0.3,1.6,0.5,2.4,0.8c-0.2,0-0.5,0-0.7,0c-13-0.5-19,0-24.2,0.5c-3.6,1.7-25.7,1.9-10.9,5c0,0,0,0,0,0c-2.4,0.2-4.6,0.4-7,0.6
		c-0.5,0.9-4.9,1.3-13.7,1.3c1.7,0.5,3.3,1,4.9,1.6c-0.8,0.1-1.5,0.1-2.2,0.2c-1.9,0.2-2.8,0.5-3,0.9c1.1,0.3,2.2,0.7,3.4,1
		c-22.3-0.1-1.2,2.3,3.9,3.8c2.2,0.4,4.4,0.7,6.7,1h-13.1c-19.1-1.6-40.2-3.7-35.7-0.1c3.6-0.2,7.1-0.1,10.5,0.1h-51.1
		c-26.4-2.8-49.6-5.7-69.4-8.6c-1-0.1-2-0.3-3-0.4c-0.2,0.1,0,0.3,0.4,0.5c-5.6,0.1-11.2,0.2-16.8,0.3c-17.7-0.3-32.5-2.1-47.6-3.7
		c-0.7-1,22.7-0.3-0.1-2.8c-22.3-2.4-9.4-2.9-2.7-3.7c6.9,0,10.3-0.2,11.3-0.5c-3.1-0.7-5.9-1.5-8.4-2.2c-1.8-0.3-3.8-0.6-6-0.8
		c-7.8-1.9-24.5-4.4-37.6-3.9c-12.3,0.5-1,3.3,16.9,5.7c7.4,1.9-5.8,2.1-7.5,3.3c-11.5-0.6-23-1.3-36.1-2
		c44.1,6.3,40.1,7.5-16.5,6.7c-14.2-0.2-17.7,0.9-12.9,2.6c-8.4-0.3-15.5-0.4-17.2,0.2c-8.3-0.3-15.3-0.4-17.1,0.2
		c-9.1,0-5.6,2-22.6,0.5c-42.6-3.7-49.1-1.9-56.2,0c-1.1,0-2.2,0-3.3,0c-8.5-1.2-18.6-2.5-30.7-3.8c-15.4-4.3-36-8.2-87.8-10
		c-19.5,0.4-38.8,0.7-58.1,1.1c-8.7-0.9-18.2-1.8-25.5-2.7c-98.8-12.6-113.2-13.2-156.7-6.6c-17.9-2.4-35.9-4.8-53.7-7.3
		c-13.9-2.7-30.3-5.2-56.8-7.4c-79-10.4-171.6-15.5-222.1-12.2c1,0.5,2.3,1.1,4.3,1.7c-30-0.6-55.1-0.7-40.9,3.4
		c-7,1.4-14,2.9-21.2,4.3c-14.4,1.3-28.8,2.5-43.3,3.8c-20.1-1.5-39.9-3-59.8-4.5c-0.6,0-1.2,0-1.8,0c0.5,0,1.1,0,1.6,0
		c-23.3-0.7-46.3-1.3-69.7-2c-13.7-0.5-24.7-0.7-9.1,1.4c5.9,0.8,18.2,1.3,27.5,1.9c1.9,0.6,3.4,1.2,4.4,1.8
		c-2.4,0.6-4.8,1.1-7.1,1.7c-19.1-0.3-11.3,1.7-10.5,3.1c-4.7,2.2-9.7,4.3-14.6,6.5c-16.7,0.4-22.6,1.8-22.1,3.8
		c-43.6,2.2-37.5,8.5-43.4,13.8c-3.7,1.5-7.6,3-11.2,4.5c-13.4,0.6-26.7,1.2-39.8,1.8c-3.2-0.4-6.4-0.8-9.7-1.2
		c4.8-0.7,11.4-1.3,11.7-2.3c12.6-4.6-45.2-5-65.7-7.2c-18.8-2-27.7-1.8-33.3-1c-14.3-0.2-29.1-0.1-42.7-0.7
		c-31.5-1.4-34.8-0.1-31,1.8c-13.5-0.9-23.3-2.2-29.2-3.9c7.5-0.8,15-1.6,22.6-2.4c19.1-0.2,5.2-2.6,0.8-4.3c0,0,0,0-0.1,0
		c-6.2-2-9.3-4-35.3-6.2c-1.3-0.6-2.3-1.1-3.2-1.6c19.9-0.8-8.5-3.4-18.6-5.4c32.2,1.1,55.4,0.6,73.4-0.3c22.4-1.2,8.3-3.5-31.5-5.6
		c-2-0.6-4.1-1.2-6-1.8c65,3.7,92.1,2.1,99.5-2.2c10.3-0.9,48,1.7,41.1-1.4c42,0.4,84.6,0.8,6.6-7.4c-31.1-4-67.4-6.5-104.5-8.8
		c-21.3-1.9-42.5-3.7-63.8-5.6c-20-2.9-40.1-5.2-49.9-2.7C87,1.9,78.1,3,96.4,4.5c34.3,2.8,27.2-0.8,43.7-0.8
		c12.4,3.4,35.4,5.9,69.4,7.4c16.7,2.3,46,4.1,52,6.7c-3.8,0.4-7.7,0.7-11.5,1.1c-33.1-2.4-69.1-5.7-87.4-3.5
		c-34.5-0.8-67.3-3.3-98.8-7l-0.3,0C21.5,1.1,18.6,5.8,0,5.8v721.5h4332V82z"/>
</g>
</svg>
