<svg id="Слой_1" xmlns="http://www.w3.org/2000/svg" viewBox="0 0 576 575.8">
    <style>
        .st0{fill:#2d6965}
    </style>
    <path class="st0" d="M433.7 181.2c0-.4-.1-.7-.2-1.1-.1-.3-.1-.6-.3-.9-.1-.3-.4-.5-.6-.8s-.4-.6-.7-.8c-.1-.1-.1-.2-.2-.2l-97.1-76.1c-.1-.1-.3-.1-.5-.2s-.4-.3-.6-.4-.4-.2-.6-.2c-.3-.1-.5-.1-.8-.2-.3 0-.5-.1-.8-.1-.1 0-.2-.1-.3-.1-.1 0-.2 0-.3.1-.3 0-.5.1-.7.1-.3 0-.5.1-.8.2-.2.1-.4.1-.6.2s-.4.2-.6.4c-.1.1-.3.1-.4.2l-99.8 76.1c-.1.1-.1.2-.2.2-.3.2-.5.5-.7.8s-.4.5-.6.8l-.3.9c-.1.4-.2.7-.2 1.1 0 .1-.1.2-.1.3v84.3l-16.5-12.6c-2.1-1.6-4.9-1.4-6.9.1-.1 0-.1 0-.2.1l-57 43.6c-.6.4-1 1-1.4 1.6-.2.2-.3.4-.4.6-.1.1-.3.2-.4.4-.1.1-.1.3-.2.4-.2.3-.3.6-.4 1-.1.4-.2.7-.2 1 0 .2-.1.3-.1.4v81.1c0 1.9 1.1 3.7 2.8 4.6l55.6 30.7v26.1h-28.3c-3.1 0-5.5 2.4-5.5 5.3s2.5 5.3 5.5 5.3h199.8c3.1 0 5.5-2.4 5.5-5.3s-2.5-5.3-5.5-5.3h-35.2v-61.4l94.5-56.8c1.6-1 2.6-2.7 2.6-4.5V181.4c0-.1-.1-.2-.1-.2zM200.4 328.9l-43.7-27.2 43.7-33.3v60.5zm11 42c.7-.1 1.3-.4 1.9-.7l41.5-26.7V380l-43.4 26.1v-35.2zm25.5-51v-75l88.8 53.5V329l-52.8-32.7c-.1-5.4-4.4-9.7-9.8-9.7s-9.8 4.4-9.8 9.8 4.4 9.8 9.8 9.8c1.5 0 2.8-.3 4.1-.9l58.6 36.3v27.2l-88.9-48.9zm88.7-34l-88.8-53.5V184l88.8-67.7v169.6zm11.1 2.2v-38.6l57.8-37.2c1.2.5 2.5.8 3.9.8 5.4 0 9.8-4.4 9.8-9.8s-4.4-9.8-9.8-9.8-9.8 4.4-9.8 9.8l-51.9 33.4V116.5l86 67.4v48.9c-.2.1-.4.1-.6.2l-85.4 55.1zm-110.9-8.9V323c0 1.9 1.1 3.7 2.8 4.6l16.6 9.2-33.8 21.7v-90.2l14 10.7c.2.1.3.2.4.2zm-72.7 101.2v-68.2l47.3 29.4v14.8l-32.8-20.3c-2.6-1.6-6-.9-7.6 1.6-1.7 2.5-.9 5.8 1.7 7.4l38.6 23.9c.1 0 .1 0 .2.1v37.5l-47.4-26.2zm58.3 64.5v-26.2l51.8-31.2c1.6-1 2.6-2.7 2.6-4.5v-34.8l59.8 33v63.7H211.4zm125.3-74v-70l86-55.4v73.6l-86 51.8z"/>
    <path class="st0" d="M371.9 465.1h-166c-3.1 0-5.5 2.4-5.5 5.3s2.5 5.3 5.5 5.3h166c3.1 0 5.5-2.4 5.5-5.3s-2.5-5.3-5.5-5.3z"/>
</svg>
