<svg id="Слой_1" xmlns="http://www.w3.org/2000/svg" xmlns:xlink="http://www.w3.org/1999/xlink" viewBox="0 0 1866.1 2373.7">
    <style>
        .st0{clip-path:url(#SVGID_2_);fill-rule:evenodd;clip-rule:evenodd;fill:#fff}
    </style>
    <defs>
        <path id="SVGID_1_" d="M0 0h1866.1v2373.7H0z"/>
    </defs>
    <clipPath id="SVGID_2_">
        <use xlink:href="#SVGID_1_" overflow="visible"/>
    </clipPath>
    <path class="st0" d="M1859.6 2150.6c-1.2.1-2.3.3-3.5.5-.7-2-1.7-3.7-4.7-4.2v-46.7c.2-.3.3-.5.5-.8l7.5-6.6c4.8-2.2 8.4-4.3 1.9-5.1-2.1-.2-5.4-1-7.3.9-3.6 3.5 3.9 2.6 5.4 4.2-3.4.7-6.1 1.7-7.9 3V0H22.8v1759.9c-3.3 4.4-6.7 8.7-10 13.1.9 4.3.9 8.8-.3 13.3-1.7 6.3-5.1 11.7-6.9 17.9-.1.2-.1.5-.2.7 0 .8.1 1.8.3 2.9-.7 1.9-.5 4.6-.5 7.1l-.6 1.2c.3 4.4 1.1 8.9 1.7 13.2 1.1 8.6 1 17-1.8 25.2 0 .1-.1.3-.1.4 0 .1.1.2.1.3.6 1.4.6 2.2.4 3.2.3 1.6-.6 3.4.9 4.8s1.5-.5 1.6-2.6c0-.7.3-1.1.5-1.6.2.5.4 1.1.6 1.6 0 .4.1.9.1 1.3-.8 1.2-.8 3.5-1.1 5.5-1.6.8-1 4.2-1.1 6.9-.2.3-.4.6-.6.8-3 1.6-1.9 7.7-1.5 13.2 0 .4 0 .7-.1.9-.7-.5-.3-3.5-1.2-2.9-.7.5-1.8 1.3-.5 4.4.3.7.5 1.4.9 1.8 0 .9.1 1.7.4 2.6v.4c-.8-.4-.7-2.5-1.3-3.5-.9 3.8-1.1 8.4-1.5 12.7-.7.4-.6 2-.6 3.3v1.3l-.3 3.6c0 .2-.1.4-.1.5 1.9 6.5 3.5 13.1 3.7 20.1.2 8.4-1.1 16.7-1.9 25 .1 2.1.5 4.2 1.3 6.4.2 2.8.5 5.3 2.2 6l2.1-1.2c.2.5.5 1 .7 1.6.4 1.4.8 2.6 1.1 3.5-.3 2.1-.5 4.1-1.3 5.8-1 .9-1.5 2.6-1.4 5 0 .6-.1 1.1-.2 1.5 2.9 3.6 6.3 6.7 8.9 10.7 3.8 5.9 4.8 11.2 2.2 18.1-.7 1.9-3.2 6.3-3.3 7.3-.2 1.7.7 4.2.9 5.9.8 5.7 1.4 11.5 2.2 17.2.5 3.8.6 8.3 2.5 11.5.9 1.5 2 2.8 3.1 4v97.6H84c-5.2 9.4-12.3 17.3-17.8 26.6 4.8.3 9.4 1.1 14.1 2.9 1.9.7 3.6 3.5 2.8 6-3.3 10-9.6 17.2-15.8 24.5 5.5-.6 11.1-.8 16.7 0 1 .1 1.9.7 2.6 1.4.8-.4 1.5-.8 2.3-1.2 1-.5 1.9-.5 2.6 0 2.3-1.8 4.7-3.5 7.1-5.3 2.7-2.1 5.7.7 6 4.2.7 11 .1 21.9-.7 32.8l.1.1c2.5.8 4.9 1.6 7.4 2.5 1.2 1.1 2.4 2.1 3.7 3.2.5 3.1 2.6 4.7 7.2 3.8.9 2.5.4 5.9 5.2 5.8 4.4 1.2 4.3 6.6 10.8 5.9.6.3 1.1.5 1.7.8 1.3 1.1 2.7 2.1 4 3.1l5.4 3c.6.8 1.2 1.5 1.8 2.3-1.8 2.7-1.1 4.4 1.5 5.2 1.8 2.2 6.5 2.1 7.3 5.2 6.7.1 9.4 6.4 18.6 2.5.7-.2 1.3-.4 2-.7 3.7 1 5.9 3.8 11 3 1.4 0 2.9.7 4.1-.9 1.7-2.1-.5-2.1-2-2.5h-.1c-.5-1.4-1-2.7-1.5-4.1 1.7.2 3.4.3 5.1.5 1.2 2.3 5.1 1.5 7.4 2.5 3.9.7 7.7 3.6 11.9-3.1 1.9-.9 3.7-1.9 5.6-2.8-.1-.2-.2-.3-.3-.5 3 .1 6.5-.1 10-.3 2.6 5.2 10.8 7.6 18.3 10.3 5 1.1 10.1 2.2 15.1 3.2 2.5 1.4 4.9 2.9 7.4 4.3 1 4.2 5.3 6.3 14.8 5.1 1.8 3.4.7 8.1 10.6 7.8 9 1.6 8.7 9 22.1 7.8 1.2.4 2.3.7 3.5 1.1l8.1 4.2c3.6 1.3 7.3 2.6 10.9 3.9 1.2 1 2.5 2.1 3.7 3.1-3.8 3.8-2.3 6 3 7.2 3.7 3 13.4 2.7 14.9 7 13.6 0 19.3 8.6 38.1 3.1 1.3-.3 2.7-.6 4-.9 7.5 1.3 12.1 5.1 22.6 3.9 2.8-.1 5.9.9 8.5-1.3 3.5-2.9-1-2.9-4.1-3.3h-.1c-1-1.8-2.1-3.7-3.1-5.5l10.5.6c2.4 3.1 10.3 1.9 15.1 3.2 8 .8 15.8 4.8 24.4-4.5 3.8-1.3 7.7-2.6 11.6-3.9-1.2-1.1-2.3-2.1-3.5-3.2 1.3-.9 2.6-1.8 4-2.7 3.9-.6 7.9-1.2 11.9-1.9l-1.1.1.1-.6h1.2c-.1.2-.2.4-.3.5.9.6 2 .9 3.3.9-.7 1.8 1.1 2.9 4.7 3.1 4.6.3 4-1.9 4.7-3.2 1.3-.1 2.5-.2 3.7-.4 2.4 4.5 10.9 4.2 19 4.2 1.2-.2 2.4-.3 3.5-.3-.3 3.7 16.4.9 7.2 8 1.7 4.2 9.9 4.2 16.6 4.6 11.9.8 22.9 2.7 36.5 1.5 1.3.4 2.7.8 4 1.2 0 3.9 4.2 5.5 11.6 5.4 2.5-.4 4.9-.9 7.4-1.3 5.1-.8 10.2-1.7 15.3-2.6.6.3 1.5.4 2.5.2 3.9 2 10.2 1.4 16.3 1 3.8.6 7.7 1.2 11.5 1.7v1.7c-1.4 2.2-6.5 5-.4 5.8-.4 3.8 6.1 3.3 10.8 3.9 6.4-.2 13-1.3 19.6-3.3 1.4.3 2.8.5 4.2.9-4 3.8-10.7 3.3-17.4 5.8 9 1.6 19.8-2.1 28.3-1.7 11.7-2 23.4-4 35.1-6.1 15.4-2.7 30.9-5.4 46.3-8.1 6.5-1.1 13.1-2 16.4-6.4-2.4-.9-4.8-1.8-7.1-2.7 0-.7-.1-1.4-.1-2l8.1-3c10.3-.8 21.8-5.9 31.4-4 12.5 1.3 25.2-.9 38.4-6.6 14.8-3.1 30.6-2.5 43.8-11.3 13.3-4.1 25.4.4 39-6.4 10.4-1.3 21.2-5.9 31.4-5.4 4.6 1.9 10.3 1.3 16.8-1.6 9.9-3.6 16 1.6 26-2.2 14.1-.5 27.6-.2 42.7-2.7h.2c.8-.1 1.7-.3 2.4-.5 11.1-1.8 20.4.9 32.2-2.6 12 3.1 27.6-.2 42.3-1.9 7.5-.3 14.5.7 23-2 6.5-.4 12.9-.9 19.4-1.3 14.2-.6 28.3-1.2 42.5-1.7 11.6-1.3 22.7-.9 34.9-4 4.1-.1 8.1-.2 12.2-.2 7 1 14 1.7 22.9-2 6.9 1.1 15-.8 22.8-2 4.5 1 8.2 3.7 15.7-.8 9-.3 17.9-.5 26.9-.8 6.3 2.3 12.9-1 19.5-3.5 4 1.9 9.5.4 17.5-1.8-6.8-.1-11.9-.1-16.9-.2h-.3c3-2.8 7.6-3.2 11.9-4 4-1.3 7.9-2.6 11.9-3.9 1.2.4 2.5.8 3.7 1.2 2.7-.7 5.5-3.1 7.9-1.3 2.6 1.7 7.3.5 11.5 0 4.8 3.5 11.6 2.4 18-2.3 3.4-2.5 5.8-2.8 9.3-2.6 4.4-1.8 11.5.1 13.5-4.8 2.1-4.9-4-4.2-10.6-3.5-2.2.2-4-.5-5.9-.7 1.4-.8 2.7-1.6 4.1-2.5 1.3-.3 2.7-.6 4-.9 5.1 1.8 12.4.8 19 .6 4.9 4.2 14.7 1 23.2-.3l3.6 1.5c9.7 7.9 27.1 1.9 43.3-2.1 1.1-.2 2-.3 2.9-.1-.4 2.3-10.6 2.5-7 5 2.7 1.8 7 4.6 14.5-.8 1.7-1.1 3.4-2.2 4.2-3.4 2.8-.3 5.4-1 7.6-2.4.5-.1.9-.2 1.4-.3-.1 2.5-6.7 3.4-8.8 5.4 13.2.6 27.8-.9 41.9-1.8 2.4 1.9 7 .7 11.3.1 1.4-.2 2.7-.5 4.1-.7 3.9-.3 7.8-.6 11.8-.9 14.5.9 29.8-.1 46.4-3.9 8.4 3.7 18.5-5 27.3-4.4 4.1-1.2 6.4-3.1 8.2-5.1 13.3.5 23.3-7.4 35.4-10.1 13.8-2.2 28-2.5 40.1-10.4 8.5-1.8 15.7-4.1 15.3-9.3-2.4-1.9-4.8-3.7-7.2-5.6 1.3-.9 2.5-1.9 4-2.7 20.4-10.5 20.6-12 2.1-15.8 4-1.9 8-3.8 12-5.8 4.9-1.5 9.3-3.3 12.1-6.1 16.8-8.3 20.8-17.7 9.3-22.4m-1846.3-259c-.1-.2-.2-.4-.2-.6.1.1.2.1.3.2 0 .1 0 .3-.1.4m1693.2 338.8c-.1.1-.2.1-.3.2-.2-.1-.4-.3-.6-.4.2 0 .4-.1.5-.1.2.1.3.2.4.3M191 2285.3c-.3-.1-.5-.2-.8-.3-.1.3 0 .6.1.8-.2.2-.4.3-.6.5-.6 1-.8 1.9-.4 2.7l.2.2c-1.5.5-2.9 1.1-3.2 2.2-1.6 0-3.3.1-5.1.8 1.3-1.1 2.4-2.3 2.7-3.7v-.1c1.1-1.3.9-2.5 1-3.8 1.1-.2 2.2-.4 3.4-.5.7.3 1.3.6 2 .9v-.1c.1.1.4.3.7.4m33.4-3.2c1.2-.3 2.5-.5 3.7-.8h-.5v-.4h.6c0 .1-.1.3-.1.4l.3.3c-1.4.2-2.7.4-4 .5m203.6 58.7c-.6-.1-1.1-.3-1.7-.4-.1.4-.1.8.1 1.2-.4.2-.8.5-1.2.7-1.3 1.4-1.6 2.6-.9 3.7.1.1.3.2.5.3-3.1.8-5.9 1.6-6.7 3.1-3.4 0-6.8.2-10.6 1.2 2.8-1.6 4.9-3.2 5.5-5.1v-.2c2.2-1.8 1.9-3.5 2.2-5.3 2.3-.3 4.6-.6 6.9-.8 1.4.4 2.7.8 4.1 1.2l.1-.1c.6.2 1.1.3 1.7.5m216.1-25.8c1.4-.5 2.8-1 3.8-.8-1.3.3-2.6.6-3.8.8m37.2-53.9v-.4c.4 0 .7-.1 1.1-.1-.3.3-.7.4-1.1.5m21.6 99.7s-.2.1-.3.2c-.1-.2-.3-.4-.4-.5.3.1.6.2.7.3l.1-.1c0 .1 0 .1-.1.1m3.3-43.2c.6-.6 1.7-1.3 3.8-2 0 .1.1.1.1.2-1.5.8-2.8 1.4-3.9 1.8m12.5 36v-.3c.2 0 .4.1.6.1-.2.1-.4.2-.6.2m44.6-64.2c-.2.1-.4.1-.5.2-1.4-.2-2.7-.3-4-.4 1.9-.8 3.3-1.4 4.6-2.1-.1.8 0 1.5-.1 2.3m33.9 36.7l.6.3c-.3 0-.6-.2-.6-.3m54.6-56.5c-.2-.2-.3-.4-.5-.6.2 0 .4-.1.7-.1-.2.2-.1.5-.2.7m35.3 11.3c.1-.1.1-.2.2-.2s.1.1.3.1c-.2.1-.3.1-.5.1m12.2-45.9c-.1-.1-.2-.1-.2-.2.2 0 .3 0 .5-.1-.1.2-.2.3-.3.3m94.2 58l.3-.3c.1 0 .1-.1.2-.1 0 0 0-.1.1-.1l1.5-1.5c-.5.7-1.2 1.4-2.1 2m90.6-38.4c-.2-.5-.4-.9-.8-1.2.5-.1 1.1-.1 1.6-.2-.2.5-.5.9-.8 1.4m215.5 18l-.6-.3c.4-.1.8-.1 1.1-.2l-.5.5m82.6-50.1c.2-.2.3-.4.5-.6.1.1.3.2.4.3l-.9.3m105.9 4.3c0-.2.1-.4.1-.6.1 0 .2.1.3.1-.2.2-.3.3-.4.5m76.8-1.7c.1-.3.2-.5.2-.9.4-.1.8-.1 1.2-.1-.4.5-.9.8-1.4 1m98.4 15l-.1.1-.1-.1c0 .1.1 0 .2 0l.4-.4c.1 0 .1 0 .2.1l-.6.3m43.5-.5c-1.3-.8-3.1-1.2-5.4-1.2 2.2-.6 4.4-1.2 5.1-2.5 1.5.6 3.5.9 5.6 1-1.8.6-3.6 1.6-5.3 2.7m21.1-27.4c-.1-.2-.2-.4-.4-.5.3 0 .6 0 .9.1-.2.1-.4.2-.5.4"/>
</svg>
