<svg id="Слой_1" xmlns="http://www.w3.org/2000/svg" xmlns:xlink="http://www.w3.org/1999/xlink" viewBox="0 0 3719.2 2310.6">
    <style>
        .st0{clip-path:url(#SVGID_2_);fill-rule:evenodd;clip-rule:evenodd;fill:#ccc}
    </style>
    <defs>
        <path id="SVGID_1_" d="M0 0h3719.2v2310.6H0z"/>
    </defs>
    <clipPath id="SVGID_2_">
        <use xlink:href="#SVGID_1_" overflow="visible"/>
    </clipPath>
    <path class="st0" d="M623.5 7.6c-8.2 13.9 2.3 30.2 17.2 38.3 6.9 11.2-2.1 23.8-2.2 35.6-8.6 3.2-17.3 6.4-27.2 10.1 36.8 22.6 35 36.3-5.4 73.7-1.4 1.3-2.6 2.7-3.7 4.1H539v85.8c-13.9 7.3-16.1 23.3-18.5 39.6-4 5.3-8 10.5-11.9 15.7-11.8 4.8-19.5 14.1-26.9 23.6-13.4-8.9-8-24.5-8.8-37.8 6.6-5.4 19-7.6 15.6-16.4-3.6-9.1-10.1-1.4-13.2 4.8-1.7 3.5-2 7.5-2.9 11.8-21.2 14.8-17 32.5-13.5 50.1-19.7 18.2-27.5 41.4-36.7 64-3.3 13.3-6.7 26.7-10 40.1-5.1 8.7-10.3 17.5-15.4 26.3-16.3 12.3-23.6 26.6-17.3 44-12.9 12.1-31.2 21.1-28.5 41.6-4.7 23.1-33.4 40.5-26.6 66.3-1.3 3.4-2.4 6.8-3.5 10.1-5 9.2-10.1 18.4-15 27.7-4.4 10.9-9 22-13.4 32.9-3.8 5.1-7.5 10.2-11.3 15.3-15.2 1-23.7 9.5-27.2 23.6-11.1 15.2-8.3 35.2-24.6 48.7 2.1 29.3-29.9 61.9-5.4 89.1 1.5 2.1 2.9 4.2 4.3 6.4-3.9 19.2-17.6 38.2-11.2 57.7.8 5.8-2.5 14.9 6.3 15.1 11.9.4 11.1-9.3 12.2-16.7l.2-.4c7-6.7 13.9-13.3 20.9-20-.2 8-.3 16-.5 24-11.7 12.7-5.7 26.8-10 40.2-1.9 19.1-15.9 45.5 21.5 41.5 5.7 5 11.4 10.2 17.2 15.3 3.9-5 7.8-10 11.7-15.1 3.7.7 7.5 1.3 11.2 2 3.1 6.9 6.2 14 9.2 21l-.4-2.1 2.2-1.2c.1.9.2 1.7.4 2.5-.7.2-1.4.5-2.1.7-2.3 3.4-3 6.4-2.9 9.2-7.2 3-11.2 9.4-11.3 17.7-.2 10.6 8 4.1 13.3 2.3.7 2.4 1.4 4.7 2 7.2-16.9 15.8-14.3 33.5-13.1 51 .8 2.2 1.4 4.5 1.6 6.9-14.3 8.2-.9 37.5-29.8 34.7-15.8 13.8-14.5 31.3-15.2 46.8-1 27.3-6.8 55.6.4 81.7-1.3 3.8-2.5 7.6-3.8 11.4-15.3 9.5-20.7 22.4-18.8 37.8 2.1 4.3 4.2 8.4 6.4 12.7 4.1 8.8 8.3 17.7 12.5 26.5-1 2.1-1.1 4-.3 5.8-7.1 13.3-3.6 25.3-1.2 37.4-1.5 9.5-3.2 19.2-4.7 28.8-2.2 1.3-4.3 2.7-6.5 4-8.6 2.3-20.5-1.9-22.6 13.2-14.7 8.3-11.7 20.9-13.2 32.5 1.8 13.4 7.2 24.7 16.1 34-.8 3.7-1.6 7.3-2.6 11.1-15.3.5-14.8-14.9-25.4-23.3-4.6 23.1 11.5 37.3 11.6 56.3 9.8 20.2 19.6 40.3 29.6 60.5 13 26.6 26.4 52.9 39.4 79.5 5.5 11.3 10 23.3 27.6 19.6 3.1-7.2 6.2-14.5 9.3-21.8 2.6-1.7 5.2-3.4 7.9-5.1 4.4 3.3 8.8 6.7 13.1 10 4.9 20.2 26.7 32.4 20.8 57.6-2.9 29.8 7.7 51.9 32 66.3h-.1c14.7 24.1 14.9 59.4 51.1 66.6 18.2 18.5 2.8 55.4 31.3 68.2 6.7 19.3 26.6 31 26.4 54.1-6.5 14.5-3.2 25.1 9.1 32.1 15.7 12.5-3.5 38.3 13 50.4.6 3.7 1.1 7.4 1.6 11.2l17.4.9v134.6h340c3.1 2.3 14.9 3 24.7 3.8 20.2 1.7 37.9 4.2 62.6 4.5 2 .4 4.1.8 6.1 1.3-3 3.1 3.2 4.7 16.2 5.2 4.7-.1 9.2-.2 14-.4 9.5-.2 19-.4 28.6-.6.9.3 2.3.4 4.3.4 5.4 1.9 16.8 2 27.7 2.3 6.3.8 12.5 1.6 18.8 2.4-.5.4-.9.9-1.4 1.3-4 1.6-15.2 3.3-5.1 4.5-3.5 2.9 8.1 3.1 15.9 4 11.4.5 23.7.2 36.8-.8 2.2.3 4.5.7 6.7 1.1-9.9 2.6-21.3 1.6-34.8 2.9 14.5 2.1 36.1.2 50.7 1.2 22-.5 43.9-1 66-1.5l87.1-2.1c12.3-.3 24.5-.4 33.5-3.5-3.4-.9-6.9-1.8-10.4-2.8.4-.5.9-1.1 1.3-1.6 5.5-.5 11-1.1 16.5-1.6 18.6.3 42.7-2.6 57.9-.3 20.8 2.1 44.8 1.6 72.1-1.6h-.1c28.2-1.1 55.3.8 85.2-4.8 26.3-2 44.1 2.6 73.1-1.4 19.2 0 41.5-2.7 59-1.4 6.7 1.9 17 1.9 30.6.3 20.1-1.9 26.8 2.7 47.2.6 25 .9 48.4 2.4 76.7 1.8h.4c1.6 0 3.1-.1 4.6-.1 20.8-.4 34.9 2.6 58.3.9 18.5 3.5 48.4 2.3 75.4 2.4 13.4.4 24.8 1.8 41.7.5 11.7.2 23.3.5 34.9.7 25.2.8 50.4 1.7 75.7 2.5 21.3 0 40.4 1.3 64 .1 7.2.3 14.3.6 21.5.9 11.4 1.4 23.2 2.6 41.5.5 11.2 1.5 26.8.8 41.5.5 7.2 1.2 11.5 3.6 28 .8 15.9.6 31.7 1.2 47.5 1.8 9.3 2.3 23.4.4 36.8-1 5.6 1.8 16.3 1.2 31.9.2-11.9-.7-20.7-1.2-29.5-1.7h-.5c7.4-1.9 15.7-1.8 23.8-2 8-.7 15.9-1.3 23.8-2 1.8.4 3.7.9 5.6 1.3 5.1-.3 11.9-1.9 14.8-.3 3.2 1.6 12.4 1 20 1 5.7 3.2 18.5 2.9 33.2-.1 7.9-1.6 12.3-1.6 18.3-1.2 9-1 20 1.1 27.3-2.5 7.4-3.6-3.7-3.6-15.9-3.7-4 0-6.6-.7-9.8-1.1 3-.5 6-1 9.1-1.5 2.6-.1 5.1-.2 7.7-.3 7.5 1.8 21 1.7 32.7 2.2 5.3 3.7 24.9 2.1 40.8 1.9 1.8.5 3.5 1 5.2 1.5 10.9 7.1 46 3.9 77.3 2.3 2.1-.1 3.8 0 5.1.2-2.4 1.7-20.5 1-16 3.2 3.3 1.6 8.7 4.2 25.9.7 3.9-.7 7.6-1.4 10-2.2 5.1 0 10.1-.3 15.1-1.1.9 0 1.7-.1 2.6-.1-2.1 1.9-14.2 2-19.4 3.4 22.7 1.7 49.2 1.8 74.7 2.4 2.8 1.7 11.8 1.2 19.6 1.1 2.6-.1 5.1-.1 7.6-.2 7.1.1 14.1.3 21.2.4 24.8 2 52.2 2.7 84 1.2 11.8 3.6 36.1-2.2 51.1-1-.6-.1-1.3-.2-1.9-.2.7.1 1.3.1 1.9.2 8.1-.6 13.5-1.8 18.2-3.2 22.9 1.6 46.3-3.6 69.5-4.6 25.7-.4 50.8.6 78-4.4 16.2-.6 30.5-1.8 33.8-5.8-2.8-1.7-5.6-3.3-8.3-5 3-.6 5.8-1.3 9-1.7 2.4-.3 4.6-.7 6.7-1H3523v-66.8c1.5.1 3 .4 4.5.6 1.1 3.2-3.9 8.6 2.8 10 6.6 1.3 4.7 7.5 4.3 12.6-1.3 2.3-1.7 4.2-1.5 5.8 1.3 1.6 2.6 3.3 3.8 5.1.6.4 1.3.7 2 1 3.4 4.3 9 7.5 10.9 1.3 1.8-5.9-3.1-12.1-8.9-14.9-3.3-4.3-1.1-9.7-1.9-14.4 2.8-1.6 5.6-3.2 8.7-5-14.6-7.9-15-13.5-3.8-29.9.4-.6.7-1.2 1-1.8l22.1-2.1-6.6-34.6c4.3-3.4 3.8-9.9 3.4-16.6 1-2.3 2-4.5 3-6.7 3.8-2.3 5.7-6.3 7.6-10.4 5.4 3.1 4.7 9.6 6 14.9-1.9 2.4-6.1 3.7-4.2 7.1 2 3.6 3.7.2 4.2-2.4.3-1.5.1-3.1.1-4.9 6.3-6.7 3.4-13.7.9-20.6 5.5-8 6.5-17.6 7.9-27 .1-5.5.3-11 .4-16.5 1.1-3.7 2.3-7.4 3.3-11.1 4.8-5.5 6.2-11.5 2.7-18.3 3.6-5.3 9.3-9.5 6.8-17.7-.1-9.5 8.6-17.4 4.2-27.6.2-1.4.3-2.8.5-4.2 1.1-3.9 2.1-7.8 3.1-11.6.7-4.6 1.5-9.1 2.2-13.7.9-2.2 1.8-4.4 2.8-6.5 5.2-.9 7.6-4.6 7.7-10.4 2.7-6.5.2-14.5 4.8-20.4-3-11.7 5.7-26-5-36.1-.7-.8-1.3-1.6-2-2.4-.1-7.9 3.2-16-.5-23.6-.7-2.3-.3-6.1-3.4-5.9-4.2.2-3.2 4.1-3 7.1v.2c-1.9 2.9-3.8 5.8-5.8 8.7-.6-3.2-1.1-6.4-1.7-9.7 3.1-5.5-.1-11 .4-16.5-.8-7.8 2.1-18.9-10.7-16-2.4-1.8-4.8-3.7-7.2-5.6-1 2.2-2 4.3-2.9 6.5-1.3-.2-2.7-.3-4.1-.4-1.6-2.7-3.2-5.4-4.8-8.2l.3.8-.7.5c-.1-.3-.2-.7-.3-1 .2-.1.5-.2.7-.4.5-1.4.6-2.7.3-3.8 2.3-1.4 3.2-4.1 2.6-7.5-.7-4.3-3.1-1.4-4.8-.5-.4-.9-.8-1.9-1.3-2.8 4.7-6.9 2.4-14 .7-21-.5-.9-.8-1.8-1.1-2.7 4.4-3.8-2.6-15.1 7.7-15 4.5-6.1 2.7-13.1 1.7-19.3-1.7-11.1-1.9-22.7-6.4-32.9.2-1.6.3-3.1.5-4.7 4.6-4.4 5.5-9.7 3.7-15.9-1.1-1.7-2.1-3.2-3.2-4.9-2.1-3.4-4.3-6.8-6.4-10.3.2-.9.1-1.7-.4-2.4 1.5-5.6-.7-10.3-2.5-15.1-.2-3.9-.4-7.8-.6-11.8.7-.6 1.3-1.2 2-1.8 2.8-1.2 7.3.1 6.9-6.1 4.5-3.8 2.5-8.8 2.1-13.5-1.6-5.3-4.4-9.7-8.3-13.2 0-1.5 0-3 .1-4.6 5.3-.7 6.3 5.5 10.7 8.5-.2-9.5-6.9-14.6-8.4-22.3-5-7.8-9.9-15.6-15-23.4-6.6-10.3-13.3-20.5-19.9-30.7-2.8-4.4-5.3-9-11.2-7-.5 3-1 6.1-1.6 9.1l-2.2 2.2V1416l1.2-4.5c.4.2.9.4 1.3.7 1.5 2 3.2 7.6 4.5 2.6 2.9 1.8 3.2-4 4.1-7.9.6-5.7.4-11.8-.4-18.4.4-1.1.7-2.2 1.1-3.3 2.5 5 1.4 10.7 2.6 17.4 2.2-7.2.5-18.1 1.7-25.4l-.9-33c-.4-14.5-.9-29.1-1.3-43.6-.2-6.1-.1-12.2-3.2-16.8-.9 1.7-1.9 3.5-2.9 5.2-.5-.2-1.1-.5-1.6-.7-.5-2.8-1-5.5-1.5-8.2.5-9.3-2.2-21.4.3-29 2.3-10.4 2-22.4-1-36.1-.8-14.1 1.4-27.7-4-42.6 0-.2 0-.4-.1-.6v-12.3c.6-6.5 1.5-12.8 0-20.6v-37.7c.1-1.3.1-2.7 0-4.3v-19.2c.6-2.9.9-5.9.1-10.2 1.1-12.5 2.8-24.2 2.5-38.3v-.2c0-.8 0-1.6-.1-2.3-.2-10.4 2.9-17.4 1.4-29.2 3.7-9.2 2.8-24.2 3.1-37.7.6-6.7 2.1-12.4.9-20.9.4-5.8.7-11.6 1.1-17.5 1.1-12.6 2.2-25.2 3.2-37.8.2-10.7 1.7-20.2.7-32 .4-3.6.8-7.2 1.1-10.7 1.5-5.7 2.8-11.6.9-20.8 1.6-5.6 1-13.4.9-20.7 1.3-3.6 3.7-5.7 1.1-14 .8-7.9 1.5-15.9 2.3-23.8 2.4-4.6.6-11.7-.6-18.4 1.9-2.8 1.4-8.2.5-15.9-.8 5.9-1.4 10.4-2 14.7v.3c-1.8-3.7-1.6-7.9-1.8-11.9-.6-4-1.2-8-1.7-11.9.5-.9.9-1.8 1.3-2.8-.2-2.6-1.8-6-.2-7.4 1.6-1.6 1.1-6.2 1.2-10 3.2-2.8 3.1-9.2.2-16.6-1.6-4-1.5-6.2-1-9.1-.9-4.5 1.3-10-2.3-13.7-3.6-3.7-3.7 1.8-3.8 7.9 0 2-.8 3.3-1.2 4.9-.5-1.5-1-3-1.5-4.6-.1-1.3-.2-2.6-.3-3.8 1.9-3.7 1.9-10.5 2.5-16.3 3.8-2.6 2.3-12.5 2.3-20.4.5-.9 1-1.7 1.5-2.6 7.2-5.4 4.3-23 3-38.7-.1-1.1 0-1.9.3-2.5 1.7 1.2.8 10.3 3.1 8 1.7-1.6 4.3-4.3 1-13-.7-1.9-1.3-3.8-2.1-5 .1-2.6-.2-5.1-1-7.5 0-.4 0-.9-.1-1.3 1.9 1.1 1.9 7.1 3.2 9.8 1.9-11.3 2.3-24.6 3.1-37.3 1.7-1.4 1.3-5.9 1.3-9.8 0-1.3-.1-2.5-.1-3.8.2-3.5.4-7.1.6-10.6 2.2-12.4 3.2-26.1 2-42 3.8-5.9-1.9-18.1-.5-25.6l-.3.9c.1-.4.2-.7.3-.9-.5-4.1-1.7-6.8-3.1-9.2 1.8-11.5-3.2-23.2-4-34.8-.2-12.9 1.1-25.4-3.7-39.1-.3-5.6-.9-10.7-2.5-13.9 2-.7 4.1-1.4 6.1-2.2 7.3-1.3 13-2.7 5.2-3.8-2.5-.3-6.3-1.2-9.8.1-6.5 2.5 3.6 2.4 4.6 3.7-2.6.2-4.9.4-7 .8-.6-.8-1.3-1.3-2.1-1.7-1.3 1-2.5 2-3.8 3-.5.2-1.1.4-1.5.6-.5-1.3-1.1-2.6-1.4-4-.3-1.2-.6-2.3-.9-3.4v-2.3c19.9-2.8 1.1-3.5 3.8-5.4-.7-.5-2-.8-3.6-.9l2.6-141.6h-4.8v-21h-282.8c-.6-.3-1.1-.5-1.7-.8-3.6-1.1-7.2-2.3-10.8-3.4-.9-.8-1.9-1.6-2.8-2.4 6.1-2.5 5.6-4.1-.1-5.2-2.8-2.4-14.2-2.7-14-5.8-15.8-.8-18.4-7.1-42.9-4.3-1.7.2-3.4.3-5.1.4-8.1-1.4-11.7-4.3-24.4-4-3.3-.1-6.4-1-10.5.4-5.4 1.9-.2 2.1 3.2 2.6h.1c.3 1.4.7 2.7 1 4.1-4-.3-8-.7-11.9-1-1.3-2.4-11.1-1.9-16-3.1-8.9-1-16.1-4.3-30.5 1.8l-15.3 2.1c.8.8 1.7 1.6 2.5 2.4-1.9.6-3.9 1.1-5.9 1.7-4.9.2-9.8.4-14.7.7h1.3l-.4.4h-1.5c.2-.1.4-.2.6-.4-.7-.5-1.9-.7-3.4-.8 1.7-1.3.1-2.1-4-2.5-5.3-.4-5.6 1.1-7 2h-4.5c-.6-3.3-10.7-3.6-20.1-4h-4.2c2.1-2.6-18.7-1.6-4.6-6.1-.1-3.1-9.5-3.5-17.1-4.2-13.4-1.2-25.3-3.2-41.7-3.1-1.4-.3-2.7-.7-4.1-1 1.8-2.8-2.3-4.2-11-4.4-3.1.2-6.1.4-9.2.5-6.3.3-12.6.6-18.9 1-.6-.2-1.5-.3-2.9-.3-3.6-1.7-11.2-1.5-18.5-1.6-4.2-.6-8.4-1.2-12.6-1.9.3-.4.5-.8.8-1.2 2.6-1.5 9.9-3.2 3.2-4.1 2.2-2.7-5.5-2.7-10.7-3.3-7.6-.2-15.7.2-24.4 1.3-1.5-.3-3-.5-4.5-.8 6.5-2.5 14-1.8 23-3.1-9.7-1.6-24 .4-33.7-.3-14.6.8-29.1 1.6-43.7 2.4-19.2 1.1-38.4 2.2-57.6 3.2-8.1.4-16.2.7-22.1 3.6 2.3.8 4.7 1.5 7 2.3-.3.5-.5 1-.8 1.4-3.6.6-7.2 1.1-10.8 1.7-12.4 0-28.2 3-38.4 1.1-13.9-1.6-29.7-.8-47.7 2.5-18.7 1.4-36.7.1-56.2 5.6-17.4 2.2-29.3-1.7-48.4 2.4-12.7.3-27.4 3-39.1 2.1-4.5-1.6-11.3-1.5-20.3.2-13.2 2-17.9-2-31.3.1-16.6-.4-32.2-1.4-50.9-.4h-.2c-1 0-2.1.1-3 .2-13.8.6-23.2-1.8-38.7.1-12.4-2.9-32.2-1.4-50-1-8.9-.2-16.5-1.3-27.7.2-7.7 0-15.4-.1-23.2-.1-16.7-.4-33.5-.8-50.2-1.1-14.1.3-26.8-.6-42.4.9-4.8-.2-9.5-.3-14.3-.5-7.6-1.1-15.5-2-27.5.1-7.5-1.2-17.8-.3-27.5.2-4.8-1-7.8-3.1-18.6-.3l-31.6-.9c-6.2-2-15.5 0-24.4 1.4-3.8-1.6-10.9-.8-21.1.3 7.9.4 13.8.7 19.6 1.1h.4c-4.8 1.8-10.3 1.8-15.7 2.2-5.2.7-10.5 1.4-15.7 2.1-1.2-.4-2.5-.7-3.7-1.1-3.4.3-7.8 1.9-9.8.5-2.2-1.4-8.3-.7-13.3-.6-3.9-2.8-12.4-2.3-22 .6-5.2 1.6-8.1 1.7-12 1.3-5.9 1-13.3-.7-18 2.7-4.7 3.4 2.6 3.2 10.7 3 2.6-.1 4.4.6 6.5.8l-6 1.5c-1.7.1-3.4.3-5.1.4-5-1.5-14-1.2-21.8-1.5-3.6-3.3-16.6-1.5-27.1-1.1-1.2-.4-2.4-.8-3.5-1.2-7.5-6.2-30.6-2.8-51.3-.9-1.4.1-2.5.1-3.4-.1 1.5-1.6 13.5-1.2 10.5-3.1-2.3-1.4-5.9-3.6-17.2-.3-2.5.7-5 1.4-6.5 2.2-3.4.1-6.7.4-9.9 1.3-.6 0-1.1.1-1.7.1 1.3-1.8 9.4-2 12.7-3.3-15.1-1.2-32.7-.9-49.6-1-1.9-1.4-7.9-.9-13-.7l-5.1.3h-14.1c-16.5-1.4-34.7-1.6-55.7.2-8-3.1-23.8 2.5-33.8 1.6.4.1.8.1 1.3.2-.5 0-.9-.1-1.3-.2-5.4.7-8.9 1.8-12 3.2-15.3-1.1-30.5 3.9-45.8 5.2-17 .8-33.7.2-51.5 5.1-8.5.6-16.1 1.5-20 3.7h-112.7c-8.3-1.2-16.9-2.2-26.4-2.9h-.2c-1-.1-2.1-.1-3-.2-13.7-1-22.5-4.5-38.2-4.5-11.6-4.3-31.4-5.1-49.1-6.9-8.7-1.2-16-3.2-27.3-3.1-7.6-1-15.2-1.9-22.8-2.9-16.4-2.3-32.8-4.7-49.3-7-14-1.4-26.3-3.7-42-4.1-4.7-.7-9.3-1.5-13.9-2.2-7.3-1.9-14.8-3.8-27.2-3.1-7.1-2-17.5-2.4-27.1-3.1-4.5-1.5-6.9-3.9-18.3-2.5-10.3-1.5-20.6-3.1-30.9-4.6-5.7-2.7-15.3-1.8-24.4-1.5-3.4-2-10.5-2.1-20.9-2.2 7.7 1.4 13.4 2.4 19.1 3.4.1 0 .2 0 .3.1-5.2 1.2-10.6.6-16 .3-5.3.1-10.7.2-16 .2-1.1-.5-2.3-1-3.4-1.5-3.4-.1-8.2.9-9.7-.7-1.8-1.6-8-1.7-13-2.2-3.2-3.2-11.7-3.8-21.9-2-5.5 1-8.4.7-12.2-.1-6.1.3-12.9-2.3-18.4.5-5.5 2.8 1.8 3.5 9.8 4.3 2.6.3 4.2 1.1 6.3 1.6-2.1.3-4.1.5-6.2.8-1.7-.1-3.4-.1-5.1-.2-4.2-1.9-11.8-2.7-18.9-3.7h-.1c-4.4-5.2-8.9-10.5-13.4-15.7-29.3-3.7-54.8-13.3-76.3-26.7-.8-.5-1.7-1.1-2.5-1.6 0 1.4.3 2.9.8 4.7-3.8 5.2-7.7 10.4-11.6 15.7-12.7 10.8-24.8 6.1-36.8 3.7-1.3-8.1 15.7-20-2.6-24.9-17.9-4.7-9.3-19.3-5.4-31.7 4.8-5.3 7.1-9.8 7.4-13.7-2.9-4.2-5.5-8.7-7.9-13.3-1.5-1-3.2-2-5-3-7-11.2-21-20.4-29.7-5.7m511 2293.2h.1c-.1 0-.2 0-.3.1l.2-.1c-.3.1-.6.1-.8.2-.1-.2-.2-.3-.4-.4.4.1.8.2 1.2.2m34-4.2c-.4 0-.8.1-1.2.1l.3-.3c.3.1.6.2.9.2m1173.6-3.5c0-.1.1-.2.1-.3.1 0 .3 0 .4-.1-.2.2-.3.3-.5.4m650.8 3.3c-3.8.4-7.6.9-11.3 1.6-1.6-.7-4.5-1.2-8.5-1.4 4.3-.3 8.6-.6 10.8-1.5 2.1.6 5.3 1 9 1.3m-86.5-2.1c-.5.1-.9.1-1.4.2-.1 0-.2.1-.3.1-.1 0-.1-.1-.2-.1h.4l1-.3c.2 0 .4 0 .5.1m81.6-3.4c-.2 0-.4.1-.6.1-.2-.1-.5-.2-.7-.4h1.1c0 .1.1.2.2.3m-743.5-4.3c-.2-.1-.5-.2-.8-.3h2.1c-.4.1-.9.2-1.3.3m-918.1-3.9c-.5 0-.9-.1-.8-.3.2.2.5.2.8.3m2240.9-249.9c-.1.1-.3.2-.4.2v-.3c.1.1.2.1.4.1m46.5-157.6c.8 2.9 1.7 5.7 3.8 7.7-2.4-.7-4.8-.6-7.2.9-.1.1-.2.1-.2.2-2.6.1-4.5 2.3-6.6 3.9-.8-1.7-1.7-3.4-2.5-5 .1-1.6.3-3.2.4-4.8h-.1c0-.6 0-1.2.1-1.9 0 .6-.1 1.2-.1 1.9.5-.4 1-.8 1.3-1.4.4.1.8.2 1.1.2 1.9-.4 3.4-1.5 4.6-3.3.1-.3.2-.5.3-.8 1.5 1.9 3.2 3.4 5.1 2.4m-50.6-255.9c0-.3 0-.6.1-.9h.1-.1c.2 0 .3 0 .4-.1-.2.4-.4.7-.5 1m-11.8-6.5c-.1.1-.3.2-.4.3v-.6c.2.1.3.2.4.3M417 1439c2.6-.3 5.4.6 8.3 3.4l-.6.6c-3.6-1-6.1-2.4-7.7-4m118 53.7c.4-3.4.7-6.6.9-9.5 1.1.7 2.1 1.3 3.1 1.9v6.4c-1 .6-2 1.2-3.1 1.9-.3-.3-.6-.5-.9-.7m-286.1 43.8h.3-1.3c.7-.7 1.3-1.5 1.9-2.2-.2.7-.4 1.4-.7 2.2l.1.1c-.1-.1-.2-.1-.3-.1m30.4 16.4c.4-.2.9-.5 1.3-.7l-.3 1.5c-.3-.4-.6-.6-1-.8m120.2 101.5c-.3.6-.7 1.3-.9 1.9-.2-.4.3-1.3.9-1.9m2641 623.9c-.5.1-.9.2-1.3.3-.1-.2-.1-.3-.2-.5h.1c.4.1.9.2 1.4.2m488.7-893s.1.2.2.3c-.2.1-.3.1-.4.2 0-.2.1-.4.2-.5-.1-.1-.1-.1-.1-.2.1.1.1.2.1.2m-3.9-16.5c-.1-.1-.2-.1-.3-.2 0-.2.1-.3.1-.4.2.2.2.4.2.6m-3105.2-62.7c-1.4-2.1-2.6-4.1-3.7-6.2 2.2 1.8 4.2 3.7 3.7 6.2m-135.5-423c-1.3 3.8-2.5 7.7-3.8 11.6l.4-.1-1.2 4.5 1.2-4.5c-1.7.8-3.2 1.8-4.5 3.1-1-.3-2-.7-3.1-.9-5.6.5-10.4 2.9-14.6 7l-1.2 1.8c-3.5-4.7-7.3-8.7-13.3-6.8-.6-7.2-1.7-14.2-6.5-19.7 6.5 2.2 13.3 2.7 20.7-.5.3-.2.5-.3.8-.5 7.2.4 13.9-4.5 20.8-8 1.3 4.5 2.8 8.7 4.3 13M3525.1 830c-.1.1-.2.3-.3.4v-1.1c.1.3.2.5.3.7m7.4-48.7h-.3c0-.1 0-.1-.1-.2.2 0 .3.1.4.2M460.7 525.9l-1.2-.3c.4-.2.9-.3 1.3-.5 0 .3-.1.6-.1.8m3078.4-26.1l.1.1s-.1 0-.1.1v-.2l-.3-.5c0-.1.1-.1.1-.2.1.2.1.4.2.7m-3.1-41.4c.1-.1.2-.1.3-.1 0 .1.1.2.1.3l-.4.4v-.6m7.3 3.1c-.7.8-1.2 2.2-1.5 4.2-.2-2.1-.5-4.3-1.4-5.4.6-1.1 1-2.7 1.4-4.5.3 1.9.8 3.8 1.5 5.7m-18.8-29c-.2 0-.3.1-.5.1l.1-.8c.1.3.3.5.4.7m-703-306.3l.2-.1-.2.1c.3-.1.4-.1.6-.2.1.1.2.3.3.4-.3-.1-.6-.1-.9-.2m-22.3 4.3c.3 0 .5-.1.8-.1-.1.1-.1.2-.2.2-.2 0-.4-.1-.6-.1m-104 14.9c.3 0 .6.1.6.2-.2-.1-.4-.2-.6-.2m-673.4 5.9v.3c-.1 0-.2 0-.3.1.1-.2.2-.3.3-.4m64.9 4.4l.6.3h-1.4c.3-.1.5-.2.8-.3m1046.9.2l-.1.1c-.6-.1-1.2-.2-1.8-.4.6.1 1.2.2 1.8.4.4-.3.5-.6.4-.8.6-.1 1.2-.3 1.8-.5 2.2-.9 3.1-1.8 2.8-2.6-.1-.1-.2-.2-.4-.3 3.9-.4 7.6-.8 9.3-1.9 3.9.2 8 .3 12.8-.3-4 1-7.2 2-8.8 3.3l-.1.1c-3.4 1.1-3.8 2.4-5 3.6-2.8.1-5.6.1-8.4.2-1.4-.1-2.8-.5-4.3-.9m-341.5 1.9c2.1-.5 3.9-.9 5.4-1.1-1 .4-2.6.8-5.4 1.2v-.1m-340.1.4c-.2.1-.3.1-.5.2-.1 0-.2.1-.3.1-.1 0-.1.1-.1.1l-2.4.9c.9-.5 2-.9 3.3-1.3m-802.9.3h-.3l-.7.3c-.1 0-.2 0-.2-.1.3-.1.6-.1.9-.2.1 0 .1-.1.2-.1 0 .1 0 .1.1.1m-58.6-.4c2.5-.4 5-.9 7.4-1.6 1.1.6 3 1 5.7 1.1-2.8.3-5.7.6-7.1 1.5-1.5-.5-3.6-.8-6-1m598.2 3.8c.2 0 .3-.1.5-.1l-.1.1h-.4m674.9.4c1.6-.1 3.2-.3 4.8-.3-1.9.2-3.7.5-4.8.3M1594 163c.1 0 .3-.1.4-.1.2.1.3.2.5.3-.2 0-.5 0-.7.1-.1-.1-.2-.2-.2-.3m-449.8.4c-.1 0-.3-.1-.4-.1h.5l-.1.1M918.5 162l-.3-.3c.4 0 .8 0 1.2-.1-.3.2-.5.3-.9.4m126.6-16.5c-.5 0-.9-.1-1.4-.1.3-.1.6-.1.9-.2.2.1.4.2.5.3m-63.5-11.9h-.3c.1-.1.2-.2.4-.3-.1.1-.1.2-.1.3"/>
    <path class="st0" d="M122.6 583.5s.1 0 0 0h-.1c.1 0 .1.1.2.1s.1-.1.2-.1h-.3"/>
    <path class="st0" d="M0 640v.2c.1 0 .2-.1.4-.2H0z"/>
    <path class="st0" d="M138 418.9l.1-.1c-.1 0-.3.1-.4.1h.3c-.1.1-.1.1 0 0"/>
    <path class="st0" d="M275.4 454.7c-.2.1-.4.1-.6.2.2 0 .3 0 .5-.1l.1-.1"/>
    <path class="st0" d="M3546 283.5c.1-.1.3-.2.4-.3l-.6.3h.2"/>
    <path class="st0" d="M3680.6 1998.3"/>
    <path class="st0" d="M3719.2 1971.5h-.1.1"/>
    <path class="st0" d="M3687.9 2065.2h0"/>
    <path class="st0" d="M3637.1 2055.3c.1 0 .1-.1.2-.1 0 0-.1 0-.2.1"/>
</svg>
