<svg id="Слой_1" xmlns="http://www.w3.org/2000/svg" xmlns:xlink="http://www.w3.org/1999/xlink" viewBox="0 0 424.5 112.7">
    <style>
        .st0{clip-path:url(#SVGID_2_);fill:none;stroke:#f36;stroke-linecap:round;stroke-miterlimit:10}
    </style>
    <defs>
        <path id="SVGID_1_" d="M0 0h424.5v112.7H0z"/>
    </defs>
    <clipPath id="SVGID_2_">
        <use xlink:href="#SVGID_1_" overflow="visible"/>
    </clipPath>
    <path class="st0" d="M199.8.8C232.9.3 320.6-.9 378 17.4c45.7 14.6 43.4 32.4 42.9 35.2-4.6 25-79.5 51.5-185.3 55.3-111.9 4-193.9-19.7-221.1-40.7-5.5-4.3-32.9-25.5 8.4-44C68.9 2.7 164.4 1.3 199.8.8z"/>
    <path class="st0" d="M206.6 2.6C239.7 4.4 327.3 9 383.2 31c44.6 17.6 41.1 35.2 40.4 38-6.3 24.7-82.7 46.1-188.5 42.8C123.2 108.3 43 79.2 17.3 56.4c-5.2-4.6-31.1-27.6 11.3-43.3C75.9-4.3 171.3.8 206.6 2.6z"/>
</svg>
