<?xml version="1.0" encoding="utf-8"?>
<!-- Generator: Adobe Illustrator 21.1.0, SVG Export Plug-In . SVG Version: 6.00 Build 0)  -->
<svg version="1.1" id="Слой_1" xmlns="http://www.w3.org/2000/svg" xmlns:xlink="http://www.w3.org/1999/xlink" x="0px" y="0px"
	 viewBox="0 0 1809.3 1443.6" style="enable-background:new 0 0 1809.3 1443.6;" xml:space="preserve">
<style type="text/css">
	
		.st0{clip-path:url(#SVGID_2_);fill:none;stroke:#2E6B67;stroke-width:3;stroke-linecap:round;stroke-linejoin:round;stroke-miterlimit:10;stroke-dasharray:5,20;}
</style>
<g>
	<defs>
		<rect id="SVGID_1_" y="0" width="1809.3" height="1443.6"/>
	</defs>
	<clipPath id="SVGID_2_">
		<use xlink:href="#SVGID_1_"  style="overflow:visible;"/>
	</clipPath>
	<path class="st0" d="M881.1,60.4c138.8-5.2,505.9-18.9,746.1,217.6c191.6,188.6,182,417.7,179.9,453.3
		c-19.2,321.5-332.3,660-775.2,705.7c-468.5,48.3-812.2-258.7-926-529.2c-23.1-54.9-137.9-327.8,34.9-564
		C333,80.9,733.1,66,881.1,60.4z"/>
	<path class="st0" d="M475.6,170.5C593,105.6,903.8-66.2,1253.8,30.2c279.1,76.9,407.8,276.1,427.2,307.3
		c175.5,282,105.8,706.6-251.7,938.7c-378.1,245.5-860.2,134.1-1120.8-46.5C255.6,1193.1-7.2,1011,1.7,734.5
		C11.7,427,350.3,239.8,475.6,170.5z"/>
</g>
</svg>
