<?xml version="1.0" encoding="utf-8"?>
<!-- Generator: Adobe Illustrator 21.1.0, SVG Export Plug-In . SVG Version: 6.00 Build 0)  -->
<svg version="1.1" id="Слой_1" xmlns="http://www.w3.org/2000/svg" xmlns:xlink="http://www.w3.org/1999/xlink" x="0px" y="0px"
	 viewBox="0 0 994.8 734.7" style="enable-background:new 0 0 994.8 734.7;" xml:space="preserve">
<style type="text/css">
	
		.st0{clip-path:url(#SVGID_2_);fill:none;stroke:#2E6B67;stroke-width:2;stroke-linecap:round;stroke-linejoin:round;stroke-miterlimit:10;stroke-dasharray:1,10;}
</style>
<g>
	<defs>
		<rect id="SVGID_1_" width="994.8" height="734.7"/>
	</defs>
	<clipPath id="SVGID_2_">
		<use xlink:href="#SVGID_1_"  style="overflow:visible;"/>
	</clipPath>
	<path class="st0" d="M482.8,215.5c165.6,5,295,8.8,382,110c53.8,62.6,102.5,175.4,64,264c-83.3,191.9-534.4,176.5-780,46
		C19.6,566.8,5.4,497.2,2.8,481.5c-12.2-74.6,41.1-138.5,54-154C158.3,205.8,343.5,211.3,482.8,215.5z"/>
	<path class="st0" d="M32.8,401.5c72.1-186.2,396.7-243.1,624-179.4c54.7,15.3,140,40.5,204.5,120.2
		c47.9,59.2,102.3,170.9,67.5,247.1c-92,201.5-818.3,177.7-904-60C4.7,473.9,25.1,421.4,32.8,401.5z"/>
	<path class="st0" d="M731,246.4c88.4-1.8,161-42.2,182.8-102.9c3.5-9.9,20-60-9-100c-24.7-34.2-79.7-56.9-119.2-31.8
		c-39.8,25.3-40.8,84.6-22.8,119.8c28.6,56,115.7,72.1,172,38c47.5-28.8,57.4-83.8,59-94"/>
</g>
</svg>
