<?xml version="1.0" encoding="utf-8"?>
<!-- Generator: Adobe Illustrator 21.1.0, SVG Export Plug-In . SVG Version: 6.00 Build 0)  -->
<svg version="1.1" id="Слой_1" xmlns="http://www.w3.org/2000/svg" xmlns:xlink="http://www.w3.org/1999/xlink" x="0px" y="0px"
	 viewBox="0 0 8106.3 760.2" style="enable-background:new 0 0 8106.3 760.2;" xml:space="preserve">
<style type="text/css">
	.st0{fill:#e8e8e8;}
</style>
<path class="st0" d="M7961.6,760.2h144.7V463.1c-0.9,0-1.8,0-2.7-0.1c-0.2-0.1-0.9-0.2-1.1-0.3c1.5,0.2,2.4,0.2,3.8,0.4V34.8
	c-75.9-9.2-161.2-13.6-208.8-10.5c1,0.5,2.3,1.1,4.3,1.7c-30-0.6-55.1-0.7-40.9,3.4c-7,1.4-14,2.9-21.2,4.3
	c-14.4,1.3-28.8,2.5-43.3,3.8c-20.1-1.5-39.9-3-59.8-4.5c-0.6,0-1.2,0-1.8,0c0.5,0,1.1,0,1.6,0c-23.3-0.7-46.3-1.3-69.7-2
	c-13.7-0.5-24.7-0.7-9.1,1.4c5.9,0.8,18.2,1.3,27.5,1.9c1.9,0.6,3.4,1.2,4.4,1.8c-2.4,0.6-4.8,1.1-7.1,1.7
	c-19.1-0.3-11.3,1.7-10.5,3.1c-4.7,2.2-9.7,4.3-14.6,6.5c-16.7,0.4-22.6,1.8-22.1,3.8c-43.6,2.2-37.5,8.5-43.4,13.8
	c-3.7,1.5-7.6,3-11.2,4.5c-13.4,0.6-26.7,1.2-39.8,1.8c-3.2-0.4-6.4-0.8-9.7-1.2c4.8-0.7,11.4-1.3,11.7-2.3
	c12.6-4.6-45.2-5-65.7-7.2c-18.8-2-27.7-1.8-33.3-1c-14.3-0.2-29.1-0.1-42.7-0.7c-31.5-1.4-34.8-0.1-31,1.8
	c-13.5-0.9-23.3-2.2-29.2-3.9c7.5-0.8,15-1.6,22.6-2.4c19.1-0.2,5.2-2.6,0.8-4.3c0,0,0,0-0.1,0c-6.2-2-9.3-4-35.3-6.2
	c-1.3-0.6-2.3-1.1-3.2-1.6c19.9-0.8-8.5-3.4-18.6-5.4c32.2,1.1,55.4,0.6,73.4-0.3c22.4-1.2,8.3-3.5-31.5-5.6c-2-0.6-4.1-1.2-6-1.8
	c65,3.7,92.1,2.1,99.5-2.2c10.3-0.9,48,1.7,41.1-1.4c42,0.4,84.6,0.8,6.6-7.4c-31.1-4-67.4-6.5-104.5-8.8
	c-21.3-1.9-42.5-3.7-63.8-5.6c-20-2.9-40.1-5.2-49.9-2.7c-3,0.8-11.9,1.9,6.4,3.5c34.3,2.8,27.2-0.8,43.7-0.8
	c12.4,3.4,35.4,5.9,69.4,7.4c16.7,2.3,46,4.1,52,6.7c-3.8,0.4-7.7,0.7-11.5,1.1c-33.1-2.4-69.1-5.7-87.5-3.5
	c-34.5-0.8-67.3-3.3-98.8-7h-0.3c-46.2-8-45-1.4-69.7-2.8c-11.5,0.2-10.4,1.4-6,2.8c-28.1,1.4-62.4,2.1-53.6,7.1
	c-39.5-0.5-44,2.4-41.1,6c-5.9-0.2-11.7-0.5-17.7-0.7c-14.3-0.5-26.4-0.8-28.4,0.4c-4.8,3.2-49.8,2.9-37.8,7.6
	c-5.2-0.2-10.7-0.3-16.4-0.6c-17.3-2.2-34.5-4.4-51.7-6.6l0,0c20.9,0.4,50.6,1.3,31.2-2.2c-14.6-2.6-28.5-1.1-43.2-1.5
	c-15,1.6-8.6,4.6-6.2,7.4c0,0,0,0-0.1,0c-3.9,0.3-7.9,0.6-11.7,0.9c-11.4-0.4-23.1-0.8-34.4-1.2c-7.6-0.8-15.2-1.7-22.7-2.5
	c-35.8-6.3-33.2-0.7-53.3-2.1c-8.3-1.5-2.7-3.4-26.3-4.4c-18.8-0.8-11.9,1.5-8.6,3c-50.2,2.1,33.7,7.5,51,11.2l1.3,0.2l0,0
	c-0.4-0.1-0.9-0.1-1.3-0.2c-40.6-1.6-81.2-3.2-122-4.8c-5.6-0.2-11.2-0.5-16.9-0.7c8.4-0.9,17-1.7,25.4-2.6
	c-7.5-0.6-15.7-1.5-22.3-1.8c-37.7-1.7-29.3,1-21.1,3.6c-20,1.2-16,4.5-23.7,6.8c10.1,0.8,20.2,1.6,30.3,2.3
	c3.8,0.6,8.3,1.2,13.6,1.8c1.4,0.5,2.7,0.9,4.1,1.4c-0.4,0-0.8,0-1.2-0.1c-22.1-0.9-32.4-0.1-41.3,0.9c-6.2,2.8-43.9,3.2-18.6,8.5
	c0,0,0,0,0.1,0c-4.1,0.3-7.9,0.7-11.9,1c-0.8,1.5-8.4,2.2-23.3,2.2c2.8,0.9,5.6,1.8,8.4,2.6c-1.3,0.1-2.6,0.2-3.8,0.4
	c-3.2,0.4-4.8,0.9-5,1.5c1.9,0.6,3.8,1.2,5.7,1.8c-38.1-0.2-2.1,4,6.7,6.5c8.7,1.4,17.1,2.7,25.7,4h1.6c0.3,0.1,0.7,0.2,1,0.3
	c-0.9-0.1-1.8-0.2-2.6-0.4c-29.4-0.1-108.6-11.2-97.6-2.4c19.3-0.9,37.4,1.9,56.1,3.8c3.5,1,7,2.1,10.9,3.1
	c-17.2-0.3-27.7,0.1-23.5,2.1c-3.1,0.3-6.2,0.6-9.4,1c-90.4-7.8-164.3-16.3-221.8-24.5c-1.7-0.2-3.4-0.5-5.1-0.7
	c-0.3,0.2-0.1,0.5,0.7,0.9c-9.5,0.2-19.1,0.3-28.7,0.5c-30.2-0.6-55.4-3.6-81.2-6.3c-1.1-1.6,38.7-0.4-0.2-4.7c-38-4.2-16-5-4.6-6.4
	c11.7,0,17.6-0.3,19.3-0.9c-5.3-1.3-10.1-2.5-14.4-3.8c-3.1-0.5-6.5-0.9-10.2-1.4c-13.2-3.3-41.9-7.5-64.1-6.6
	c-20.9,0.8-1.8,5.6,28.9,9.8c12.6,3.2-9.9,3.6-12.8,5.6c-19.5-1.1-39.2-2.2-61.7-3.4c75.2,10.8,68.4,12.8-28.1,11.5
	c-24.2-0.3-30.3,1.5-22,4.4c-14.3-0.5-26.4-0.7-29.4,0.4c-14.1-0.5-26-0.7-29.1,0.4c-15.5-0.1-9.5,3.4-38.5,0.8
	c-72.6-6.4-83.8-3.2-96,0c-9.9,0.1-19.7,0.3-29.5,0.4c-26.8-1.4-45.6-1.3-64-1.1c-27.3-4-12-5.7-10.8-8.1
	c15.6,0.3,43.3,2.3,37.8,0.2c-5.9-2.2-21.8-2.2-29.9-1.7c-4.5,0.3-6,0.9-9,1.5c-49.6-1.5-44.3,2.3-40.5,6c-47.1-0.6-69.3,1.8-94.2,4
	c-10.1,1.6-20.5,3.3-30.7,4.9c-13.1,0.5-26.4,1-39.4,1.6c-38.3-1-57.5,0.1-47.4,4.2c-30.8-0.4-72.7-2.3-71.5,1.7
	c-15.4,3-81.9,0.6-72.9,6.2c-3.5,0.3-6.8,0.7-10,1c-13,0.6-26.1,1.2-38.9,1.9c-12.1,1-24.5,2-36.6,3.1c-9.4,0.2-18.7,0.3-28,0.5
	c-33.3-2.7-53.9-2.9-64.7-1.1c-27.6,0.5-26,4.4-64.4,3.6c-1.8,5.4-79,4.9-31.6,14.1c2.7,0.6,5.4,1.3,7.9,1.9
	c-12.7,2.5-46.3,3.1-37.4,7.6H3427.1c-8-1-18.7-1.9-34.2-2.4c-11.4,0.2-22.7,0.4-34,0.6c-5.1-0.5-10.7-1-15-1.6
	c-57.9-7.4-66.3-7.8-91.9-3.9c-10.5-1.4-21-2.8-31.5-4.3c-8.2-1.6-17.7-3.1-33.3-4.3c-46.3-6.1-100.6-9.1-130.2-7.2
	c0.6,0.3,1.4,0.7,2.5,1c-17.6-0.4-32.3-0.4-24,2c-4.1,0.8-8.2,1.7-12.4,2.5c-8.4,0.7-16.9,1.5-25.4,2.2c-11.8-0.9-23.4-1.8-35.1-2.6
	c-0.3,0-0.7,0-1,0c0.3,0,0.6,0,1,0c-13.6-0.4-27.1-0.7-40.8-1.2c-8-0.3-14.4-0.4-5.3,0.8c3.4,0.4,10.7,0.7,16.1,1.1
	c1.1,0.4,2,0.7,2.6,1c-1.4,0.3-2.8,0.7-4.2,1c-11.2-0.2-6.6,1-6.2,1.8c-2.8,1.3-5.7,2.5-8.5,3.8c-9.8,0.2-13.3,1.1-13,2.2
	c-23.4,1.2-22.4,4.4-24.7,7.3h-38.4c-9.4-0.7-22.9-1.1-29.6-1.8c-11-1.2-16.2-1.1-19.5-0.6c-8.4-0.1-17.1-0.1-25-0.4
	c-18.4-0.8-20.4-0.1-18.2,1.1c-7.9-0.5-13.7-1.3-17.1-2.3c4.4-0.5,8.8-0.9,13.3-1.4c11.2-0.1,3.1-1.5,0.5-2.5l0,0
	c-3.6-1.2-5.4-2.4-20.7-3.7c-0.8-0.3-1.3-0.6-1.9-1c11.6-0.5-5-2-10.9-3.2c18.9,0.6,32.5,0.4,43-0.2c13.1-0.7,4.9-2-18.4-3.3
	c-1.2-0.4-2.4-0.7-3.5-1.1c38.1,2.1,54,1.2,58.3-1.3c6-0.5,28.1,1,24.1-0.8c24.6,0.2,49.6,0.4,3.8-4.3c-18.2-2.3-39.5-3.8-61.2-5.2
	c-12.5-1.1-24.9-2.2-37.4-3.3c-11.7-1.7-23.5-3-29.2-1.6c-1.7,0.5-7,1.1,3.8,2c20.1,1.7,16-0.4,25.6-0.5c7.3,2,20.7,3.4,40.7,4.3
	c9.8,1.3,27,2.4,30.5,3.9c-2.2,0.2-4.5,0.4-6.7,0.6c-19.4-1.4-40.5-3.3-51.3-2.1c-20.2-0.5-39.4-1.9-57.9-4.1h-0.1
	c-27.1-4.7-26.4-0.8-40.8-1.6c-6.8,0.1-6.1,0.8-3.5,1.7c-16.5,0.8-36.6,1.2-31.4,4.2c-23.1-0.3-25.8,1.4-24.1,3.5
	c-3.5-0.1-6.8-0.3-10.4-0.4c-8.4-0.3-15.5-0.5-16.7,0.3c-2.8,1.9-29.2,1.7-22.1,4.4c-3.1-0.1-6.3-0.2-9.6-0.4
	c-10.1-1.3-20.2-2.6-30.3-3.8l0,0c12.3,0.2,29.7,0.7,18.3-1.3c-8.6-1.5-16.7-0.6-25.3-0.9c-8.8,0.9-5,2.7-3.6,4.4l0,0
	c-2.3,0.2-4.6,0.4-6.9,0.6c-6.7-0.2-13.5-0.5-20.1-0.7c-4.4-0.5-8.9-1-13.3-1.5c-21-3.7-19.5-0.4-31.3-1.2c-4.9-0.9-1.6-2-15.4-2.6
	c-11-0.5-7,0.9-5,1.8c-29.4,1.2,19.7,4.4,29.9,6.6l0.8,0.1l0,0c-0.3,0-0.5-0.1-0.8-0.1c-23.8-0.9-47.6-1.9-71.5-2.8
	c-3.3-0.1-6.6-0.3-9.9-0.4c4.9-0.5,10-1,14.9-1.5c-4.4-0.4-9.2-0.9-13-1.1c-22.1-1-17.2,0.6-12.4,2.1c-11.7,0.7-9.4,2.6-13.9,4
	c5.9,0.5,11.8,0.9,17.8,1.4c2.2,0.4,4.9,0.7,7.9,1.1c0.8,0.3,1.6,0.5,2.4,0.8c-0.2,0-0.5,0-0.7,0c-13-0.5-19,0-24.2,0.5
	c-3.6,1.7-25.7,1.9-10.9,5l0,0c-2.4,0.2-4.6,0.4-7,0.6c-0.5,0.9-4.9,1.3-13.7,1.3c1.7,0.5,3.3,1,4.9,1.6c-0.8,0.1-1.5,0.1-2.2,0.2
	c-1.9,0.2-2.8,0.5-3,0.9c1.1,0.3,2.2,0.7,3.4,1c-22.3-0.1-1.2,2.3,3.9,3.8c2.2,0.4,4.5,0.7,6.7,1H2280c-19.1-1.6-40.2-3.7-35.7-0.1
	c3.6-0.2,7.1-0.1,10.5,0.1h-51.1c-26.4-2.8-49.6-5.7-69.4-8.6c-1-0.1-2-0.3-3-0.4c-0.2,0.1,0,0.3,0.4,0.6
	c-5.6,0.1-11.2,0.2-16.8,0.3c-17.7-0.3-32.5-2.1-47.6-3.7c-0.7-1,22.7-0.3-0.1-2.8c-22.3-2.4-9.4-2.9-2.7-3.7
	c6.9,0,10.3-0.2,11.3-0.5c-3.1-0.7-5.9-1.5-8.4-2.2c-1.8-0.3-3.8-0.6-6-0.8c-7.8-1.9-24.5-4.4-37.6-3.9c-12.3,0.5-1,3.3,16.9,5.7
	c7.4,1.9-5.8,2.1-7.5,3.3c-11.5-0.6-23-1.3-36.1-2c44.1,6.3,40.1,7.5-16.5,6.7c-14.2-0.2-17.7,0.9-12.9,2.6
	c-8.4-0.3-15.5-0.4-17.2,0.2c-8.3-0.3-15.3-0.4-17.1,0.2c-9.1,0-5.6,2-22.6,0.5c-42.6-3.7-49.1-1.9-56.2,0c-1.1,0-2.2,0-3.3,0
	c-8.5-1.2-18.6-2.5-30.7-3.8c-15.4-4.3-36-8.2-87.8-10c-19.5,0.4-38.8,0.7-58.1,1.1c-8.7-0.9-18.2-1.8-25.5-2.7
	c-98.8-12.6-113.2-13.2-156.7-6.6c-17.9-2.4-35.9-4.8-53.7-7.3c-13.9-2.7-30.3-5.2-56.8-7.4c-79-10.4-171.6-15.5-222.1-12.2
	c1,0.5,2.3,1.1,4.3,1.7c-30-0.6-55.1-0.7-40.9,3.4c-7,1.4-14,2.9-21.2,4.3c-14.4,1.3-28.8,2.5-43.3,3.8c-20.1-1.5-39.9-3-59.8-4.5
	c-0.6,0-1.2,0-1.8,0c0.5,0,1.1,0,1.6,0c-23.3-0.7-46.3-1.3-69.7-2c-13.7-0.5-24.7-0.7-9.1,1.4c5.9,0.8,18.2,1.3,27.5,1.9
	c1.9,0.6,3.4,1.2,4.4,1.8c-2.4,0.6-4.8,1.1-7.1,1.7c-19.1-0.3-11.3,1.7-10.5,3.1c-4.7,2.2-9.7,4.3-14.6,6.5
	c-16.7,0.4-22.6,1.8-22.1,3.8c-43.6,2.2-37.5,8.5-43.4,13.8c-3.7,1.5-7.6,3-11.2,4.5c-13.4,0.6-26.7,1.2-39.8,1.8
	c-3.2-0.4-6.4-0.8-9.7-1.2c4.8-0.7,11.4-1.3,11.7-2.3c12.6-4.6-45.2-5-65.7-7.2c-18.8-2-27.7-1.8-33.3-1
	c-14.3-0.2-29.1-0.1-42.7-0.7c-31.5-1.4-34.8-0.1-31,1.8c-13.5-0.9-23.3-2.2-29.2-3.9c7.5-0.8,15-1.6,22.6-2.4
	c19.1-0.2,5.2-2.6,0.8-4.3c0,0,0,0-0.1,0c-6.2-2-9.3-4-35.3-6.2c-1.3-0.6-2.3-1.1-3.2-1.6c19.9-0.8-8.5-3.4-18.6-5.4
	c32.2,1.1,55.4,0.6,73.4-0.3c22.4-1.2,8.3-3.5-31.5-5.6c-2-0.6-4.1-1.2-6-1.8c65,3.7,92.1,2.1,99.5-2.2c10.3-0.9,48,1.7,41.1-1.4
	c42,0.4,84.6,0.8,6.6-7.4c-31.1-4-67.4-6.5-104.5-8.8c-21.3-1.9-42.5-3.7-63.8-5.6c-20-2.9-40.1-5.2-49.9-2.7
	c-3,0.8-11.9,1.9,6.4,3.5c34.3,2.8,27.2-0.8,43.7-0.8c12.4,3.4,35.4,5.9,69.4,7.4c16.7,2.3,46,4.1,52,6.7c-3.8,0.4-7.7,0.7-11.5,1.1
	c-33.1-2.4-69.1-5.7-87.5-3.5c-34.5-0.8-67.3-3.3-98.8-7h-0.3c-46.2-8-45-1.4-69.7-2.8c-11.5,0.2-10.4,1.4-6,2.8
	c-28.1,1.4-62.4,2.1-53.6,7.1c-39.5-0.5-44,2.4-41.1,6c-5.9-0.2-11.7-0.5-17.7-0.7c-14.3-0.5-26.4-0.8-28.4,0.4
	c-4.8,3.2-49.8,2.9-37.8,7.6c-5.2-0.2-10.7-0.3-16.4-0.6c-17.3-2.2-34.5-4.4-51.7-6.6l0,0c20.9,0.4,50.6,1.3,31.2-2.2
	c-14.6-2.6-28.5-1.1-43.2-1.5c-15,1.6-8.6,4.6-6.2,7.4c0,0,0,0-0.1,0c-3.9,0.3-7.9,0.6-11.7,0.9c-11.4-0.4-23.1-0.8-34.4-1.2
	c-7.6-0.8-15.2-1.7-22.7-2.5c-35.8-6.3-33.2-0.7-53.3-2.1c-8.3-1.5-2.7-3.4-26.3-4.4c-18.8-0.8-11.9,1.5-8.6,3
	C5.8,38.3,2.5,38.5,0,38.7v2.9c14.1,2.4,50.3,5.3,61,7.7l1.3,0.2l0,0c-0.4-0.1-0.9-0.1-1.3-0.2c-20.3-0.8-40.6-1.6-61-2.4V760
	h7779.1c-3-0.6-5.8-1.2-7.4-1.7c-9.1-1.5-18-3-27.1-4.4h-1.8c-0.3-0.1-0.6-0.2-1-0.4c0.9,0.1,1.9,0.3,2.8,0.4
	c21.1,0.1,62.9,5.1,88.3,6.2h14.9c5-0.4,7.2-1.5,5.5-3.5c-22.1,1-41.2-2.1-61.4-4.2c-3.4-1.1-6.9-2.3-10.8-3.4
	c19.3,0.3,31.3-0.1,27.4-2.3c3.6-0.3,7.3-0.7,11-1C7871.8,750.4,7919.4,755.3,7961.6,760.2z M7949,582.3c1,0.2,1.7,0.4,3.1,0.6
	c1.2,0.1,1.7,0.2,2.4,0.3c0.2,0.1,0.1,0.1,0.5,0.2c-4.7-0.3-9-0.5-12.5-0.8C7945.2,582.6,7947,582.5,7949,582.3z M323.2,60.1
	c-0.2,0-0.4,0-0.7,0c0.1,0,0.2,0,0.3,0c-0.1,0-0.2-0.1-0.3-0.1c0.7,0.1,1.4,0.1,2.1,0.2c-0.6,0-1.2,0-1.8-0.1L323.2,60.1z
	 M2374.4,89c0.2-0.1,0.4-0.2,0.5-0.3c0.9,0.1,1.6,0.3,2.2,0.5C2376.1,89.1,2375.3,89,2374.4,89z M2567.1,87.7c-0.1,0-0.3,0-0.4,0
	c0.1,0,0.1,0,0.2,0c-0.1,0-0.1,0-0.2-0.1c0.4,0,0.8,0.1,1.2,0.1c-0.3,0-0.7,0-1,0H2567.1z M5125.8,101c-4.6-0.7-10.1-1.3-17.5-1.8
	c0.2-1.3-0.6-2.7-9.9-4.6c13.7,1.6,28.3,3,45.2,3.8c0.6,0,1.2,0,1.8,0.1c14.7,1.3,29.4,1.8,44.3,2.4h-63.9V101z M5663,76.7
	c-0.8-0.1-1.7-0.2-2.6-0.3c1,0.1,2,0.1,3,0.2C5663.3,76.6,5663.1,76.7,5663,76.7z M6000.7,73.6c0.5,0,0.9-0.1,1.3-0.1
	c0.3,0.1,0.7,0.2,1,0.4C6002.3,73.8,6001.5,73.7,6000.7,73.6z M6733.5,42.4c1.5,0.2,2.7,0.5,3.7,0.8c-1.5-0.1-3-0.1-4.5-0.2
	C6733.1,42.8,6733.4,42.6,6733.5,42.4z M6737.5,81.7c-1.3-0.1-2.5-0.2-3.7-0.3C6735,81.6,6736.3,81.6,6737.5,81.7L6737.5,81.7z
	 M6913.1,94.9c-1-0.1-2-0.2-2.9-0.2c1.3,0,2.7,0.1,4.1,0.1C6913.9,94.8,6913.5,94.9,6913.1,94.9z M7061.5,40.8c-0.2,0-0.5,0-0.7,0
	c0.1,0,0.2,0,0.3,0c-0.1,0-0.2-0.1-0.3-0.1c0.7,0.1,1.4,0.1,2.1,0.2c-0.6,0-1.2,0-1.8-0.1H7061.5z M7738.8,636.2
	c-1.2,1-8.6,1.1-18.3,0.7c4-0.5,7.6-1.2,11.8-2.4C7736.9,635,7739.6,635.5,7738.8,636.2z"/>
</svg>
