<?xml version="1.0" encoding="utf-8"?>
<!-- Generator: Adobe Illustrator 21.1.0, SVG Export Plug-In . SVG Version: 6.00 Build 0)  -->
<svg version="1.1" id="Слой_1" xmlns="http://www.w3.org/2000/svg" xmlns:xlink="http://www.w3.org/1999/xlink" x="0px" y="0px"
	 viewBox="0 0 291.1 96.3" style="enable-background:new 0 0 291.1 96.3;" xml:space="preserve">
<style type="text/css">
	.st0{clip-path:url(#SVGID_2_);fill:#010101;}
	.st1{clip-path:url(#SVGID_2_);fill:#E82022;}
	.st2{clip-path:url(#SVGID_2_);}
	.st3{fill:#e8e8e8;}
</style>
<g>
	<defs>
		<rect id="SVGID_1_" y="0" width="291.1" height="96.3"/>
	</defs>
	<clipPath id="SVGID_2_">
		<use xlink:href="#SVGID_1_"  style="overflow:visible;"/>
	</clipPath>
	<path class="st0" d="M115.7,3.7H74.3c-0.8,0-1.5-0.7-1.5-1.5V1.5c0-0.8,0.7-1.5,1.5-1.5h41.4c0.8,0,1.5,0.7,1.5,1.5v0.7
		C117.2,3,116.5,3.7,115.7,3.7"/>
	<path class="st0" d="M188.7,23.8c0-12,11.3-21.7,25.1-21.7c6.9,0,13.3,2.4,18,6.5c0.7,0.6,0.7,1.2,0,1.8c-0.7,0.6-1.4,0.6-2.1,0
		c-4.2-3.8-9.7-5.7-15.8-5.7c-12.3,0-22.1,8.5-22.1,19.1c0,10.6,9.8,19.2,22.1,19.2c6.1,0,11.7-1.9,15.8-5.7c0.7-0.6,1.4-0.6,2.1,0
		c0.7,0.6,0.7,1.2,0,1.8c-4.7,4.2-11.1,6.5-18,6.5C199.9,45.6,188.7,35.7,188.7,23.8"/>
	<path class="st0" d="M213.8,45.9c-14,0-25.6-10-25.6-22.1c0-12.2,11.4-22.1,25.6-22.1c7,0,13.4,2.4,18.3,6.7
		c0.4,0.4,0.6,0.7,0.6,1.2c0,0.4-0.2,0.8-0.6,1.2c-0.8,0.7-1.9,0.7-2.7,0c-4.1-3.7-9.4-5.6-15.5-5.6c-12,0-21.6,8.4-21.6,18.7
		c0,10.4,9.7,18.9,21.6,18.9c6.1,0,11.4-1.9,15.5-5.6c0.8-0.7,1.9-0.7,2.7,0c0.4,0.4,0.6,0.7,0.6,1.2c0,0.4-0.2,0.8-0.6,1.2
		C227.2,43.5,220.8,45.9,213.8,45.9 M213.8,2.4c-13.6,0-24.7,9.6-24.7,21.3c0,11.8,11.1,21.4,24.7,21.4c6.8,0,13-2.3,17.7-6.5
		c0.2-0.2,0.4-0.4,0.4-0.6c0-0.1-0.1-0.4-0.4-0.6c-0.5-0.4-1-0.4-1.5,0c-4.2,3.9-9.8,5.9-16.1,5.9c-12.4,0-22.5-8.8-22.5-19.6
		c0-10.8,10.1-19.5,22.5-19.5c6.3,0,11.9,2,16.1,5.9c0.5,0.4,1,0.4,1.5,0c0.2-0.2,0.4-0.4,0.4-0.6c0-0.2-0.1-0.4-0.4-0.6
		C226.8,4.7,220.5,2.4,213.8,2.4"/>
	<path class="st1" d="M200.5,42.2l2-2c-1.2-0.7-2.4-1.3-3.4-2.2l-1.9,1.9C198.2,40.9,199.3,41.6,200.5,42.2"/>
	<path class="st1" d="M200.6,42.7l-0.3-0.1c-1.2-0.7-2.4-1.4-3.5-2.3l-0.3-0.2l2.5-2.5l0.3,0.2c1,0.8,2.2,1.6,3.3,2.2l0.4,0.2
		L200.6,42.7z M197.7,40c0.9,0.7,1.8,1.3,2.7,1.8l1.4-1.4c-1-0.5-1.9-1.1-2.7-1.8L197.7,40z"/>
	<path class="st0" d="M290.3,2l-0.7-0.3c-0.7-0.4-1.6-0.1-2,0.7l-18.7,38.2L250.2,2.4c-0.4-0.7-1.3-1-2-0.7L247.5,2
		c-0.7,0.4-1,1.3-0.7,2L267,45.1c0.1,0.4,0.4,0.6,0.8,0.7c0.1,0.1,0.4,0.1,0.5,0.1h1.2c0.2,0,0.4-0.1,0.6-0.1
		c0.3-0.1,0.6-0.4,0.7-0.7L291,4.1C291.4,3.3,291.1,2.4,290.3,2"/>
	<path class="st0" d="M99.5,23.8H74.3c-0.8,0-1.5-0.7-1.5-1.5v-0.7c0-0.8,0.7-1.5,1.5-1.5h25.2c0.8,0,1.5,0.7,1.5,1.5v0.7
		C101,23.1,100.3,23.8,99.5,23.8"/>
	<path class="st0" d="M115.7,44.4H74.3c-0.8,0-1.5-0.7-1.5-1.5v-0.7c0-0.8,0.7-1.5,1.5-1.5h41.4c0.8,0,1.5,0.7,1.5,1.5v0.7
		C117.2,43.7,116.5,44.4,115.7,44.4"/>
	<path class="st1" d="M158.7,19.9L175.3,3c0.6-0.6,0.6-1.6,0-2.1l-0.5-0.5c-0.6-0.6-1.6-0.6-2.1,0l-16.6,16.9L158.7,19.9z"/>
	<path class="st0" d="M151.4,21.3c-6.5,6.7-13.1,13.3-19.7,20c-0.6,0.6-0.6,1.6,0,2.1l0.5,0.5c0.6,0.6,1.6,0.6,2.1,0
		c6.5-6.7,13.2-13.4,19.7-20.1C153.2,23,152.3,22.2,151.4,21.3"/>
	<path class="st0" d="M131.7,3l40.9,40.9c0.6,0.6,1.5,0.6,2.1,0l0.5-0.5c0.6-0.6,0.6-1.5,0-2.1L134.3,0.4c-0.6-0.6-1.5-0.6-2.1,0
		L131.7,1C131.2,1.6,131.2,2.5,131.7,3"/>
	<path class="st2" d="M12.4,42.4c2.5-0.8,4.6-2.6,5.5-4.7c0.6-1.4,0.6-2.9,0.1-4c-0.7-1.3-2.2-1.5-3.3-1.5h0
		c-2.6,0.1-5.3,1.2-8.1,3.4c-0.3,0.2-0.5,0.4-0.8,0.7c0-0.1,0.1-0.1,0.1-0.2C6.9,34.1,8,32,9,30c0.4-0.8,0.8-1.6,1.3-2.4
		c3.4-6.1,6.7-11.5,10.1-16.4c0.5-0.7,1.1-1.5,1.6-2.2c0.5-0.7,1.1-1.5,1.6-2.2C24,6.2,24.4,5.6,24.9,5c0.7-0.9,1.4-1.8,2-2.8
		C27,2,27.1,1.7,26.9,1.4c-0.1-0.3-0.4-0.5-0.7-0.6c-0.3,0-0.5,0.1-0.6,0.2c-1.1,1.1-2,2.2-2.8,3.4L22.4,5c-1.2,1.4-2.1,2.7-3,4
		c-2,2.7-3.8,5.5-5.5,8.1c-1.7,2.7-3.4,5.6-5,8.4C8.1,27,7.3,28.5,6.6,30c-0.8,1.5-1.5,2.9-2.3,4.4c-1.8,3.4-3.2,6.5-4.2,9.4
		c-0.1,0.5,0.2,1.1,0.7,1.3c0.1,0,0.3,0.1,0.4,0.1c0.4,0,0.7-0.2,0.9-0.6c0.5-1,1.2-2.1,2-3.2c0,0.4,0.2,0.7,0.5,0.9
		C7.2,43.8,10.9,42.9,12.4,42.4 M12.5,34.7c1.1-0.3,2.2-0.6,3.2-0.3c0.2,0.1,0.3,0.2,0.4,0.4c0.2,0.5,0.1,1.2-0.2,1.8
		c-0.5,1.4-1.9,2.7-3.9,3.5c-2.2,0.8-4.7,0.7-6.9,0.5c0,0-0.1,0-0.1,0c-0.1,0-0.2,0-0.3,0C6.6,38.1,9.1,35.7,12.5,34.7"/>
	<path class="st2" d="M50.5,38c-0.2-0.4-0.7-0.6-1.1-0.4c-0.5,0.2-0.9,0.4-1.4,0.7c-1.6,0.7-3.2,1.5-4.8,2.5
		c-2.2,1.4-4.1,2.8-5.9,4.1c-2.1,1.6-3.9,3.1-5.5,4.6c1.7-5.5,3.5-9.9,5.5-13.7c0.5-1,1.1-2,1.7-3c0.3-0.5,0.1-1.1-0.4-1.5
		c-0.5-0.3-1.1-0.2-1.5,0.3c-3,4.7-6.6,8.6-10.8,11.5c-0.8,0.6-1.8,1.3-2.8,1.7c-0.9,0.2-1.7,0.3-2-0.2c-0.2-0.4-0.1-1,0.1-1.5
		c0.2-0.6,0.5-1.2,0.8-1.9c0.5-1,1.1-2.1,1.9-3.2c0.9-1.3,1.9-2.6,2.9-3.8c0.5-0.6,1-1.1,1.5-1.5c0.3-0.3,0.6-0.6,0.9-0.9
		c0.3-0.3,0.6-0.6,0.9-0.8l0.3-0.3l-0.1-0.3c-0.1-0.2-0.3-0.4-0.6-0.4l-0.2,0c-0.7,0.3-1.4,0.6-2,1.1c-0.7,0.5-1.3,1-1.8,1.6
		c-1.1,1.2-2.1,2.4-2.9,3.6c-0.8,1.1-1.7,2.4-2.4,3.8l-0.2,0.3c-0.6,1.2-1.4,2.8-1.1,4.2c0.2,0.9,0.6,1.6,1.4,1.9
		c1.4,0.7,3.4,0.2,4.7-0.5c1.3-0.6,2.4-1.5,3.6-2.3c1.3-1,2.3-2,3.3-2.9c-1.7,4.1-3,8.3-4,11.7c-0.7,0.7-1.4,1.4-2,2.1
		C19.8,62.1,14.2,70,9.9,78.4c-1.3,2.6-2.4,5-3.1,7.4l-0.1,0.4c-0.6,2.1-1.3,4.4-1,6.7c0.1,0.8,0.4,2,1.4,2.7
		c0.6,0.5,1.4,0.8,2.3,0.8c0.3,0,0.5,0,0.8-0.1c2.6-0.4,4.4-2.6,5.5-4.2c2.7-3.5,4.5-7.7,6.2-11.8c0.3-0.6,0.5-1.2,0.8-1.8
		c1.9-4.6,3.5-9.5,5.1-14.8c0.5-1.7,1-3.5,1.5-5.2c0.5-1.7,1-3.3,1.4-5c5.2-5.1,10.8-9.4,16.7-12.9c0.3-0.1,0.5-0.3,0.8-0.5
		c0.6-0.4,1.3-0.8,2-1.1l0,0C50.6,38.8,50.7,38.4,50.5,38 M27.1,58.2l-0.6,2.2c-1.1,3.8-2.3,7.8-3.7,11.6c-0.7,2.2-1.6,4.5-2.9,7.3
		c-0.4,0.8-0.7,1.6-1.1,2.5c-0.6,1.4-1.2,2.8-1.9,4.2c-1,1.9-2.3,4.1-3.9,6c-0.7,0.8-1.4,1.5-2.4,1.9C10,94.2,9,94.4,8.3,93.9
		c-0.6-0.5-0.6-1.2-0.6-2c0-1.1,0.2-2.1,0.4-3.2c0.6-2.8,1.7-5.4,2.5-7.3c3.6-7.8,8.8-15.6,15.5-23.1l0.7-0.7
		c0.2-0.3,0.5-0.5,0.7-0.8C27.4,57.2,27.2,57.7,27.1,58.2l0.5,0.1L27.1,58.2z"/>
</g>
<rect x="-23" y="72.3" class="st3" width="357" height="36"/>
</svg>
