<?xml version="1.0" encoding="utf-8"?>
<!-- Generator: Adobe Illustrator 21.1.0, SVG Export Plug-In . SVG Version: 6.00 Build 0)  -->
<svg version="1.1" id="Слой_1" xmlns="http://www.w3.org/2000/svg" xmlns:xlink="http://www.w3.org/1999/xlink" x="0px" y="0px"
	 viewBox="0 0 1045.3 384.9" style="enable-background:new 0 0 1045.3 384.9;" xml:space="preserve">
<style type="text/css">
	
		.st0{clip-path:url(#SVGID_2_);fill:none;stroke:#f64869;stroke-width:3;stroke-linecap:round;stroke-linejoin:round;stroke-miterlimit:10;stroke-dasharray:5,20;}
</style>
<g>
	<defs>
		<rect id="SVGID_1_" width="1045.3" height="384.9"/>
	</defs>
	<clipPath id="SVGID_2_">
		<use xlink:href="#SVGID_1_"  style="overflow:visible;"/>
	</clipPath>
	<path class="st0" d="M509,17.1c80.1-1.4,291.9-5,430.5,57.7c110.5,50,105,110.7,103.8,120.2c-11.1,85.2-191.7,175-447.3,187.1
		c-270.3,12.8-468.7-68.6-534.3-140.3c-13.3-14.6-79.6-86.9,20.2-149.5C192.8,22.5,423.7,18.6,509,17.1z"/>
	<path class="st0" d="M275.1,46.3c67.8-17.2,247.1-62.8,449-37.2c161.1,20.4,235.3,73.2,246.5,81.5
		c101.3,74.8,61.1,187.3-145.2,248.9C607.2,404.5,329,375,178.6,327.1c-30.5-9.7-182.2-58-177-131.3
		C7.4,114.3,202.8,64.7,275.1,46.3z"/>
</g>
</svg>
