<svg id="Слой_1" xmlns="http://www.w3.org/2000/svg" viewBox="0 0 576 43.1">
    <style>
        .st0{fill:#2d6965}
    </style>
    <path class="st0" d="M433.7-432.8c0-.4-.1-.7-.2-1.1-.1-.3-.1-.6-.3-.9-.1-.3-.4-.5-.6-.8-.2-.3-.4-.6-.7-.8-.1-.1-.1-.2-.2-.2l-97.1-76.1c-.1-.1-.3-.1-.5-.2s-.4-.3-.6-.4c-.2-.1-.4-.2-.6-.2-.3-.1-.5-.1-.8-.2-.3 0-.5-.1-.8-.1-.1 0-.2-.1-.3-.1-.1 0-.2 0-.3.1-.3 0-.5.1-.7.1-.3 0-.5.1-.8.2-.2.1-.4.1-.6.2-.2.1-.4.2-.6.4-.1.1-.3.1-.4.2l-99.8 76.1c-.1.1-.1.2-.2.2-.3.2-.5.5-.7.8-.2.3-.4.5-.6.8l-.3.9c-.1.4-.2.7-.2 1.1 0 .1-.1.2-.1.3v84.3l-16.5-12.6c-2.1-1.6-4.9-1.4-6.9.1-.1 0-.1 0-.2.1l-57 43.6c-.6.4-1 1-1.4 1.6-.2.2-.3.4-.4.6-.1.1-.3.2-.4.4-.1.1-.1.3-.2.4-.2.3-.3.6-.4 1-.1.4-.2.7-.2 1 0 .2-.1.3-.1.4v81.1c0 1.9 1.1 3.7 2.8 4.6l55.6 30.7v26.1h-28.3c-3.1 0-5.5 2.4-5.5 5.3s2.5 5.3 5.5 5.3h199.8c3.1 0 5.5-2.4 5.5-5.3s-2.5-5.3-5.5-5.3h-35.2v-61.4l94.5-56.8c1.6-1 2.6-2.7 2.6-4.5v-140.8c0-.1-.1-.2-.1-.2zM200.4-285.1l-43.7-27.2 43.7-33.3v60.5zm11 42c.7-.1 1.3-.4 1.9-.7l41.5-26.7v36.5l-43.4 26.1v-35.2zm25.5-51v-75l88.8 53.5v30.6l-52.8-32.7c-.1-5.4-4.4-9.7-9.8-9.7s-9.8 4.4-9.8 9.8 4.4 9.8 9.8 9.8c1.5 0 2.8-.3 4.1-.9l58.6 36.3v27.2l-88.9-48.9zm88.7-34l-88.8-53.5V-430l88.8-67.7v169.6zm11.1 2.2v-38.6l57.8-37.2c1.2.5 2.5.8 3.9.8 5.4 0 9.8-4.4 9.8-9.8s-4.4-9.8-9.8-9.8-9.8 4.4-9.8 9.8l-51.9 33.4v-120.2l86 67.4v48.9c-.2.1-.4.1-.6.2l-85.4 55.1zm-110.9-8.9v43.8c0 1.9 1.1 3.7 2.8 4.6l16.6 9.2-33.8 21.7v-90.2l14 10.7c.2.1.3.2.4.2zm-72.7 101.2v-68.2l47.3 29.4v14.8l-32.8-20.3c-2.6-1.6-6-.9-7.6 1.6-1.7 2.5-.9 5.8 1.7 7.4l38.6 23.9c.1 0 .1 0 .2.1v37.5l-47.4-26.2zm58.3 64.5v-26.2l51.8-31.2c1.6-1 2.6-2.7 2.6-4.5v-34.8l59.8 33v63.7H211.4zm125.3-74v-70l86-55.4v73.6l-86 51.8z"/>
    <path class="st0" d="M371.9-148.9h-166c-3.1 0-5.5 2.4-5.5 5.3s2.5 5.3 5.5 5.3h166c3.1 0 5.5-2.4 5.5-5.3s-2.5-5.3-5.5-5.3z"/>
    <path class="st0" d="M570.1-38.2H5.7c-3.1 0-5.7-2.5-5.7-5.7v-564.4c0-3.2 2.5-5.7 5.7-5.7h564.5c3.1 0 5.7 2.5 5.7 5.7v564.5c-.1 3-2.7 5.6-5.8 5.6zM10.2-48.5h555.3v-555.3H10.2v555.3z"/>
    <g>
        <path class="st0" d="M18.6-.4c7.6 0 12.1 3.9 12.1 11 0 4.5-1.8 7.6-5.2 9.3v.2c4.6 1.3 6.8 4.8 6.8 10.4 0 7.3-5.2 11.5-13.2 11.5H1.6C.4 42 0 41.6 0 40.4V1.1C0 0 .4-.5 1.6-.5l17 .1zM18 5H5.9v12.8H18c4.5 0 6.8-2.1 6.8-6.4C24.7 7.1 22.5 5 18 5zm1 18H5.9v13.5H19c4.7 0 7.1-2.3 7.1-6.7 0-4.3-2.5-6.8-7.1-6.8z"/>
        <path class="st0" d="M19.2 42.2H1.6c-1.3 0-1.8-.5-1.8-1.8V1.1C-.2-.2.3-.7 1.6-.7h17.1c7.9 0 12.4 4.1 12.4 11.2 0 4.5-1.7 7.6-5 9.4 4.4 1.4 6.6 5 6.6 10.5-.1 7.3-5.2 11.8-13.5 11.8zM1.6-.2C.6-.2.3.1.3 1.1v39.3c0 1 .3 1.3 1.3 1.3h17.6c8.1 0 12.9-4.2 12.9-11.3 0-5.5-2.2-8.9-6.6-10.1l-.2-.1v-.5l.1-.1c3.4-1.6 5.1-4.7 5.1-9.1 0-6.8-4.3-10.7-11.9-10.7h-17zm17.4 37H5.7v-14H19c4.7 0 7.3 2.5 7.3 7.1s-2.4 6.9-7.3 6.9zm-12.8-.5H19c4.5 0 6.8-2.2 6.8-6.5 0-4.2-2.4-6.6-6.8-6.6H6.2v13.1zM18 18H5.7V4.7H18c4.7 0 7 2.3 7 6.7S22.6 18 18 18zm-11.8-.5H18c4.4 0 6.5-2 6.5-6.1 0-4.2-2.1-6.2-6.5-6.2H6.2v12.3z"/>
        <path class="st0" d="M76.1-.4c1.2 0 1.5.5.9 1.6L61.5 25v15.4c0 1.1-.4 1.6-1.6 1.6h-2.7c-1.2 0-1.6-.4-1.6-1.6V24.9L40.1 1.1c-.5-.8-.3-1.6.9-1.6h3.3c1.9 0 2.4.1 3.1 1.4L58.7 19 70 1c.7-1.3 1.1-1.4 3.1-1.4h3z"/>
        <path class="st0" d="M59.9 42.2h-2.7c-1.3 0-1.8-.5-1.8-1.8V25L40 1.3c-.3-.5-.4-1-.2-1.3.1-.2.4-.6 1.3-.6h3.3c2 0 2.5.1 3.3 1.5l11 17.7L69.8.9c.8-1.4 1.3-1.5 3.3-1.5h3c.7 0 1.1.2 1.3.5.2.3.1.8-.2 1.4L61.8 25.1v15.3c0 1.3-.5 1.8-1.9 1.8zM41.1-.2c-.4 0-.7.1-.8.3s0 .5.2.8L56 24.7v15.6c0 1 .3 1.3 1.3 1.3H60c1 0 1.3-.3 1.3-1.3V24.7L76.8 1c.2-.4.3-.7.2-.9-.1-.2-.4-.3-.9-.3h-3c-2 0-2.2.1-2.9 1.2L58.7 19.4 47.3 1c-.7-1.1-1-1.3-2.9-1.3l-3.3.1z"/>
        <path class="st0" d="M121-1.3c8.3 0 12.9 2.9 16 9.1.5 1 .2 1.7-.9 2.1l-2.6 1.1c-1.2.5-1.5.4-2.1-.8-2.2-4.1-5.1-6-10.5-6-6.8 0-10.2 2.3-10.2 6.7 0 3.2 1.9 4.8 5 5.7 2.3.7 3.8.9 6.7 1.2 3.5.4 5.5.7 8.5 1.8 1.5.6 2.7 1.3 3.6 2.1 1.8 1.6 3.2 4.4 3.2 8.2 0 8.1-6.1 13-16.9 13-9 0-13.9-3.3-16.6-10.2-.4-1.1-.2-1.6 1-2l2.5-.9c1-.4 1.6-.2 2.1 1 2 4.5 5.7 6.7 11 6.7 7.3 0 11-2.4 11-7.4 0-2.4-1.1-4.1-3.3-5.1-2.3-.9-4-1.2-7.4-1.6-3.2-.3-4.6-.5-7.5-1.3-1.5-.3-2.6-.8-3.5-1.3-2.8-1.5-5.5-4.4-5.3-9.4 0-7.7 5.9-12.7 16.2-12.7z"/>
        <path class="st0" d="M121 43.1c-8.8 0-14-3.2-16.9-10.4-.2-.6-.3-1.1-.1-1.5.2-.4.6-.7 1.3-.9l2.5-.9c1.2-.5 1.9-.2 2.4 1.1 2 4.4 5.5 6.6 10.8 6.6 7.2 0 10.7-2.3 10.7-7.2 0-2.3-1-3.9-3.2-4.8-2.3-.9-4.1-1.2-7.4-1.6-3.2-.3-4.7-.5-7.5-1.3-1.3-.3-2.6-.7-3.6-1.3-2.1-1.1-5.7-3.9-5.4-9.7 0-7.9 6.3-12.9 16.5-12.9 8.1 0 13 2.8 16.2 9.3.3.5.3 1 .2 1.4-.2.4-.5.8-1.2 1l-2.5 1.1c-1.3.5-1.8.4-2.4-.9-2.2-4.2-5.2-5.9-10.3-5.9-6.6 0-9.9 2.2-9.9 6.5 0 2.7 1.5 4.5 4.8 5.4 2.2.7 3.7.9 6.7 1.2 3.5.4 5.5.7 8.5 1.8 1.4.6 2.6 1.3 3.7 2.1 2.1 1.9 3.3 5 3.3 8.4-.1 8.5-6.5 13.4-17.2 13.4zm-12.3-13.3c-.2 0-.4.1-.7.2l-2.5.9c-.6.2-.9.4-1 .6-.1.2-.1.6.1 1.1 2.7 6.9 7.8 10 16.4 10 10.6 0 16.6-4.6 16.6-12.7 0-3.3-1.1-6.2-3.1-8-1-.8-2.1-1.5-3.5-2-2.9-1.1-4.9-1.3-8.4-1.8-3-.3-4.5-.5-6.8-1.2-3.5-1-5.2-2.9-5.2-5.9 0-4.6 3.5-7 10.4-7 5.3 0 8.4 1.8 10.7 6.2.5 1 .7 1.1 1.8.7l2.6-1.1c.5-.2.8-.4.9-.7.1-.3.1-.6-.1-1-3.2-6.4-7.7-9-15.7-9-9.8 0-16 4.8-16 12.4-.3 5.5 3.1 8.1 5.2 9.2 1 .6 2.2 1 3.5 1.3 2.8.7 4.3.9 7.5 1.2 3.3.4 5.2.7 7.5 1.6 2.4 1 3.5 2.7 3.5 5.3 0 5.1-3.8 7.7-11.2 7.7-5.4 0-9.2-2.3-11.3-6.9-.5-.8-.8-1.1-1.2-1.1z"/>
        <path class="st0" d="M189.1-.4c1.2 0 1.6.4 1.6 1.6v39.3c0 1.1-.4 1.6-1.6 1.6h-2.4c-1.2 0-1.6-.4-1.6-1.6V19c0-3.3.4-7 1.1-11.2h-.3c-1.2 3.1-2.8 6.4-4.9 10l-7.7 13.5c-.4.8-1.1 1.1-1.9 1.1h-1.5c-.8 0-1.5-.4-1.9-1.1l-7.9-13.6c-1.8-3-3.3-6.3-4.6-9.9h-.4c.7 3.8 1 7.5 1 11.2v21.5c0 1.1-.4 1.6-1.6 1.6h-2.3c-1.2 0-1.6-.4-1.6-1.6V1.2c0-1.1.4-1.6 1.6-1.6h2.1c1.3 0 1.7.2 2.3 1.2l14 24.4L184.5.8c.5-1 .9-1.3 2.2-1.3l2.4.1z"/>
        <path class="st0" d="M189.1 42.2h-2.4c-1.3 0-1.8-.5-1.8-1.8V18.9c0-3 .3-6.5.9-10.2-1.1 2.8-2.6 5.8-4.5 9.1l-7.7 13.5c-.5.8-1.2 1.3-2.1 1.3H170c-.9 0-1.7-.4-2.1-1.3L160 17.7c-1.7-2.8-3.1-5.9-4.3-9.2.6 3.4.8 6.9.8 10.4v21.5c0 1.3-.5 1.8-1.8 1.8h-2.3c-1.3 0-1.8-.5-1.8-1.8V1.1c0-1.3.5-1.8 1.8-1.8h2.1c1.4 0 1.9.3 2.5 1.3l13.8 24 13.7-24c.6-1.1 1.1-1.4 2.4-1.4h2.3c1.3 0 1.8.5 1.8 1.8v39.3c-.1 1.4-.6 1.9-1.9 1.9zm-3.4-34.8h.8l-.1.3c-.7 4.1-1.1 7.9-1.1 11.2v21.5c0 1 .3 1.3 1.3 1.3h2.4c1 0 1.3-.3 1.3-1.3V1.1c0-1-.3-1.3-1.3-1.3h-2.3c-1.2 0-1.5.2-2 1.1l-14.2 24.7L156.3.8c-.5-.9-.9-1.1-2-1.1h-2.1c-1 0-1.3.3-1.3 1.3v39.3c0 1 .3 1.3 1.3 1.3h2.3c1 0 1.3-.3 1.3-1.3V18.8c0-3.8-.3-7.6-1-11.2l-.1-.3h.8l.1.2c1.2 3.6 2.8 6.9 4.5 9.9L168 31c.4.7.9 1 1.7 1h1.5c.7 0 1.3-.3 1.7-1l7.7-13.5c2.1-3.7 3.7-7 4.9-10l.2-.1z"/>
        <path class="st0" d="M240.6 40.4c.4 1 0 1.6-1.1 1.6h-2.4c-1.9 0-2.5-.2-2.9-1.4l-3.8-9.7h-18l-3.8 9.7c-.4 1.1-1 1.4-2.9 1.4h-2.1c-1.1 0-1.5-.5-1.1-1.6L218.3.8c.3-.9 1-1.3 2-1.3h2.4c1 0 1.7.4 2 1.3l15.9 39.6zm-17.9-30c-.7-2.1-1.1-4-1.1-5.6h-.4l-.1.8c-.1 1-.4 3.1-1 4.7l-6.2 15.8h14.7l-5.9-15.7z"/>
        <path class="st0" d="M239.5 42.2h-2.4c-1.9 0-2.7-.2-3.2-1.5l-3.7-9.6h-17.7l-3.7 9.6c-.5 1.3-1.2 1.5-3.2 1.5h-2.1c-.6 0-1.1-.2-1.3-.5s-.2-.8 0-1.4L218 .7c.3-1 1.1-1.5 2.2-1.5h2.4c1.1 0 1.9.5 2.2 1.4l15.8 39.7c.2.6.2 1.1 0 1.4 0 .3-.5.5-1.1.5zm-27.3-11.6h18.4l3.8 9.9c.4 1 .7 1.2 2.7 1.2h2.4c.3 0 .7 0 .9-.3.2-.2.1-.6 0-.9L224.6.8c-.3-.7-.9-1.1-1.8-1.1h-2.4c-.9 0-1.5.4-1.8 1.1l-15.8 39.6c-.1.3-.2.7 0 .9s.6.3.9.3h2.1c2 0 2.3-.3 2.7-1.2l3.7-9.8zm16.9-4.2h-15.5l6.3-16.1c.5-1.5.9-3.6 1-4.6l.1-1.1h.8v.2c0 1.6.4 3.5 1.1 5.5l6.2 16.1zm-14.7-.5h14l-6-15.4c-.6-1.7-.9-3.2-1.1-4.6-.1 1-.4 2.9-1 4.5l-5.9 15.5z"/>
        <path class="st0" d="M270.1-.4c8.2 0 13.2 4.7 13.2 12.7 0 6.4-3.3 10.6-9 11.9 1.1.6 2.1 1.7 3 3.3l6.8 12.8c.5 1.1.3 1.6-.9 1.6h-2.7c-2 0-2.6-.2-3.2-1.4l-5.5-10.9c-1.8-3.6-3.6-4.7-8-4.7h-6.5v15.5c0 1.1-.4 1.6-1.6 1.6H253c-1.2 0-1.6-.4-1.6-1.6V1.1c0-1.1.4-1.6 1.6-1.6h17.1v.1zm-.6 5.4h-12.2v14.6h12.2c4.8 0 7.6-2.7 7.6-7.3 0-4.7-2.8-7.3-7.6-7.3z"/>
        <path class="st0" d="M283.2 42.2h-2.7c-2 0-2.8-.2-3.4-1.5l-5.5-10.9c-1.8-3.6-3.5-4.6-7.8-4.6h-6.3v15.2c0 1.3-.5 1.8-1.9 1.8H253c-1.3 0-1.8-.5-1.8-1.8V1.1c0-1.3.5-1.8 1.8-1.8h17.1c8.4 0 13.4 4.8 13.4 13 0 6.2-3.1 10.5-8.6 12 .9.7 1.8 1.7 2.6 3.1l6.8 12.8c.3.7.4 1.1.2 1.5-.2.4-.6.5-1.3.5zM257 24.7h6.8c4.5 0 6.4 1.1 8.3 4.9l5.5 10.9c.5 1 1 1.2 2.9 1.2h2.7c.4 0 .7-.1.8-.2.1-.2 0-.5-.2-1L277 27.7c-.9-1.6-1.9-2.7-2.9-3.2l-.6-.3.7-.1c5.6-1.2 8.8-5.5 8.8-11.6C283 4.6 278.3 0 270.1 0H253c-1 0-1.3.3-1.3 1.3v39.3c0 1 .3 1.3 1.3 1.3h2.7c1.1 0 1.4-.3 1.4-1.3V24.7h-.1zm12.5-4.9H257V4.7h12.5c5 0 7.8 2.8 7.8 7.6s-2.8 7.5-7.8 7.5zm-12-.5h12c4.6 0 7.3-2.6 7.3-7 0-4.6-2.6-7.1-7.3-7.1h-12v14.1z"/>
        <path class="st0" d="M323-.4c1.2 0 1.6.4 1.6 1.6v2.3c0 1.1-.4 1.6-1.6 1.6h-11.5v35.5c0 1.1-.4 1.6-1.6 1.6h-2.7c-1.2 0-1.6-.4-1.6-1.6V5h-11.5c-1.2 0-1.6-.4-1.6-1.6V1.1c0-1.1.4-1.6 1.6-1.6l28.9.1z"/>
        <path class="st0" d="M309.9 42.2h-2.7c-1.3 0-1.8-.5-1.8-1.8V5.2h-11.3c-1.3 0-1.8-.5-1.8-1.8V1.1c0-1.3.5-1.8 1.8-1.8H323c1.3 0 1.8.5 1.8 1.8v2.3c0 1.3-.5 1.8-1.8 1.8h-11.3v35.2c0 1.3-.5 1.8-1.8 1.8zM294.1-.2c-1 0-1.3.3-1.3 1.3v2.3c0 1 .3 1.3 1.3 1.3h11.8v35.7c0 1 .3 1.3 1.3 1.3h2.7c1 0 1.3-.3 1.3-1.3V4.7H323c1 0 1.3-.3 1.3-1.3V1.1c0-1-.3-1.3-1.3-1.3h-28.9z"/>
        <g>
            <path class="st0" d="M340.3-.4c1.2 0 1.6.4 1.6 1.6v35.5H361c1.2 0 1.6.4 1.6 1.6v2.3c0 1.1-.4 1.6-1.6 1.6h-23.4c-1.2 0-1.6-.4-1.6-1.6V1.3c0-1.1.4-1.6 1.6-1.6l2.7-.1z"/>
            <path class="st0" d="M361.1 42.2h-23.4c-1.3 0-1.8-.5-1.8-1.8V1.1c0-1.3.5-1.8 1.8-1.8h2.7c1.3 0 1.9.5 1.9 1.8v35.2h18.9c1.3 0 1.9.5 1.9 1.8v2.3c-.1 1.3-.7 1.8-2 1.8zM337.6-.2c-1 0-1.3.3-1.3 1.3v39.3c0 1 .3 1.3 1.3 1.3H361c1.1 0 1.4-.3 1.4-1.3v-2.3c0-1-.3-1.3-1.4-1.3h-19.4V1.1c0-1-.3-1.3-1.4-1.3h-2.6z"/>
        </g>
        <g>
            <path class="st0" d="M374.1 1.1c0-1.1.4-1.6 1.6-1.6h2.7c1.2 0 1.6.4 1.6 1.6v39.3c0 1.1-.4 1.6-1.6 1.6h-2.7c-1.2 0-1.6-.4-1.6-1.6V1.1z"/>
            <path class="st0" d="M378.4 42.2h-2.7c-1.3 0-1.8-.5-1.8-1.8V1.1c0-1.3.5-1.8 1.8-1.8h2.7c1.3 0 1.9.5 1.9 1.8v39.3c0 1.3-.6 1.8-1.9 1.8zM375.7-.2c-1 0-1.3.3-1.3 1.3v39.3c0 1 .3 1.3 1.3 1.3h2.7c1.1 0 1.4-.3 1.4-1.3V1.1c0-1-.3-1.3-1.4-1.3h-2.7z"/>
        </g>
        <g>
            <path class="st0" d="M421.2-.4c1.2 0 1.6.4 1.6 1.6v2.3c0 1.1-.4 1.6-1.6 1.6H401v13.4h17.2c1.2 0 1.6.4 1.6 1.6v2.3c0 1.2-.4 1.6-1.6 1.6H401v16.7c0 1.1-.4 1.6-1.6 1.6h-2.7c-1.2 0-1.6-.4-1.6-1.6V1.4c0-1.1.4-1.6 1.6-1.6h24.5v-.2z"/>
            <path class="st0" d="M399.4 42.2h-2.7c-1.3 0-1.8-.5-1.8-1.8V1.1c0-1.3.5-1.8 1.8-1.8h24.5c1.3 0 1.8.5 1.8 1.8v2.3c0 1.3-.5 1.8-1.8 1.8h-19.9v12.9h16.9c1.3 0 1.8.5 1.8 1.8v2.3c0 1.3-.5 1.8-1.8 1.8h-16.9v16.4c0 1.3-.6 1.8-1.9 1.8zM396.7-.2c-1 0-1.3.3-1.3 1.3v39.3c0 1 .3 1.3 1.3 1.3h2.7c1.1 0 1.4-.3 1.4-1.3V23.5h17.4c1.1 0 1.3-.2 1.3-1.3v-2.3c0-1-.3-1.3-1.3-1.3h-17.4V4.7h20.4c1 0 1.3-.3 1.3-1.3V1.1c0-1-.3-1.3-1.3-1.3h-24.5z"/>
        </g>
        <g>
            <path class="st0" d="M461.3-.4c1.2 0 1.6.4 1.6 1.6v2.3c0 1.1-.4 1.6-1.6 1.6h-20.2v12.8h17.4c1.2 0 1.6.4 1.6 1.6v2.2c0 1.2-.4 1.6-1.6 1.6h-17.4v13.4H462c1.2 0 1.6.4 1.6 1.6v2.3c0 1.1-.4 1.6-1.6 1.6h-25.2c-1.2 0-1.6-.4-1.6-1.6V1.3c0-1.1.4-1.6 1.6-1.6l24.5-.1z"/>
            <path class="st0" d="M462.1 42.2h-25.2c-1.3 0-1.8-.5-1.8-1.8V1.1c0-1.3.5-1.8 1.8-1.8h24.5c1.3 0 1.8.5 1.8 1.8v2.3c0 1.3-.5 1.8-1.8 1.8h-19.9v12.3h17.1c1.3 0 1.8.5 1.8 1.9v2.2c0 1.3-.5 1.8-1.8 1.8h-17.1v12.9h20.6c1.3 0 1.8.5 1.8 1.8v2.3c0 1.3-.5 1.8-1.8 1.8zM436.8-.2c-1 0-1.3.3-1.3 1.3v39.3c0 1 .3 1.3 1.3 1.3H462c1 0 1.3-.3 1.3-1.3v-2.3c0-1-.3-1.3-1.3-1.3h-21.1V22.9h17.6c1.1 0 1.3-.2 1.3-1.3v-2.2c0-1.1-.3-1.4-1.3-1.4h-17.6V4.7h20.4c1 0 1.3-.3 1.3-1.3V1.1c0-1-.3-1.3-1.3-1.3h-24.5z"/>
        </g>
        <g>
            <path class="st0" d="M495.1-.4c7.6 0 12.1 3.9 12.1 11 0 4.5-1.8 7.6-5.2 9.3v.2c4.6 1.3 6.8 4.8 6.8 10.4 0 7.3-5.2 11.5-13.2 11.5H478c-1.2 0-1.6-.4-1.6-1.6V1.1c0-1.1.4-1.6 1.6-1.6l17.1.1zm-.7 5.4h-12.1v12.8h12.1c4.5 0 6.8-2.1 6.8-6.4 0-4.3-2.3-6.4-6.8-6.4zm1 18h-13.1v13.5h13.1c4.7 0 7.1-2.3 7.1-6.7 0-4.3-2.5-6.8-7.1-6.8z"/>
            <path class="st0" d="M495.6 42.2H478c-1.3 0-1.8-.5-1.8-1.8V1.1c0-1.3.5-1.8 1.8-1.8h17.1c7.9 0 12.4 4.1 12.4 11.2 0 4.5-1.7 7.6-5 9.4 4.4 1.4 6.6 5 6.6 10.5-.1 7.3-5.2 11.8-13.5 11.8zM478-.2c-1 0-1.3.3-1.3 1.3v39.3c0 1 .3 1.3 1.3 1.3h17.6c8.1 0 12.9-4.2 12.9-11.3 0-5.5-2.2-8.9-6.6-10.1l-.2-.1v-.5l.1-.1c3.4-1.6 5.1-4.7 5.1-9.1 0-6.8-4.3-10.7-11.9-10.7h-17zm17.4 37h-13.3v-14h13.3c4.7 0 7.3 2.5 7.3 7.1s-2.4 6.9-7.3 6.9zm-12.8-.5h12.8c4.5 0 6.8-2.2 6.8-6.5 0-4.2-2.4-6.6-6.8-6.6h-12.8v13.1zM494.4 18h-12.3V4.7h12.3c4.7 0 7 2.3 7 6.7s-2.4 6.6-7 6.6zm-11.8-.5h11.8c4.4 0 6.5-2 6.5-6.1 0-4.2-2.1-6.2-6.5-6.2h-11.8v12.3z"/>
        </g>
        <g>
            <path class="st0" d="M521.9 1.1c0-1.1.4-1.6 1.6-1.6h2.7c1.2 0 1.6.4 1.6 1.6v39.3c0 1.1-.4 1.6-1.6 1.6h-2.7c-1.2 0-1.6-.4-1.6-1.6V1.1z"/>
            <path class="st0" d="M526.2 42.2h-2.7c-1.3 0-1.8-.5-1.8-1.8V1.1c0-1.3.5-1.8 1.8-1.8h2.7c1.3 0 1.9.5 1.9 1.8v39.3c0 1.3-.6 1.8-1.9 1.8zM523.5-.2c-1 0-1.3.3-1.3 1.3v39.3c0 1 .3 1.3 1.3 1.3h2.7c1.1 0 1.4-.3 1.4-1.3V1.1c0-1-.3-1.3-1.4-1.3h-2.7z"/>
        </g>
        <g>
            <path class="st0" d="M541.7 14c0-9.5 6.2-15.3 17.1-15.3 10.9 0 17.1 5.7 17.1 15.3v13.6c0 9.5-6.2 15.3-17.1 15.3-10.9 0-17.1-5.7-17.1-15.3V14zm28.2 0c0-6.4-4-9.9-11.1-9.9s-11.1 3.5-11.1 9.9v13.6c0 6.4 4 9.9 11.1 9.9s11.1-3.5 11.1-9.9V14z"/>
            <path class="st0" d="M558.7 43.1c-11 0-17.3-5.7-17.3-15.5V14c0-9.9 6.3-15.5 17.3-15.5S576 4.1 576 14v13.6c0 9.8-6.3 15.5-17.3 15.5zm0-44.2c-10.7 0-16.8 5.5-16.8 15v13.6c0 9.6 6.1 15 16.8 15s16.8-5.5 16.8-15V14c0-9.6-6.1-15.1-16.8-15.1zm0 38.8c-7.2 0-11.4-3.7-11.4-10.2V14c0-6.5 4.2-10.2 11.4-10.2s11.4 3.7 11.4 10.2v13.6c0 6.4-4.1 10.1-11.4 10.1zm0-33.4c-7 0-10.9 3.4-10.9 9.7v13.6c0 6.2 3.9 9.7 10.9 9.7s10.9-3.4 10.9-9.7V14c0-6.3-3.9-9.7-10.9-9.7z"/>
        </g>
    </g>
</svg>
