<svg id="Слой_1" xmlns="http://www.w3.org/2000/svg" xmlns:xlink="http://www.w3.org/1999/xlink" viewBox="0 0 4332 727.2">
    <style>
        .st0{clip-path:url(#SVGID_2_);fill-rule:evenodd;clip-rule:evenodd;fill:#fff}
    </style>
    <defs>
        <path id="SVGID_1_" d="M0 0h4332v727.2H0z"/>
    </defs>
    <clipPath id="SVGID_2_">
        <use xlink:href="#SVGID_1_" overflow="visible"/>
    </clipPath>
    <path class="st0" d="M4332 82H2983.7c-8-1-18.7-1.9-34.2-2.4-11.4.2-22.7.4-34 .6-5.1-.5-10.7-1-15-1.6-57.9-7.4-66.3-7.8-91.9-3.9-10.5-1.4-21-2.8-31.5-4.3-8.2-1.6-17.7-3.1-33.3-4.3-46.3-6.1-100.6-9.1-130.2-7.2.6.3 1.4.7 2.5 1-17.6-.4-32.3-.4-24 2-4.1.8-8.2 1.7-12.4 2.5-8.4.7-16.9 1.5-25.4 2.2-11.8-.9-23.4-1.8-35.1-2.6h-1 1c-13.6-.4-27.1-.7-40.8-1.2-8-.3-14.4-.4-5.3.8 3.4.4 10.7.7 16.1 1.1 1.1.4 2 .7 2.6 1-1.4.3-2.8.7-4.2 1-11.2-.2-6.6 1-6.2 1.8-2.8 1.3-5.7 2.5-8.5 3.8-9.8.2-13.3 1.1-13 2.2-23.4 1.2-22.4 4.4-24.7 7.3h-38.4c-9.4-.7-22.9-1.1-29.6-1.8-11-1.2-16.2-1.1-19.5-.6-8.4-.1-17.1-.1-25-.4-18.4-.8-20.4-.1-18.2 1.1-7.9-.5-13.7-1.3-17.1-2.3 4.4-.5 8.8-.9 13.3-1.4 11.2-.1 3.1-1.5.5-2.5-3.6-1.2-5.4-2.4-20.7-3.7-.8-.3-1.3-.6-1.8-1 11.6-.5-5-2-10.9-3.2 18.9.6 32.5.4 43-.2 13.1-.7 4.9-2-18.4-3.3-1.2-.4-2.4-.7-3.5-1.1 38.1 2.2 54 1.2 58.3-1.3 6-.5 28.1 1 24.1-.8 24.6.2 49.6.4 3.8-4.3-18.2-2.3-39.5-3.8-61.2-5.2-12.5-1.1-24.9-2.2-37.4-3.3-11.7-1.7-23.5-3-29.2-1.6-1.7.5-7 1.1 3.8 2 20.1 1.7 16-.4 25.6-.5 7.3 2 20.7 3.4 40.7 4.3 9.8 1.3 27 2.4 30.5 3.9-2.2.2-4.5.4-6.7.6-19.4-1.4-40.5-3.3-51.3-2.1-20.2-.5-39.4-1.9-57.9-4.1h-.1c-27.1-4.7-26.4-.8-40.8-1.6-6.8.1-6.1.8-3.5 1.7-16.5.8-36.6 1.2-31.4 4.2-23.1-.3-25.8 1.4-24.1 3.5-3.5-.1-6.8-.3-10.4-.4-8.4-.3-15.5-.5-16.7.3-2.8 1.9-29.2 1.7-22.1 4.4-3.1-.1-6.3-.2-9.6-.4-10.1-1.3-20.2-2.6-30.3-3.8 12.3.2 29.7.7 18.3-1.3-8.6-1.5-16.7-.6-25.3-.9-8.8.9-5 2.7-3.6 4.4l-6.9.6c-6.7-.2-13.5-.5-20.1-.7-4.4-.5-8.9-1-13.3-1.5-21-3.7-19.5-.4-31.3-1.2-4.9-.9-1.6-2-15.4-2.6-11-.5-7 .9-5 1.8-29.4 1.2 19.7 4.4 29.9 6.6l.8.1c-.3 0-.5-.1-.8-.1-23.8-.9-47.6-1.9-71.5-2.8-3.3-.1-6.6-.3-9.9-.4 4.9-.5 10-1 14.9-1.5-4.4-.4-9.2-.9-13-1.1-22.1-1-17.2.6-12.4 2.1-11.7.7-9.4 2.6-13.9 4 5.9.5 11.8.9 17.8 1.4 2.2.4 4.9.7 7.9 1.1.8.3 1.6.5 2.4.8h-.7c-13-.5-19 0-24.2.5-3.6 1.7-25.7 1.9-10.9 5-2.4.2-4.6.4-7 .6-.5.9-4.9 1.3-13.7 1.3 1.7.5 3.3 1 4.9 1.6-.8.1-1.5.1-2.2.2-1.9.2-2.8.5-3 .9 1.1.3 2.2.7 3.4 1-22.3-.1-1.2 2.3 3.9 3.8 2.2.4 4.4.7 6.7 1h-13.1c-19.1-1.6-40.2-3.7-35.7-.1 3.6-.2 7.1-.1 10.5.1h-51.1c-26.4-2.8-49.6-5.7-69.4-8.6-1-.1-2-.3-3-.4-.2.1 0 .3.4.5l-16.8.3c-17.7-.3-32.5-2.1-47.6-3.7-.7-1 22.7-.3-.1-2.8-22.3-2.4-9.4-2.9-2.7-3.7 6.9 0 10.3-.2 11.3-.5-3.1-.7-5.9-1.5-8.4-2.2-1.8-.3-3.8-.6-6-.8-7.8-1.9-24.5-4.4-37.6-3.9-12.3.5-1 3.3 16.9 5.7 7.4 1.9-5.8 2.1-7.5 3.3-11.5-.6-23-1.3-36.1-2 44.1 6.3 40.1 7.5-16.5 6.7-14.2-.2-17.7.9-12.9 2.6-8.4-.3-15.5-.4-17.2.2-8.3-.3-15.3-.4-17.1.2-9.1 0-5.6 2-22.6.5-42.6-3.7-49.1-1.9-56.2 0h-3.3c-8.5-1.2-18.6-2.5-30.7-3.8-15.4-4.3-36-8.2-87.8-10-19.5.4-38.8.7-58.1 1.1-8.7-.9-18.2-1.8-25.5-2.7-98.8-12.6-113.2-13.2-156.7-6.6-17.9-2.4-35.9-4.8-53.7-7.3-13.9-2.7-30.3-5.2-56.8-7.4-79-10.4-171.6-15.5-222.1-12.2 1 .5 2.3 1.1 4.3 1.7-30-.6-55.1-.7-40.9 3.4-7 1.4-14 2.9-21.2 4.3-14.4 1.3-28.8 2.5-43.3 3.8-20.1-1.5-39.9-3-59.8-4.5h-1.8 1.6c-23.3-.7-46.3-1.3-69.7-2-13.7-.5-24.7-.7-9.1 1.4 5.9.8 18.2 1.3 27.5 1.9 1.9.6 3.4 1.2 4.4 1.8-2.4.6-4.8 1.1-7.1 1.7-19.1-.3-11.3 1.7-10.5 3.1-4.7 2.2-9.7 4.3-14.6 6.5-16.7.4-22.6 1.8-22.1 3.8-43.6 2.2-37.5 8.5-43.4 13.8-3.7 1.5-7.6 3-11.2 4.5-13.4.6-26.7 1.2-39.8 1.8-3.2-.4-6.4-.8-9.7-1.2 4.8-.7 11.4-1.3 11.7-2.3 12.6-4.6-45.2-5-65.7-7.2-18.8-2-27.7-1.8-33.3-1-14.3-.2-29.1-.1-42.7-.7-31.5-1.4-34.8-.1-31 1.8-13.5-.9-23.3-2.2-29.2-3.9 7.5-.8 15-1.6 22.6-2.4 19.1-.2 5.2-2.6.8-4.3h-.1c-6.2-2-9.3-4-35.3-6.2-1.3-.6-2.3-1.1-3.2-1.6 19.9-.8-8.5-3.4-18.6-5.4 32.2 1.1 55.4.6 73.4-.3 22.4-1.2 8.3-3.5-31.5-5.6-2-.6-4.1-1.2-6-1.8 65 3.7 92.1 2.1 99.5-2.2 10.3-.9 48 1.7 41.1-1.4 42 .4 84.6.8 6.6-7.4-31.1-4-67.4-6.5-104.5-8.8-21.3-1.9-42.5-3.7-63.8-5.6C121 .7 100.9-1.6 91.1.9c-4.1 1-13 2.1 5.3 3.6 34.3 2.8 27.2-.8 43.7-.8 12.4 3.4 35.4 5.9 69.4 7.4 16.7 2.3 46 4.1 52 6.7-3.8.4-7.7.7-11.5 1.1-33.1-2.4-69.1-5.7-87.4-3.5-34.5-.8-67.3-3.3-98.8-7h-.3C21.5 1.1 18.6 5.8 0 5.8v721.5h4332V82z"/>
</svg>
