<?xml version="1.0" encoding="UTF-8"?><!DOCTYPE svg PUBLIC "-//W3C//DTD SVG 1.1//EN" "http://www.w3.org/Graphics/SVG/1.1/DTD/svg11.dtd"><svg xmlns="http://www.w3.org/2000/svg" xmlns:xlink="http://www.w3.org/1999/xlink"><defs>
        <path id="SVGID_1_" d="M0 0h97.6v86.7H0z"/>
    
        <path id="SVGID_1_" d="M0 0h253.8v253.8H0z"/>
    
        <path id="SVGID_1_" d="M0 0h203.9v201.8H0z"/>
    
        <path id="SVGID_1_" d="M0 0h9.6v11.2H0z"/>
    
        <path id="SVGID_1_" d="M0 0h160.1v135.4H0z"/>
    
        <path id="SVGID_1_" d="M0 0h143.1v158.5H0z"/>
    
        <path id="SVGID_1_" d="M0 0h253.8v253.8H0z"/>
    
        <path id="SVGID_1_" d="M0 0h153.4v154.6H0z"/>
    
        <path id="SVGID_1_" d="M0 0h253.8v253.8H0z"/>
    </defs><symbol id="icon-afc-arrow" viewBox="0 0 45.6 45.6">
    <style>
        .st0{fill:#e7e7e7;stroke:url(#SVGID_1_);stroke-miterlimit:10}.st1{fill:#2d6965}
    </style>
    <linearGradient id="SVGID_1_" gradientUnits="userSpaceOnUse" x1="1.827" y1="22.8" x2="43.773" y2="22.8">
        <stop offset=".231" stop-color="#2d6965"/>
        <stop offset="1" stop-color="#2d6965"/>
    </linearGradient>
    <circle class="st0" cx="22.8" cy="22.8" r="20.5"/>
    <linearGradient id="SVGID_2_" gradientUnits="userSpaceOnUse" x1="10.695" y1="22.8" x2="34.905" y2="22.8">
        <stop offset=".231" stop-color="#5ab29f"/>
        <stop offset="1" stop-color="#283f3a"/>
    </linearGradient>
    <path class="st1" d="M22.8 15.5L10.7 27.6l2.5 2.5 9.6-9.7 9.6 9.7 2.5-2.5z"/>
</symbol><symbol id="icon-check" viewBox="0 0 97.6 86.7">
    <style>
        .st0{clip-path:url(#SVGID_2_);fill:#2e6b67}
    </style>
    
    <clipPath id="SVGID_2_">
        <use xlink:href="#SVGID_1_" overflow="visible"/>
    </clipPath>
    <path class="st0" d="M96.9 11.9L84 .5c-.4-.4-1-.5-1.5-.5s-1 .3-1.4.7l-47 53.5-16.7-22.1c-.3-.4-.8-.7-1.3-.8-.5-.1-1.1.1-1.5.4L.8 42.1c-.9.7-1.1 1.9-.4 2.8l31 41c.4.5.9.8 1.5.8h.1c.6 0 1.1-.2 1.5-.7l62.6-71.3c.7-.8.7-2.1-.2-2.8"/>
</symbol><symbol id="icon-checkout-back" viewBox="0 0 306 306">
    <style>
        .st0{fill:#fff}
    </style>
    <path class="st0" d="M241.7 153L94.4 5.7l-30.1 30L181.6 153 64.3 270.3l30.1 30z"/>
</symbol><symbol id="icon-checkout-delete" viewBox="0 0 357 357">
    <path d="M357 35.7L321.3 0 178.5 142.8 35.7 0 0 35.7l142.8 142.8L0 321.3 35.7 357l142.8-142.8L321.3 357l35.7-35.7-142.8-142.8z"/>
</symbol><symbol id="icon-facebook" viewBox="0 0 253.8 253.8">
    <style>
        .st0{clip-path:url(#SVGID_2_);fill:#fff}
    </style>
    
    <clipPath id="SVGID_2_">
        <use xlink:href="#SVGID_1_" overflow="visible"/>
    </clipPath>
    <path class="st0" d="M126.9 0C56.8 0 0 56.8 0 126.9v.1c0 70 56.8 126.8 126.8 126.8h.1c70 0 126.8-56.8 126.8-126.8v-.1C253.7 56.8 196.9 0 126.9 0m36.8 74.3h-13.6c-10.7 0-12.7 5.1-12.7 12.5v16.4h25.5l-3.3 25.7h-22.2v66h-26.6v-66H88.5v-25.7h22.2v-19c0-22 13.4-34 33.1-34 9.4 0 17.5.7 19.9 1v23.1z"/>
</symbol><symbol id="icon-inst-arrow" viewBox="0 0 289.4 294.7">
    <style>
        .st0{fill:#fff}
    </style>
    <path class="st0" d="M142.1 0L112 30l117.3 117.3L112 264.6l30.1 30.1 147.3-147.4z"/>
    <path class="st0" d="M0 124.8h236.7v45.1H0z"/>
</symbol><symbol id="icon-instagram" viewBox="0 0 203.9 201.8">
    <style>
        .st0{clip-path:url(#SVGID_2_);fill:#fff}
    </style>
    
    <clipPath id="SVGID_2_">
        <use xlink:href="#SVGID_1_" overflow="visible"/>
    </clipPath>
    <path class="st0" d="M142.7 70.4c-.9-2.4-2.1-4.1-3.9-6-1.8-1.8-3.6-2.9-6-3.9-1.8-.7-4.6-1.6-9.7-1.8-5.5-.2-7.2-.3-21.1-.3s-15.6.1-21.1.3c-5.1.2-7.9 1.1-9.7 1.8-2.4.9-4.2 2.1-6 3.9-1.8 1.8-3 3.5-3.9 6-.7 1.8-1.6 4.6-1.8 9.6-.3 5.5-.3 7.1-.3 20.9 0 13.8.1 15.5.3 20.9.2 5 1.1 7.8 1.8 9.6.9 2.4 2.1 4.1 3.9 5.9s3.6 2.9 6 3.9c1.8.7 4.6 1.6 9.7 1.8 5.5.2 7.2.3 21.1.3 14 0 15.6-.1 21.1-.3 5.1-.2 7.9-1.1 9.7-1.8 2.4-.9 4.2-2.1 6-3.9 1.8-1.8 3-3.5 3.9-5.9.7-1.8 1.6-4.6 1.8-9.6.3-5.5.3-7.1.3-20.9 0-13.8-.1-15.5-.3-20.9-.2-5-1.1-7.8-1.8-9.6M102 127.5c-14.8 0-26.8-11.9-26.8-26.6s12-26.6 26.8-26.6 26.9 11.9 26.9 26.6-12.1 26.6-26.9 26.6m27.9-48c-3.5 0-6.3-2.8-6.3-6.2 0-3.4 2.8-6.2 6.3-6.2s6.3 2.8 6.3 6.2c0 3.4-2.9 6.2-6.3 6.2"/>
    <path class="st0" d="M102 83.7c-9.6 0-17.4 7.7-17.4 17.2s7.8 17.2 17.4 17.2 17.4-7.7 17.4-17.2-7.8-17.2-17.4-17.2"/>
    <path class="st0" d="M102 0C45.7 0 0 45.2 0 100.9v.1c0 55.7 45.6 100.9 101.9 100.9h.1c56.3 0 101.9-45.2 101.9-100.9v-.1C203.9 45.2 158.3 0 102 0m51.9 122.3c-.3 5.5-1.1 9.3-2.4 12.6-1.3 3.4-3.1 6.3-6 9.2-2.9 2.9-5.8 4.6-9.3 6-3.3 1.3-7.1 2.2-12.7 2.4-5.6.3-7.4.3-21.6.3-14.2 0-16-.1-21.6-.3-5.6-.3-9.4-1.1-12.7-2.4-3.4-1.3-6.4-3.1-9.3-6-2.9-2.9-4.7-5.8-6-9.2-1.3-3.3-2.2-7.1-2.4-12.6-.3-5.5-.3-7.3-.3-21.3s.1-15.8.3-21.3c.3-5.5 1.1-9.3 2.4-12.6 1.3-3.4 3.1-6.3 6-9.2 2.9-2.9 5.8-4.6 9.3-6 3.3-1.3 7.1-2.2 12.7-2.4 5.6-.3 7.4-.3 21.6-.3 14.2 0 16 .1 21.6.3 5.6.3 9.4 1.1 12.7 2.4 3.4 1.3 6.4 3.1 9.3 6 2.9 2.9 4.7 5.8 6 9.2 1.3 3.3 2.2 7.1 2.4 12.6.3 5.5.3 7.3.3 21.3s0 15.7-.3 21.3"/>
</symbol><symbol id="icon-logo" viewBox="0 0 576 657.1">
    <style>
        .st0{fill:#0d0e0f}
    </style>
    <path class="st0" d="M433.7 181.2c0-.4-.1-.7-.2-1.1-.1-.3-.1-.6-.3-.9-.1-.3-.4-.5-.6-.8-.2-.3-.4-.6-.7-.8-.1-.1-.1-.2-.2-.2l-97.1-76.1c-.1-.1-.3-.1-.5-.2s-.4-.3-.6-.4c-.2-.1-.4-.2-.6-.2-.3-.1-.5-.1-.8-.2-.3 0-.5-.1-.8-.1-.1 0-.2-.1-.3-.1-.1 0-.2 0-.3.1-.3 0-.5.1-.7.1-.3 0-.5.1-.8.2-.2.1-.4.1-.6.2-.2.1-.4.2-.6.4-.1.1-.3.1-.4.2l-99.8 76.1c-.1.1-.1.2-.2.2-.3.2-.5.5-.7.8-.2.3-.4.5-.6.8l-.3.9c-.1.4-.2.7-.2 1.1 0 .1-.1.2-.1.3v84.3l-16.5-12.6c-2.1-1.6-4.9-1.4-6.9.1-.1 0-.1 0-.2.1l-57 43.6c-.6.4-1 1-1.4 1.6-.2.2-.3.4-.4.6-.1.1-.3.2-.4.4-.1.1-.1.3-.2.4-.2.3-.3.6-.4 1-.1.4-.2.7-.2 1 0 .2-.1.3-.1.4v81.1c0 1.9 1.1 3.7 2.8 4.6l55.6 30.7v26.1h-28.3c-3.1 0-5.5 2.4-5.5 5.3s2.5 5.3 5.5 5.3h199.8c3.1 0 5.5-2.4 5.5-5.3s-2.5-5.3-5.5-5.3h-35.2v-61.4l94.5-56.8c1.6-1 2.6-2.7 2.6-4.5V181.4c0-.1-.1-.2-.1-.2zM200.4 328.9l-43.7-27.2 43.7-33.3v60.5zm11 42c.7-.1 1.3-.4 1.9-.7l41.5-26.7V380l-43.4 26.1v-35.2zm25.5-51v-75l88.8 53.5V329l-52.8-32.7c-.1-5.4-4.4-9.7-9.8-9.7s-9.8 4.4-9.8 9.8 4.4 9.8 9.8 9.8c1.5 0 2.8-.3 4.1-.9l58.6 36.3v27.2l-88.9-48.9zm88.7-34l-88.8-53.5V184l88.8-67.7v169.6zm11.1 2.2v-38.6l57.8-37.2c1.2.5 2.5.8 3.9.8 5.4 0 9.8-4.4 9.8-9.8s-4.4-9.8-9.8-9.8-9.8 4.4-9.8 9.8l-51.9 33.4V116.5l86 67.4v48.9c-.2.1-.4.1-.6.2l-85.4 55.1zm-110.9-8.9V323c0 1.9 1.1 3.7 2.8 4.6l16.6 9.2-33.8 21.7v-90.2l14 10.7c.2.1.3.2.4.2zm-72.7 101.2v-68.2l47.3 29.4v14.8l-32.8-20.3c-2.6-1.6-6-.9-7.6 1.6-1.7 2.5-.9 5.8 1.7 7.4l38.6 23.9c.1 0 .1 0 .2.1v37.5l-47.4-26.2zm58.3 64.5v-26.2l51.8-31.2c1.6-1 2.6-2.7 2.6-4.5v-34.8l59.8 33v63.7H211.4zm125.3-74v-70l86-55.4v73.6l-86 51.8z"/>
    <path class="st0" d="M371.9 465.1h-166c-3.1 0-5.5 2.4-5.5 5.3s2.5 5.3 5.5 5.3h166c3.1 0 5.5-2.4 5.5-5.3s-2.5-5.3-5.5-5.3z"/>
    <path class="st0" d="M570.1 575.8H5.7c-3.1 0-5.7-2.5-5.7-5.7V5.7C0 2.5 2.5 0 5.7 0h564.5c3.1 0 5.7 2.5 5.7 5.7v564.5c-.1 3-2.7 5.6-5.8 5.6zM10.2 565.5h555.3V10.2H10.2v555.3z"/>
    <g>
        <path class="st0" d="M18.6 613.6c7.6 0 12.1 3.9 12.1 11 0 4.5-1.8 7.6-5.2 9.3v.2c4.6 1.3 6.8 4.8 6.8 10.4 0 7.3-5.2 11.5-13.2 11.5H1.6c-1.2 0-1.6-.4-1.6-1.6v-39.3c0-1.1.4-1.6 1.6-1.6h17zM18 619H5.9v12.8H18c4.5 0 6.8-2.1 6.8-6.4-.1-4.3-2.3-6.4-6.8-6.4zm1 18H5.9v13.5H19c4.7 0 7.1-2.3 7.1-6.7 0-4.3-2.5-6.8-7.1-6.8z"/>
        <path class="st0" d="M19.2 656.2H1.6c-1.3 0-1.8-.5-1.8-1.8v-39.3c0-1.3.5-1.8 1.8-1.8h17.1c7.9 0 12.4 4.1 12.4 11.2 0 4.5-1.7 7.6-5 9.4 4.4 1.4 6.6 5 6.6 10.5-.1 7.3-5.2 11.8-13.5 11.8zM1.6 613.8c-1 0-1.3.3-1.3 1.3v39.3c0 1 .3 1.3 1.3 1.3h17.6c8.1 0 12.9-4.2 12.9-11.3 0-5.5-2.2-8.9-6.6-10.1l-.2-.1v-.5l.1-.1c3.4-1.6 5.1-4.7 5.1-9.1 0-6.8-4.3-10.7-11.9-10.7h-17zm17.4 37H5.7v-14H19c4.7 0 7.3 2.5 7.3 7.1s-2.4 6.9-7.3 6.9zm-12.8-.5H19c4.5 0 6.8-2.2 6.8-6.5 0-4.2-2.4-6.6-6.8-6.6H6.2v13.1zM18 632H5.7v-13.3H18c4.7 0 7 2.3 7 6.7s-2.4 6.6-7 6.6zm-11.8-.5H18c4.4 0 6.5-2 6.5-6.1 0-4.2-2.1-6.2-6.5-6.2H6.2v12.3z"/>
        <path class="st0" d="M76.1 613.6c1.2 0 1.5.5.9 1.6L61.5 639v15.4c0 1.1-.4 1.6-1.6 1.6h-2.7c-1.2 0-1.6-.4-1.6-1.6v-15.5l-15.5-23.8c-.5-.8-.3-1.6.9-1.6h3.3c1.9 0 2.4.1 3.1 1.4L58.7 633 70 615c.7-1.3 1.1-1.4 3.1-1.4h3z"/>
        <path class="st0" d="M59.9 656.2h-2.7c-1.3 0-1.8-.5-1.8-1.8V639L40 615.3c-.3-.5-.4-1-.2-1.3.1-.2.4-.6 1.3-.6h3.3c2 0 2.5.1 3.3 1.5l11 17.7 11.1-17.7c.8-1.4 1.3-1.5 3.3-1.5h3c.7 0 1.1.2 1.3.5.2.3.1.8-.2 1.4l-15.4 23.8v15.3c0 1.3-.5 1.8-1.9 1.8zm-18.8-42.4c-.4 0-.7.1-.8.3-.1.2 0 .5.2.8L56 638.7v15.6c0 1 .3 1.3 1.3 1.3H60c1 0 1.3-.3 1.3-1.3v-15.6L76.8 615c.2-.4.3-.7.2-.9-.1-.2-.4-.3-.9-.3h-3c-2 0-2.2.1-2.9 1.2l-11.5 18.4L47.3 615c-.7-1.1-1-1.3-2.9-1.3h-3.3z"/>
        <path class="st0" d="M121 612.7c8.3 0 12.9 2.9 16 9.1.5 1 .2 1.7-.9 2.1l-2.6 1.1c-1.2.5-1.5.4-2.1-.8-2.2-4.1-5.1-6-10.5-6-6.8 0-10.2 2.3-10.2 6.7 0 3.2 1.9 4.8 5 5.7 2.3.7 3.8.9 6.7 1.2 3.5.4 5.5.7 8.5 1.8 1.5.6 2.7 1.3 3.6 2.1 1.8 1.6 3.2 4.4 3.2 8.2 0 8.1-6.1 13-16.9 13-9 0-13.9-3.3-16.6-10.2-.4-1.1-.2-1.6 1-2l2.5-.9c1-.4 1.6-.2 2.1 1 2 4.5 5.7 6.7 11 6.7 7.3 0 11-2.4 11-7.4 0-2.4-1.1-4.1-3.3-5.1-2.3-.9-4-1.2-7.4-1.6-3.2-.3-4.6-.5-7.5-1.3-1.5-.3-2.6-.8-3.5-1.3-2.8-1.5-5.5-4.4-5.3-9.4 0-7.7 5.9-12.7 16.2-12.7z"/>
        <path class="st0" d="M121 657.1c-8.8 0-14-3.2-16.9-10.4-.2-.6-.3-1.1-.1-1.5.2-.4.6-.7 1.3-.9l2.5-.9c1.2-.5 1.9-.2 2.4 1.1 2 4.4 5.5 6.6 10.8 6.6 7.2 0 10.7-2.3 10.7-7.2 0-2.3-1-3.9-3.2-4.8-2.3-.9-4.1-1.2-7.4-1.6-3.2-.3-4.7-.5-7.5-1.3-1.3-.3-2.6-.7-3.6-1.3-2.1-1.1-5.7-3.9-5.4-9.7 0-7.9 6.3-12.9 16.5-12.9 8.1 0 13 2.8 16.2 9.3.3.5.3 1 .2 1.4-.2.4-.5.8-1.2 1l-2.5 1.1c-1.3.5-1.8.4-2.4-.9-2.2-4.2-5.2-5.9-10.3-5.9-6.6 0-9.9 2.2-9.9 6.5 0 2.7 1.5 4.5 4.8 5.4 2.2.7 3.7.9 6.7 1.2 3.5.4 5.5.7 8.5 1.8 1.4.6 2.6 1.3 3.7 2.1 2.1 1.9 3.3 5 3.3 8.4-.1 8.5-6.5 13.4-17.2 13.4zm-12.3-13.3c-.2 0-.4.1-.7.2l-2.5.9c-.6.2-.9.4-1 .6-.1.2-.1.6.1 1.1 2.7 6.9 7.8 10 16.4 10 10.6 0 16.6-4.6 16.6-12.7 0-3.3-1.1-6.2-3.1-8-1-.8-2.1-1.5-3.5-2-2.9-1.1-4.9-1.3-8.4-1.8-3-.3-4.5-.5-6.8-1.2-3.5-1-5.2-2.9-5.2-5.9 0-4.6 3.5-7 10.4-7 5.3 0 8.4 1.8 10.7 6.2.5 1 .7 1.1 1.8.7l2.6-1.1c.5-.2.8-.4.9-.7.1-.3.1-.6-.1-1-3.2-6.4-7.7-9-15.7-9-9.8 0-16 4.8-16 12.4-.3 5.5 3.1 8.1 5.2 9.2 1 .6 2.2 1 3.5 1.3 2.8.7 4.3.9 7.5 1.2 3.3.4 5.2.7 7.5 1.6 2.4 1 3.5 2.7 3.5 5.3 0 5.1-3.8 7.7-11.2 7.7-5.4 0-9.2-2.3-11.3-6.9-.5-.8-.8-1.1-1.2-1.1z"/>
        <path class="st0" d="M189.1 613.6c1.2 0 1.6.4 1.6 1.6v39.3c0 1.1-.4 1.6-1.6 1.6h-2.4c-1.2 0-1.6-.4-1.6-1.6V633c0-3.3.4-7 1.1-11.2h-.3c-1.2 3.1-2.8 6.4-4.9 10l-7.7 13.5c-.4.8-1.1 1.1-1.9 1.1h-1.5c-.8 0-1.5-.4-1.9-1.1l-7.9-13.6c-1.8-3-3.3-6.3-4.6-9.9h-.4c.7 3.8 1 7.5 1 11.2v21.5c0 1.1-.4 1.6-1.6 1.6h-2.3c-1.2 0-1.6-.4-1.6-1.6v-39.3c0-1.1.4-1.6 1.6-1.6h2.1c1.3 0 1.7.2 2.3 1.2l14 24.4 13.9-24.4c.5-1 .9-1.3 2.2-1.3h2.4z"/>
        <path class="st0" d="M189.1 656.2h-2.4c-1.3 0-1.8-.5-1.8-1.8v-21.5c0-3 .3-6.5.9-10.2-1.1 2.8-2.6 5.8-4.5 9.1l-7.7 13.5c-.5.8-1.2 1.3-2.1 1.3H170c-.9 0-1.7-.4-2.1-1.3l-7.9-13.6c-1.7-2.8-3.1-5.9-4.3-9.2.6 3.4.8 6.9.8 10.4v21.5c0 1.3-.5 1.8-1.8 1.8h-2.3c-1.3 0-1.8-.5-1.8-1.8v-39.3c0-1.3.5-1.8 1.8-1.8h2.1c1.4 0 1.9.3 2.5 1.3l13.8 24 13.7-24c.6-1.1 1.1-1.4 2.4-1.4h2.3c1.3 0 1.8.5 1.8 1.8v39.3c-.1 1.4-.6 1.9-1.9 1.9zm-3.4-34.8h.8l-.1.3c-.7 4.1-1.1 7.9-1.1 11.2v21.5c0 1 .3 1.3 1.3 1.3h2.4c1 0 1.3-.3 1.3-1.3v-39.3c0-1-.3-1.3-1.3-1.3h-2.3c-1.2 0-1.5.2-2 1.1l-14.2 24.7-14.2-24.8c-.5-.9-.9-1.1-2-1.1h-2.1c-1 0-1.3.3-1.3 1.3v39.3c0 1 .3 1.3 1.3 1.3h2.3c1 0 1.3-.3 1.3-1.3v-21.5c0-3.8-.3-7.6-1-11.2l-.1-.3h.8l.1.2c1.2 3.6 2.8 6.9 4.5 9.9L168 645c.4.7.9 1 1.7 1h1.5c.7 0 1.3-.3 1.7-1l7.7-13.5c2.1-3.7 3.7-7 4.9-10l.2-.1z"/>
        <path class="st0" d="M240.6 654.4c.4 1 0 1.6-1.1 1.6h-2.4c-1.9 0-2.5-.2-2.9-1.4l-3.8-9.7h-18l-3.8 9.7c-.4 1.1-1 1.4-2.9 1.4h-2.1c-1.1 0-1.5-.5-1.1-1.6l15.8-39.6c.3-.9 1-1.3 2-1.3h2.4c1 0 1.7.4 2 1.3l15.9 39.6zm-17.9-30c-.7-2.1-1.1-4-1.1-5.6h-.4l-.1.8c-.1 1-.4 3.1-1 4.7l-6.2 15.8h14.7l-5.9-15.7z"/>
        <path class="st0" d="M239.5 656.2h-2.4c-1.9 0-2.7-.2-3.2-1.5l-3.7-9.6h-17.7l-3.7 9.6c-.5 1.3-1.2 1.5-3.2 1.5h-2.1c-.6 0-1.1-.2-1.3-.5-.2-.3-.2-.8 0-1.4l15.8-39.6c.3-1 1.1-1.5 2.2-1.5h2.4c1.1 0 1.9.5 2.2 1.4l15.8 39.7c.2.6.2 1.1 0 1.4 0 .3-.5.5-1.1.5zm-27.3-11.6h18.4l3.8 9.9c.4 1 .7 1.2 2.7 1.2h2.4c.3 0 .7 0 .9-.3.2-.2.1-.6 0-.9l-15.8-39.7c-.3-.7-.9-1.1-1.8-1.1h-2.4c-.9 0-1.5.4-1.8 1.1l-15.8 39.6c-.1.3-.2.7 0 .9.2.2.6.3.9.3h2.1c2 0 2.3-.3 2.7-1.2l3.7-9.8zm16.9-4.2h-15.5l6.3-16.1c.5-1.5.9-3.6 1-4.6l.1-1.1h.8v.2c0 1.6.4 3.5 1.1 5.5l6.2 16.1zm-14.7-.5h14l-6-15.4c-.6-1.7-.9-3.2-1.1-4.6-.1 1-.4 2.9-1 4.5l-5.9 15.5z"/>
        <path class="st0" d="M270.1 613.6c8.2 0 13.2 4.7 13.2 12.7 0 6.4-3.3 10.6-9 11.9 1.1.6 2.1 1.7 3 3.3l6.8 12.8c.5 1.1.3 1.6-.9 1.6h-2.7c-2 0-2.6-.2-3.2-1.4l-5.5-10.9c-1.8-3.6-3.6-4.7-8-4.7h-6.5v15.5c0 1.1-.4 1.6-1.6 1.6H253c-1.2 0-1.6-.4-1.6-1.6v-39.3c0-1.1.4-1.6 1.6-1.6h17.1zm-.6 5.4h-12.2v14.6h12.2c4.8 0 7.6-2.7 7.6-7.3 0-4.7-2.8-7.3-7.6-7.3z"/>
        <path class="st0" d="M283.2 656.2h-2.7c-2 0-2.8-.2-3.4-1.5l-5.5-10.9c-1.8-3.6-3.5-4.6-7.8-4.6h-6.3v15.2c0 1.3-.5 1.8-1.9 1.8H253c-1.3 0-1.8-.5-1.8-1.8v-39.3c0-1.3.5-1.8 1.8-1.8h17.1c8.4 0 13.4 4.8 13.4 13 0 6.2-3.1 10.5-8.6 12 .9.7 1.8 1.7 2.6 3.1l6.8 12.8c.3.7.4 1.1.2 1.5-.2.4-.6.5-1.3.5zM257 638.7h6.8c4.5 0 6.4 1.1 8.3 4.9l5.5 10.9c.5 1 1 1.2 2.9 1.2h2.7c.4 0 .7-.1.8-.2.1-.2 0-.5-.2-1l-6.8-12.8c-.9-1.6-1.9-2.7-2.9-3.2l-.6-.3.7-.1c5.6-1.2 8.8-5.5 8.8-11.6 0-7.9-4.7-12.5-12.9-12.5H253c-1 0-1.3.3-1.3 1.3v39.3c0 1 .3 1.3 1.3 1.3h2.7c1.1 0 1.4-.3 1.4-1.3v-15.9zm12.5-4.9H257v-15.1h12.5c5 0 7.8 2.8 7.8 7.6s-2.8 7.5-7.8 7.5zm-12-.5h12c4.6 0 7.3-2.6 7.3-7 0-4.6-2.6-7.1-7.3-7.1h-12v14.1z"/>
        <path class="st0" d="M323 613.6c1.2 0 1.6.4 1.6 1.6v2.3c0 1.1-.4 1.6-1.6 1.6h-11.5v35.5c0 1.1-.4 1.6-1.6 1.6h-2.7c-1.2 0-1.6-.4-1.6-1.6V619h-11.5c-1.2 0-1.6-.4-1.6-1.6v-2.3c0-1.1.4-1.6 1.6-1.6H323z"/>
        <path class="st0" d="M309.9 656.2h-2.7c-1.3 0-1.8-.5-1.8-1.8v-35.2h-11.3c-1.3 0-1.8-.5-1.8-1.8v-2.3c0-1.3.5-1.8 1.8-1.8H323c1.3 0 1.8.5 1.8 1.8v2.3c0 1.3-.5 1.8-1.8 1.8h-11.3v35.2c0 1.3-.5 1.8-1.8 1.8zm-15.8-42.4c-1 0-1.3.3-1.3 1.3v2.3c0 1 .3 1.3 1.3 1.3h11.8v35.7c0 1 .3 1.3 1.3 1.3h2.7c1 0 1.3-.3 1.3-1.3v-35.7H323c1 0 1.3-.3 1.3-1.3v-2.3c0-1-.3-1.3-1.3-1.3h-28.9z"/>
        <g>
            <path class="st0" d="M340.3 613.6c1.2 0 1.6.4 1.6 1.6v35.5H361c1.2 0 1.6.4 1.6 1.6v2.3c0 1.1-.4 1.6-1.6 1.6h-23.4c-1.2 0-1.6-.4-1.6-1.6v-39.3c0-1.1.4-1.6 1.6-1.6h2.7z"/>
            <path class="st0" d="M361.1 656.2h-23.4c-1.3 0-1.8-.5-1.8-1.8v-39.3c0-1.3.5-1.8 1.8-1.8h2.7c1.3 0 1.9.5 1.9 1.8v35.2h18.9c1.3 0 1.9.5 1.9 1.8v2.3c-.1 1.3-.7 1.8-2 1.8zm-23.5-42.4c-1 0-1.3.3-1.3 1.3v39.3c0 1 .3 1.3 1.3 1.3H361c1.1 0 1.4-.3 1.4-1.3v-2.3c0-1-.3-1.3-1.4-1.3h-19.4v-35.7c0-1-.3-1.3-1.4-1.3h-2.6z"/>
        </g>
        <g>
            <path class="st0" d="M374.1 615.1c0-1.1.4-1.6 1.6-1.6h2.7c1.2 0 1.6.4 1.6 1.6v39.3c0 1.1-.4 1.6-1.6 1.6h-2.7c-1.2 0-1.6-.4-1.6-1.6v-39.3z"/>
            <path class="st0" d="M378.4 656.2h-2.7c-1.3 0-1.8-.5-1.8-1.8v-39.3c0-1.3.5-1.8 1.8-1.8h2.7c1.3 0 1.9.5 1.9 1.8v39.3c0 1.3-.6 1.8-1.9 1.8zm-2.7-42.4c-1 0-1.3.3-1.3 1.3v39.3c0 1 .3 1.3 1.3 1.3h2.7c1.1 0 1.4-.3 1.4-1.3v-39.3c0-1-.3-1.3-1.4-1.3h-2.7z"/>
        </g>
        <g>
            <path class="st0" d="M421.2 613.6c1.2 0 1.6.4 1.6 1.6v2.3c0 1.1-.4 1.6-1.6 1.6H401v13.4h17.2c1.2 0 1.6.4 1.6 1.6v2.3c0 1.2-.4 1.6-1.6 1.6H401v16.7c0 1.1-.4 1.6-1.6 1.6h-2.7c-1.2 0-1.6-.4-1.6-1.6v-39.3c0-1.1.4-1.6 1.6-1.6h24.5z"/>
            <path class="st0" d="M399.4 656.2h-2.7c-1.3 0-1.8-.5-1.8-1.8v-39.3c0-1.3.5-1.8 1.8-1.8h24.5c1.3 0 1.8.5 1.8 1.8v2.3c0 1.3-.5 1.8-1.8 1.8h-19.9v12.9h16.9c1.3 0 1.8.5 1.8 1.8v2.3c0 1.3-.5 1.8-1.8 1.8h-16.9v16.4c0 1.3-.6 1.8-1.9 1.8zm-2.7-42.4c-1 0-1.3.3-1.3 1.3v39.3c0 1 .3 1.3 1.3 1.3h2.7c1.1 0 1.4-.3 1.4-1.3v-16.9h17.4c1.1 0 1.3-.2 1.3-1.3v-2.3c0-1-.3-1.3-1.3-1.3h-17.4v-13.9h20.4c1 0 1.3-.3 1.3-1.3v-2.3c0-1-.3-1.3-1.3-1.3h-24.5z"/>
        </g>
        <g>
            <path class="st0" d="M461.3 613.6c1.2 0 1.6.4 1.6 1.6v2.3c0 1.1-.4 1.6-1.6 1.6h-20.2v12.8h17.4c1.2 0 1.6.4 1.6 1.6v2.2c0 1.2-.4 1.6-1.6 1.6h-17.4v13.4H462c1.2 0 1.6.4 1.6 1.6v2.3c0 1.1-.4 1.6-1.6 1.6h-25.2c-1.2 0-1.6-.4-1.6-1.6v-39.3c0-1.1.4-1.6 1.6-1.6h24.5z"/>
            <path class="st0" d="M462.1 656.2h-25.2c-1.3 0-1.8-.5-1.8-1.8v-39.3c0-1.3.5-1.8 1.8-1.8h24.5c1.3 0 1.8.5 1.8 1.8v2.3c0 1.3-.5 1.8-1.8 1.8h-19.9v12.3h17.1c1.3 0 1.8.5 1.8 1.9v2.2c0 1.3-.5 1.8-1.8 1.8h-17.1v12.9h20.6c1.3 0 1.8.5 1.8 1.8v2.3c0 1.3-.5 1.8-1.8 1.8zm-25.3-42.4c-1 0-1.3.3-1.3 1.3v39.3c0 1 .3 1.3 1.3 1.3H462c1 0 1.3-.3 1.3-1.3v-2.3c0-1-.3-1.3-1.3-1.3h-21.1v-13.9h17.6c1.1 0 1.3-.2 1.3-1.3v-2.2c0-1.1-.3-1.4-1.3-1.4h-17.6v-13.3h20.4c1 0 1.3-.3 1.3-1.3v-2.3c0-1-.3-1.3-1.3-1.3h-24.5z"/>
        </g>
        <g>
            <path class="st0" d="M495.1 613.6c7.6 0 12.1 3.9 12.1 11 0 4.5-1.8 7.6-5.2 9.3v.2c4.6 1.3 6.8 4.8 6.8 10.4 0 7.3-5.2 11.5-13.2 11.5H478c-1.2 0-1.6-.4-1.6-1.6v-39.3c0-1.1.4-1.6 1.6-1.6h17.1zm-.7 5.4h-12.1v12.8h12.1c4.5 0 6.8-2.1 6.8-6.4 0-4.3-2.3-6.4-6.8-6.4zm1 18h-13.1v13.5h13.1c4.7 0 7.1-2.3 7.1-6.7 0-4.3-2.5-6.8-7.1-6.8z"/>
            <path class="st0" d="M495.6 656.2H478c-1.3 0-1.8-.5-1.8-1.8v-39.3c0-1.3.5-1.8 1.8-1.8h17.1c7.9 0 12.4 4.1 12.4 11.2 0 4.5-1.7 7.6-5 9.4 4.4 1.4 6.6 5 6.6 10.5-.1 7.3-5.2 11.8-13.5 11.8zM478 613.8c-1 0-1.3.3-1.3 1.3v39.3c0 1 .3 1.3 1.3 1.3h17.6c8.1 0 12.9-4.2 12.9-11.3 0-5.5-2.2-8.9-6.6-10.1l-.2-.1v-.5l.1-.1c3.4-1.6 5.1-4.7 5.1-9.1 0-6.8-4.3-10.7-11.9-10.7h-17zm17.4 37h-13.3v-14h13.3c4.7 0 7.3 2.5 7.3 7.1s-2.4 6.9-7.3 6.9zm-12.8-.5h12.8c4.5 0 6.8-2.2 6.8-6.5 0-4.2-2.4-6.6-6.8-6.6h-12.8v13.1zm11.8-18.3h-12.3v-13.3h12.3c4.7 0 7 2.3 7 6.7s-2.4 6.6-7 6.6zm-11.8-.5h11.8c4.4 0 6.5-2 6.5-6.1 0-4.2-2.1-6.2-6.5-6.2h-11.8v12.3z"/>
        </g>
        <g>
            <path class="st0" d="M521.9 615.1c0-1.1.4-1.6 1.6-1.6h2.7c1.2 0 1.6.4 1.6 1.6v39.3c0 1.1-.4 1.6-1.6 1.6h-2.7c-1.2 0-1.6-.4-1.6-1.6v-39.3z"/>
            <path class="st0" d="M526.2 656.2h-2.7c-1.3 0-1.8-.5-1.8-1.8v-39.3c0-1.3.5-1.8 1.8-1.8h2.7c1.3 0 1.9.5 1.9 1.8v39.3c0 1.3-.6 1.8-1.9 1.8zm-2.7-42.4c-1 0-1.3.3-1.3 1.3v39.3c0 1 .3 1.3 1.3 1.3h2.7c1.1 0 1.4-.3 1.4-1.3v-39.3c0-1-.3-1.3-1.4-1.3h-2.7z"/>
        </g>
        <g>
            <path class="st0" d="M541.7 628c0-9.5 6.2-15.3 17.1-15.3 10.9 0 17.1 5.7 17.1 15.3v13.6c0 9.5-6.2 15.3-17.1 15.3-10.9 0-17.1-5.7-17.1-15.3V628zm28.2 0c0-6.4-4-9.9-11.1-9.9s-11.1 3.5-11.1 9.9v13.6c0 6.4 4 9.9 11.1 9.9s11.1-3.5 11.1-9.9V628z"/>
            <path class="st0" d="M558.7 657.1c-11 0-17.3-5.7-17.3-15.5V628c0-9.9 6.3-15.5 17.3-15.5S576 618.1 576 628v13.6c0 9.8-6.3 15.5-17.3 15.5zm0-44.2c-10.7 0-16.8 5.5-16.8 15v13.6c0 9.6 6.1 15 16.8 15s16.8-5.5 16.8-15V628c0-9.6-6.1-15.1-16.8-15.1zm0 38.8c-7.2 0-11.4-3.7-11.4-10.2V628c0-6.5 4.2-10.2 11.4-10.2s11.4 3.7 11.4 10.2v13.6c0 6.4-4.1 10.1-11.4 10.1zm0-33.4c-7 0-10.9 3.4-10.9 9.7v13.6c0 6.2 3.9 9.7 10.9 9.7s10.9-3.4 10.9-9.7V628c0-6.3-3.9-9.7-10.9-9.7z"/>
        </g>
    </g>
</symbol><symbol id="icon-play" viewBox="0 0 40.2 40.2">
    <style>
        .st0{fill:#b5b5b5}.st1{fill:none;stroke:#fff;stroke-width:.5;stroke-miterlimit:10}
    </style>
    <path class="st0" d="M17 26.3l9.4-6.3-9.4-6.2z"/>
    <circle class="st1" cx="20.1" cy="20.1" r="19.8"/>
</symbol><symbol id="icon-review-arrow" viewBox="0 0 306 306">
    <style>
        .st0{fill:#fff}
    </style>
    <path class="st0" d="M241.7 153L94.4 5.7l-30.1 30L181.6 153 64.3 270.3l30.1 30z"/>
</symbol><symbol id="icon-ruble" viewBox="0 0 9.6 11.2">
    <style>
        .st0{clip-path:url(#SVGID_2_)}
    </style>
    
    <clipPath id="SVGID_2_">
        <use xlink:href="#SVGID_1_" overflow="visible"/>
    </clipPath>
    <path class="st0" d="M6.2 6.5c2.1 0 3.4-1.5 3.4-3.3C9.6 1.5 8.3 0 6.2 0H2v5.7H0v.9h2v1.1H0v.9h2v2.7h1V8.5h3.4v-.9H3V6.5h3.2zM3 .9h3.1c1.5 0 2.5 1 2.5 2.4s-1 2.4-2.5 2.4H3V.9z"/>
</symbol><symbol id="icon-telegram" viewBox="0 0 160.1 135.4">
    <style>
        .st0{clip-path:url(#SVGID_2_);fill:#fff}
    </style>
    
    <clipPath id="SVGID_2_">
        <use xlink:href="#SVGID_1_" overflow="visible"/>
    </clipPath>
    <path class="st0" d="M149.5 1.1L6 55.4c-7.8 2.3-7.6 10-1.8 11.9l35.9 11.2 13.8 42.2c1.7 4.6 3 6.4 5.9 6.4 3 0 4.1-1.1 7.3-3.8 3.6-3.4 9.2-8.8 18-17.4l37.4 27.6c6.9 3.8 11.8 1.8 13.6-6.4l23.4-116c2.5-10-3.4-13-10-10M45.8 75.9l81.7-51.3c4-2.7 5.3.3 3.5 2.4L63.2 88l-3.5 30.5-13.9-42.6z"/>
</symbol><symbol id="icon-viber" viewBox="0 0 143.1 158.5">
    <style>
        .st0{clip-path:url(#SVGID_2_);fill:#fff}
    </style>
    
    <clipPath id="SVGID_2_">
        <use xlink:href="#SVGID_1_" overflow="visible"/>
    </clipPath>
    <path class="st0" d="M127.4 14.7c-5.8-5-12.7-8-20-9.9C88.8 0 70.1-1.3 51.2 1.3c-9.6 1.3-18.9 3.8-27.4 8.6-10 5.6-16.9 13.7-19.9 24.9C1.7 42.8.7 50.9.3 59.2-.4 71.4 0 83.5 3.1 95.4c3.6 13.7 11.4 23.9 24.9 29.3 1.5.6 2.8 1.4 4.3 2 1.3.6 1.8 1.5 1.7 2.9-.1 9.5 0 19 0 28.9 3.5-3.4 6-5.9 7.7-7.9 5.3-6 10.3-11 15.8-16.6 2.8-2.9 1.6-2.7 6-2.7 5.1.1 13.1.3 18.2-.1 9.7-.8 19.3-2 28.6-4.8 11.9-3.6 21.4-9.9 26.2-21.9 1.3-3.2 2.5-6.4 3.3-9.7 4.6-19.1 4-38.2.1-57.3-1.7-8.9-5.5-16.8-12.5-22.8m-59 11.6c.1-1.8 1.2-2.5 2.9-2.5 14.7.7 25.8 5.1 34.3 16.6 5 6.7 7.7 15.8 8 24.2 0 1.3.1 2.5 0 3.8-.1 1.4-.7 2.5-2.3 2.5-1.6 0-2.4-.8-2.5-2.5-.4-6.2-1.6-12.3-4-18.1-4.6-11.2-13.4-17.2-24.8-20.1-3-.8-6-1.4-9.1-1.7-1.3-.1-2.6-.4-2.5-2.2m14.9 15.6c-3-1-6-1.9-9.2-2.3-1.5-.2-2.6-1-2.3-2.8.3-1.7 1.4-2.3 3-2.2 10.3 1 18.3 4.7 23.8 13.6 2.6 4.2 4.1 10.1 3.9 14.5-.2 3.1-.6 3.9-2.4 3.9-2.6-.1-2.2-2.2-2.4-3.8-.3-2.4-.8-4.8-1.5-7.2-2-6.8-6.3-11.3-12.9-13.7M92 59.2c-.1.9-.1 1.5-.2 2-.3 1.1-1 1.8-2.2 1.9-1.3 0-1.9-.7-2.3-1.8-.2-.8-.3-1.6-.4-2.3-.8-4.1-3.2-6.9-7.3-8l-1.5-.3c-1.3-.4-2.9-.4-3-2.3 0-1.6 1.2-2.5 3.3-2.6 1.5-.1 3.7.6 5.1 1.3 5.3 2.6 7.8 6.3 8.5 12.1m21.6 43.7c-2.9 6.5-7.7 10.7-14.6 12.7-2.5.7-4.9.1-7.1-.9C60.7 101.4 38.2 79.6 25.5 48c-.9-2.3-1.5-4.7-1.4-6.8 0-8.1 7.2-15.7 15-16.1 2.2-.1 4 .6 5.6 2.1 5.5 5.2 9.9 11.1 13.2 17.9 1.8 3.7 1 6.3-2.1 8.9-.5.4-1.1.8-1.6 1.2-4.2 3.1-5.1 6.2-3.1 11 3.3 7.9 8.6 14.1 15.9 18.7 2.7 1.7 5.5 3.4 8.6 4.3 2.9.8 5.2-.1 7-2.3.2-.3.4-.5.6-.8 4-5.6 8.3-6.5 14.1-2.9 5 3.1 9.7 6.6 14.2 10.4 2.9 2.6 3.7 5.7 2.1 9.3"/>
</symbol><symbol id="icon-vk" viewBox="0 0 253.8 253.8">
    <style>
        .st0{clip-path:url(#SVGID_2_);fill:#fff}
    </style>
    
    <clipPath id="SVGID_2_">
        <use xlink:href="#SVGID_1_" overflow="visible"/>
    </clipPath>
    <path class="st0" d="M126.9 0C56.8 0 0 56.8 0 126.9v.1c0 70 56.8 126.8 126.8 126.8h.1c70 0 126.8-56.8 126.8-126.8v-.1C253.7 56.8 196.9 0 126.9 0m62.9 175.5l-19.8.3s-4.3.8-9.9-3c-7.4-5.1-14.4-18.3-19.9-16.6-5.5 1.8-5.4 13.7-5.4 13.7s0 2.5-1.2 3.9c-1.4 1.5-4.1 1.8-4.1 1.8h-8.9s-19.6 1.2-36.8-16.8c-18.8-19.6-35.4-58.5-35.4-58.5s-1-2.5.1-3.8c1.2-1.4 4.4-1.5 4.4-1.5l21.2-.1s2 .3 3.4 1.4c1.2.9 1.8 2.5 1.8 2.5s3.4 8.7 8 16.5c8.9 15.3 13 18.7 16 17 4.4-2.4 3.1-21.7 3.1-21.7s.1-7-2.2-10.1c-1.8-2.4-5.1-3.1-6.6-3.3-1.2-.2.8-2.9 3.3-4.2 3.8-1.9 10.6-2 18.5-1.9 6.2.1 8 .4 10.4 1 7.3 1.8 4.8 8.6 4.8 25 0 5.2-.9 12.6 2.8 15.1 1.6 1.1 5.6.2 15.5-16.7 4.7-8 8.2-17.4 8.2-17.4s.8-1.7 2-2.4 2.9-.5 2.9-.5l22.3-.1s6.7-.8 7.8 2.2c1.1 3.2-2.5 10.6-11.6 22.8-15 20-16.6 18.1-4.2 29.6 11.9 11 14.3 16.4 14.7 17.1 5.2 8.1-5.2 8.7-5.2 8.7"/>
</symbol><symbol id="icon-whatsapp" viewBox="0 0 153.4 154.6">
    <style>
        .st0{clip-path:url(#SVGID_2_);fill-rule:evenodd;clip-rule:evenodd;fill:#fff}
    </style>
    
    <clipPath id="SVGID_2_">
        <use xlink:href="#SVGID_1_" overflow="visible"/>
    </clipPath>
    <path class="st0" d="M78.1 0C36.5 0 2.8 33.7 2.8 75.3c0 14.2 3.9 27.5 10.8 38.9L0 154.6l41.7-13.3c10.8 6 23.2 9.4 36.4 9.4 41.6 0 75.3-33.7 75.3-75.3C153.4 33.7 119.7 0 78.1 0m0 138c-12.7 0-24.6-3.8-34.5-10.4l-24.1 7.7 7.8-23.3c-7.5-10.3-11.9-23-11.9-36.8 0-34.6 28.1-62.7 62.7-62.7s62.7 28.1 62.7 62.7c0 34.7-28.1 62.8-62.7 62.8m35.3-45.6c-1.9-1-11.2-6-12.9-6.7-1.7-.7-3-1.1-4.4.8-1.4 1.9-5.2 6.1-6.4 7.3-1.2 1.2-2.3 1.4-4.2.3-1.9-1-8-3.3-15.1-10.1-5.5-5.3-9.1-11.7-10.2-13.7-1.1-2 0-3 1-3.9.9-.8 2-2.2 3-3.3 1-1.1 1.4-1.9 2-3.1.7-1.3.4-2.4 0-3.4S62.3 46 60.8 42.1s-3.1-3.3-4.2-3.4c-1.1 0-2.4-.2-3.7-.3-1.3 0-3.4.4-5.2 2.2-1.8 1.9-7 6.3-7.3 15.8-.4 9.5 6.2 18.9 7.1 20.2.9 1.3 12.5 21.8 31.8 30.3 19.3 8.4 19.4 5.9 22.9 5.7 3.5-.2 11.6-4.2 13.3-8.7 1.8-4.4 1.9-8.3 1.5-9.1-.4-.8-1.7-1.3-3.6-2.4"/>
</symbol><symbol id="icon-youtube" viewBox="0 0 253.8 253.8">
    <style>
        .st0,.st1{fill:#fff}.st1{clip-path:url(#SVGID_2_)}
    </style>
    <path class="st0" d="M113.3 147l37-19.3-37-19.4z"/>
    
    <clipPath id="SVGID_2_">
        <use xlink:href="#SVGID_1_" overflow="visible"/>
    </clipPath>
    <path class="st1" d="M126.9 0C56.8 0 0 56.8 0 126.9v.1c0 70 56.8 126.8 126.8 126.8h.1c70 0 126.8-56.8 126.8-126.8v-.1C253.7 56.8 196.9 0 126.9 0m68.6 161c-1.7 7.4-7.8 12.9-15.1 13.7-17.3 1.9-34.9 1.9-52.4 1.9s-35 0-52.4-1.9c-7.3-.8-13.4-6.3-15.1-13.7-2.4-10.6-2.4-22.2-2.4-33.1 0-10.9 0-22.5 2.5-33.1 1.7-7.4 7.8-12.9 15.1-13.7 17.3-1.9 34.9-1.9 52.4-1.9s35 0 52.4 1.9c7.3.8 13.4 6.3 15.1 13.7 2.4 10.6 2.4 22.2 2.4 33.1-.1 11-.1 22.6-2.5 33.1"/>
</symbol></svg>