<?xml version="1.0" encoding="utf-8"?>
<!-- Generator: Adobe Illustrator 21.1.0, SVG Export Plug-In . SVG Version: 6.00 Build 0)  -->
<svg version="1.1" id="Слой_1" xmlns="http://www.w3.org/2000/svg" xmlns:xlink="http://www.w3.org/1999/xlink" x="0px" y="0px"
	 viewBox="0 0 3719.2 2310.6" style="enable-background:new 0 0 3719.2 2310.6;" xml:space="preserve">
<style type="text/css">
	.st0{clip-path:url(#SVGID_2_);fill-rule:evenodd;clip-rule:evenodd;fill:#cccccc;}
</style>
<g>
	<defs>
		<rect id="SVGID_1_" y="0" width="3719.2" height="2310.6"/>
	</defs>
	<clipPath id="SVGID_2_">
		<use xlink:href="#SVGID_1_"  style="overflow:visible;"/>
	</clipPath>
	<path class="st0" d="M623.5,7.6c-8.2,13.9,2.3,30.2,17.2,38.3c6.9,11.2-2.1,23.8-2.2,35.6c-8.6,3.2-17.3,6.4-27.2,10.1
		c36.8,22.6,35,36.3-5.4,73.7c-1.4,1.3-2.6,2.7-3.7,4.1H539v85.8c-13.9,7.3-16.1,23.3-18.5,39.6c-4,5.3-8,10.5-11.9,15.7
		c-11.8,4.8-19.5,14.1-26.9,23.6c-13.4-8.9-8-24.5-8.8-37.8c6.6-5.4,19-7.6,15.6-16.4c-3.6-9.1-10.1-1.4-13.2,4.8
		c-1.7,3.5-2,7.5-2.9,11.8c-21.2,14.8-17,32.5-13.5,50.1c-19.7,18.2-27.5,41.4-36.7,64c-3.3,13.3-6.7,26.7-10,40.1
		c-5.1,8.7-10.3,17.5-15.4,26.3c-16.3,12.3-23.6,26.6-17.3,44c-12.9,12.1-31.2,21.1-28.5,41.6c-4.7,23.1-33.4,40.5-26.6,66.3
		c-1.3,3.4-2.4,6.8-3.5,10.1c-5,9.2-10.1,18.4-15,27.7c-4.4,10.9-9,22-13.4,32.9c-3.8,5.1-7.5,10.2-11.3,15.3
		c-15.2,1-23.7,9.5-27.2,23.6c-11.1,15.2-8.3,35.2-24.6,48.7c2.1,29.3-29.9,61.9-5.4,89.1c1.5,2.1,2.9,4.2,4.3,6.4
		c-3.9,19.2-17.6,38.2-11.2,57.7c0.8,5.8-2.5,14.9,6.3,15.1c11.9,0.4,11.1-9.3,12.2-16.7l0.2-0.4c7-6.7,13.9-13.3,20.9-20
		c-0.2,8-0.3,16-0.5,24c-11.7,12.7-5.7,26.8-10,40.2c-1.9,19.1-15.9,45.5,21.5,41.5c5.7,5,11.4,10.2,17.2,15.3
		c3.9-5,7.8-10,11.7-15.1c3.7,0.7,7.5,1.3,11.2,2c3.1,6.9,6.2,14,9.2,21l-0.4-2.1l2.2-1.2c0.1,0.9,0.2,1.7,0.4,2.5
		c-0.7,0.2-1.4,0.5-2.1,0.7c-2.3,3.4-3,6.4-2.9,9.2c-7.2,3-11.2,9.4-11.3,17.7c-0.2,10.6,8,4.1,13.3,2.3c0.7,2.4,1.4,4.7,2,7.2
		c-16.9,15.8-14.3,33.5-13.1,51c0.8,2.2,1.4,4.5,1.6,6.9c-14.3,8.2-0.9,37.5-29.8,34.7c-15.8,13.8-14.5,31.3-15.2,46.8
		c-1,27.3-6.8,55.6,0.4,81.7c-1.3,3.8-2.5,7.6-3.8,11.4c-15.3,9.5-20.7,22.4-18.8,37.8c2.1,4.3,4.2,8.4,6.4,12.7
		c4.1,8.8,8.3,17.7,12.5,26.5c-1,2.1-1.1,4-0.3,5.8c-7.1,13.3-3.6,25.3-1.2,37.4c-1.5,9.5-3.2,19.2-4.7,28.8c-2.2,1.3-4.3,2.7-6.5,4
		c-8.6,2.3-20.5-1.9-22.6,13.2c-14.7,8.3-11.7,20.9-13.2,32.5c1.8,13.4,7.2,24.7,16.1,34c-0.8,3.7-1.6,7.3-2.6,11.1
		c-15.3,0.5-14.8-14.9-25.4-23.3c-4.6,23.1,11.5,37.3,11.6,56.3c9.8,20.2,19.6,40.3,29.6,60.5c13,26.6,26.4,52.9,39.4,79.5
		c5.5,11.3,10,23.3,27.6,19.6c3.1-7.2,6.2-14.5,9.3-21.8c2.6-1.7,5.2-3.4,7.9-5.1c4.4,3.3,8.8,6.7,13.1,10
		c4.9,20.2,26.7,32.4,20.8,57.6c-2.9,29.8,7.7,51.9,32,66.3c0,0,0,0-0.1,0c14.7,24.1,14.9,59.4,51.1,66.6
		c18.2,18.5,2.8,55.4,31.3,68.2c6.7,19.3,26.6,31,26.4,54.1c-6.5,14.5-3.2,25.1,9.1,32.1c15.7,12.5-3.5,38.3,13,50.4
		c0.6,3.7,1.1,7.4,1.6,11.2c5.8,0.3,11.6,0.6,17.4,0.9v134.6h340c3.1,2.3,14.9,3,24.7,3.8c20.2,1.7,37.9,4.2,62.6,4.5
		c2,0.4,4.1,0.8,6.1,1.3c-3,3.1,3.2,4.7,16.2,5.2c4.7-0.1,9.2-0.2,14-0.4c9.5-0.2,19-0.4,28.6-0.6c0.9,0.3,2.3,0.4,4.3,0.4
		c5.4,1.9,16.8,2,27.7,2.3c6.3,0.8,12.5,1.6,18.8,2.4c-0.5,0.4-0.9,0.9-1.4,1.3c-4,1.6-15.2,3.3-5.1,4.5c-3.5,2.9,8.1,3.1,15.9,4
		c11.4,0.5,23.7,0.2,36.8-0.8c2.2,0.3,4.5,0.7,6.7,1.1c-9.9,2.6-21.3,1.6-34.8,2.9c14.5,2.1,36.1,0.2,50.7,1.2c22-0.5,43.9-1,66-1.5
		c29-0.7,58.1-1.4,87.1-2.1c12.3-0.3,24.5-0.4,33.5-3.5c-3.4-0.9-6.9-1.8-10.4-2.8c0.4-0.5,0.9-1.1,1.3-1.6c5.5-0.5,11-1.1,16.5-1.6
		c18.6,0.3,42.7-2.6,57.9-0.3c20.8,2.1,44.8,1.6,72.1-1.6c0,0,0,0-0.1,0c28.2-1.1,55.3,0.8,85.2-4.8c26.3-2,44.1,2.6,73.1-1.4
		c19.2,0,41.5-2.7,59-1.4c6.7,1.9,17,1.9,30.6,0.3c20.1-1.9,26.8,2.7,47.2,0.6c25,0.9,48.4,2.4,76.7,1.8c0,0,0,0,0,0
		c0.1,0,0.2,0,0.4,0c1.6,0,3.1-0.1,4.6-0.1c20.8-0.4,34.9,2.6,58.3,0.9c18.5,3.5,48.4,2.3,75.4,2.4c13.4,0.4,24.8,1.8,41.7,0.5
		c11.7,0.2,23.3,0.5,34.9,0.7c25.2,0.8,50.4,1.7,75.7,2.5c21.3,0,40.4,1.3,64,0.1c7.2,0.3,14.3,0.6,21.5,0.9
		c11.4,1.4,23.2,2.6,41.5,0.5c11.2,1.5,26.8,0.8,41.5,0.5c7.2,1.2,11.5,3.6,28,0.8c15.9,0.6,31.7,1.2,47.5,1.8
		c9.3,2.3,23.4,0.4,36.8-1c5.6,1.8,16.3,1.2,31.9,0.2c-11.9-0.7-20.7-1.2-29.5-1.7c-0.2,0-0.3,0-0.5,0c7.4-1.9,15.7-1.8,23.8-2
		c8-0.7,15.9-1.3,23.8-2c1.8,0.4,3.7,0.9,5.6,1.3c5.1-0.3,11.9-1.9,14.8-0.3c0,0,0,0,0,0c3.2,1.6,12.4,1,20,1
		c5.7,3.2,18.5,2.9,33.2-0.1c7.9-1.6,12.3-1.6,18.3-1.2c9-1,20,1.1,27.3-2.5c7.4-3.6-3.7-3.6-15.9-3.7c-4,0-6.6-0.7-9.8-1.1
		c3-0.5,6-1,9.1-1.5l0,0c2.6-0.1,5.1-0.2,7.7-0.3c7.5,1.8,21,1.7,32.7,2.2c5.3,3.7,24.9,2.1,40.8,1.9c1.8,0.5,3.5,1,5.2,1.5
		c10.9,7.1,46,3.9,77.3,2.3c2.1-0.1,3.8,0,5.1,0.2c-2.4,1.7-20.5,1-16,3.2c3.3,1.6,8.7,4.2,25.9,0.7c3.9-0.7,7.6-1.4,10-2.2
		c5.1,0,10.1-0.3,15.1-1.1c0.9,0,1.7-0.1,2.6-0.1c-2.1,1.9-14.2,2-19.4,3.4c22.7,1.7,49.2,1.8,74.7,2.4c2.8,1.7,11.8,1.2,19.6,1.1
		c2.6-0.1,5.1-0.1,7.6-0.2c7.1,0.1,14.1,0.3,21.2,0.4c24.8,2,52.2,2.7,84,1.2c11.8,3.6,36.1-2.2,51.1-1c-0.6-0.1-1.3-0.2-1.9-0.2
		c0.7,0.1,1.3,0.1,1.9,0.2c8.1-0.6,13.5-1.8,18.2-3.2c22.9,1.6,46.3-3.6,69.5-4.6c25.7-0.4,50.8,0.6,78-4.4
		c16.2-0.6,30.5-1.8,33.8-5.8c-2.8-1.7-5.6-3.3-8.3-5c3-0.6,5.8-1.3,9-1.7c2.4-0.3,4.6-0.7,6.7-1H3523v-66.8c1.5,0.1,3,0.4,4.5,0.6
		c1.1,3.2-3.9,8.6,2.8,10c6.6,1.3,4.7,7.5,4.3,12.6c-1.3,2.3-1.7,4.2-1.5,5.8c1.3,1.6,2.6,3.3,3.8,5.1c0.6,0.4,1.3,0.7,2,1
		c3.4,4.3,9,7.5,10.9,1.3c1.8-5.9-3.1-12.1-8.9-14.9c-3.3-4.3-1.1-9.7-1.9-14.4c2.8-1.6,5.6-3.2,8.7-5c-14.6-7.9-15-13.5-3.8-29.9
		c0.4-0.6,0.7-1.2,1-1.8l22.1-2.1l-6.6-34.6c4.3-3.4,3.8-9.9,3.4-16.6c1-2.3,2-4.5,3-6.7c3.8-2.3,5.7-6.3,7.6-10.4
		c5.4,3.1,4.7,9.6,6,14.9c-1.9,2.4-6.1,3.7-4.2,7.1c2,3.6,3.7,0.2,4.2-2.4c0.3-1.5,0.1-3.1,0.1-4.9c6.3-6.7,3.4-13.7,0.9-20.6
		c5.5-8,6.5-17.6,7.9-27c0.1-5.5,0.3-11,0.4-16.5c1.1-3.7,2.3-7.4,3.3-11.1c4.8-5.5,6.2-11.5,2.7-18.3c3.6-5.3,9.3-9.5,6.8-17.7
		c-0.1-9.5,8.6-17.4,4.2-27.6c0.2-1.4,0.3-2.8,0.5-4.2c1.1-3.9,2.1-7.8,3.1-11.6c0.7-4.6,1.5-9.1,2.2-13.7c0.9-2.2,1.8-4.4,2.8-6.5
		c5.2-0.9,7.6-4.6,7.7-10.4c2.7-6.5,0.2-14.5,4.8-20.4c-3-11.7,5.7-26-5-36.1c-0.7-0.8-1.3-1.6-2-2.4c-0.1-7.9,3.2-16-0.5-23.6
		c-0.7-2.3-0.3-6.1-3.4-5.9c-4.2,0.2-3.2,4.1-3,7.1l0,0.2c-1.9,2.9-3.8,5.8-5.8,8.7c-0.6-3.2-1.1-6.4-1.7-9.7
		c3.1-5.5-0.1-11,0.4-16.5c-0.8-7.8,2.1-18.9-10.7-16c-2.4-1.8-4.8-3.7-7.2-5.6c-1,2.2-2,4.3-2.9,6.5c-1.3-0.2-2.7-0.3-4.1-0.4
		c-1.6-2.7-3.2-5.4-4.8-8.2l0.3,0.8l-0.7,0.5c-0.1-0.3-0.2-0.7-0.3-1c0.2-0.1,0.5-0.2,0.7-0.4c0.5-1.4,0.6-2.7,0.3-3.8
		c2.3-1.4,3.2-4.1,2.6-7.5c-0.7-4.3-3.1-1.4-4.8-0.5c-0.4-0.9-0.8-1.9-1.3-2.8c4.7-6.9,2.4-14,0.7-21c-0.5-0.9-0.8-1.8-1.1-2.7
		c4.4-3.8-2.6-15.1,7.7-15c4.5-6.1,2.7-13.1,1.7-19.3c-1.7-11.1-1.9-22.7-6.4-32.9c0.2-1.6,0.3-3.1,0.5-4.7
		c4.6-4.4,5.5-9.7,3.7-15.9c-1.1-1.7-2.1-3.2-3.2-4.9c-2.1-3.4-4.3-6.8-6.4-10.3c0.2-0.9,0.1-1.7-0.4-2.4c1.5-5.6-0.7-10.3-2.5-15.1
		c-0.2-3.9-0.4-7.8-0.6-11.8c0.7-0.6,1.3-1.2,2-1.8c2.8-1.2,7.3,0.1,6.9-6.1c4.5-3.8,2.5-8.8,2.1-13.5c-1.6-5.3-4.4-9.7-8.3-13.2
		c0-1.5,0-3,0.1-4.6c5.3-0.7,6.3,5.5,10.7,8.5c-0.2-9.5-6.9-14.6-8.4-22.3c-5-7.8-9.9-15.6-15-23.4c-6.6-10.3-13.3-20.5-19.9-30.7
		c-2.8-4.4-5.3-9-11.2-7c-0.5,3-1,6.1-1.6,9.1c-0.7,0.7-1.5,1.5-2.2,2.2V1416c0.4-1.5,0.8-3,1.2-4.5c0.4,0.2,0.9,0.4,1.3,0.7
		c1.5,2,3.2,7.6,4.5,2.6c2.9,1.8,3.2-4,4.1-7.9c0.6-5.7,0.4-11.8-0.4-18.4c0.4-1.1,0.7-2.2,1.1-3.3c2.5,5,1.4,10.7,2.6,17.4
		c2.2-7.2,0.5-18.1,1.7-25.4c-0.3-11-0.6-22-0.9-33c-0.4-14.5-0.9-29.1-1.3-43.6c-0.2-6.1-0.1-12.2-3.2-16.8
		c-0.9,1.7-1.9,3.5-2.9,5.2c-0.5-0.2-1.1-0.5-1.6-0.7c-0.5-2.8-1-5.5-1.5-8.2c0.5-9.3-2.2-21.4,0.3-29c2.3-10.4,2-22.4-1-36.1
		c0,0,0,0,0,0c-0.8-14.1,1.4-27.7-4-42.6c0-0.2,0-0.4-0.1-0.6v-12.3c0.6-6.5,1.5-12.8,0-20.6v-37.7c0.1-1.3,0.1-2.7,0-4.3v-19.2
		c0.6-2.9,0.9-5.9,0.1-10.2c1.1-12.5,2.8-24.2,2.5-38.3c0,0,0,0,0,0c0-0.1,0-0.1,0-0.2c0-0.8,0-1.6-0.1-2.3
		c-0.2-10.4,2.9-17.4,1.4-29.2c3.7-9.2,2.8-24.2,3.1-37.7c0.6-6.7,2.1-12.4,0.9-20.9c0.4-5.8,0.7-11.6,1.1-17.5
		c1.1-12.6,2.2-25.2,3.2-37.8c0.2-10.7,1.7-20.2,0.7-32c0.4-3.6,0.8-7.2,1.1-10.7c1.5-5.7,2.8-11.6,0.9-20.8
		c1.6-5.6,1-13.4,0.9-20.7c1.3-3.6,3.7-5.7,1.1-14c0.8-7.9,1.5-15.9,2.3-23.8c2.4-4.6,0.6-11.7-0.6-18.4c1.9-2.8,1.4-8.2,0.5-15.9
		c-0.8,5.9-1.4,10.4-2,14.7c0,0.1,0,0.2,0,0.3c-1.8-3.7-1.6-7.9-1.8-11.9c-0.6-4-1.2-8-1.7-11.9c0.5-0.9,0.9-1.8,1.3-2.8
		c-0.2-2.6-1.8-6-0.2-7.4c0,0,0,0,0,0c1.6-1.6,1.1-6.2,1.2-10c3.2-2.8,3.1-9.2,0.2-16.6c-1.6-4-1.5-6.2-1-9.1
		c-0.9-4.5,1.3-10-2.3-13.7c-3.6-3.7-3.7,1.8-3.8,7.9c0,2-0.8,3.3-1.2,4.9c-0.5-1.5-1-3-1.5-4.6l0,0c-0.1-1.3-0.2-2.6-0.3-3.8
		c1.9-3.7,1.9-10.5,2.5-16.3c3.8-2.6,2.3-12.5,2.3-20.4c0.5-0.9,1-1.7,1.5-2.6c7.2-5.4,4.3-23,3-38.7c-0.1-1.1,0-1.9,0.3-2.5
		c1.7,1.2,0.8,10.3,3.1,8c1.7-1.6,4.3-4.3,1-13c-0.7-1.9-1.3-3.8-2.1-5c0.1-2.6-0.2-5.1-1-7.5c0-0.4,0-0.9-0.1-1.3
		c1.9,1.1,1.9,7.1,3.2,9.8c1.9-11.3,2.3-24.6,3.1-37.3c1.7-1.4,1.3-5.9,1.3-9.8c0-1.3-0.1-2.5-0.1-3.8c0.2-3.5,0.4-7.1,0.6-10.6
		c2.2-12.4,3.2-26.1,2-42c3.8-5.9-1.9-18.1-0.5-25.6c-0.1,0.3-0.2,0.6-0.3,0.9c0.1-0.4,0.2-0.7,0.3-0.9c-0.5-4.1-1.7-6.8-3.1-9.2
		c1.8-11.5-3.2-23.2-4-34.8c-0.2-12.9,1.1-25.4-3.7-39.1c-0.3-5.6-0.9-10.7-2.5-13.9c2-0.7,4.1-1.4,6.1-2.2c7.3-1.3,13-2.7,5.2-3.8
		c-2.5-0.3-6.3-1.2-9.8,0.1c-6.5,2.5,3.6,2.4,4.6,3.7c-2.6,0.2-4.9,0.4-7,0.8c-0.6-0.8-1.3-1.3-2.1-1.7c-1.3,1-2.5,2-3.8,3
		c-0.5,0.2-1.1,0.4-1.5,0.6c-0.5-1.3-1.1-2.6-1.4-4c-0.3-1.2-0.6-2.3-0.9-3.4l0-2.3c19.9-2.8,1.1-3.5,3.8-5.4
		c-0.7-0.5-2-0.8-3.6-0.9l2.6-141.6l-4.8,0v-21h-282.8c-0.6-0.3-1.1-0.5-1.7-0.8c-3.6-1.1-7.2-2.3-10.8-3.4
		c-0.9-0.8-1.9-1.6-2.8-2.4c6.1-2.5,5.6-4.1-0.1-5.2c-2.8-2.4-14.2-2.7-14-5.8c-15.8-0.8-18.4-7.1-42.9-4.3
		c-1.7,0.2-3.4,0.3-5.1,0.4c-8.1-1.4-11.7-4.3-24.4-4c-3.3-0.1-6.4-1-10.5,0.4c-5.4,1.9-0.2,2.1,3.2,2.6l0.1,0
		c0.3,1.4,0.7,2.7,1,4.1c-4-0.3-8-0.7-11.9-1c-1.3-2.4-11.1-1.9-16-3.1c-8.9-1-16.1-4.3-30.5,1.8c-5.1,0.7-10.2,1.4-15.3,2.1
		c0.8,0.8,1.7,1.6,2.5,2.4c-1.9,0.6-3.9,1.1-5.9,1.7c-4.9,0.2-9.8,0.4-14.7,0.7l1.3,0l-0.4,0.4c-0.5,0-1,0-1.5,0
		c0.2-0.1,0.4-0.2,0.6-0.4c-0.7-0.5-1.9-0.7-3.4-0.8c1.7-1.3,0.1-2.1-4-2.5c-5.3-0.4-5.6,1.1-7,2c-1.5,0-3,0-4.5,0
		c-0.6-3.3-10.7-3.6-20.1-4c-1.5,0-2.9,0-4.2,0c2.1-2.6-18.7-1.6-4.6-6.1c-0.1-3.1-9.5-3.5-17.1-4.2c-13.4-1.2-25.3-3.2-41.7-3.1
		c-1.4-0.3-2.7-0.7-4.1-1c1.8-2.8-2.3-4.2-11-4.4c-3.1,0.2-6.1,0.4-9.2,0.5c-6.3,0.3-12.6,0.6-18.9,1c-0.6-0.2-1.5-0.3-2.9-0.3
		c-3.6-1.7-11.2-1.5-18.5-1.6c-4.2-0.6-8.4-1.2-12.6-1.9c0.3-0.4,0.5-0.8,0.8-1.2c2.6-1.5,9.9-3.2,3.2-4.1c2.2-2.7-5.5-2.7-10.7-3.3
		c-7.6-0.2-15.7,0.2-24.4,1.3c-1.5-0.3-3-0.5-4.5-0.8c6.5-2.5,14-1.8,23-3.1c-9.7-1.6-24,0.4-33.7-0.3c-14.6,0.8-29.1,1.6-43.7,2.4
		c-19.2,1.1-38.4,2.2-57.6,3.2c-8.1,0.4-16.2,0.7-22.1,3.6c2.3,0.8,4.7,1.5,7,2.3c-0.3,0.5-0.5,1-0.8,1.4c-3.6,0.6-7.2,1.1-10.8,1.7
		c-12.4,0-28.2,3-38.4,1.1c-13.9-1.6-29.7-0.8-47.7,2.5c0,0,0,0,0,0c-18.7,1.4-36.7,0.1-56.2,5.6c-17.4,2.2-29.3-1.7-48.4,2.4
		c-12.7,0.3-27.4,3-39.1,2.1c-4.5-1.6-11.3-1.5-20.3,0.2c-13.2,2-17.9-2-31.3,0.1c-16.6-0.4-32.2-1.4-50.9-0.4c0,0,0,0,0,0
		c-0.1,0-0.2,0-0.2,0c-1,0-2.1,0.1-3,0.2c-13.8,0.6-23.2-1.8-38.7,0.1c-12.4-2.9-32.2-1.4-50-1c-8.9-0.2-16.5-1.3-27.7,0.2
		c-7.7,0-15.4-0.1-23.2-0.1c-16.7-0.4-33.5-0.8-50.2-1.1c-14.1,0.3-26.8-0.6-42.4,0.9c-4.8-0.2-9.5-0.3-14.3-0.5
		c-7.6-1.1-15.5-2-27.5,0.1c-7.5-1.2-17.8-0.3-27.5,0.2c-4.8-1-7.8-3.1-18.6-0.3c-10.5-0.3-21.1-0.6-31.6-0.9
		c-6.2-2-15.5,0-24.4,1.4c-3.8-1.6-10.9-0.8-21.1,0.3c7.9,0.4,13.8,0.7,19.6,1.1c0.1,0,0.2,0,0.4,0c-4.8,1.8-10.3,1.8-15.7,2.2
		c-5.2,0.7-10.5,1.4-15.7,2.1c-1.2-0.4-2.5-0.7-3.7-1.1c-3.4,0.3-7.8,1.9-9.8,0.5c0,0,0,0,0,0c-2.2-1.4-8.3-0.7-13.3-0.6
		c-3.9-2.8-12.4-2.3-22,0.6c-5.2,1.6-8.1,1.7-12,1.3c-5.9,1-13.3-0.7-18,2.7c-4.7,3.4,2.6,3.2,10.7,3c2.6-0.1,4.4,0.6,6.5,0.8
		c-2,0.5-4,1-6,1.5l0,0c-1.7,0.1-3.4,0.3-5.1,0.4c-5-1.5-14-1.2-21.8-1.5c-3.6-3.3-16.6-1.5-27.1-1.1c-1.2-0.4-2.4-0.8-3.5-1.2
		c-7.5-6.2-30.6-2.8-51.3-0.9c-1.4,0.1-2.5,0.1-3.4-0.1c1.5-1.6,13.5-1.2,10.5-3.1c-2.3-1.4-5.9-3.6-17.2-0.3
		c-2.5,0.7-5,1.4-6.5,2.2c-3.4,0.1-6.7,0.4-9.9,1.3c-0.6,0-1.1,0.1-1.7,0.1c1.3-1.8,9.4-2,12.7-3.3c-15.1-1.2-32.7-0.9-49.6-1
		c-1.9-1.4-7.9-0.9-13-0.7c-1.7,0.1-3.4,0.2-5.1,0.3c-4.7,0-9.4,0-14.1,0c-16.5-1.4-34.7-1.6-55.7,0.2c-8-3.1-23.8,2.5-33.8,1.6
		c0.4,0.1,0.8,0.1,1.3,0.2c-0.5,0-0.9-0.1-1.3-0.2c-5.4,0.7-8.9,1.8-12,3.2c-15.3-1.1-30.5,3.9-45.8,5.2c-17,0.8-33.7,0.2-51.5,5.1
		c-8.5,0.6-16.1,1.5-20,3.7h-112.7c-8.3-1.2-16.9-2.2-26.4-2.9l0,0c-0.1,0-0.2,0-0.2,0c-1-0.1-2.1-0.1-3-0.2
		c-13.7-1-22.5-4.5-38.2-4.5c-11.6-4.3-31.4-5.1-49.1-6.9c-8.7-1.2-16-3.2-27.3-3.1c-7.6-1-15.2-1.9-22.8-2.9
		c-16.4-2.3-32.8-4.7-49.3-7c-14-1.4-26.3-3.7-42-4.1c-4.7-0.7-9.3-1.5-13.9-2.2c-7.3-1.9-14.8-3.8-27.2-3.1
		c-7.1-2-17.5-2.4-27.1-3.1c-4.5-1.5-6.9-3.9-18.3-2.5c-10.3-1.5-20.6-3.1-30.9-4.6c-5.7-2.7-15.3-1.8-24.4-1.5
		c-3.4-2-10.5-2.1-20.9-2.2c7.7,1.4,13.4,2.4,19.1,3.4c0.1,0,0.2,0,0.3,0.1c-5.2,1.2-10.6,0.6-16,0.3c-5.3,0.1-10.7,0.2-16,0.2
		c-1.1-0.5-2.3-1-3.4-1.5c-3.4-0.1-8.2,0.9-9.7-0.7c0,0,0,0,0,0c-1.8-1.6-8-1.7-13-2.2c-3.2-3.2-11.7-3.8-21.9-2
		c-5.5,1-8.4,0.7-12.2-0.1c-6.1,0.3-12.9-2.3-18.4,0.5c-5.5,2.8,1.8,3.5,9.8,4.3c2.6,0.3,4.2,1.1,6.3,1.6c-2.1,0.3-4.1,0.5-6.2,0.8
		c0,0,0,0,0,0c-1.7-0.1-3.4-0.1-5.1-0.2c-4.2-1.9-11.8-2.7-18.9-3.7c0,0,0,0-0.1,0c-4.4-5.2-8.9-10.5-13.4-15.7
		c-29.3-3.7-54.8-13.3-76.3-26.7c-0.8-0.5-1.7-1.1-2.5-1.6c0,1.4,0.3,2.9,0.8,4.7c-3.8,5.2-7.7,10.4-11.6,15.7
		c-12.7,10.8-24.8,6.1-36.8,3.7c-1.3-8.1,15.7-20-2.6-24.9c-17.9-4.7-9.3-19.3-5.4-31.7c4.8-5.3,7.1-9.8,7.4-13.7
		c-2.9-4.2-5.5-8.7-7.9-13.3c-1.5-1-3.2-2-5-3C646.2,2.1,632.2-7.1,623.5,7.6 M1134.5,2300.8c0,0,0.1,0,0.1,0c-0.1,0-0.2,0-0.3,0.1
		L1134.5,2300.8c-0.3,0.1-0.6,0.1-0.8,0.2c-0.1-0.2-0.2-0.3-0.4-0.4C1133.7,2300.7,1134.1,2300.8,1134.5,2300.8 M1168.5,2296.6
		c-0.4,0-0.8,0.1-1.2,0.1c0.1-0.1,0.2-0.2,0.3-0.3C1167.9,2296.5,1168.2,2296.6,1168.5,2296.6 M2342.1,2293.1c0-0.1,0.1-0.2,0.1-0.3
		c0.1,0,0.3,0,0.4-0.1C2342.4,2292.9,2342.3,2293,2342.1,2293.1 M2992.9,2296.4c-3.8,0.4-7.6,0.9-11.3,1.6c-1.6-0.7-4.5-1.2-8.5-1.4
		c4.3-0.3,8.6-0.6,10.8-1.5C2986,2295.7,2989.2,2296.1,2992.9,2296.4 M2906.4,2294.3c-0.5,0.1-0.9,0.1-1.4,0.2
		c-0.1,0-0.2,0.1-0.3,0.1c-0.1,0-0.1-0.1-0.2-0.1l0.4,0l1-0.3C2906.1,2294.2,2906.3,2294.2,2906.4,2294.3 M2988,2290.9
		c-0.2,0-0.4,0.1-0.6,0.1c-0.2-0.1-0.5-0.2-0.7-0.4c0.3,0,0.7,0,1.1,0C2987.8,2290.7,2987.9,2290.8,2988,2290.9 M2244.5,2286.6
		c-0.2-0.1-0.5-0.2-0.8-0.3c0.7,0,1.4,0,2.1,0C2245.4,2286.4,2244.9,2286.5,2244.5,2286.6 M1326.4,2282.7c-0.5,0-0.9-0.1-0.8-0.3
		C1325.8,2282.6,1326.1,2282.6,1326.4,2282.7 M3567.3,2032.8c-0.1,0.1-0.3,0.2-0.4,0.2c0-0.1,0-0.2,0-0.3
		C3567,2032.8,3567.1,2032.8,3567.3,2032.8 M3613.8,1875.2c0.8,2.9,1.7,5.7,3.8,7.7c-2.4-0.7-4.8-0.6-7.2,0.9
		c-0.1,0.1-0.2,0.1-0.2,0.2c-2.6,0.1-4.5,2.3-6.6,3.9c-0.8-1.7-1.7-3.4-2.5-5c0.1-1.6,0.3-3.2,0.4-4.8l-0.1,0c0-0.6,0-1.2,0.1-1.9
		c0,0,0,0,0,0c0,0.6-0.1,1.2-0.1,1.9c0.5-0.4,1-0.8,1.3-1.4c0.4,0.1,0.8,0.2,1.1,0.2c1.9-0.4,3.4-1.5,4.6-3.3
		c0.1-0.3,0.2-0.5,0.3-0.8C3610.2,1874.7,3611.9,1876.2,3613.8,1875.2 M3563.2,1619.3c0-0.3,0-0.6,0.1-0.9c0,0,0,0,0,0
		c0,0,0.1,0,0.1,0l-0.1,0c0.2,0,0.3,0,0.4-0.1C3563.5,1618.7,3563.3,1619,3563.2,1619.3 M3551.4,1612.8c-0.1,0.1-0.3,0.2-0.4,0.3
		c0-0.2,0-0.4,0-0.6C3551.2,1612.6,3551.3,1612.7,3551.4,1612.8 M417,1439c2.6-0.3,5.4,0.6,8.3,3.4c-0.2,0.2-0.4,0.4-0.6,0.6
		C421.1,1442,418.6,1440.6,417,1439 M535,1492.7c0.4-3.4,0.7-6.6,0.9-9.5c1.1,0.7,2.1,1.3,3.1,1.9v6.4c-1,0.6-2,1.2-3.1,1.9
		C535.6,1493.1,535.3,1492.9,535,1492.7 M248.9,1536.5l0.3,0c-0.5,0-0.9,0-1.3,0c0.7-0.7,1.3-1.5,1.9-2.2c-0.2,0.7-0.4,1.4-0.7,2.2
		c0,0,0.1,0.1,0.1,0.1C249.1,1536.5,249,1536.5,248.9,1536.5 M279.3,1552.9c0.4-0.2,0.9-0.5,1.3-0.7c-0.1,0.5-0.2,1-0.3,1.5
		C280,1553.3,279.7,1553.1,279.3,1552.9 M399.5,1654.4c-0.3,0.6-0.7,1.3-0.9,1.9C398.4,1655.9,398.9,1655,399.5,1654.4
		 M3040.5,2278.3c-0.5,0.1-0.9,0.2-1.3,0.3c-0.1-0.2-0.1-0.3-0.2-0.5l0.1,0c0,0,0,0,0,0C3039.5,2278.2,3040,2278.3,3040.5,2278.3
		 M3529.2,1385.3L3529.2,1385.3c0,0,0.1,0.2,0.2,0.3c-0.2,0.1-0.3,0.1-0.4,0.2C3529,1385.6,3529.1,1385.4,3529.2,1385.3
		c-0.1-0.1-0.1-0.1-0.1-0.2C3529.2,1385.2,3529.2,1385.3,3529.2,1385.3 M3525.3,1368.8c-0.1-0.1-0.2-0.1-0.3-0.2
		c0-0.2,0.1-0.3,0.1-0.4C3525.3,1368.4,3525.3,1368.6,3525.3,1368.8 M420.1,1306.1c-1.4-2.1-2.6-4.1-3.7-6.2
		C418.6,1301.7,420.6,1303.6,420.1,1306.1 M284.6,883.1c-1.3,3.8-2.5,7.7-3.8,11.6l0.4-0.1c-0.4,1.5-0.8,3-1.2,4.5c0,0,0,0,0,0
		c0.4-1.5,0.8-3,1.2-4.5c-1.7,0.8-3.2,1.8-4.5,3.1c-1-0.3-2-0.7-3.1-0.9c-5.6,0.5-10.4,2.9-14.6,7c-0.4,0.6-0.8,1.2-1.2,1.8
		c-3.5-4.7-7.3-8.7-13.3-6.8c-0.6-7.2-1.7-14.2-6.5-19.7c6.5,2.2,13.3,2.7,20.7-0.5c0.3-0.2,0.5-0.3,0.8-0.5
		c7.2,0.4,13.9-4.5,20.8-8C281.6,874.6,283.1,878.8,284.6,883.1 M3525.1,830c-0.1,0.1-0.2,0.3-0.3,0.4c0-0.4,0-0.7,0-1.1
		C3524.9,829.6,3525,829.8,3525.1,830 M3532.5,781.3c-0.1,0-0.2,0-0.3,0c0-0.1,0-0.1-0.1-0.2
		C3532.3,781.1,3532.4,781.2,3532.5,781.3 M460.7,525.9c-0.4-0.1-0.8-0.2-1.2-0.3c0.4-0.2,0.9-0.3,1.3-0.5
		C460.8,525.4,460.7,525.7,460.7,525.9 M3539.1,499.8c0,0,0.1,0.1,0.1,0.1c0,0-0.1,0-0.1,0.1
		C3539.1,499.9,3539.1,499.8,3539.1,499.8l-0.3-0.5c0-0.1,0.1-0.1,0.1-0.2C3539,499.3,3539,499.5,3539.1,499.8 M3536,458.4
		c0.1-0.1,0.2-0.1,0.3-0.1c0,0.1,0.1,0.2,0.1,0.3c-0.1,0.1-0.2,0.2-0.4,0.4C3536,458.7,3536,458.6,3536,458.4 M3543.3,461.5
		c-0.7,0.8-1.2,2.2-1.5,4.2c-0.2-2.1-0.5-4.3-1.4-5.4c0.6-1.1,1-2.7,1.4-4.5C3542.1,457.7,3542.6,459.6,3543.3,461.5 M3524.5,432.5
		c-0.2,0-0.3,0.1-0.5,0.1l0,0c0,0,0,0,0,0l0.1-0.8C3524.2,432.1,3524.4,432.3,3524.5,432.5 M2821.5,126.2l0.2-0.1L2821.5,126.2
		c0.3-0.1,0.4-0.1,0.6-0.2c0.1,0.1,0.2,0.3,0.3,0.4C2822.1,126.3,2821.8,126.3,2821.5,126.2C2821.5,126.2,2821.5,126.2,2821.5,126.2
		 M2799.2,130.5c0.3,0,0.5-0.1,0.8-0.1c-0.1,0.1-0.1,0.2-0.2,0.2C2799.6,130.6,2799.4,130.5,2799.2,130.5 M2695.2,145.4
		c0.3,0,0.6,0.1,0.6,0.2C2695.6,145.5,2695.4,145.4,2695.2,145.4 M2021.8,151.3c0,0.1,0,0.2,0,0.3c-0.1,0-0.2,0-0.3,0.1
		C2021.6,151.5,2021.7,151.4,2021.8,151.3 M2086.7,155.7c0.2,0.1,0.4,0.2,0.6,0.3c-0.5,0-0.9,0-1.4,0
		C2086.2,155.9,2086.4,155.8,2086.7,155.7 M3133.6,155.9l-0.1,0.1c-0.6-0.1-1.2-0.2-1.8-0.4c0,0,0,0,0,0c0.6,0.1,1.2,0.2,1.8,0.4
		c0.4-0.3,0.5-0.6,0.4-0.8c0.6-0.1,1.2-0.3,1.8-0.5c2.2-0.9,3.1-1.8,2.8-2.6c-0.1-0.1-0.2-0.2-0.4-0.3c3.9-0.4,7.6-0.8,9.3-1.9
		c3.9,0.2,8,0.3,12.8-0.3c-4,1-7.2,2-8.8,3.3c0,0-0.1,0.1-0.1,0.1c-3.4,1.1-3.8,2.4-5,3.6c-2.8,0.1-5.6,0.1-8.4,0.2
		C3136.5,156.7,3135.1,156.3,3133.6,155.9 M2792.1,157.8c2.1-0.5,3.9-0.9,5.4-1.1c-1,0.4-2.6,0.8-5.4,1.2
		C2792.1,157.8,2792.1,157.8,2792.1,157.8 M2452,158.2c-0.2,0.1-0.3,0.1-0.5,0.2c-0.1,0-0.2,0.1-0.3,0.1c-0.1,0-0.1,0.1-0.1,0.1
		c-0.8,0.3-1.6,0.6-2.4,0.9C2449.6,159,2450.7,158.6,2452,158.2 M1649.1,158.5l-0.3,0l-0.7,0.3c-0.1,0-0.2,0-0.2-0.1
		c0.3-0.1,0.6-0.1,0.9-0.2c0.1,0,0.1-0.1,0.2-0.1C1649,158.5,1649,158.5,1649.1,158.5 M1590.5,158.1c2.5-0.4,5-0.9,7.4-1.6
		c1.1,0.6,3,1,5.7,1.1c-2.8,0.3-5.7,0.6-7.1,1.5C1595,158.6,1592.9,158.3,1590.5,158.1 M2188.7,161.9c0.2,0,0.3-0.1,0.5-0.1
		c0,0-0.1,0.1-0.1,0.1C2189,161.9,2188.9,161.9,2188.7,161.9 M2863.6,162.3c1.6-0.1,3.2-0.3,4.8-0.3
		C2866.5,162.2,2864.7,162.5,2863.6,162.3 M1594,163c0.1,0,0.3-0.1,0.4-0.1c0.2,0.1,0.3,0.2,0.5,0.3c-0.2,0-0.5,0-0.7,0.1
		C1594.1,163.2,1594,163.1,1594,163 M1144.2,163.4c-0.1,0-0.3-0.1-0.4-0.1c0.2,0,0.4,0,0.5,0
		C1144.3,163.3,1144.2,163.4,1144.2,163.4 M918.5,162c-0.1-0.1-0.2-0.2-0.3-0.3c0.4,0,0.8,0,1.2-0.1
		C919.1,161.8,918.9,161.9,918.5,162 M1045.1,145.5c-0.5,0-0.9-0.1-1.4-0.1c0.3-0.1,0.6-0.1,0.9-0.2
		C1044.8,145.3,1045,145.4,1045.1,145.5 M981.6,133.6c-0.1,0-0.2,0-0.3,0c0.1-0.1,0.2-0.2,0.4-0.3
		C981.6,133.4,981.6,133.5,981.6,133.6"/>
	<path class="st0" d="M122.6,583.5C122.6,583.5,122.7,583.5,122.6,583.5l-0.1,0c0.1,0,0.1,0.1,0.2,0.1c0.1,0,0.1-0.1,0.2-0.1
		C122.8,583.5,122.7,583.5,122.6,583.5"/>
	<path class="st0" d="M0,640c0,0.1,0,0.1,0,0.2c0.1,0,0.2-0.1,0.4-0.2H0z"/>
	<path class="st0" d="M138,418.9c0,0,0.1-0.1,0.1-0.1c-0.1,0-0.3,0.1-0.4,0.1C137.8,418.9,137.8,418.9,138,418.9
		C137.9,419,137.9,419,138,418.9C138,418.9,138,418.9,138,418.9"/>
	<path class="st0" d="M275.4,454.7c-0.2,0.1-0.4,0.1-0.6,0.2c0.2,0,0.3,0,0.5-0.1C275.3,454.8,275.3,454.8,275.4,454.7"/>
	<path class="st0" d="M3546,283.5c0.1-0.1,0.3-0.2,0.4-0.3c-0.2,0.1-0.4,0.2-0.6,0.3C3545.9,283.5,3546,283.5,3546,283.5"/>
	<path class="st0" d="M3680.6,1998.3C3680.6,1998.3,3680.6,1998.3,3680.6,1998.3L3680.6,1998.3
		C3680.6,1998.3,3680.6,1998.3,3680.6,1998.3C3680.6,1998.3,3680.6,1998.3,3680.6,1998.3C3680.6,1998.3,3680.6,1998.3,3680.6,1998.3
		"/>
	<path class="st0" d="M3719.2,1971.5C3719.2,1971.5,3719.2,1971.5,3719.2,1971.5c0,0-0.1,0-0.1,0
		C3719.1,1971.5,3719.1,1971.5,3719.2,1971.5"/>
	<path class="st0" d="M3687.9,2065.2C3687.9,2065.2,3687.9,2065.2,3687.9,2065.2l0.1,0C3688,2065.2,3687.9,2065.2,3687.9,2065.2
		C3687.9,2065.2,3687.9,2065.2,3687.9,2065.2C3687.9,2065.2,3687.9,2065.2,3687.9,2065.2"/>
	<path class="st0" d="M3637.1,2055.3c0.1,0,0.1-0.1,0.2-0.1C3637.3,2055.2,3637.2,2055.2,3637.1,2055.3
		C3637.1,2055.3,3637.1,2055.3,3637.1,2055.3"/>
</g>
</svg>
