<?xml version="1.0" encoding="utf-8"?>
<!-- Generator: Adobe Illustrator 21.1.0, SVG Export Plug-In . SVG Version: 6.00 Build 0)  -->
<svg version="1.1" id="Слой_1" xmlns="http://www.w3.org/2000/svg" xmlns:xlink="http://www.w3.org/1999/xlink" x="0px" y="0px"
	 viewBox="0 0 11648.1 844.8" style="enable-background:new 0 0 11648.1 844.8;" xml:space="preserve">
<style type="text/css">
	.st0{clip-path:url(#SVGID_2_);fill-rule:evenodd;clip-rule:evenodd;fill:#666666;}
</style>
<g>
	<defs>
		<rect id="SVGID_1_" width="11648.1" height="844.8"/>
	</defs>
	<clipPath id="SVGID_2_">
		<use xlink:href="#SVGID_1_"  style="overflow:visible;"/>
	</clipPath>
	<path class="st0" d="M11633.5,598.2c-16.7-5.8-33.2-11.6-50.2-17.4c-22.2-7.6-45-15.3-67.1-22.9c-9.2-3.2-16-6.4-59-9.4
		c-9.7,0.7-19.4,1.4-29.1,2.1c-6.7-0.2-13.5-0.5-20.3-0.7c-9.3-1.5-18.6-3.1-27.8-4.6c-4.9-4.7-52.7-11.6-30.5-15
		c16.6-4.9-1.3-11.2-54-19c0.1,0,0.1,0,0.2,0c-26.8-7.5-15.7-14.1-99.1-23c-37.1-7.2,11.5-10.8-51.8-19.2
		c-9.4-5-52.8-11.3-44.7-15.5c20.1-1.3,15.8-4-11-7.8c-33-5.6,20.9-6.4-14.3-12.1c-1-6.3,6.6-12-14.1-19.4c0,0,0.1,0,0.1,0
		c-0.1,0-0.2-0.1-0.3-0.1c-1.1-0.4-2.3-0.8-3.8-1.2c-14.3-5.4,15.5-8.5-16.5-14.9c35-4,6.2-12-6.4-19c-1-3.4,11-6-13.2-10.7
		c-2.5-3-4.9-5.9-7.5-8.9c-1.4-6.3-2.9-12.7-4.4-19c-9.7-5.5-2.5-10.1-29.3-16.5c0.5-1.8,0.9-3.6,1.5-5.3
		c11.7-2.7,20.9-5.5-12.9-10.6c13.3-2.6-3.2-6.8-13.4-10.6c11.5-1.6,39-2.2-3-7.1c0.1-4,0.2-7.9,0.3-11.9c24.5-1.9-6.1-6-29.3-9.7
		c20-1.1,7.1-4-12.6-8.2c-2.8,2.9-4.8,5.1-6.8,7.3c-0.2,0-0.2,0.1-0.1,0.1c-26.7-2.3-29.2-4.4-36.1-6.6c-11.8-2.2-23.7-4.4-35.5-6.6
		c4.5-0.4,9-0.8,13.4-1.2c-5.7-1.4-29-3.5-10.7-3.9c0,0,0,0,0.1,0c18-0.5,6.8-3,3.5-5c36.5-0.8,27.2-4.2-17.1-8.6
		c-24-2.4-26-3.5-23.3-5c-16.3-2.5,4.7-4.9-44.2-7.6c-48.4-2.7-43,0.2-37.7,3.3c1.8,1-5.9,1.5-9.1,2.3c-7.8-0.9-15.5-1.8-23.4-2.7
		c0,0,0,0,0,0c-2.6-0.7-5.1-1.4-7.7-2.1c19.2-1.5,11.3-5.1,11.7-8c43.7-0.6,14.4-6,4.2-10.1c5.2-0.3,10.5-0.7,15.6-1
		c82.1-1.3,26.6-11-7.8-19.5c-2.2-0.6-2.3-1,0.2-1.3c22.5,1,21.4,5.5,47.4,4.8c18.6-0.5,47.9-1.4-3.4-6.5c-10.3-1.1-20.7-2.3-32.2-3
		c-2.2-1.3-8.3-2.7-21.3-4.1c-0.7-0.2-1.5-0.5-2.2-0.7c24.8,1,31.5,4.1,50.9,5.7c10.5-5.5-0.8-12.3-5.6-18.8
		c19.2-0.4,8.8-2.8,4.4-4.8c-2-0.7-3.8-1.3-5.6-2c-1.8-1.8-3.3-3.6-5.2-5.4c13-6,8.4-12.9-24.8-21.5c39.4-2.3-44.4-9.8-35.9-13.4
		c-0.7,0.1-1.4,0.3-2.1,0.4c0.4-0.2,1.1-0.3,2.1-0.4c-11.2-2.2-28.9-3.9-48.8-5.4c9-5.6-66.5-12.7-89.7-18.9
		c-17.3-6.7-16.8-13-91.3-21.1c-15.4-4.3-36-8.2-87.8-10c-19.5,0.4-38.8,0.7-58.1,1.1c-8.7-0.9-18.2-1.8-25.5-2.7
		c-98.8-12.6-113.2-13.2-156.7-6.6c-17.9-2.4-35.9-4.8-53.7-7.3c-13.9-2.7-30.3-5.2-56.8-7.4c-79-10.4-171.6-15.5-222.1-12.2
		c1,0.5,2.3,1.1,4.3,1.7c-30-0.6-55.1-0.7-40.9,3.4c-7,1.4-14,2.9-21.2,4.3c-14.4,1.3-28.8,2.5-43.3,3.8c-20.1-1.5-39.9-3-59.8-4.5
		c-0.6,0-1.2,0-1.8,0c0.5,0,1.1,0,1.6,0c-23.3-0.7-46.3-1.3-69.7-2c-13.7-0.5-24.7-0.7-9.1,1.4c5.9,0.8,18.2,1.3,27.5,1.9
		c1.9,0.6,3.4,1.2,4.4,1.8c-2.4,0.6-4.8,1.1-7.1,1.7c-19.1-0.3-11.3,1.7-10.5,3.1c-4.7,2.2-9.7,4.3-14.6,6.5
		c-16.7,0.4-22.6,1.8-22.1,3.8c-43.6,2.2-37.5,8.5-43.4,13.8c-3.7,1.5-7.6,3-11.2,4.5c-13.4,0.6-26.7,1.2-39.8,1.8
		c-3.2-0.4-6.4-0.8-9.7-1.2c4.8-0.7,11.4-1.3,11.7-2.3c12.6-4.6-45.2-5-65.7-7.2c-18.8-2-27.7-1.8-33.3-1
		c-14.3-0.2-29.1-0.1-42.7-0.7c-31.5-1.4-34.8-0.1-31,1.8c-13.5-0.9-23.3-2.2-29.2-3.9c7.5-0.8,15-1.6,22.6-2.4
		c19.1-0.2,5.2-2.6,0.8-4.3c0,0,0,0-0.1,0c-6.2-2-9.3-4-35.3-6.2c-1.3-0.6-2.3-1.1-3.2-1.6c19.9-0.8-8.5-3.4-18.6-5.4
		c32.2,1.1,55.4,0.6,73.4-0.3c22.4-1.2,8.3-3.5-31.5-5.6c-2-0.6-4.1-1.2-6-1.8c65,3.7,92.1,2.1,99.5-2.2c10.3-0.9,48,1.7,41.1-1.4
		c42,0.4,84.6,0.8,6.6-7.4c-31.1-4-67.4-6.5-104.5-8.8c-21.3-1.9-42.5-3.7-63.8-5.6c-20-2.9-40.1-5.2-49.9-2.7
		c-3,0.8-11.9,1.9,6.4,3.5c34.3,2.8,27.2-0.8,43.7-0.8c12.4,3.4,35.4,5.9,69.4,7.4c16.7,2.3,46,4.1,52,6.7
		c-3.8,0.4-7.7,0.7-11.5,1.1c-33.1-2.4-69.1-5.7-87.5-3.5c-34.5-0.8-67.3-3.3-98.8-7l-0.3,0c-46.2-8-45-1.4-69.7-2.8
		c-11.5,0.2-10.4,1.4-6,2.8c-28.1,1.4-62.4,2.1-53.6,7.1c-39.5-0.5-44,2.4-41.1,6c-5.9-0.2-11.7-0.5-17.7-0.7
		c-14.3-0.5-26.4-0.8-28.4,0.4c-4.8,3.2-49.8,2.9-37.8,7.6c-5.2-0.2-10.7-0.3-16.4-0.6c-17.3-2.2-34.5-4.4-51.7-6.6c0,0,0,0,0,0
		c20.9,0.4,50.6,1.3,31.2-2.2c-14.6-2.6-28.5-1.1-43.2-1.5c-15,1.6-8.6,4.6-6.2,7.4c0,0,0,0-0.1,0c-3.9,0.3-7.9,0.6-11.7,0.9
		c-11.4-0.4-23.1-0.8-34.4-1.2c-7.6-0.8-15.2-1.7-22.7-2.5c-35.8-6.3-33.2-0.7-53.3-2.1c-8.3-1.5-2.7-3.4-26.3-4.4
		c-18.8-0.8-11.9,1.5-8.6,3c-50.2,2.1,33.7,7.5,51,11.2l1.3,0.2c0,0,0,0,0,0c-0.4-0.1-0.9-0.1-1.3-0.2c-40.6-1.6-81.2-3.2-122-4.8
		c-5.6-0.2-11.2-0.5-16.9-0.7c8.4-0.9,17-1.7,25.4-2.6c-7.5-0.6-15.7-1.5-22.3-1.8c-37.7-1.7-29.3,1-21.1,3.6
		c-20,1.2-16,4.5-23.7,6.8c10.1,0.8,20.2,1.6,30.3,2.3c3.8,0.6,8.3,1.2,13.6,1.8c1.4,0.5,2.7,0.9,4.1,1.4c-0.4,0-0.8,0-1.2-0.1
		c-22.1-0.9-32.4-0.1-41.3,0.9c-6.2,2.8-43.9,3.2-18.6,8.5c0,0,0,0,0.1,0c-4.1,0.3-7.9,0.7-11.9,1c-0.8,1.5-8.4,2.2-23.3,2.2
		c2.8,0.9,5.6,1.8,8.4,2.6c-1.3,0.1-2.6,0.2-3.8,0.4c-3.2,0.4-4.8,0.9-5,1.5c1.9,0.6,3.8,1.2,5.7,1.8c-38.1-0.2-2.1,4,6.7,6.5
		c8.7,1.4,17.1,2.7,25.7,4l1.6,0c0.3,0.1,0.7,0.2,1,0.3c-0.9-0.1-1.8-0.2-2.6-0.4c-29.4-0.1-108.6-11.2-97.6-2.4
		c19.3-0.9,37.4,1.9,56.1,3.8c3.5,1,7,2.1,10.9,3.1c-17.2-0.3-27.7,0.1-23.5,2.1c-3.1,0.3-6.2,0.6-9.4,1
		c-90.4-7.8-164.3-16.3-221.8-24.5c-1.7-0.2-3.4-0.5-5.1-0.7c-0.3,0.2-0.1,0.5,0.7,0.9c-9.5,0.2-19.1,0.3-28.7,0.5
		c-30.2-0.6-55.4-3.6-81.2-6.3c-1.1-1.6,38.7-0.4-0.2-4.7c-38-4.2-16-5-4.6-6.4c11.7,0,17.6-0.3,19.3-0.9
		c-5.3-1.3-10.1-2.5-14.4-3.8c-3.1-0.5-6.5-0.9-10.2-1.4c-13.2-3.3-41.9-7.5-64.1-6.6c-20.9,0.8-1.8,5.6,28.9,9.8
		c12.6,3.2-9.9,3.6-12.8,5.6c-19.5-1.1-39.2-2.2-61.7-3.4c75.2,10.8,68.4,12.8-28.1,11.5c-24.2-0.3-30.3,1.5-22,4.4
		c-14.3-0.5-26.4-0.7-29.4,0.4c-14.1-0.5-26-0.7-29.1,0.4c-15.5-0.1-9.5,3.4-38.5,0.8c-72.6-6.4-83.8-3.2-96,0
		c-9.9,0.1-19.7,0.3-29.5,0.4c-26.8-1.4-45.6-1.3-64-1.1c-27.3-4-12-5.7-10.8-8.1c15.7,0.3,43.3,2.3,37.8,0.2
		c-5.9-2.2-21.8-2.2-29.9-1.7c-4.5,0.3-6,0.9-9,1.5c-49.6-1.5-44.3,2.3-40.5,6c-47.1-0.6-69.3,1.8-94.2,4
		c-10.1,1.6-20.5,3.3-30.7,4.9c-13.1,0.5-26.4,1-39.4,1.6c-38.3-1-57.5,0.1-47.4,4.2c-30.8-0.4-72.7-2.3-71.5,1.7
		c-15.4,3-81.9,0.6-72.9,6.2c-3.5,0.3-6.8,0.7-10,1c-13,0.6-26.1,1.2-38.9,1.9c-12.1,1-24.5,2-36.6,3.1c-9.4,0.2-18.7,0.3-28,0.5
		c-33.3-2.7-53.9-2.9-64.7-1.1c-27.6,0.5-26,4.4-64.4,3.6c-1.8,5.4-79,4.9-31.6,14.1c2.7,0.6,5.4,1.3,8,1.9
		c-12.7,2.5-46.3,3.1-37.4,7.6H5304.6c-8-1-18.7-1.9-34.2-2.4c-11.4,0.2-22.7,0.4-34,0.6c-5.1-0.5-10.7-1-15-1.6
		c-57.9-7.4-66.3-7.8-91.9-3.9c-10.5-1.4-21-2.8-31.5-4.3c-8.2-1.6-17.7-3.1-33.3-4.3c-46.3-6.1-100.6-9.1-130.2-7.2
		c0.6,0.3,1.4,0.7,2.5,1c-17.6-0.4-32.3-0.4-24,2c-4.1,0.8-8.2,1.7-12.4,2.5c-8.4,0.7-16.9,1.5-25.4,2.2
		c-11.8-0.9-23.4-1.8-35.1-2.6c-0.3,0-0.7,0-1,0c0.3,0,0.6,0,1,0c-13.6-0.4-27.1-0.7-40.8-1.2c-8-0.3-14.4-0.4-5.3,0.8
		c3.4,0.4,10.7,0.7,16.1,1.1c1.1,0.4,2,0.7,2.6,1c-1.4,0.3-2.8,0.7-4.2,1c-11.2-0.2-6.6,1-6.2,1.8c-2.8,1.3-5.7,2.5-8.5,3.8
		c-9.8,0.2-13.3,1.1-13,2.2c-23.4,1.2-22.4,4.4-24.7,7.3h-38.4c-9.4-0.7-22.9-1.1-29.6-1.8c-11-1.2-16.2-1.1-19.5-0.6
		c-8.4-0.1-17.1-0.1-25-0.4c-18.4-0.8-20.4-0.1-18.2,1.1c-7.9-0.5-13.7-1.3-17.1-2.3c4.4-0.5,8.8-0.9,13.3-1.4
		c11.2-0.1,3.1-1.5,0.5-2.5c0,0,0,0,0,0c-3.6-1.2-5.4-2.4-20.7-3.7c-0.8-0.3-1.3-0.6-1.9-1c11.6-0.5-5-2-10.9-3.2
		c18.9,0.6,32.5,0.4,43-0.2c13.1-0.7,4.9-2-18.5-3.3c-1.2-0.4-2.4-0.7-3.5-1.1c38.1,2.1,54,1.2,58.3-1.3c6-0.5,28.1,1,24.1-0.8
		c24.6,0.2,49.6,0.4,3.8-4.3c-18.2-2.3-39.5-3.8-61.2-5.2c-12.5-1.1-24.9-2.2-37.4-3.3c-11.7-1.7-23.5-3-29.2-1.6
		c-1.7,0.5-7,1.1,3.7,2c20.1,1.7,16-0.4,25.6-0.5c7.3,2,20.7,3.4,40.7,4.3c9.8,1.3,27,2.4,30.5,3.9c-2.2,0.2-4.5,0.4-6.7,0.6
		c-19.4-1.4-40.5-3.3-51.3-2.1c-20.2-0.5-39.4-1.9-57.9-4.1l-0.1,0c-27.1-4.7-26.4-0.8-40.8-1.6c-6.8,0.1-6.1,0.8-3.5,1.7
		c-16.5,0.8-36.6,1.2-31.4,4.2c-23.1-0.3-25.8,1.4-24.1,3.5c-3.5-0.1-6.8-0.3-10.4-0.4c-8.4-0.3-15.5-0.5-16.7,0.3
		c-2.8,1.9-29.2,1.7-22.1,4.4c-3.1-0.1-6.3-0.2-9.6-0.4c-10.1-1.3-20.2-2.6-30.3-3.8c0,0,0,0,0,0c12.3,0.2,29.7,0.7,18.3-1.3
		c-8.6-1.5-16.7-0.6-25.3-0.9c-8.8,0.9-5,2.7-3.6,4.4c0,0,0,0,0,0c-2.3,0.2-4.6,0.4-6.9,0.6c-6.7-0.2-13.5-0.5-20.1-0.7
		c-4.4-0.5-8.9-1-13.3-1.5c-21-3.7-19.5-0.4-31.3-1.2c-4.9-0.9-1.6-2-15.4-2.6c-11-0.5-7,0.9-5,1.8c-29.4,1.2,19.7,4.4,29.9,6.6
		l0.8,0.1c0,0,0,0,0,0c-0.3,0-0.5-0.1-0.8-0.1c-23.8-0.9-47.6-1.9-71.5-2.8c-3.3-0.1-6.6-0.3-9.9-0.4c4.9-0.5,10-1,14.9-1.5
		c-4.4-0.4-9.2-0.9-13-1.1c-22.1-1-17.2,0.6-12.4,2.1c-11.7,0.7-9.4,2.6-13.9,4c5.9,0.5,11.8,0.9,17.8,1.4c2.2,0.4,4.9,0.7,7.9,1.1
		c0.8,0.3,1.6,0.5,2.4,0.8c-0.2,0-0.5,0-0.7,0c-13-0.5-19,0-24.2,0.5c-3.6,1.7-25.7,1.9-10.9,5c0,0,0,0,0,0c-2.4,0.2-4.6,0.4-7,0.6
		c-0.5,0.9-4.9,1.3-13.7,1.3c1.7,0.5,3.3,1,4.9,1.6c-0.8,0.1-1.5,0.1-2.2,0.2c-1.9,0.2-2.8,0.5-3,0.9c1.1,0.3,2.2,0.7,3.4,1
		c-22.3-0.1-1.2,2.3,3.9,3.8c2.2,0.4,4.5,0.7,6.7,1h-13.1c-19.1-1.6-40.2-3.7-35.7-0.1c3.6-0.2,7.1-0.1,10.5,0.1h-51.1
		c-26.4-2.8-49.6-5.7-69.4-8.6c-1-0.1-2-0.3-3-0.4c-0.2,0.1,0,0.3,0.4,0.6c-5.6,0.1-11.2,0.2-16.8,0.3c-17.7-0.3-32.5-2.1-47.6-3.7
		c-0.7-1,22.7-0.3-0.1-2.8c-22.3-2.4-9.4-2.9-2.7-3.7c6.9,0,10.3-0.2,11.3-0.5c-3.1-0.7-5.9-1.5-8.4-2.2c-1.8-0.3-3.8-0.6-6-0.8
		c-7.8-1.9-24.5-4.4-37.6-3.9c-12.3,0.5-1,3.3,16.9,5.7c7.4,1.9-5.8,2.1-7.5,3.3c-11.5-0.6-23-1.3-36.1-2
		c44.1,6.3,40.1,7.5-16.5,6.7c-14.2-0.2-17.7,0.9-12.9,2.6c-8.4-0.3-15.5-0.4-17.2,0.2c-8.3-0.3-15.3-0.4-17.1,0.2
		c-9.1,0-5.6,2-22.6,0.5c-42.6-3.7-49.1-1.9-56.2,0c-1.1,0-2.2,0-3.3,0c-8.5-1.2-18.6-2.5-30.7-3.8c-15.4-4.3-36-8.2-87.8-10
		c-19.5,0.4-38.8,0.7-58.1,1.1c-8.7-0.9-18.2-1.8-25.5-2.7c-98.8-12.6-113.2-13.2-156.7-6.6c-17.9-2.4-35.9-4.8-53.7-7.3
		c-13.9-2.7-30.3-5.2-56.8-7.4c-79-10.4-171.6-15.5-222.1-12.2c1,0.5,2.3,1.1,4.3,1.7c-30-0.6-55.1-0.7-40.9,3.4
		c-7,1.4-14,2.9-21.2,4.3c-14.4,1.3-28.8,2.5-43.3,3.8c-20.1-1.5-39.9-3-59.8-4.5c-0.6,0-1.2,0-1.8,0c0.5,0,1.1,0,1.6,0
		c-23.3-0.7-46.3-1.3-69.7-2c-13.7-0.5-24.7-0.7-9.1,1.4c5.9,0.8,18.2,1.3,27.5,1.9c1.9,0.6,3.4,1.2,4.4,1.8
		c-2.4,0.6-4.8,1.1-7.1,1.7c-19.1-0.3-11.3,1.7-10.5,3.1c-4.7,2.2-9.7,4.3-14.6,6.5c-16.7,0.4-22.6,1.8-22.1,3.8
		c-43.6,2.2-37.5,8.5-43.4,13.8c-3.7,1.5-7.6,3-11.2,4.5c-13.4,0.6-26.7,1.2-39.8,1.8c-3.2-0.4-6.4-0.8-9.7-1.2
		c4.8-0.7,11.4-1.3,11.7-2.3c12.6-4.6-45.2-5-65.7-7.2c-18.8-2-27.7-1.8-33.3-1c-14.3-0.2-29.1-0.1-42.7-0.7
		c-31.5-1.4-34.8-0.1-31,1.8c-13.5-0.9-23.3-2.2-29.2-3.9c7.5-0.8,15-1.6,22.6-2.4c19.1-0.2,5.2-2.6,0.8-4.3c0,0,0,0-0.1,0
		c-6.2-2-9.3-4-35.3-6.2c-1.3-0.6-2.3-1.1-3.2-1.6c19.9-0.8-8.5-3.4-18.6-5.4c32.2,1.1,55.4,0.6,73.4-0.3c22.4-1.2,8.3-3.5-31.5-5.6
		c-2-0.6-4.1-1.2-6-1.8c65,3.7,92.1,2.1,99.5-2.2c10.3-0.9,48,1.7,41.1-1.4c42,0.4,84.6,0.8,6.6-7.4c-31.1-4-67.4-6.5-104.5-8.8
		c-21.3-1.9-42.5-3.7-63.8-5.6c-20-2.9-40.1-5.2-49.9-2.7c-3,0.8-11.9,1.9,6.4,3.5c34.3,2.8,27.2-0.8,43.7-0.8
		c12.4,3.4,35.4,5.9,69.4,7.4c16.7,2.3,46,4.1,52,6.7c-3.8,0.4-7.7,0.7-11.5,1.1c-33.1-2.4-69.1-5.7-87.5-3.5
		c-34.5-0.8-67.3-3.3-98.8-7l-0.3,0c-46.2-8-45-1.4-69.7-2.8c-11.5,0.2-10.4,1.4-6,2.8c-28.1,1.4-62.4,2.1-53.6,7.1
		c-39.5-0.5-44,2.4-41.1,6c-5.9-0.2-11.7-0.5-17.7-0.7c-14.3-0.5-26.4-0.8-28.4,0.4c-4.8,3.2-49.8,2.9-37.8,7.6
		c-5.2-0.2-10.7-0.3-16.4-0.6c-17.3-2.2-34.5-4.4-51.7-6.6c0,0,0,0,0,0c20.9,0.4,50.6,1.3,31.2-2.2c-14.6-2.6-28.5-1.1-43.2-1.5
		c-15,1.6-8.6,4.6-6.2,7.4c0,0,0,0-0.1,0c-3.9,0.3-7.9,0.6-11.7,1c-11.4-0.4-23.1-0.8-34.4-1.2c-7.6-0.8-15.2-1.7-22.7-2.5
		c-35.8-6.3-33.2-0.7-53.3-2.1c-8.3-1.5-2.7-3.4-26.3-4.4c-18.8-0.8-11.9,1.5-8.6,3c-50.2,2.1,33.7,7.5,51,11.2l1.3,0.2c0,0,0,0,0,0
		c-0.4-0.1-0.9-0.1-1.3-0.2c-40.6-1.6-81.2-3.2-122-4.8c-5.6-0.2-11.2-0.5-16.9-0.7c8.4-0.9,17-1.7,25.4-2.6
		c-7.5-0.6-15.7-1.5-22.3-1.8c-37.7-1.7-29.3,1-21.1,3.6c-20,1.2-16,4.5-23.7,6.8c10.1,0.8,20.2,1.6,30.3,2.3
		c3.8,0.6,8.3,1.2,13.6,1.8c1.4,0.5,2.7,0.9,4.1,1.4c-0.4,0-0.8,0-1.2-0.1c-22.1-0.9-32.4-0.1-41.3,0.9c-6.2,2.8-43.9,3.2-18.6,8.5
		c0,0,0,0,0.1,0c-4.1,0.3-7.9,0.7-11.9,1c-0.8,1.5-8.4,2.2-23.3,2.2c2.8,0.9,5.6,1.8,8.4,2.6c-1.3,0.1-2.6,0.2-3.8,0.4
		c-3.2,0.4-4.8,0.9-5,1.5c1.9,0.6,3.8,1.2,5.7,1.8c-38.1-0.2-2.1,4,6.7,6.5c8.7,1.4,17.1,2.7,25.7,4l1.6,0c0.3,0.1,0.7,0.2,1,0.3
		c-0.9-0.1-1.8-0.2-2.6-0.4c-29.4-0.1-108.6-11.2-97.6-2.4c19.3-0.9,37.4,1.9,56.1,3.8c3.5,1,7,2.1,10.9,3.1
		c-17.2-0.3-27.7,0.1-23.5,2.1c-3.1,0.3-6.2,0.6-9.4,1c-90.4-7.8-164.3-16.3-221.8-24.5c-1.7-0.2-3.4-0.5-5.1-0.7
		c-0.3,0.2-0.1,0.5,0.7,0.9c-9.5,0.2-19.1,0.3-28.7,0.5c-30.2-0.6-55.4-3.6-81.2-6.3c-1.1-1.6,38.7-0.4-0.2-4.7
		c-38-4.2-16-5-4.6-6.4c11.7,0,17.6-0.3,19.3-0.9c-5.3-1.3-10.1-2.5-14.4-3.8c-3.1-0.5-6.5-0.9-10.2-1.4
		c-13.2-3.3-41.9-7.5-64.1-6.6c-20.9,0.8-1.8,5.6,28.9,9.8c12.6,3.2-9.9,3.6-12.8,5.6c-19.5-1.1-39.2-2.2-61.7-3.4
		c75.2,10.8,68.4,12.8-28.1,11.5c-24.2-0.3-30.3,1.5-22,4.4c-14.3-0.5-26.4-0.7-29.4,0.4c-14.1-0.5-26-0.7-29.1,0.4
		c-15.5-0.1-9.5,3.4-38.5,0.8c-72.6-6.4-83.8-3.2-96,0c-9.9,0.1-19.7,0.3-29.5,0.4c-26.8-1.4-45.6-1.3-64-1.1
		c-27.3-4-12-5.7-10.8-8.1c15.6,0.3,43.3,2.3,37.8,0.2c-5.9-2.2-21.8-2.2-29.9-1.7c-4.5,0.3-6,0.9-9,1.5c-49.6-1.5-44.3,2.3-40.5,6
		c-47.1-0.6-69.3,1.8-94.2,4c-10.1,1.6-20.5,3.3-30.7,4.9c-13.1,0.5-26.4,1-39.4,1.6c-38.3-1-57.5,0.1-47.4,4.2
		c-30.8-0.4-72.7-2.3-71.5,1.7c-15.4,3-81.9,0.6-72.9,6.2c-3.5,0.3-6.8,0.7-10,1c-13,0.6-26.1,1.2-38.9,1.9c-12.1,1-24.5,2-36.6,3.1
		c-9.4,0.2-18.7,0.3-28,0.5c-33.3-2.7-53.9-2.9-64.7-1.1c-27.6,0.5-26,4.4-64.4,3.6c-1.8,5.4-79,4.9-31.6,14.1
		c2.7,0.6,5.4,1.3,7.9,1.9c-12.8,2.5-46.9,3.2-37.2,7.7c0.5,1.1-8.9,2,10.4,3.8c26,2.3,26.4,0.5,30.3-0.5l0.4,0
		c16.7,0.2,33.3,0.4,50.1,0.6c-2.2,1.3-4.3,2.6-6.5,4c-28.3,0-18.5,3.5-30.7,4.9c-8.4,2.9-44.8,4.7,37.6,11.1
		c11.4,1.9,22.7,3.9,34.1,5.8c9.6-0.1,19.2-0.2,28.9-0.4c7.8,0.8,16,1.6,24,2.4c5.2,1.8,10.3,3.5,15.5,5.3l-0.5-0.4l5,0.2
		c0,0.2,0.1,0.3,0.3,0.5c-1.6-0.1-3.2-0.2-4.8-0.3c-5.7,0.2-8,0.5-8.4,1c-16.4-0.9-26.4-0.5-28.6,0.9c-2.9,1.8,16.5,2.2,28.6,2.9
		c1.1,0.5,2,1.1,2.8,1.6c-40.4-0.5-38.6,3-39.9,6.2c1.4,0.5,2,1,1.9,1.5c-33.1-1.3-10.3,6.2-72.7,0.3c-37.6-0.6-38.6,2.6-43.5,5.1
		c-8.3,4.5-27.1,8.2-17.2,14c-3.6,0.4-7.2,0.8-10.9,1.2c-35.4-1.3-50.2-0.1-49.4,2.9c3.6,1.1,7.4,2.2,11.1,3.4
		c6.9,2.3,14.2,4.6,21.4,6.9c-2.7,0.2-3.3,0.5-1.8,0.9c-18.5,0.9-13.5,3.6-10.9,6.1c-5.4,1.3-11.2,2.7-16.7,4
		c-5.1-0.2-10-0.4-15.1-0.6c-19.3-1.2-44.3-4.2-52.3-2c-33.9-1.4-30.1,1.4-35.9,3c0.9,2.6,10.2,5.5,27.7,8.8
		c-2.6,0.5-5.2,0.9-8.2,1.4c-33.5-2.8-28.9-5.3-50.3-8.7c-15.2,3,16.8,8.5,12.7,11.7c17,5.3,33.8,10.5,51,15.8
		c22.6,7,45.7,14,68.2,20.9c9.4,2.9,16.6,5.8,55.9,8.5c8.4-0.6,16.7-1.3,25.1-1.9c6.1,0.2,12.1,0.4,18.3,0.6
		c8.9,1.4,17.7,2.8,26.4,4.2c6.1,4.3,51.2,10.5,32.7,13.7c-12.9,4.5,5.3,10.3,55,17.3c-0.1,0-0.1,0-0.2,0
		c26.7,6.9,19.2,12.9,96.7,21c35.6,6.6-6.2,9.9,53.2,17.5c10.2,4.5,51.1,10.3,45.5,14.2c-17.4,1.2-12.5,3.7,12.7,7.2
		c31.4,5.1-16.2,5.8,17.2,11c3.2,5.7-1.4,11,19.8,17.8c0,0-0.1,0-0.1,0c0.1,0,0.2,0.1,0.3,0.1c1.1,0.4,2.4,0.7,3.8,1.1
		c14.8,5-10.6,7.8,20.2,13.6c-29.6,3.7-1,11,12.8,17.4c2.2,3.1-7.5,5.5,15.7,9.7c3.3,2.7,6.5,5.4,10,8.1c3.6,5.8,7.3,11.6,11,17.4
		c10.6,5,6,9.3,32.2,15.1c0.2,1.6,0.5,3.3,0.7,4.9c-9.4,2.4-16.5,5,15.4,9.7c-10.8,2.4,5.3,6.2,15.9,9.7c-9.6,1.5-33.8,2.1,5.3,6.5
		c1.4,3.6,2.8,7.3,4.2,10.9c-21.1,1.8,7.6,5.4,29.6,8.9c-17.4,1-4.9,3.6,14.2,7.5c1.4-2.7,2.4-4.7,3.4-6.6c0.1,0,0.2-0.1,0.1-0.1
		c24.6,2.1,27.6,4,34.6,6c11.3,2,22.7,4,34,6c-3.9,0.3-7.7,0.7-11.4,1.1c5.6,1.3,27.1,3.2,10.9,3.5c0,0,0,0-0.1,0
		c-15.8,0.5-5,2.7-1.2,4.5c-32.1,0.8-22.6,3.8,18.4,7.9c22.2,2.2,24.4,3.2,22.5,4.5c15.4,2.3-2.3,4.5,42.1,6.9
		c44,2.4,38.1-0.2,32.3-3.1c-2-0.9,4.7-1.4,7.2-2.1c6.9,0.8,13.7,1.5,20.6,2.3c-1.3,3.1-2.6,6.3-3.6,9.4c-24.9,0.7-13,3.9-2.1,7
		c-0.2,0.9-0.5,1.8-0.7,2.7c-1.9,0.1-3.8,0.3-5.7,0.4c-64.9,1.1-29.2,8.4,3.2,15.4c-0.1,0.9-0.2,1.7-0.2,2.6
		c-10.3-1.5-14.9-3.8-32.3-3.3c-16.3,0.5-42,1.3,5.4,6c8.6,0.9,17.3,1.8,26.7,2.5c0,0.7,0,1.5-0.1,2.2c-6.7-1-12.8-2-21.5-2.8
		c-7.3,5,5.4,11.3,12,17.2c-16.9,0.4-6.8,2.6-2.1,4.4c2.1,0.6,3.8,1.2,5.7,1.8c2.3,1.6,4.3,3.3,6.7,4.9c-6,3.5-5.3,7.4,4.7,11.8
		c1.7,6.3,3.7,12.5,6.1,18.8c30.4,0.8,37.2-0.9,43.8-2.6c8.3,1.4,14.4,2.8,12.4,3.8c0.6-0.1,1.2-0.3,1.7-0.4
		c-0.3,0.2-0.9,0.3-1.7,0.4c10.8,2,27.1,3.5,45.3,4.9c-5.9,5.1,63.8,11.6,86.8,17.2c17.9,6.1,19.7,11.9,89,19.2
		c15.3,3.9,35.1,7.5,81.8,9c11.8-0.2,23.4-0.5,35-0.7c-1,1.5-2.5,3-12.4,3.6c-1.1,0-2.2,0.1-3.3,0.2c-14.7,0-23.4,0.6-29.2,1.4
		c34.9-0.2,70.4-0.4,106.3-0.5c15.1,1.8,27.6,3.3,38.3,4.4c-5.6,0.2-11.4,0.4-17.9,0.5c-24-1.5-62.9-5.6-60.8-2
		c1.2,2.1,35.5,3.5,58,4.5c24.3,1.1,54.9,4,66.1,1.9c5.3,0,10.8,0.1,16.9,0.3c3.6,1.2,7.3,2.5,11.2,3.7c0,0-0.1,0-0.1,0
		c-18.9,0.7-34.5,2-16.6,5.3c28.4,5.3,26.8,1.6,35.5,1c17,0.1,34.1,0.2,51.3,0.3c45.5,3.9,5.7,4.3,15.7,7
		c40.5,0.8,49.7-1.1,43.9-4.6c12.4,0,24.9,0.1,37.3,0.1c8.5,0.8,16.9,1.5,25.2,2.1v5c-2.5,0-5,0.1-7.5,0.1
		c-20.4,2.1-1.4,6.7-7.6,10.5c5.6,0.1,10.7,0.2,15.1,0.2v20.5h116.4h138.9c-0.1,1,6.2,2.4,8.7,3.5c0,0,0.1,0,0.1,0
		c6,2.2,8.6,4.4,36.9,6.9c1.2,0.6,2.1,1.2,2.8,1.8c-22.7,0.9,8,3.8,18.5,5.9c-35.7-1.2-62-0.8-82.7,0.2c-25.7,1.2-10.9,3.8,32.8,6.2
		c2,0.7,4.1,1.3,6,2c-71.4-4.1-102.6-2.4-113,2.3c-12,1-53.2-1.9-46.9,1.5c-47.1-0.4-94.8-0.9-10.8,8.1c33.1,4.4,72.8,7.2,113.5,9.7
		c23.1,2.1,46.1,4.1,69.2,6.2c21.2,3.1,42.8,5.7,54.9,3c3.7-0.9,14.3-2.1-5.6-3.8c-37.3-3.1-31,0.8-49.5,0.8
		c-12.4-3.8-37.1-6.5-74.7-8.1c-17.7-2.5-49.9-4.5-55.4-7.4c4.4-0.4,9-0.8,13.4-1.2c36.2,2.7,75.1,6.3,96.8,3.9
		c38.4,1,74.2,3.6,108,7.8l0.3,0c48.3,8.8,49.9,1.6,77.1,3.1c13.1-0.2,12.4-1.5,8-3.1c32.3-1.5,71.2-2.2,63.5-7.7
		c44.2,0.6,50.6-2.6,49-6.5c6.6,0.3,12.9,0.5,19.6,0.8c15.8,0.6,29.4,0.9,32.2-0.5c6.9-3.5,57.3-3.1,46-8.2
		c5.8,0.2,11.9,0.4,18.2,0.7c18.5,2.4,36.8,4.8,55.1,7.2c0,0,0,0-0.1,0c-23.4-0.5-56.3-1.4-36.1,2.3c15.2,2.9,31.6,1.2,48,1.7
		c17.5-1.7,11.8-5.1,10.4-8.1c0,0,0.1,0,0.1,0c4.5-0.3,9.1-0.7,13.6-1c12.6,0.4,25.6,0.9,38.1,1.4c8.1,0.9,16.3,1.8,24.4,2.7
		c37.4,7,37,0.8,59,2.4c8.7,1.7,1.5,3.7,27.6,4.8c20.8,0.9,14.1-1.6,11-3.3c57.4-2.2-34.5-8.2-52.2-12.3l-1.4-0.2c0,0,0,0,0,0
		c0.5,0.1,0.9,0.1,1.4,0.2c44.9,1.8,89.9,3.6,135,5.4c6.2,0.3,12.4,0.5,18.7,0.8c-9.8,0.9-19.9,1.8-29.7,2.8c8.1,0.7,17,1.7,24.2,2
		c41.7,1.9,33.4-1.1,25.4-4c23-1.3,20.1-4.9,29.8-7.4c-11-0.9-22-1.7-33-2.6c-4-0.7-8.8-1.4-14.4-2c-1.3-0.5-2.6-1-4-1.5
		c0.4,0,0.9,0.1,1.3,0.1c24.5,1,36.4,0.1,46.9-0.9c8.3-3.1,50.8-3.4,24.8-9.2c0,0,0,0-0.1,0c4.7-0.4,9.2-0.7,13.9-1.1
		c1.6-1.6,10.5-2.4,27.3-2.4c-2.8-1-5.5-1.9-8.2-2.9c1.6-0.1,3-0.3,4.5-0.4c3.8-0.4,5.9-1,6.4-1.7c-0.7-0.2-1.4-0.5-2.1-0.7h235.6
		c15,2,29.1,4,42.4,6c1.8,0.3,3.6,0.5,5.4,0.8c0.4-0.3,0.3-0.6-0.3-1c10.8-0.2,21.6-0.3,32.5-0.5c33.7,0.7,60.6,4,88.4,7
		c0.5,1.8-43.7,0.4-2,5.2c40.8,4.6,15.7,5.5,2.3,7c-13.2,0-20,0.3-22.1,1c5.4,1.4,10.2,2.8,14.4,4.1c3.2,0.5,6.9,1,10.8,1.6
		c13.4,3.6,43.7,8.2,69.1,7.3c23.9-0.9,4.5-6.1-28.1-10.7c-12.7-3.5,12.8-4,17-6.1c21.5,1.2,43.1,2.4,67.8,3.8
		c-79.6-11.9-71.1-14,36.9-12.5c27.1,0.4,34.8-1.6,26.7-4.7c15.9,0.6,29.3,0.8,33.3-0.4c15.7,0.6,29,0.8,32.9-0.4
		c17.5,0.1,12.2-3.7,43.7-0.8c78.8,7,92.8,3.6,107.9,0.2c11.2-0.1,22.3-0.3,33.4-0.4c29.5,1.6,50.7,1.5,71.5,1.2
		c28.8,4.4,10.9,6.2,8.4,8.8c-17.4-0.4-47.6-2.6-42.4-0.2c5.6,2.5,23.5,2.4,32.9,1.9c5.2-0.3,7.1-1,10.8-1.6
		c55.1,1.7,50.9-2.5,48.3-6.5c52.7,0.7,78.8-1.9,107.8-4.2c12.2-1.8,24.5-3.6,36.8-5.3c3.6-0.1,7.3-0.3,10.9-0.4h4675.8
		c-7.2,1.4,9.3,3.3,43.8,5.2c2,0.7,4.1,1.3,6,2c-71.4-4.1-102.6-2.4-113,2.3c-12,1-53.2-1.9-46.9,1.5c-47.1-0.4-94.8-0.9-10.8,8.1
		c33.1,4.4,72.8,7.2,113.5,9.7c23.1,2.1,46.1,4.1,69.2,6.2c21.2,3.1,42.8,5.7,54.9,3c3.7-0.9,14.3-2.1-5.6-3.8
		c-37.3-3.1-31,0.8-49.5,0.8c-12.4-3.7-37.1-6.5-74.7-8.1c-17.7-2.5-49.9-4.5-55.4-7.4c4.4-0.4,9-0.8,13.4-1.2
		c36.2,2.7,75.1,6.3,96.8,3.9c38.4,1,74.2,3.6,108,7.8l0.3,0c48.3,8.8,49.9,1.6,77.1,3.1c13.1-0.2,12.4-1.5,8-3.1
		c32.3-1.5,71.2-2.2,63.5-7.7c44.2,0.5,50.6-2.6,49-6.5c6.6,0.3,12.9,0.5,19.6,0.8c15.8,0.6,29.4,0.9,32.2-0.5
		c6.9-3.5,57.3-3.1,46-8.2c5.8,0.2,11.9,0.4,18.2,0.7c18.5,2.4,36.8,4.8,55.1,7.2c0,0,0,0-0.1,0c-23.4-0.5-56.3-1.4-36.1,2.3
		c15.2,2.9,31.6,1.2,48,1.7c17.5-1.7,11.8-5.1,10.4-8.1c0,0,0.1,0,0.1,0c4.5-0.3,9.1-0.7,13.6-1c12.6,0.4,25.6,0.9,38.1,1.4
		c8.1,0.9,16.3,1.8,24.4,2.7c37.4,7,37,0.8,59,2.4c8.7,1.7,1.5,3.7,27.6,4.8c20.8,0.9,14.1-1.6,11-3.3c57.4-2.2-34.5-8.2-52.2-12.3
		l-1.4-0.2c0,0,0,0,0,0c0.5,0.1,0.9,0.1,1.4,0.2c44.9,1.8,89.9,3.6,135,5.4c6.2,0.3,12.4,0.5,18.7,0.8c-9.8,0.9-19.9,1.8-29.7,2.8
		c8.1,0.7,17,1.7,24.2,2c41.7,1.9,33.4-1.1,25.4-4c23-1.3,20.1-4.9,29.8-7.4c-11-0.9-22-1.7-33-2.6c-4-0.7-8.8-1.4-14.4-2
		c-1.3-0.5-2.6-1-4-1.5c0.4,0,0.9,0.1,1.3,0.1c24.5,1,36.4,0.1,46.9-0.9c8.3-3.1,50.8-3.4,24.8-9.2c0,0,0,0-0.1,0
		c4.7-0.4,9.2-0.7,13.9-1.1c1.6-1.6,10.5-2.4,27.3-2.4c-2.8-1-5.5-1.9-8.2-2.9c1.6-0.1,3-0.3,4.5-0.4c3.8-0.4,5.9-1,6.4-1.7
		c-1.8-0.6-3.7-1.3-5.6-1.9c42.8,0.3,4.1-4.3-4.5-7.1c-9.1-1.5-18-3-27.1-4.4l-1.8,0c-0.3-0.1-0.6-0.2-1-0.4
		c0.9,0.1,1.9,0.3,2.8,0.4c33,0.1,117.1,12.3,108.7,2.7c-22.1,1-41.2-2.1-61.4-4.2c-3.5-1.1-6.9-2.3-10.8-3.4
		c19.3,0.3,31.3-0.1,27.4-2.3c3.6-0.3,7.3-0.7,11-1c98.1,8.6,177.3,18,238.2,27.1c1.8,0.3,3.6,0.5,5.4,0.8c0.4-0.3,0.3-0.6-0.3-1
		c10.8-0.2,21.6-0.3,32.5-0.5c33.7,0.7,60.6,4,88.4,7c0.5,1.8-43.7,0.4-2,5.2c40.8,4.6,15.7,5.5,2.3,7c-13.1,0-20,0.3-22.1,1
		c5.4,1.4,10.2,2.8,14.4,4.1c3.2,0.5,6.9,1,10.8,1.6c13.4,3.6,43.7,8.2,69.1,7.3c23.9-0.9,4.5-6.1-28.1-10.7
		c-12.7-3.5,12.8-4,17-6.1c21.5,1.2,43.1,2.4,67.8,3.8c-79.6-11.9-71.1-14,36.9-12.5c27.1,0.4,34.8-1.6,26.7-4.7
		c15.9,0.6,29.3,0.8,33.3-0.4c15.7,0.6,29,0.8,32.9-0.4c17.5,0.1,12.2-3.7,43.7-0.8c78.8,7,92.8,3.6,107.9,0.1
		c11.2-0.1,22.3-0.3,33.4-0.4c29.5,1.6,50.7,1.5,71.5,1.2c28.8,4.4,10.9,6.2,8.4,8.8c-17.4-0.4-47.6-2.6-42.4-0.2
		c5.6,2.5,23.5,2.4,32.9,1.9c5.2-0.3,7.1-1,10.8-1.6c55.1,1.7,50.9-2.5,48.3-6.5c52.7,0.7,78.8-1.9,107.8-4.2
		c12.2-1.8,24.5-3.6,36.8-5.3c15-0.5,30.1-1.1,45-1.7c42.6,1.1,64.7,0,55.3-4.5c34.5,0.4,80.8,2.6,81.2-1.8
		c18.7-3.3,92.5-0.5,84.8-6.7c4.1-0.4,8-0.7,11.7-1.1c15-0.7,29.9-1.3,44.6-2c14.1-1.1,28.5-2.2,42.6-3.3
		c10.6-0.2,21.2-0.3,31.8-0.5c36.3,3,59.3,3.2,72.2,1.3c31.3-0.5,31.3-4.8,74.1-3.9c4.5-5.9,91.1-5.2,42-15.4
		c-2.8-0.7-5.5-1.4-8.1-2.1c15.5-2.7,54.2-3.4,45.4-8.4c-0.1-1.3,10.9-2.2-10-4.1c-28.1-2.6-29.4-0.6-34.3,0.6l-0.5,0
		c-18.8-0.2-37.3-0.4-56.1-0.7c3-1.4,6-2.9,9.1-4.3c31.9,0.1,22.4-3.8,36.8-5.4c10.7-3.2,52.6-5.1-37.2-12.2
		c-11.9-2.1-23.8-4.3-35.6-6.4c-10.9,0.1-21.7,0.2-32.7,0.4c-8.5-0.9-17.2-1.8-25.9-2.7c-5-1.9-10-3.9-15-5.8l0.3,0.5l-5.5-0.2
		c0-0.2,0-0.4-0.1-0.6c1.7,0.1,3.5,0.2,5.2,0.3c6.5-0.2,9.3-0.6,9.9-1.1c18.1,1,29.5,0.6,32.6-0.9c4.1-1.9-17.6-2.4-30.8-3.2
		c-1-0.6-1.7-1.2-2.4-1.7c45.2,0.6,44.8-3.2,47.7-6.7c-1.3-0.6-1.8-1.1-1.4-1.6c36.7,1.5,14.4-6.8,81.9-0.2
		c42,0.7,44.6-2.8,51.3-5.5c11.3-4.9,34.2-8.9,25.8-15.2c4.2-0.4,8.5-0.9,12.8-1.3c39.3,1.4,56.5,0.2,56.9-3.1
		c-3.5-1.2-7.3-2.4-11-3.7c-6.8-2.5-13.8-5-20.9-7.5c3.2-0.2,4-0.5,2.5-1c21.3-1,16.8-3.9,15.1-6.7c6.7-1.5,13.8-2.9,20.6-4.4
		c5.7,0.2,11.1,0.4,16.7,0.6c21.1,1.4,47.9,4.6,57.9,2.3c37.5,1.5,34.5-1.4,41.8-3.3c0.2-2.8-9-6.1-27.1-9.7c3.2-0.5,6.3-1,9.8-1.5
		c36.4,3.1,30.1,5.8,52.5,9.6C11660.9,607.7,11627.4,601.7,11633.5,598.2 M4445.4,87.9c-0.3,0-0.7,0-1,0l0.2,0c-0.1,0-0.3,0-0.4,0
		c0.1,0,0.1,0,0.2,0c-0.1,0-0.1,0-0.2-0.1C4444.6,87.9,4445,87.9,4445.4,87.9 M4252.4,88.9c0.9,0.1,1.6,0.3,2.2,0.5
		c-0.9,0-1.8-0.1-2.6-0.1C4252.1,89.1,4252.3,89,4252.4,88.9 M327.6,124.9l0.9,0.1c-1.1,0.2-2.4,0.4-3.7,0.5c0,0,0,0,0,0
		c1.2-0.2,2.5-0.4,3.7-0.5c-3.9-0.2-7.4-0.3-10.4-0.3c-2.1-0.2-4.2-0.5-6.5-0.7c-12.3-1-23.3-1.5-33.5-1.6c-1.1,0-2.1,0-3,0.1
		c-6.6-1.5-13.9-2.8-27.5-3.7c0.2-1.3-0.6-2.7-9.9-4.6c13.7,1.6,28.3,3,45.2,3.8c0.6,0,1.2,0,1.8,0.1c15.6,1.4,31.3,1.9,47.1,2.6
		c2.1,1,4.5,2,6.6,3C334.8,124,331.2,124.4,327.6,124.9 M116.1,227.9c-0.3,0-0.6-0.1-0.8-0.1l0.7,0.1c-1-0.1-1.9-0.2-2.8-0.2
		c1.6,0,3.2,0,4.7,0c-0.6,0.1-1.2,0.2-1.9,0.2C116,227.9,116,227.9,116.1,227.9 M180.1,236.7c-0.7-0.1-1.3-0.2-2-0.3
		c1,0,2,0.1,3,0.1C180.8,236.5,180.4,236.6,180.1,236.7 M415.3,276.4c-0.2-0.1,0.9-0.2,2.5-0.2C416.9,276.3,416,276.4,415.3,276.4
		 M519.8,245.1c-7.8-0.9-12.9-1.6-15.9-2.1c5.8,0.4,11.6,1.1,17.5,2.2C520.9,245.2,520.3,245.1,519.8,245.1 M540.1,221
		c-2.5-0.6-4.8-1.2-6.6-1.8C537.9,220,541.9,220.7,540.1,221 M693.9,364.6c0.8,0.1,1.6,0.1,2.4,0.2c0.4,0,0.8,0.1,1.2,0.1
		c0.4,0,0.8,0,1.2,0.1c4.5,0.4,8.8,0.7,12.9,1C705.7,365.6,699.8,365.2,693.9,364.6 M751.1,274.6c-0.6-0.1-1.2-0.2-1.8-0.3
		c1.7-0.5,3.1-1,4-1.5c6.8,1,12.6,1.8,18.2,2.5C764.9,275.2,758.1,274.9,751.1,274.6 M802.2,96.2c-0.8-0.1-1.7-0.2-2.6-0.3
		c1,0.1,2,0.1,3,0.2C802.5,96.1,802.4,96.1,802.2,96.2 M815,326.6c-0.3-0.1-0.5-0.1-0.8-0.2l0.1,0c0.6,0,1.3,0.1,1.9,0.1
		C815.9,326.5,815.3,326.5,815,326.6 M823.6,514.1c1.1,0,2.2,0,3.3,0.1c0.3,0,0.6,0.1,0.9,0.1C826.3,514.2,824.9,514.2,823.6,514.1
		 M844.9,492.3c1.1,0,2-0.1,3-0.1c0.4,0.2,0.9,0.3,1.3,0.5C847.8,492.5,846.4,492.4,844.9,492.3 M871,457.8
		c-0.5-0.1-0.9-0.1-1.5-0.2l1.8,0.1C871.2,457.7,871.1,457.8,871,457.8 M919.7,316c2,0,3.4,0,5.7,0c-0.1,0.1,0.4,0.2,0.5,0.3
		C923.9,316.2,921.9,316.1,919.7,316 M1014.2,251.3c1.1,0,2.2,0.1,3.3,0.1c0.2,0.1,0.4,0.3,0.6,0.4
		C1016.6,251.7,1015.7,251.5,1014.2,251.3 M1029.8,412.8c4.3,0.1,7.8,0.1,10.7,0.1c0.6,0.2,1.1,0.5,1.6,0.7
		C1038.2,413.3,1034.3,413,1029.8,412.8 M1122.3,667c-5.9-1-13.9-2-23.6-3c2.5-0.1,4.5-0.2,6.2-0.4
		C1110.8,664.7,1116.3,666,1122.3,667C1122.3,667,1122.3,667,1122.3,667 M1139.9,93.1c0.5,0,0.9-0.1,1.3-0.1c0.3,0.1,0.7,0.2,1,0.4
		C1141.5,93.2,1140.7,93.2,1139.9,93.1 M1225.5,345.9c0.7,0,1.3,0,1.8,0c0.2,0.1,0.2,0.1,0.5,0.2
		C1227,346.1,1226.2,346,1225.5,345.9 M1346.5,221.8c-0.7-0.1-1.5-0.2-2.2-0.3c1.2,0.1,2.4,0.2,3.7,0.3
		C1347.5,221.8,1347,221.8,1346.5,221.8 M1575.1,729.2c-0.5,0-1,0.1-1.5,0.1c0.8-0.1,1.6-0.3,2.4-0.4
		C1575.6,729,1575.4,729.1,1575.1,729.2 M1628.1,242.5c-0.9-0.2-1.7-0.4-3-0.5c-1.1-0.1-1.6-0.2-2.3-0.2c-0.2-0.1-0.2-0.1-0.5-0.2
		c4.3,0.3,8.2,0.5,11.4,0.7C1631.4,242.3,1629.9,242.4,1628.1,242.5 M2361.2,800.4c-0.8-0.1-1.5-0.1-2.3-0.2c0.7,0,1.3,0.1,2,0.1
		l-0.4-0.1c0.2,0,0.5,0,0.7,0c-0.1,0-0.2,0-0.3,0C2361,800.3,2361.1,800.3,2361.2,800.4 M2730.1,798.9c-1.6-0.3-2.8-0.5-3.8-0.8
		c1.7,0.1,3.3,0.1,5,0.2C2730.8,798.5,2730.4,798.7,2730.1,798.9 M8940.4,41.1c-0.6,0-1.2,0-1.8-0.1l0.4,0c-0.2,0-0.5,0-0.7,0
		c0.1,0,0.2,0,0.3,0c-0.1,0-0.2-0.1-0.3-0.1C8939,40.9,8939.7,41,8940.4,41.1 M8791.8,95c-0.4,0-0.8,0.1-1.2,0.1
		c-1-0.1-2-0.2-2.9-0.2C8789,94.9,8790.4,95,8791.8,95 M8615,82c-1.3-0.1-2.5-0.2-3.7-0.3C8612.6,81.8,8613.8,81.8,8615,82
		C8615.1,81.9,8615,81.9,8615,82 M8611.1,42.6c1.5,0.2,2.7,0.5,3.7,0.8c-1.5-0.1-3-0.1-4.5-0.2C8610.7,43,8610.9,42.8,8611.1,42.6
		 M7879.6,73.7c0.3,0.1,0.7,0.2,1,0.4c-0.8-0.1-1.6-0.1-2.4-0.2C7878.8,73.8,7879.2,73.7,7879.6,73.7 M7540.9,76.8
		c-0.1,0-0.3,0.1-0.4,0.1c-0.8-0.1-1.7-0.2-2.6-0.3C7539,76.7,7540,76.8,7540.9,76.8 M6985.9,99.5c0.2-1.3-0.6-2.7-9.9-4.6
		c13.7,1.6,28.3,3,45.2,3.8c0.6,0,1.2,0,1.8,0.1c14.7,1.3,29.4,1.8,44.3,2.4h-63.9C6998.8,100.5,6993.2,99.9,6985.9,99.5
		 M2202.1,60.3c-0.6,0-1.2,0-1.8-0.1l0.4,0c-0.2,0-0.5,0-0.7,0c0.1,0,0.2,0,0.3,0c-0.1,0-0.2-0.1-0.3-0.1
		C2200.7,60.2,2201.4,60.3,2202.1,60.3 M1876.7,101.2c-1.3-0.1-2.5-0.2-3.7-0.3C1874.3,101,1875.5,101.1,1876.7,101.2
		C1876.7,101.2,1876.7,101.2,1876.7,101.2 M1872.8,61.9c1.5,0.2,2.7,0.5,3.7,0.8c-1.5-0.1-3-0.1-4.5-0.2
		C1872.3,62.3,1872.6,62.1,1872.8,61.9 M9616.3,636.4c-1.2,1-8.6,1.1-18.3,0.7c4-0.5,7.6-1.2,11.8-2.4
		C9614.5,635.2,9617.1,635.8,9616.3,636.4 M9820.1,582.9c2.7-0.1,4.5-0.2,6.5-0.3c1,0.2,1.7,0.4,3.1,0.6c1.2,0.1,1.7,0.2,2.4,0.3
		c0.2,0.1,0.1,0.1,0.5,0.2C9827.9,583.4,9823.6,583.1,9820.1,582.9 M9981.1,463.3c-0.2-0.1-0.9-0.2-1.1-0.3c1.5,0.2,2.4,0.2,3.8,0.4
		C9982.9,463.3,9982,463.3,9981.1,463.3 M10132.3,605.6c0.5,0,1.1,0,1.6,0c0.8,0.1,1.6,0.2,2.4,0.4
		C10134.9,605.8,10133.6,605.7,10132.3,605.6 M10147.8,365.4c-0.4-0.3-1.1-0.7-1.5-1c1.4,0.3,3.2,0.7,3.8,1
		C10149.4,365.3,10148.6,365.4,10147.8,365.4 M10281.3,336.2c-0.5-0.2-1.3-0.4-2.2-0.7c2.7,0.2,5.4,0.5,8.2,0.7
		C10285.3,336.2,10283.3,336.2,10281.3,336.2 M10305.6,746.5c-0.3-0.1-0.6-0.3-1-0.4c0.9,0.1,1.7,0.2,2.5,0.2
		C10306.6,746.4,10306.1,746.5,10305.6,746.5 M10325,470.1c-0.2-0.1-0.1-0.1-0.4-0.2c0.8,0.1,1.7,0.1,2.4,0.2
		C10326.2,470,10325.5,470.1,10325,470.1 M10341.7,256.4c1.2,0,2-0.1,2.9-0.1c1.2,0.2,2,0.3,3.1,0.5
		C10345.6,256.7,10343.9,256.6,10341.7,256.4 M10343.8,103.7L10343.8,103.7C10343.7,103.6,10343.7,103.6,10343.8,103.7
		c0.2-0.1,0.6-0.3,0.9-0.4c1.6,0.1,3.1,0.3,4.6,0.4C10347.4,103.7,10345.6,103.7,10343.8,103.7 M10416.7,212.4c0.5,0,1,0,1.5-0.1
		c1.4,0.1,2.7,0.2,4,0.3C10420.4,212.5,10418.6,212.5,10416.7,212.4 M10420.7,178.4c-0.4-0.2-0.6-0.4-0.8-0.6c3.8,0.3,6.8,0.7,9.3,1
		C10426.5,178.7,10423.8,178.5,10420.7,178.4 M10517.6,573.5c-0.2-0.2-0.3-0.3-0.5-0.5c1.6,0.2,2.6,0.4,4.1,0.6
		C10520,573.7,10518.8,573.6,10517.6,573.5 M10522.6,119.8c-0.4-0.1-0.7-0.2-1.1-0.3c1,0,2.2,0,3.3,0c0.6,0.1,1.3,0.1,1.9,0.2
		C10525.4,119.7,10524,119.8,10522.6,119.8 M10565.9,397.2c-0.6-0.3-1-0.5-1.5-0.8c4.3,0.3,8.5,0.6,13.5,0.9
		C10573,397.2,10569.1,397.1,10565.9,397.2 M10608.6,141.8c-0.1,0-0.2-0.1-0.3-0.1l-4.2-0.3c0.3,0,0.5,0,0.8-0.1
		c1.1,0.1,2.3,0.3,3.4,0.4c0.4,0,0.9,0.1,1.3,0.1C10609.3,141.8,10609,141.8,10608.6,141.8 M10602.2,124.6c-5.5-1.2-11-2.3-23.3-3.1
		c6.5-0.4,9.7-1.2,11.6-2.1c6.2,1.1,14.8,2.1,25.2,3.3C10607.4,122.9,10603.1,123.6,10602.2,124.6 M10650.9,503.1
		c0.1-0.1-0.4-0.2-0.4-0.3c2.2,0.1,4.4,0.2,6.8,0.3C10655,503.1,10653.4,503.1,10650.9,503.1 M10688,743.5c0.2,0,0.3-0.1,0.5-0.1
		c0.9,0.1,1.9,0.2,2.8,0.3C10690.2,743.6,10689.1,743.6,10688,743.5 M10777.2,348.2c0.5,0.1,1,0.1,1.6,0.2c-0.7,0-1.3,0-2-0.1
		C10776.9,348.3,10777,348.3,10777.2,348.2 M10780.5,491.9c-0.7,0-1.5-0.1-2.1-0.2c0.4,0,1.2,0,1.5-0.1c0.3,0.1,0.5,0.1,0.8,0.2
		L10780.5,491.9z M10822.3,310.6c-1.2,0-2.3,0.1-3.4,0.2c-0.4-0.2-0.8-0.4-1.2-0.6C10819.2,310.4,10820.7,310.5,10822.3,310.6
		 M10824.8,550.4c-7.1-1.1-13.3-2-19.3-2.7c7.3,0.3,14.8,0.5,22.6,0.8c0.6,0.1,1.3,0.2,1.9,0.3
		C10827.8,549.3,10826.1,549.9,10824.8,550.4 M10852.6,286.7c-0.4,0-0.6-0.1-1-0.1c1.7,0.1,3.3,0.1,4.7,0.2
		C10855.1,286.8,10853.9,286.7,10852.6,286.7 M10931,450.1c-0.4,0-0.8-0.1-1.2-0.1c-0.4,0-0.9-0.1-1.3-0.1c-4.8-0.4-9.5-0.8-14-1.2
		c6.4,0.4,12.8,1,19.2,1.6C10932.7,450.2,10931.9,450.1,10931,450.1 M11040.7,607.3c2.5,0.7,4.8,1.3,6.6,1.9
		C11042.7,608.5,11038.6,607.7,11040.7,607.3 M11072.9,581c0.5,0,1.1,0,1.7,0c8.4,1,13.8,1.7,16.9,2.4
		C11085.3,582.9,11079,582.1,11072.9,581 M11234.7,712.6c1.3-0.2,2.8-0.4,4.4-0.6c0,0,0,0,0,0
		C11237.6,712.2,11236.2,712.4,11234.7,712.6c4.3,0.2,8.2,0.3,11.6,0.4c2.2,0.3,4.5,0.5,7,0.8c13.4,1.1,25.6,1.6,37,1.8
		c1.2,0,2.4,0,3.4-0.1c6.7,1.6,14.4,3.1,29.2,4c-0.8,1.5-0.6,3,9,5c-14.7-1.8-30.5-3.3-49.1-4.2c-0.7,0-1.3,0-1.9-0.1
		c-16.9-1.6-34.4-2.1-51.8-2.9c-1.9-1.1-4.1-2.2-6.1-3.3c4.2-0.4,8.5-0.9,12.8-1.3L11234.7,712.6z M11203.7,547.1c1,0,2-0.1,2.9-0.2
		C11206.8,547,11205.5,547.1,11203.7,547.1 M11451.7,590.8c0.4-0.1,0.8-0.1,1.2-0.2c0.7,0.1,1.4,0.2,2.2,0.3
		C11453.9,590.9,11452.8,590.9,11451.7,590.8 M11518.8,600.6c0.8-0.1,1.4-0.2,2.3-0.3c0,0-0.1,0-0.1,0c0.3,0,0.6,0.1,0.9,0.1
		l-0.8-0.1c1.1,0.1,2,0.2,3,0.3C11522.2,600.6,11520.5,600.6,11518.8,600.6"/>
</g>
</svg>
