<?xml version="1.0" encoding="utf-8"?>
<!-- Generator: Adobe Illustrator 21.1.0, SVG Export Plug-In . SVG Version: 6.00 Build 0)  -->
<svg version="1.1" id="Слой_1" xmlns="http://www.w3.org/2000/svg" xmlns:xlink="http://www.w3.org/1999/xlink" x="0px" y="0px"
	 viewBox="0 0 551.2 146.6" style="enable-background:new 0 0 551.2 146.6;" xml:space="preserve">
<style type="text/css">
	
		.st0{clip-path:url(#SVGID_2_);fill:none;stroke:#FF3366;stroke-linecap:round;stroke-linejoin:round;stroke-miterlimit:10;stroke-dasharray:1,10;}
</style>
<g>
	<defs>
		<rect id="SVGID_1_" width="551.2" height="146.6"/>
	</defs>
	<clipPath id="SVGID_2_">
		<use xlink:href="#SVGID_1_"  style="overflow:visible;"/>
	</clipPath>
	<path class="st0" d="M268.4,6.5c42.3-0.5,154.1-1.9,227.2,22c58.3,19.1,55.4,42.2,54.8,45.8c-5.9,32.5-101.2,66.7-236.1,71.3
		c-142.7,4.9-247.4-26.1-282-53.5c-7-5.5-42-33.1,10.6-57C101.5,8.5,223.3,7,268.4,6.5z"/>
	<path class="st0" d="M144.9,17.6c35.8-6.6,130.4-23.9,237-14.2c85,7.8,124.2,27.9,130.1,31.1c53.4,28.5,32.2,71.4-76.7,94.9
		c-115.2,24.8-262,13.6-341.4-4.7c-16.1-3.7-96.2-22.1-93.4-50.1C3.6,43.5,106.7,24.6,144.9,17.6z"/>
</g>
</svg>
