<?xml version="1.0" encoding="utf-8"?>
<!-- Generator: Adobe Illustrator 21.1.0, SVG Export Plug-In . SVG Version: 6.00 Build 0)  -->
<svg version="1.1" id="Слой_1" xmlns="http://www.w3.org/2000/svg" xmlns:xlink="http://www.w3.org/1999/xlink" x="0px" y="0px"
	 viewBox="0 0 424.5 112.7" style="enable-background:new 0 0 424.5 112.7;" xml:space="preserve">
<style type="text/css">
	.st0{clip-path:url(#SVGID_2_);fill:none;stroke:#FF3366;stroke-linecap:round;stroke-miterlimit:10;}
</style>
<g>
	<defs>
		<rect id="SVGID_1_" width="424.5" height="112.7"/>
	</defs>
	<clipPath id="SVGID_2_">
		<use xlink:href="#SVGID_1_"  style="overflow:visible;"/>
	</clipPath>
	<path class="st0" d="M199.8,0.8c33.1-0.5,120.8-1.7,178.2,16.6c45.7,14.6,43.4,32.4,42.9,35.2c-4.6,25-79.5,51.5-185.3,55.3
		c-111.9,4-193.9-19.7-221.1-40.7C9,62.9-18.4,41.7,22.9,23.2C68.9,2.7,164.4,1.3,199.8,0.8z"/>
	<path class="st0" d="M206.6,2.6C239.7,4.4,327.3,9,383.2,31c44.6,17.6,41.1,35.2,40.4,38c-6.3,24.7-82.7,46.1-188.5,42.8
		C123.2,108.3,43,79.2,17.3,56.4c-5.2-4.6-31.1-27.6,11.3-43.3C75.9-4.3,171.3,0.8,206.6,2.6z"/>
</g>
</svg>
