<?xml version="1.0" encoding="utf-8"?>
<!-- Generator: Adobe Illustrator 21.1.0, SVG Export Plug-In . SVG Version: 6.00 Build 0)  -->
<svg version="1.1" id="Слой_1" xmlns="http://www.w3.org/2000/svg" xmlns:xlink="http://www.w3.org/1999/xlink" x="0px" y="0px"
	 viewBox="0 0 440.4 362.4" style="enable-background:new 0 0 440.4 362.4;" xml:space="preserve">
<style type="text/css">
	.st0{clip-path:url(#SVGID_2_);fill:#FF3366;}
	.st1{clip-path:url(#SVGID_2_);fill:none;stroke:#FF3366;stroke-linecap:round;stroke-miterlimit:10;}
</style>
<g>
	<defs>
		<rect id="SVGID_1_" width="440.4" height="362.4"/>
	</defs>
	<clipPath id="SVGID_2_">
		<use xlink:href="#SVGID_1_"  style="overflow:visible;"/>
	</clipPath>
	<path class="st0" d="M318.3,273.7l-86.1-149.1c-2.5-4.3-7.1-7-12.1-7c-5,0-9.6,2.7-12.1,7L122,273.7c-2.5,4.3-2.5,9.6,0,13.9
		c2.5,4.3,7.1,7,12.1,7h172.1c5,0,9.6-2.7,12.1-7C320.8,283.3,320.8,278,318.3,273.7 M135.5,278.7l84.7-146.6l83,146.6H135.5z"/>
	<line class="st0" x1="220.2" y1="180.9" x2="220.2" y2="239.1"/>
	<rect x="212.7" y="180.9" class="st0" width="15" height="58.1"/>
	<path class="st0" d="M229.4,254.1c0,5.1-4.1,9.2-9.2,9.2c-5.1,0-9.2-4.1-9.2-9.2s4.1-9.2,9.2-9.2
		C225.3,244.9,229.4,249,229.4,254.1"/>
	<path class="st1" d="M144.1,193.2C152.5,121.2,88.3,52.9,2.9,46.3"/>
	<polyline class="st1" points="12.8,42 1.3,46.3 12.4,51.3 	"/>
	<path class="st1" d="M320.2,260.5c53.9-0.6,110.7,47.3,117.5,99"/>
	<polyline class="st1" points="439.9,349 438.1,361.1 430.9,351.3 	"/>
	<path class="st1" d="M265.7,151.7C257.3,79.6,321.4,11.4,406.8,4.8"/>
	<polyline class="st1" points="396.9,0.5 408.4,4.8 397.4,9.8 	"/>
</g>
</svg>
