<svg id="Слой_1" xmlns="http://www.w3.org/2000/svg" xmlns:xlink="http://www.w3.org/1999/xlink" viewBox="0 0 291.1 96.3">
    <style>
        .st0{clip-path:url(#SVGID_2_);fill:#010101}.st1{fill:#e82022}.st1,.st2{clip-path:url(#SVGID_2_)}.st3{fill:#e8e8e8}
    </style>
    <defs>
        <path id="SVGID_1_" d="M0 0h291.1v96.3H0z"/>
    </defs>
    <clipPath id="SVGID_2_">
        <use xlink:href="#SVGID_1_" overflow="visible"/>
    </clipPath>
    <path class="st0" d="M115.7 3.7H74.3c-.8 0-1.5-.7-1.5-1.5v-.7c0-.8.7-1.5 1.5-1.5h41.4c.8 0 1.5.7 1.5 1.5v.7c0 .8-.7 1.5-1.5 1.5"/>
    <path class="st0" d="M188.7 23.8c0-12 11.3-21.7 25.1-21.7 6.9 0 13.3 2.4 18 6.5.7.6.7 1.2 0 1.8-.7.6-1.4.6-2.1 0-4.2-3.8-9.7-5.7-15.8-5.7-12.3 0-22.1 8.5-22.1 19.1 0 10.6 9.8 19.2 22.1 19.2 6.1 0 11.7-1.9 15.8-5.7.7-.6 1.4-.6 2.1 0 .7.6.7 1.2 0 1.8-4.7 4.2-11.1 6.5-18 6.5-13.9 0-25.1-9.9-25.1-21.8"/>
    <path class="st0" d="M213.8 45.9c-14 0-25.6-10-25.6-22.1 0-12.2 11.4-22.1 25.6-22.1 7 0 13.4 2.4 18.3 6.7.4.4.6.7.6 1.2 0 .4-.2.8-.6 1.2-.8.7-1.9.7-2.7 0-4.1-3.7-9.4-5.6-15.5-5.6-12 0-21.6 8.4-21.6 18.7 0 10.4 9.7 18.9 21.6 18.9 6.1 0 11.4-1.9 15.5-5.6.8-.7 1.9-.7 2.7 0 .4.4.6.7.6 1.2 0 .4-.2.8-.6 1.2-4.9 3.9-11.3 6.3-18.3 6.3m0-43.5c-13.6 0-24.7 9.6-24.7 21.3 0 11.8 11.1 21.4 24.7 21.4 6.8 0 13-2.3 17.7-6.5.2-.2.4-.4.4-.6 0-.1-.1-.4-.4-.6-.5-.4-1-.4-1.5 0-4.2 3.9-9.8 5.9-16.1 5.9-12.4 0-22.5-8.8-22.5-19.6s10.1-19.5 22.5-19.5c6.3 0 11.9 2 16.1 5.9.5.4 1 .4 1.5 0 .2-.2.4-.4.4-.6 0-.2-.1-.4-.4-.6-4.7-4.2-11-6.5-17.7-6.5"/>
    <path class="st1" d="M200.5 42.2l2-2c-1.2-.7-2.4-1.3-3.4-2.2l-1.9 1.9c1 1 2.1 1.7 3.3 2.3"/>
    <path class="st1" d="M200.6 42.7l-.3-.1c-1.2-.7-2.4-1.4-3.5-2.3l-.3-.2 2.5-2.5.3.2c1 .8 2.2 1.6 3.3 2.2l.4.2-2.4 2.5zm-2.9-2.7c.9.7 1.8 1.3 2.7 1.8l1.4-1.4c-1-.5-1.9-1.1-2.7-1.8l-1.4 1.4z"/>
    <path class="st0" d="M290.3 2l-.7-.3c-.7-.4-1.6-.1-2 .7l-18.7 38.2-18.7-38.2c-.4-.7-1.3-1-2-.7l-.7.3c-.7.4-1 1.3-.7 2L267 45.1c.1.4.4.6.8.7.1.1.4.1.5.1h1.2c.2 0 .4-.1.6-.1.3-.1.6-.4.7-.7l20.2-41c.4-.8.1-1.7-.7-2.1"/>
    <path class="st0" d="M99.5 23.8H74.3c-.8 0-1.5-.7-1.5-1.5v-.7c0-.8.7-1.5 1.5-1.5h25.2c.8 0 1.5.7 1.5 1.5v.7c0 .8-.7 1.5-1.5 1.5"/>
    <path class="st0" d="M115.7 44.4H74.3c-.8 0-1.5-.7-1.5-1.5v-.7c0-.8.7-1.5 1.5-1.5h41.4c.8 0 1.5.7 1.5 1.5v.7c0 .8-.7 1.5-1.5 1.5"/>
    <path class="st1" d="M158.7 19.9L175.3 3c.6-.6.6-1.6 0-2.1l-.5-.5c-.6-.6-1.6-.6-2.1 0l-16.6 16.9 2.6 2.6z"/>
    <path class="st0" d="M151.4 21.3c-6.5 6.7-13.1 13.3-19.7 20-.6.6-.6 1.6 0 2.1l.5.5c.6.6 1.6.6 2.1 0 6.5-6.7 13.2-13.4 19.7-20.1-.8-.8-1.7-1.6-2.6-2.5"/>
    <path class="st0" d="M131.7 3l40.9 40.9c.6.6 1.5.6 2.1 0l.5-.5c.6-.6.6-1.5 0-2.1L134.3.4c-.6-.6-1.5-.6-2.1 0l-.5.6c-.5.6-.5 1.5 0 2"/>
    <path class="st2" d="M12.4 42.4c2.5-.8 4.6-2.6 5.5-4.7.6-1.4.6-2.9.1-4-.7-1.3-2.2-1.5-3.3-1.5-2.6.1-5.3 1.2-8.1 3.4-.3.2-.5.4-.8.7 0-.1.1-.1.1-.2C6.9 34.1 8 32 9 30c.4-.8.8-1.6 1.3-2.4 3.4-6.1 6.7-11.5 10.1-16.4.5-.7 1.1-1.5 1.6-2.2.5-.7 1.1-1.5 1.6-2.2.4-.6.8-1.2 1.3-1.8.7-.9 1.4-1.8 2-2.8.1-.2.2-.5 0-.8-.1-.3-.4-.5-.7-.6-.3 0-.5.1-.6.2-1.1 1.1-2 2.2-2.8 3.4l-.4.6c-1.2 1.4-2.1 2.7-3 4-2 2.7-3.8 5.5-5.5 8.1-1.7 2.7-3.4 5.6-5 8.4-.8 1.5-1.6 3-2.3 4.5-.8 1.5-1.5 2.9-2.3 4.4-1.8 3.4-3.2 6.5-4.2 9.4-.1.5.2 1.1.7 1.3.1 0 .3.1.4.1.4 0 .7-.2.9-.6.5-1 1.2-2.1 2-3.2 0 .4.2.7.5.9 2.6 1.5 6.3.6 7.8.1m.1-7.7c1.1-.3 2.2-.6 3.2-.3.2.1.3.2.4.4.2.5.1 1.2-.2 1.8-.5 1.4-1.9 2.7-3.9 3.5-2.2.8-4.7.7-6.9.5h-.4c1.9-2.5 4.4-4.9 7.8-5.9"/>
    <path class="st2" d="M50.5 38c-.2-.4-.7-.6-1.1-.4-.5.2-.9.4-1.4.7-1.6.7-3.2 1.5-4.8 2.5-2.2 1.4-4.1 2.8-5.9 4.1-2.1 1.6-3.9 3.1-5.5 4.6 1.7-5.5 3.5-9.9 5.5-13.7.5-1 1.1-2 1.7-3 .3-.5.1-1.1-.4-1.5-.5-.3-1.1-.2-1.5.3-3 4.7-6.6 8.6-10.8 11.5-.8.6-1.8 1.3-2.8 1.7-.9.2-1.7.3-2-.2-.2-.4-.1-1 .1-1.5.2-.6.5-1.2.8-1.9.5-1 1.1-2.1 1.9-3.2.9-1.3 1.9-2.6 2.9-3.8.5-.6 1-1.1 1.5-1.5l.9-.9c.3-.3.6-.6.9-.8l.3-.3-.1-.3c-.1-.2-.3-.4-.6-.4h-.2c-.7.3-1.4.6-2 1.1-.7.5-1.3 1-1.8 1.6-1.1 1.2-2.1 2.4-2.9 3.6-.8 1.1-1.7 2.4-2.4 3.8l-.2.3c-.6 1.2-1.4 2.8-1.1 4.2.2.9.6 1.6 1.4 1.9 1.4.7 3.4.2 4.7-.5 1.3-.6 2.4-1.5 3.6-2.3 1.3-1 2.3-2 3.3-2.9-1.7 4.1-3 8.3-4 11.7-.7.7-1.4 1.4-2 2.1C19.8 62.1 14.2 70 9.9 78.4c-1.3 2.6-2.4 5-3.1 7.4l-.1.4c-.6 2.1-1.3 4.4-1 6.7.1.8.4 2 1.4 2.7.6.5 1.4.8 2.3.8.3 0 .5 0 .8-.1 2.6-.4 4.4-2.6 5.5-4.2 2.7-3.5 4.5-7.7 6.2-11.8.3-.6.5-1.2.8-1.8 1.9-4.6 3.5-9.5 5.1-14.8.5-1.7 1-3.5 1.5-5.2.5-1.7 1-3.3 1.4-5 5.2-5.1 10.8-9.4 16.7-12.9.3-.1.5-.3.8-.5.6-.4 1.3-.8 2-1.1.4-.2.5-.6.3-1M27.1 58.2l-.6 2.2c-1.1 3.8-2.3 7.8-3.7 11.6-.7 2.2-1.6 4.5-2.9 7.3-.4.8-.7 1.6-1.1 2.5-.6 1.4-1.2 2.8-1.9 4.2-1 1.9-2.3 4.1-3.9 6-.7.8-1.4 1.5-2.4 1.9-.6.3-1.6.5-2.3 0-.6-.5-.6-1.2-.6-2 0-1.1.2-2.1.4-3.2.6-2.8 1.7-5.4 2.5-7.3 3.6-7.8 8.8-15.6 15.5-23.1l.7-.7c.2-.3.5-.5.7-.8-.1.4-.3.9-.4 1.4l.5.1-.5-.1z"/>
    <path class="st3" d="M-23 72.3h357v36H-23z"/>
</svg>
