<?xml version="1.0" encoding="utf-8"?>
<!-- Generator: Adobe Illustrator 21.1.0, SVG Export Plug-In . SVG Version: 6.00 Build 0)  -->
<svg version="1.1" id="Слой_1" xmlns="http://www.w3.org/2000/svg" xmlns:xlink="http://www.w3.org/1999/xlink" x="0px" y="0px"
	 viewBox="0 0 576 43.1" style="enable-background:new 0 0 576 43.1;" xml:space="preserve">
<style type="text/css">
	.st0{fill:#2d6965;}
</style>
<g>
	<path class="st0" d="M433.7-432.8c0-0.4-0.1-0.7-0.2-1.1c-0.1-0.3-0.1-0.6-0.3-0.9c-0.1-0.3-0.4-0.5-0.6-0.8
		c-0.2-0.3-0.4-0.6-0.7-0.8c-0.1-0.1-0.1-0.2-0.2-0.2l-97.1-76.1c-0.1-0.1-0.3-0.1-0.5-0.2c-0.2-0.1-0.4-0.3-0.6-0.4
		c-0.2-0.1-0.4-0.2-0.6-0.2c-0.3-0.1-0.5-0.1-0.8-0.2c-0.3,0-0.5-0.1-0.8-0.1c-0.1,0-0.2-0.1-0.3-0.1c-0.1,0-0.2,0-0.3,0.1
		c-0.3,0-0.5,0.1-0.7,0.1c-0.3,0-0.5,0.1-0.8,0.2c-0.2,0.1-0.4,0.1-0.6,0.2c-0.2,0.1-0.4,0.2-0.6,0.4c-0.1,0.1-0.3,0.1-0.4,0.2
		l-99.8,76.1c-0.1,0.1-0.1,0.2-0.2,0.2c-0.3,0.2-0.5,0.5-0.7,0.8c-0.2,0.3-0.4,0.5-0.6,0.8c-0.1,0.3-0.2,0.6-0.3,0.9
		c-0.1,0.4-0.2,0.7-0.2,1.1c0,0.1-0.1,0.2-0.1,0.3v84.3l-16.5-12.6c-2.1-1.6-4.9-1.4-6.9,0.1c-0.1,0-0.1,0-0.2,0.1l-57,43.6
		c-0.6,0.4-1,1-1.4,1.6c-0.2,0.2-0.3,0.4-0.4,0.6c-0.1,0.1-0.3,0.2-0.4,0.4c-0.1,0.1-0.1,0.3-0.2,0.4c-0.2,0.3-0.3,0.6-0.4,1
		c-0.1,0.4-0.2,0.7-0.2,1c0,0.2-0.1,0.3-0.1,0.4v81.1c0,1.9,1.1,3.7,2.8,4.6l55.6,30.7v26.1h-28.3c-3.1,0-5.5,2.4-5.5,5.3
		s2.5,5.3,5.5,5.3h199.8c3.1,0,5.5-2.4,5.5-5.3s-2.5-5.3-5.5-5.3h-35.2v-61.4l94.5-56.8c1.6-1,2.6-2.7,2.6-4.5v-140.8
		C433.8-432.7,433.7-432.8,433.7-432.8z M200.4-285.1l-43.7-27.2l43.7-33.3V-285.1z M211.4-243.1c0.7-0.1,1.3-0.4,1.9-0.7l41.5-26.7
		v36.5l-43.4,26.1V-243.1z M236.9-294.1v-75l88.8,53.5v30.6l-52.8-32.7c-0.1-5.4-4.4-9.7-9.8-9.7s-9.8,4.4-9.8,9.8s4.4,9.8,9.8,9.8
		c1.5,0,2.8-0.3,4.1-0.9l58.6,36.3v27.2L236.9-294.1z M325.6-328.1l-88.8-53.5V-430l88.8-67.7V-328.1z M336.7-325.9v-38.6l57.8-37.2
		c1.2,0.5,2.5,0.8,3.9,0.8c5.4,0,9.8-4.4,9.8-9.8c0-5.4-4.4-9.8-9.8-9.8s-9.8,4.4-9.8,9.8l0,0l-51.9,33.4v-120.2l86,67.4v48.9
		c-0.2,0.1-0.4,0.1-0.6,0.2L336.7-325.9z M225.8-334.8v43.8c0,1.9,1.1,3.7,2.8,4.6l16.6,9.2l-33.8,21.7v-90.2l14,10.7
		C225.6-334.9,225.7-334.8,225.8-334.8z M153.1-233.6v-68.2l47.3,29.4v14.8l-32.8-20.3c-2.6-1.6-6-0.9-7.6,1.6
		c-1.7,2.5-0.9,5.8,1.7,7.4l38.6,23.9c0.1,0,0.1,0,0.2,0.1v37.5L153.1-233.6z M211.4-169.1v-26.2l51.8-31.2c1.6-1,2.6-2.7,2.6-4.5
		v-34.8l59.8,33v63.7H211.4z M336.7-243.1v-70l86-55.4v73.6L336.7-243.1z"/>
	<path class="st0" d="M371.9-148.9h-166c-3.1,0-5.5,2.4-5.5,5.3s2.5,5.3,5.5,5.3h166c3.1,0,5.5-2.4,5.5-5.3S374.9-148.9,371.9-148.9
		z"/>
</g>
<path class="st0" d="M570.1-38.2H5.7c-3.1,0-5.7-2.5-5.7-5.7v-564.4c0-3.2,2.5-5.7,5.7-5.7h564.5c3.1,0,5.7,2.5,5.7,5.7v564.5
	C575.8-40.8,573.2-38.2,570.1-38.2z M10.2-48.5h555.3v-555.3H10.2V-48.5z"/>
<g>
	<g>
		<path class="st0" d="M18.6-0.4c7.6,0,12.1,3.9,12.1,11c0,4.5-1.8,7.6-5.2,9.3v0.2c4.6,1.3,6.8,4.8,6.8,10.4
			c0,7.3-5.2,11.5-13.2,11.5H1.6C0.4,42,0,41.6,0,40.4V1.1C0,0,0.4-0.5,1.6-0.5L18.6-0.4L18.6-0.4z M18,5H5.9v12.8H18
			c4.5,0,6.8-2.1,6.8-6.4C24.7,7.1,22.5,5,18,5z M19,23H5.9v13.5H19c4.7,0,7.1-2.3,7.1-6.7C26.1,25.5,23.6,23,19,23z"/>
		<path class="st0" d="M19.2,42.2H1.6c-1.3,0-1.8-0.5-1.8-1.8V1.1c0-1.3,0.5-1.8,1.8-1.8h17.1c7.9,0,12.4,4.1,12.4,11.2
			c0,4.5-1.7,7.6-5,9.4c4.4,1.4,6.6,5,6.6,10.5C32.6,37.7,27.5,42.2,19.2,42.2z M1.6-0.2c-1,0-1.3,0.3-1.3,1.3v39.3
			c0,1,0.3,1.3,1.3,1.3h17.6c8.1,0,12.9-4.2,12.9-11.3c0-5.5-2.2-8.9-6.6-10.1l-0.2-0.1v-0.5l0.1-0.1c3.4-1.6,5.1-4.7,5.1-9.1
			c0-6.8-4.3-10.7-11.9-10.7L1.6-0.2L1.6-0.2z M19,36.8H5.7v-14H19c4.7,0,7.3,2.5,7.3,7.1C26.3,34.5,23.9,36.8,19,36.8z M6.2,36.3
			H19c4.5,0,6.8-2.2,6.8-6.5c0-4.2-2.4-6.6-6.8-6.6H6.2V36.3z M18,18H5.7V4.7H18c4.7,0,7,2.3,7,6.7C25,15.8,22.6,18,18,18z
			 M6.2,17.5H18c4.4,0,6.5-2,6.5-6.1c0-4.2-2.1-6.2-6.5-6.2H6.2V17.5z"/>
	</g>
	<g>
		<path class="st0" d="M76.1-0.4c1.2,0,1.5,0.5,0.9,1.6L61.5,25v15.4c0,1.1-0.4,1.6-1.6,1.6h-2.7c-1.2,0-1.6-0.4-1.6-1.6V24.9
			L40.1,1.1c-0.5-0.8-0.3-1.6,0.9-1.6h3.3c1.9,0,2.4,0.1,3.1,1.4L58.7,19L70,1c0.7-1.3,1.1-1.4,3.1-1.4H76.1z"/>
		<path class="st0" d="M59.9,42.2h-2.7c-1.3,0-1.8-0.5-1.8-1.8V25L40,1.3c-0.3-0.5-0.4-1-0.2-1.3c0.1-0.2,0.4-0.6,1.3-0.6h3.3
			c2,0,2.5,0.1,3.3,1.5l11,17.7L69.8,0.9c0.8-1.4,1.3-1.5,3.3-1.5h3c0.7,0,1.1,0.2,1.3,0.5c0.2,0.3,0.1,0.8-0.2,1.4L61.8,25.1v15.3
			C61.8,41.7,61.3,42.2,59.9,42.2z M41.1-0.2c-0.4,0-0.7,0.1-0.8,0.3s0,0.5,0.2,0.8L56,24.7v15.6c0,1,0.3,1.3,1.3,1.3H60
			c1,0,1.3-0.3,1.3-1.3V24.8v-0.1L76.8,1C77,0.6,77.1,0.3,77,0.1c-0.1-0.2-0.4-0.3-0.9-0.3h-3c-2,0-2.2,0.1-2.9,1.2L58.7,19.4
			L47.3,1c-0.7-1.1-1-1.3-2.9-1.3L41.1-0.2L41.1-0.2z"/>
	</g>
	<g>
		<path class="st0" d="M121-1.3c8.3,0,12.9,2.9,16,9.1c0.5,1,0.2,1.7-0.9,2.1l-2.6,1.1c-1.2,0.5-1.5,0.4-2.1-0.8
			c-2.2-4.1-5.1-6-10.5-6c-6.8,0-10.2,2.3-10.2,6.7c0,3.2,1.9,4.8,5,5.7c2.3,0.7,3.8,0.9,6.7,1.2c3.5,0.4,5.5,0.7,8.5,1.8
			c1.5,0.6,2.7,1.3,3.6,2.1c1.8,1.6,3.2,4.4,3.2,8.2c0,8.1-6.1,13-16.9,13c-9,0-13.9-3.3-16.6-10.2c-0.4-1.1-0.2-1.6,1-2l2.5-0.9
			c1-0.4,1.6-0.2,2.1,1c2,4.5,5.7,6.7,11,6.7c7.3,0,11-2.4,11-7.4c0-2.4-1.1-4.1-3.3-5.1c-2.3-0.9-4-1.2-7.4-1.6
			c-3.2-0.3-4.6-0.5-7.5-1.3c-1.5-0.3-2.6-0.8-3.5-1.3c-2.8-1.5-5.5-4.4-5.3-9.4C104.8,3.7,110.7-1.3,121-1.3z"/>
		<path class="st0" d="M121,43.1c-8.8,0-14-3.2-16.9-10.4c-0.2-0.6-0.3-1.1-0.1-1.5c0.2-0.4,0.6-0.7,1.3-0.9l2.5-0.9
			c1.2-0.5,1.9-0.2,2.4,1.1c2,4.4,5.5,6.6,10.8,6.6c7.2,0,10.7-2.3,10.7-7.2c0-2.3-1-3.9-3.2-4.8c-2.3-0.9-4.1-1.2-7.4-1.6
			c-3.2-0.3-4.7-0.5-7.5-1.3c-1.3-0.3-2.6-0.7-3.6-1.3c-2.1-1.1-5.7-3.9-5.4-9.7c0-7.9,6.3-12.9,16.5-12.9c8.1,0,13,2.8,16.2,9.3
			c0.3,0.5,0.3,1,0.2,1.4c-0.2,0.4-0.5,0.8-1.2,1l-2.5,1.1c-1.3,0.5-1.8,0.4-2.4-0.9c-2.2-4.2-5.2-5.9-10.3-5.9
			c-6.6,0-9.9,2.2-9.9,6.5c0,2.7,1.5,4.5,4.8,5.4c2.2,0.7,3.7,0.9,6.7,1.2c3.5,0.4,5.5,0.7,8.5,1.8c1.4,0.6,2.6,1.3,3.7,2.1
			c2.1,1.9,3.3,5,3.3,8.4C138.1,38.2,131.7,43.1,121,43.1z M108.7,29.8c-0.2,0-0.4,0.1-0.7,0.2l-2.5,0.9c-0.6,0.2-0.9,0.4-1,0.6
			c-0.1,0.2-0.1,0.6,0.1,1.1c2.7,6.9,7.8,10,16.4,10c10.6,0,16.6-4.6,16.6-12.7c0-3.3-1.1-6.2-3.1-8c-1-0.8-2.1-1.5-3.5-2
			c-2.9-1.1-4.9-1.3-8.4-1.8c-3-0.3-4.5-0.5-6.8-1.2c-3.5-1-5.2-2.9-5.2-5.9c0-4.6,3.5-7,10.4-7c5.3,0,8.4,1.8,10.7,6.2
			c0.5,1,0.7,1.1,1.8,0.7l2.6-1.1c0.5-0.2,0.8-0.4,0.9-0.7c0.1-0.3,0.1-0.6-0.1-1c-3.2-6.4-7.7-9-15.7-9c-9.8,0-16,4.8-16,12.4
			c-0.3,5.5,3.1,8.1,5.2,9.2c1,0.6,2.2,1,3.5,1.3c2.8,0.7,4.3,0.9,7.5,1.2c3.3,0.4,5.2,0.7,7.5,1.6c2.4,1,3.5,2.7,3.5,5.3
			c0,5.1-3.8,7.7-11.2,7.7c-5.4,0-9.2-2.3-11.3-6.9C109.4,30.1,109.1,29.8,108.7,29.8z"/>
	</g>
	<g>
		<path class="st0" d="M189.1-0.4c1.2,0,1.6,0.4,1.6,1.6v39.3c0,1.1-0.4,1.6-1.6,1.6h-2.4c-1.2,0-1.6-0.4-1.6-1.6V19
			c0-3.3,0.4-7,1.1-11.2h-0.3c-1.2,3.1-2.8,6.4-4.9,10l-7.7,13.5c-0.4,0.8-1.1,1.1-1.9,1.1h-1.5c-0.8,0-1.5-0.4-1.9-1.1l-7.9-13.6
			c-1.8-3-3.3-6.3-4.6-9.9h-0.4c0.7,3.8,1,7.5,1,11.2v21.5c0,1.1-0.4,1.6-1.6,1.6h-2.3c-1.2,0-1.6-0.4-1.6-1.6V1.2
			c0-1.1,0.4-1.6,1.6-1.6h2.1c1.3,0,1.7,0.2,2.3,1.2l14,24.4l13.9-24.4c0.5-1,0.9-1.3,2.2-1.3L189.1-0.4L189.1-0.4z"/>
		<path class="st0" d="M189.1,42.2h-2.4c-1.3,0-1.8-0.5-1.8-1.8V18.9c0-3,0.3-6.5,0.9-10.2c-1.1,2.8-2.6,5.8-4.5,9.1l-7.7,13.5
			c-0.5,0.8-1.2,1.3-2.1,1.3H170c-0.9,0-1.7-0.4-2.1-1.3L160,17.7c-1.7-2.8-3.1-5.9-4.3-9.2c0.6,3.4,0.8,6.9,0.8,10.4v21.5
			c0,1.3-0.5,1.8-1.8,1.8h-2.3c-1.3,0-1.8-0.5-1.8-1.8V1.1c0-1.3,0.5-1.8,1.8-1.8h2.1c1.4,0,1.9,0.3,2.5,1.3l13.8,24l13.7-24
			c0.6-1.1,1.1-1.4,2.4-1.4h2.3c1.3,0,1.8,0.5,1.8,1.8v39.3C190.9,41.7,190.4,42.2,189.1,42.2z M185.7,7.4h0.8l-0.1,0.3
			c-0.7,4.1-1.1,7.9-1.1,11.2v21.5c0,1,0.3,1.3,1.3,1.3h2.4c1,0,1.3-0.3,1.3-1.3V1.1c0-1-0.3-1.3-1.3-1.3h-2.3c-1.2,0-1.5,0.2-2,1.1
			l-14.2,24.7L156.3,0.8c-0.5-0.9-0.9-1.1-2-1.1h-2.1c-1,0-1.3,0.3-1.3,1.3v39.3c0,1,0.3,1.3,1.3,1.3h2.3c1,0,1.3-0.3,1.3-1.3V18.8
			c0-3.8-0.3-7.6-1-11.2l-0.1-0.3h0.8l0.1,0.2c1.2,3.6,2.8,6.9,4.5,9.9L168,31c0.4,0.7,0.9,1,1.7,1h1.5c0.7,0,1.3-0.3,1.7-1
			l7.7-13.5c2.1-3.7,3.7-7,4.9-10L185.7,7.4z"/>
	</g>
	<g>
		<path class="st0" d="M240.6,40.4c0.4,1,0,1.6-1.1,1.6h-2.4c-1.9,0-2.5-0.2-2.9-1.4l-3.8-9.7h-18l-3.8,9.7c-0.4,1.1-1,1.4-2.9,1.4
			h-2.1c-1.1,0-1.5-0.5-1.1-1.6l15.8-39.6c0.3-0.9,1-1.3,2-1.3h2.4c1,0,1.7,0.4,2,1.3L240.6,40.4z M222.7,10.4
			c-0.7-2.1-1.1-4-1.1-5.6h-0.4l-0.1,0.8c-0.1,1-0.4,3.1-1,4.7l-6.2,15.8h14.7L222.7,10.4z"/>
		<path class="st0" d="M239.5,42.2h-2.4c-1.9,0-2.7-0.2-3.2-1.5l-3.7-9.6h-17.7l-3.7,9.6c-0.5,1.3-1.2,1.5-3.2,1.5h-2.1
			c-0.6,0-1.1-0.2-1.3-0.5s-0.2-0.8,0-1.4L218,0.7c0.3-1,1.1-1.5,2.2-1.5h2.4c1.1,0,1.9,0.5,2.2,1.4l15.8,39.7
			c0.2,0.6,0.2,1.1,0,1.4C240.6,42,240.1,42.2,239.5,42.2z M212.2,30.6h18.4l3.8,9.9c0.4,1,0.7,1.2,2.7,1.2h2.4c0.3,0,0.7,0,0.9-0.3
			c0.2-0.2,0.1-0.6,0-0.9L224.6,0.8c-0.3-0.7-0.9-1.1-1.8-1.1h-2.4c-0.9,0-1.5,0.4-1.8,1.1l-15.8,39.6c-0.1,0.3-0.2,0.7,0,0.9
			s0.6,0.3,0.9,0.3h2.1c2,0,2.3-0.3,2.7-1.2L212.2,30.6z M229.1,26.4h-15.5l6.3-16.1c0.5-1.5,0.9-3.6,1-4.6l0.1-1.1h0.8v0.2
			c0,1.6,0.4,3.5,1.1,5.5L229.1,26.4z M214.4,25.9h14l-6-15.4c-0.6-1.7-0.9-3.2-1.1-4.6c-0.1,1-0.4,2.9-1,4.5L214.4,25.9z"/>
	</g>
	<g>
		<path class="st0" d="M270.1-0.4c8.2,0,13.2,4.7,13.2,12.7c0,6.4-3.3,10.6-9,11.9c1.1,0.6,2.1,1.7,3,3.3l6.8,12.8
			c0.5,1.1,0.3,1.6-0.9,1.6h-2.7c-2,0-2.6-0.2-3.2-1.4l-5.5-10.9c-1.8-3.6-3.6-4.7-8-4.7h-6.5v15.5c0,1.1-0.4,1.6-1.6,1.6H253
			c-1.2,0-1.6-0.4-1.6-1.6V1.1c0-1.1,0.4-1.6,1.6-1.6h17.1V-0.4z M269.5,5h-12.2v14.6h12.2c4.8,0,7.6-2.7,7.6-7.3
			C277.1,7.6,274.3,5,269.5,5z"/>
		<path class="st0" d="M283.2,42.2h-2.7c-2,0-2.8-0.2-3.4-1.5l-5.5-10.9c-1.8-3.6-3.5-4.6-7.8-4.6h-6.3v15.2c0,1.3-0.5,1.8-1.9,1.8
			H253c-1.3,0-1.8-0.5-1.8-1.8V1.1c0-1.3,0.5-1.8,1.8-1.8h17.1c8.4,0,13.4,4.8,13.4,13c0,6.2-3.1,10.5-8.6,12
			c0.9,0.7,1.8,1.7,2.6,3.1l6.8,12.8c0.3,0.7,0.4,1.1,0.2,1.5C284.3,42.1,283.9,42.2,283.2,42.2z M257,24.7h6.8
			c4.5,0,6.4,1.1,8.3,4.9l5.5,10.9c0.5,1,1,1.2,2.9,1.2h2.7c0.4,0,0.7-0.1,0.8-0.2c0.1-0.2,0-0.5-0.2-1L277,27.7
			c-0.9-1.6-1.9-2.7-2.9-3.2l-0.6-0.3l0.7-0.1c5.6-1.2,8.8-5.5,8.8-11.6C283,4.6,278.3,0,270.1,0H253c-1,0-1.3,0.3-1.3,1.3v39.3
			c0,1,0.3,1.3,1.3,1.3h2.7c1.1,0,1.4-0.3,1.4-1.3V24.7H257z M269.5,19.8H257V4.7h12.5c5,0,7.8,2.8,7.8,7.6S274.5,19.8,269.5,19.8z
			 M257.5,19.3h12c4.6,0,7.3-2.6,7.3-7c0-4.6-2.6-7.1-7.3-7.1h-12V19.3z"/>
	</g>
	<g>
		<path class="st0" d="M323-0.4c1.2,0,1.6,0.4,1.6,1.6v2.3c0,1.1-0.4,1.6-1.6,1.6h-11.5v35.5c0,1.1-0.4,1.6-1.6,1.6h-2.7
			c-1.2,0-1.6-0.4-1.6-1.6V5h-11.5c-1.2,0-1.6-0.4-1.6-1.6V1.1c0-1.1,0.4-1.6,1.6-1.6L323-0.4L323-0.4z"/>
		<path class="st0" d="M309.9,42.2h-2.7c-1.3,0-1.8-0.5-1.8-1.8V5.2h-11.3c-1.3,0-1.8-0.5-1.8-1.8V1.1c0-1.3,0.5-1.8,1.8-1.8H323
			c1.3,0,1.8,0.5,1.8,1.8v2.3c0,1.3-0.5,1.8-1.8,1.8h-11.3v35.2C311.7,41.7,311.2,42.2,309.9,42.2z M294.1-0.2c-1,0-1.3,0.3-1.3,1.3
			v2.3c0,1,0.3,1.3,1.3,1.3h11.8v35.7c0,1,0.3,1.3,1.3,1.3h2.7c1,0,1.3-0.3,1.3-1.3V4.7H323c1,0,1.3-0.3,1.3-1.3V1.1
			c0-1-0.3-1.3-1.3-1.3H294.1z"/>
	</g>
	<g>
		<path class="st0" d="M340.3-0.4c1.2,0,1.6,0.4,1.6,1.6v35.5H361c1.2,0,1.6,0.4,1.6,1.6v2.3c0,1.1-0.4,1.6-1.6,1.6h-23.4
			c-1.2,0-1.6-0.4-1.6-1.6V1.3c0-1.1,0.4-1.6,1.6-1.6L340.3-0.4L340.3-0.4z"/>
		<path class="st0" d="M361.1,42.2h-23.4c-1.3,0-1.8-0.5-1.8-1.8V1.1c0-1.3,0.5-1.8,1.8-1.8h2.7c1.3,0,1.9,0.5,1.9,1.8v35.2h18.9
			c1.3,0,1.9,0.5,1.9,1.8v2.3C363,41.7,362.4,42.2,361.1,42.2z M337.6-0.2c-1,0-1.3,0.3-1.3,1.3v39.3c0,1,0.3,1.3,1.3,1.3H361
			c1.1,0,1.4-0.3,1.4-1.3v-2.3c0-1-0.3-1.3-1.4-1.3h-19.4V1.1c0-1-0.3-1.3-1.4-1.3H337.6z"/>
	</g>
	<g>
		<path class="st0" d="M374.1,1.1c0-1.1,0.4-1.6,1.6-1.6h2.7c1.2,0,1.6,0.4,1.6,1.6v39.3c0,1.1-0.4,1.6-1.6,1.6h-2.7
			c-1.2,0-1.6-0.4-1.6-1.6V1.1z"/>
		<path class="st0" d="M378.4,42.2h-2.7c-1.3,0-1.8-0.5-1.8-1.8V1.1c0-1.3,0.5-1.8,1.8-1.8h2.7c1.3,0,1.9,0.5,1.9,1.8v39.3
			C380.3,41.7,379.7,42.2,378.4,42.2z M375.7-0.2c-1,0-1.3,0.3-1.3,1.3v39.3c0,1,0.3,1.3,1.3,1.3h2.7c1.1,0,1.4-0.3,1.4-1.3V1.1
			c0-1-0.3-1.3-1.4-1.3H375.7z"/>
	</g>
	<g>
		<path class="st0" d="M421.2-0.4c1.2,0,1.6,0.4,1.6,1.6v2.3c0,1.1-0.4,1.6-1.6,1.6H401v13.4h17.2c1.2,0,1.6,0.4,1.6,1.6v2.3
			c0,1.2-0.4,1.6-1.6,1.6H401v16.7c0,1.1-0.4,1.6-1.6,1.6h-2.7c-1.2,0-1.6-0.4-1.6-1.6V1.4c0-1.1,0.4-1.6,1.6-1.6h24.5V-0.4z"/>
		<path class="st0" d="M399.4,42.2h-2.7c-1.3,0-1.8-0.5-1.8-1.8V1.1c0-1.3,0.5-1.8,1.8-1.8h24.5c1.3,0,1.8,0.5,1.8,1.8v2.3
			c0,1.3-0.5,1.8-1.8,1.8h-19.9v12.9h16.9c1.3,0,1.8,0.5,1.8,1.8v2.3c0,1.3-0.5,1.8-1.8,1.8h-16.9v16.4
			C401.3,41.7,400.7,42.2,399.4,42.2z M396.7-0.2c-1,0-1.3,0.3-1.3,1.3v39.3c0,1,0.3,1.3,1.3,1.3h2.7c1.1,0,1.4-0.3,1.4-1.3V23.5
			h17.4c1.1,0,1.3-0.2,1.3-1.3v-2.3c0-1-0.3-1.3-1.3-1.3h-17.4V4.7h20.4c1,0,1.3-0.3,1.3-1.3V1.1c0-1-0.3-1.3-1.3-1.3H396.7z"/>
	</g>
	<g>
		<path class="st0" d="M461.3-0.4c1.2,0,1.6,0.4,1.6,1.6v2.3c0,1.1-0.4,1.6-1.6,1.6h-20.2v12.8h17.4c1.2,0,1.6,0.4,1.6,1.6v2.2
			c0,1.2-0.4,1.6-1.6,1.6h-17.4v13.4H462c1.2,0,1.6,0.4,1.6,1.6v2.3c0,1.1-0.4,1.6-1.6,1.6h-25.2c-1.2,0-1.6-0.4-1.6-1.6V1.3
			c0-1.1,0.4-1.6,1.6-1.6L461.3-0.4L461.3-0.4z"/>
		<path class="st0" d="M462.1,42.2h-25.2c-1.3,0-1.8-0.5-1.8-1.8V1.1c0-1.3,0.5-1.8,1.8-1.8h24.5c1.3,0,1.8,0.5,1.8,1.8v2.3
			c0,1.3-0.5,1.8-1.8,1.8h-19.9v12.3h17.1c1.3,0,1.8,0.5,1.8,1.9v2.2c0,1.3-0.5,1.8-1.8,1.8h-17.1v12.9h20.6c1.3,0,1.8,0.5,1.8,1.8
			v2.3C463.9,41.7,463.4,42.2,462.1,42.2z M436.8-0.2c-1,0-1.3,0.3-1.3,1.3v39.3c0,1,0.3,1.3,1.3,1.3H462c1,0,1.3-0.3,1.3-1.3v-2.3
			c0-1-0.3-1.3-1.3-1.3h-21.1V22.9h17.6c1.1,0,1.3-0.2,1.3-1.3v-2.2c0-1.1-0.3-1.4-1.3-1.4h-17.6V4.7h20.4c1,0,1.3-0.3,1.3-1.3V1.1
			c0-1-0.3-1.3-1.3-1.3H436.8z"/>
	</g>
	<g>
		<path class="st0" d="M495.1-0.4c7.6,0,12.1,3.9,12.1,11c0,4.5-1.8,7.6-5.2,9.3v0.2c4.6,1.3,6.8,4.8,6.8,10.4
			c0,7.3-5.2,11.5-13.2,11.5H478c-1.2,0-1.6-0.4-1.6-1.6V1.1c0-1.1,0.4-1.6,1.6-1.6L495.1-0.4L495.1-0.4z M494.4,5h-12.1v12.8h12.1
			c4.5,0,6.8-2.1,6.8-6.4C501.2,7.1,498.9,5,494.4,5z M495.4,23h-13.1v13.5h13.1c4.7,0,7.1-2.3,7.1-6.7C502.5,25.5,500,23,495.4,23z
			"/>
		<path class="st0" d="M495.6,42.2H478c-1.3,0-1.8-0.5-1.8-1.8V1.1c0-1.3,0.5-1.8,1.8-1.8h17.1c7.9,0,12.4,4.1,12.4,11.2
			c0,4.5-1.7,7.6-5,9.4c4.4,1.4,6.6,5,6.6,10.5C509,37.7,503.9,42.2,495.6,42.2z M478-0.2c-1,0-1.3,0.3-1.3,1.3v39.3
			c0,1,0.3,1.3,1.3,1.3h17.6c8.1,0,12.9-4.2,12.9-11.3c0-5.5-2.2-8.9-6.6-10.1l-0.2-0.1v-0.5l0.1-0.1c3.4-1.6,5.1-4.7,5.1-9.1
			c0-6.8-4.3-10.7-11.9-10.7L478-0.2L478-0.2z M495.4,36.8h-13.3v-14h13.3c4.7,0,7.3,2.5,7.3,7.1C502.7,34.5,500.3,36.8,495.4,36.8z
			 M482.6,36.3h12.8c4.5,0,6.8-2.2,6.8-6.5c0-4.2-2.4-6.6-6.8-6.6h-12.8V36.3z M494.4,18h-12.3V4.7h12.3c4.7,0,7,2.3,7,6.7
			C501.4,15.8,499,18,494.4,18z M482.6,17.5h11.8c4.4,0,6.5-2,6.5-6.1c0-4.2-2.1-6.2-6.5-6.2h-11.8V17.5z"/>
	</g>
	<g>
		<path class="st0" d="M521.9,1.1c0-1.1,0.4-1.6,1.6-1.6h2.7c1.2,0,1.6,0.4,1.6,1.6v39.3c0,1.1-0.4,1.6-1.6,1.6h-2.7
			c-1.2,0-1.6-0.4-1.6-1.6V1.1z"/>
		<path class="st0" d="M526.2,42.2h-2.7c-1.3,0-1.8-0.5-1.8-1.8V1.1c0-1.3,0.5-1.8,1.8-1.8h2.7c1.3,0,1.9,0.5,1.9,1.8v39.3
			C528.1,41.7,527.5,42.2,526.2,42.2z M523.5-0.2c-1,0-1.3,0.3-1.3,1.3v39.3c0,1,0.3,1.3,1.3,1.3h2.7c1.1,0,1.4-0.3,1.4-1.3V1.1
			c0-1-0.3-1.3-1.4-1.3H523.5z"/>
	</g>
	<g>
		<path class="st0" d="M541.7,14c0-9.5,6.2-15.3,17.1-15.3c10.9,0,17.1,5.7,17.1,15.3v13.6c0,9.5-6.2,15.3-17.1,15.3
			c-10.9,0-17.1-5.7-17.1-15.3V14z M569.9,14c0-6.4-4-9.9-11.1-9.9s-11.1,3.5-11.1,9.9v13.6c0,6.4,4,9.9,11.1,9.9s11.1-3.5,11.1-9.9
			V14z"/>
		<path class="st0" d="M558.7,43.1c-11,0-17.3-5.7-17.3-15.5V14c0-9.9,6.3-15.5,17.3-15.5S576,4.1,576,14v13.6
			C576,37.4,569.7,43.1,558.7,43.1z M558.7-1.1c-10.7,0-16.8,5.5-16.8,15v13.6c0,9.6,6.1,15,16.8,15s16.8-5.5,16.8-15V14
			C575.5,4.4,569.4-1.1,558.7-1.1z M558.7,37.7c-7.2,0-11.4-3.7-11.4-10.2V14c0-6.5,4.2-10.2,11.4-10.2s11.4,3.7,11.4,10.2v13.6
			C570.1,34,566,37.7,558.7,37.7z M558.7,4.3c-7,0-10.9,3.4-10.9,9.7v13.6c0,6.2,3.9,9.7,10.9,9.7s10.9-3.4,10.9-9.7V14
			C569.6,7.7,565.7,4.3,558.7,4.3z"/>
	</g>
</g>
</svg>
