<?xml version="1.0" encoding="utf-8"?>
<!-- Generator: Adobe Illustrator 21.1.0, SVG Export Plug-In . SVG Version: 6.00 Build 0)  -->
<svg version="1.1" id="Слой_1" xmlns="http://www.w3.org/2000/svg" xmlns:xlink="http://www.w3.org/1999/xlink" x="0px" y="0px"
	 viewBox="0 0 576 575.8" style="enable-background:new 0 0 576 575.8;" xml:space="preserve">
<style type="text/css">
	.st0{fill:#2d6965;}
</style>
<g>
	<path class="st0" d="M433.7,181.2c0-0.4-0.1-0.7-0.2-1.1c-0.1-0.3-0.1-0.6-0.3-0.9c-0.1-0.3-0.4-0.5-0.6-0.8s-0.4-0.6-0.7-0.8
		c-0.1-0.1-0.1-0.2-0.2-0.2l-97.1-76.1c-0.1-0.1-0.3-0.1-0.5-0.2s-0.4-0.3-0.6-0.4s-0.4-0.2-0.6-0.2c-0.3-0.1-0.5-0.1-0.8-0.2
		c-0.3,0-0.5-0.1-0.8-0.1c-0.1,0-0.2-0.1-0.3-0.1c-0.1,0-0.2,0-0.3,0.1c-0.3,0-0.5,0.1-0.7,0.1c-0.3,0-0.5,0.1-0.8,0.2
		c-0.2,0.1-0.4,0.1-0.6,0.2s-0.4,0.2-0.6,0.4c-0.1,0.1-0.3,0.1-0.4,0.2l-99.8,76.1c-0.1,0.1-0.1,0.2-0.2,0.2
		c-0.3,0.2-0.5,0.5-0.7,0.8s-0.4,0.5-0.6,0.8c-0.1,0.3-0.2,0.6-0.3,0.9c-0.1,0.4-0.2,0.7-0.2,1.1c0,0.1-0.1,0.2-0.1,0.3v84.3
		l-16.5-12.6c-2.1-1.6-4.9-1.4-6.9,0.1c-0.1,0-0.1,0-0.2,0.1l-57,43.6c-0.6,0.4-1,1-1.4,1.6c-0.2,0.2-0.3,0.4-0.4,0.6
		c-0.1,0.1-0.3,0.2-0.4,0.4c-0.1,0.1-0.1,0.3-0.2,0.4c-0.2,0.3-0.3,0.6-0.4,1c-0.1,0.4-0.2,0.7-0.2,1c0,0.2-0.1,0.3-0.1,0.4v81.1
		c0,1.9,1.1,3.7,2.8,4.6l55.6,30.7v26.1h-28.3c-3.1,0-5.5,2.4-5.5,5.3s2.5,5.3,5.5,5.3h199.8c3.1,0,5.5-2.4,5.5-5.3
		s-2.5-5.3-5.5-5.3h-35.2v-61.4l94.5-56.8c1.6-1,2.6-2.7,2.6-4.5V181.4C433.8,181.3,433.7,181.2,433.7,181.2z M200.4,328.9
		l-43.7-27.2l43.7-33.3V328.9z M211.4,370.9c0.7-0.1,1.3-0.4,1.9-0.7l41.5-26.7V380l-43.4,26.1V370.9z M236.9,319.9v-75l88.8,53.5
		V329l-52.8-32.7c-0.1-5.4-4.4-9.7-9.8-9.7s-9.8,4.4-9.8,9.8s4.4,9.8,9.8,9.8c1.5,0,2.8-0.3,4.1-0.9l58.6,36.3v27.2L236.9,319.9z
		 M325.6,285.9l-88.8-53.5V184l88.8-67.7V285.9z M336.7,288.1v-38.6l57.8-37.2c1.2,0.5,2.5,0.8,3.9,0.8c5.4,0,9.8-4.4,9.8-9.8
		c0-5.4-4.4-9.8-9.8-9.8s-9.8,4.4-9.8,9.8l0,0l-51.9,33.4V116.5l86,67.4v48.9c-0.2,0.1-0.4,0.1-0.6,0.2L336.7,288.1z M225.8,279.2
		V323c0,1.9,1.1,3.7,2.8,4.6l16.6,9.2l-33.8,21.7v-90.2l14,10.7C225.6,279.1,225.7,279.2,225.8,279.2z M153.1,380.4v-68.2l47.3,29.4
		v14.8l-32.8-20.3c-2.6-1.6-6-0.9-7.6,1.6c-1.7,2.5-0.9,5.8,1.7,7.4l38.6,23.9c0.1,0,0.1,0,0.2,0.1v37.5L153.1,380.4z M211.4,444.9
		v-26.2l51.8-31.2c1.6-1,2.6-2.7,2.6-4.5v-34.8l59.8,33v63.7H211.4z M336.7,370.9v-70l86-55.4v73.6L336.7,370.9z"/>
	<path class="st0" d="M371.9,465.1h-166c-3.1,0-5.5,2.4-5.5,5.3s2.5,5.3,5.5,5.3h166c3.1,0,5.5-2.4,5.5-5.3S374.9,465.1,371.9,465.1
		z"/>
</g>
</svg>
