<?xml version="1.0" encoding="utf-8"?>
<!-- Generator: Adobe Illustrator 21.1.0, SVG Export Plug-In . SVG Version: 6.00 Build 0)  -->
<svg version="1.1" id="Слой_1" xmlns="http://www.w3.org/2000/svg" xmlns:xlink="http://www.w3.org/1999/xlink" x="0px" y="0px"
	 viewBox="0 0 1866.1 2373.7" style="enable-background:new 0 0 1866.1 2373.7;" xml:space="preserve">
<style type="text/css">
	.st0{fill-rule:evenodd;clip-rule:evenodd;fill:url(#SVGID_1_);}
</style>
<linearGradient id="SVGID_1_" gradientUnits="userSpaceOnUse" x1="933.0712" y1="0" x2="933.0712" y2="2373.7378">
	<stop  offset="0.1529" style="stop-color:#32d6c1"/>
	<stop  offset="1" style="stop-color:#284a41"/>
</linearGradient>
<path class="st0" d="M1859.6,2150.6c-1.2,0.1-2.3,0.3-3.5,0.5c-0.7-2-1.7-3.7-4.7-4.2v-46.7c0.2-0.3,0.3-0.5,0.5-0.8
	c2.5-2.2,5-4.4,7.5-6.6c4.8-2.2,8.4-4.3,1.9-5.1c-2.1-0.2-5.4-1-7.3,0.9c-3.6,3.5,3.9,2.6,5.4,4.2c-3.4,0.7-6.1,1.7-7.9,3V0H22.8
	v1759.9c-3.3,4.4-6.7,8.7-10,13.1c0.9,4.3,0.9,8.8-0.3,13.3c-1.7,6.3-5.1,11.7-6.9,17.9c-0.1,0.2-0.1,0.5-0.2,0.7
	c0,0.9,0.1,1.8,0.3,2.9c-0.7,1.9-0.5,4.6-0.5,7.1c-0.2,0.4-0.4,0.8-0.6,1.2c0.3,4.4,1.1,8.9,1.7,13.2c1.1,8.6,1,17-1.8,25.2
	c0,0.1-0.1,0.3-0.1,0.4c0,0.1,0.1,0.2,0.1,0.3c0.6,1.4,0.6,2.2,0.4,3.2c0.3,1.6-0.6,3.4,0.9,4.8c1.5,1.4,1.5-0.5,1.6-2.6
	c0-0.7,0.3-1.1,0.5-1.6c0.2,0.5,0.4,1.1,0.6,1.6c0,0,0,0,0,0c0,0.4,0.1,0.9,0.1,1.3c-0.8,1.2-0.8,3.5-1.1,5.5
	c-1.6,0.8-1,4.2-1.1,6.9c-0.2,0.3-0.4,0.6-0.6,0.8c-3,1.6-1.9,7.7-1.5,13.2c0,0.4,0,0.7-0.1,0.9c-0.7-0.5-0.3-3.5-1.2-2.9
	c-0.7,0.5-1.8,1.3-0.5,4.4c0.3,0.7,0.5,1.4,0.9,1.8c0,0.9,0.1,1.7,0.4,2.6c0,0.1,0,0.3,0,0.4c-0.8-0.4-0.7-2.5-1.3-3.5
	c-0.9,3.8-1.1,8.4-1.5,12.7c-0.7,0.4-0.6,2-0.6,3.3c0,0.4,0,0.9,0,1.3c-0.1,1.2-0.2,2.4-0.3,3.6c0,0.2-0.1,0.4-0.1,0.5
	c1.9,6.5,3.5,13.1,3.7,20.1c0.2,8.4-1.1,16.7-1.9,25c0,0,0,0,0,0c0.1,2,0.5,4.2,1.3,6.4c0.2,2.8,0.5,5.3,2.2,6
	c0.7-0.4,1.4-0.8,2.1-1.2c0.2,0.5,0.5,1,0.7,1.6c0.4,1.4,0.8,2.6,1.1,3.5c-0.3,2.1-0.5,4.1-1.3,5.8c-1,0.9-1.5,2.6-1.4,5
	c0,0.6-0.1,1.1-0.2,1.5c2.9,3.6,6.3,6.7,8.9,10.7c3.8,5.9,4.8,11.2,2.2,18.1c-0.7,1.9-3.2,6.3-3.3,7.3c-0.2,1.7,0.7,4.2,0.9,5.9
	c0.8,5.7,1.4,11.5,2.2,17.2c0.5,3.8,0.6,8.3,2.5,11.5c0.9,1.5,2,2.8,3.1,4v97.6H84c-5.2,9.4-12.3,17.3-17.8,26.6
	c4.8,0.3,9.4,1.1,14.1,2.9c1.9,0.7,3.6,3.5,2.8,6c-3.3,10-9.6,17.2-15.8,24.5c5.5-0.6,11.1-0.8,16.7,0c1,0.1,1.9,0.7,2.6,1.4
	c0.8-0.4,1.5-0.8,2.3-1.2c1-0.5,1.9-0.5,2.6,0c2.3-1.8,4.7-3.5,7.1-5.3c2.7-2.1,5.7,0.7,6,4.2c0.7,11,0.1,21.9-0.7,32.8
	c0,0,0.1,0.1,0.1,0.1c2.5,0.8,4.9,1.6,7.4,2.5c1.2,1.1,2.4,2.1,3.7,3.2c0.5,3.1,2.6,4.7,7.2,3.8c0.9,2.5,0.4,5.9,5.2,5.8
	c4.4,1.2,4.3,6.6,10.8,5.9c0.6,0.3,1.1,0.5,1.7,0.8c1.3,1.1,2.7,2.1,4,3.1c1.8,1,3.6,2,5.4,3c0.6,0.8,1.2,1.5,1.8,2.3
	c-1.8,2.7-1.1,4.4,1.5,5.2c1.8,2.2,6.5,2.1,7.3,5.2c6.7,0.1,9.4,6.4,18.6,2.5c0.7-0.2,1.3-0.4,2-0.7c3.7,1,5.9,3.8,11,3
	c1.4,0,2.9,0.7,4.1-0.9c1.7-2.1-0.5-2.1-2-2.5l-0.1,0c-0.5-1.4-1-2.7-1.5-4.1c1.7,0.2,3.4,0.3,5.1,0.5c1.2,2.3,5.1,1.5,7.4,2.5
	c3.9,0.7,7.7,3.6,11.9-3.1c1.9-0.9,3.7-1.9,5.6-2.8c-0.1-0.2-0.2-0.3-0.3-0.5c3,0.1,6.5-0.1,10-0.3c2.6,5.2,10.8,7.6,18.3,10.3
	c5,1.1,10.1,2.2,15.1,3.2c2.5,1.4,4.9,2.9,7.4,4.3c1,4.2,5.3,6.3,14.8,5.1c1.8,3.4,0.7,8.1,10.6,7.8c9,1.6,8.7,9,22.1,7.8
	c1.2,0.4,2.3,0.7,3.5,1.1c2.7,1.4,5.4,2.8,8.1,4.2c3.6,1.3,7.3,2.6,10.9,3.9c1.2,1,2.5,2,3.7,3.1c-3.8,3.8-2.3,6,3,7.2
	c3.7,3,13.4,2.7,14.9,7c13.6,0,19.3,8.6,38.1,3.1c1.3-0.3,2.7-0.6,4-0.9c7.5,1.3,12.1,5.1,22.6,3.9c2.8-0.1,5.9,0.9,8.5-1.3
	c3.5-2.9-1-2.9-4.1-3.3l-0.1,0c-1-1.8-2.1-3.7-3.1-5.5c3.5,0.2,7,0.4,10.5,0.6c2.4,3.1,10.3,1.9,15.1,3.2c8,0.8,15.8,4.8,24.4-4.5
	c3.8-1.3,7.7-2.6,11.6-3.9c-1.2-1.1-2.3-2.1-3.5-3.2c1.3-0.9,2.6-1.8,4-2.7c3.9-0.6,7.9-1.2,11.9-1.9l-1.1,0.1l0.1-0.6
	c0.4,0,0.8,0,1.2,0c-0.1,0.2-0.2,0.4-0.3,0.5c0.9,0.6,2,0.9,3.3,0.9c-0.7,1.8,1.1,2.9,4.7,3.1c4.6,0.3,4-1.9,4.7-3.2
	c1.3-0.1,2.5-0.2,3.7-0.4c2.4,4.5,10.9,4.2,19,4.2c1.2-0.2,2.4-0.3,3.5-0.3c-0.3,3.7,16.4,0.9,7.2,8c1.7,4.2,9.9,4.2,16.6,4.6
	c11.9,0.8,22.9,2.7,36.5,1.5c1.3,0.4,2.7,0.8,4,1.2c0,3.9,4.2,5.5,11.6,5.4c2.5-0.4,4.9-0.9,7.4-1.3c5.1-0.8,10.2-1.7,15.3-2.6
	c0.6,0.3,1.5,0.4,2.5,0.2c3.9,2,10.2,1.4,16.3,1c3.8,0.6,7.7,1.2,11.5,1.7c0,0.6,0,1.1,0,1.7c-1.4,2.2-6.5,5-0.4,5.8
	c-0.4,3.8,6.1,3.3,10.8,3.9c6.4-0.2,13-1.3,19.6-3.3c1.4,0.3,2.8,0.5,4.2,0.9c-4,3.8-10.7,3.3-17.4,5.8c9,1.6,19.8-2.1,28.3-1.7
	c11.7-2,23.4-4,35.1-6.1c15.4-2.7,30.9-5.5,46.3-8.1c6.5-1.1,13.1-2,16.4-6.4c-2.4-0.9-4.8-1.8-7.1-2.7c0-0.7-0.1-1.3-0.1-2
	c2.7-1,5.4-2,8.1-3c10.3-0.8,21.8-5.9,31.4-4c12.5,1.3,25.2-0.9,38.4-6.6c0,0,0,0,0,0c14.8-3.1,30.6-2.5,43.8-11.3
	c13.3-4.1,25.4,0.4,39-6.4c10.4-1.3,21.2-5.9,31.4-5.4c4.6,1.9,10.3,1.3,16.8-1.6c9.9-3.6,16,1.6,26-2.2c14.1-0.5,27.6-0.2,42.7-2.7
	c0,0,0,0,0,0c0.1,0,0.1,0,0.2,0c0.8-0.1,1.7-0.3,2.4-0.5c11.1-1.8,20.4,0.9,32.2-2.6c12,3.1,27.6-0.2,42.3-1.9
	c7.5-0.3,14.5,0.7,23-2c6.5-0.4,12.9-0.9,19.4-1.3c14.2-0.6,28.3-1.2,42.5-1.7c11.6-1.3,22.7-0.9,34.9-4c4.1-0.1,8.1-0.2,12.2-0.2
	c7,1,14,1.7,22.9-2c6.9,1.1,15-0.8,22.8-2c4.5,1,8.2,3.7,15.7-0.8c9-0.3,17.9-0.5,26.9-0.8c6.3,2.3,12.9-1,19.5-3.5
	c4,1.9,9.5,0.4,17.5-1.8c-6.8-0.1-11.9-0.1-16.9-0.2c-0.1,0-0.2,0-0.3,0c3-2.8,7.6-3.2,11.9-4c4-1.3,7.9-2.6,11.9-3.9
	c1.2,0.4,2.5,0.8,3.7,1.2c2.7-0.7,5.5-3.1,7.9-1.3c0,0,0,0,0,0c2.6,1.7,7.3,0.5,11.5,0c4.8,3.5,11.6,2.4,18-2.3
	c3.4-2.5,5.8-2.8,9.3-2.6c4.4-1.8,11.5,0.1,13.5-4.8c2.1-4.9-4-4.2-10.6-3.5c-2.2,0.2-4-0.5-5.9-0.7c1.4-0.8,2.7-1.6,4.1-2.5l0,0
	c1.3-0.3,2.7-0.6,4-0.9c5.1,1.8,12.4,0.8,19,0.6c4.9,4.2,14.7,1,23.2-0.3c1.2,0.5,2.4,1,3.6,1.5c9.7,7.9,27.1,1.9,43.3-2.1
	c1.1-0.2,2-0.3,2.9-0.1c-0.4,2.3-10.6,2.5-7,5c2.7,1.8,7,4.6,14.5-0.8c1.7-1.1,3.4-2.2,4.2-3.4c2.8-0.3,5.4-1,7.6-2.4
	c0.5-0.1,0.9-0.2,1.4-0.3c-0.1,2.5-6.7,3.4-8.8,5.4c13.2,0.6,27.8-0.9,41.9-1.8c2.4,1.9,7,0.7,11.3,0.1c1.4-0.2,2.7-0.5,4.1-0.7
	c3.9-0.3,7.8-0.6,11.8-0.9c14.5,0.9,29.8-0.1,46.4-3.9c8.4,3.7,18.5-5,27.3-4.4c4.1-1.2,6.4-3.1,8.2-5.1
	c13.3,0.5,23.3-7.4,35.4-10.1c13.8-2.2,28-2.5,40.1-10.4c8.5-1.8,15.7-4.1,15.3-9.3c-2.4-1.9-4.8-3.7-7.2-5.6c1.3-0.9,2.5-1.9,4-2.7
	c20.4-10.5,20.6-12,2.1-15.8c4-1.9,8-3.8,12-5.8c4.9-1.5,9.3-3.3,12.1-6.1C1867.1,2164.7,1871.1,2155.3,1859.6,2150.6z M13.3,1891.6
	c-0.1-0.2-0.2-0.4-0.2-0.6c0.1,0.1,0.2,0.1,0.3,0.2C13.4,1891.3,13.4,1891.5,13.3,1891.6z M1706.5,2230.4c-0.1,0.1-0.2,0.1-0.3,0.2
	c-0.2-0.1-0.4-0.3-0.6-0.4c0.2,0,0.4-0.1,0.5-0.1C1706.3,2230.2,1706.4,2230.3,1706.5,2230.4z M191,2285.3c-0.3-0.1-0.5-0.2-0.8-0.3
	c-0.1,0.3,0,0.6,0.1,0.8c-0.2,0.2-0.4,0.3-0.6,0.5c-0.6,1-0.8,1.9-0.4,2.7c0.1,0.1,0.1,0.2,0.2,0.2c-1.5,0.5-2.9,1.1-3.2,2.2
	c-1.6,0-3.3,0.1-5.1,0.8c1.3-1.1,2.4-2.3,2.7-3.7c0,0,0-0.1,0-0.1c1.1-1.3,0.9-2.5,1-3.8c1.1-0.2,2.2-0.4,3.4-0.5
	c0.7,0.3,1.3,0.6,2,0.9l0-0.1C190.4,2285,190.7,2285.1,191,2285.3C191,2285.3,191,2285.3,191,2285.3z M224.4,2282.1
	c1.2-0.3,2.5-0.5,3.7-0.8l-0.5,0l0-0.4c0.2,0,0.4,0,0.6,0c0,0.1-0.1,0.3-0.1,0.4c0.1,0.1,0.2,0.2,0.3,0.3
	C227,2281.8,225.7,2282,224.4,2282.1z M428,2340.8c-0.6-0.1-1.1-0.3-1.7-0.4c-0.1,0.4-0.1,0.8,0.1,1.2c-0.4,0.2-0.8,0.5-1.2,0.7
	c-1.3,1.4-1.6,2.6-0.9,3.7c0.1,0.1,0.3,0.2,0.5,0.3c-3.1,0.8-5.9,1.6-6.7,3.1c-3.4,0-6.8,0.2-10.6,1.2c2.8-1.6,4.9-3.2,5.5-5.1
	c0-0.1,0-0.1,0-0.2c2.2-1.8,1.9-3.5,2.2-5.3c2.3-0.3,4.6-0.5,6.9-0.8c1.4,0.4,2.7,0.8,4.1,1.2l0.1-0.1
	C426.9,2340.5,427.4,2340.6,428,2340.8C428,2340.8,428,2340.8,428,2340.8z M644.1,2315c1.4-0.5,2.8-1,3.8-0.8
	C646.6,2314.5,645.3,2314.8,644.1,2315z M681.3,2261.1c0-0.1,0-0.2,0-0.4c0.4,0,0.7-0.1,1.1-0.1
	C682.1,2260.8,681.7,2261,681.3,2261.1z M702.9,2360.8L702.9,2360.8c0,0-0.2,0.1-0.3,0.2c-0.1-0.2-0.3-0.4-0.4-0.5
	C702.5,2360.6,702.8,2360.7,702.9,2360.8c0.1-0.1,0.1-0.1,0.1-0.1C703,2360.8,703,2360.8,702.9,2360.8z M706.2,2317.6
	c0.6-0.6,1.7-1.3,3.8-2c0,0.1,0.1,0.1,0.1,0.2C708.6,2316.6,707.3,2317.2,706.2,2317.6z M718.7,2353.6c0-0.1,0-0.2,0-0.3
	c0.2,0,0.4,0.1,0.6,0.1C719.1,2353.5,718.9,2353.6,718.7,2353.6z M763.3,2289.4c-0.2,0.1-0.4,0.1-0.5,0.2c-1.4-0.2-2.7-0.3-4-0.4
	c1.9-0.8,3.3-1.4,4.6-2.1C763.3,2287.9,763.4,2288.6,763.3,2289.4z M797.2,2326.1c0.2,0.1,0.4,0.2,0.6,0.3
	C797.5,2326.4,797.2,2326.2,797.2,2326.1z M851.8,2269.6c-0.2-0.2-0.3-0.4-0.5-0.6c0.2,0,0.4-0.1,0.7-0.1
	C851.8,2269.1,851.9,2269.4,851.8,2269.6z M887.1,2280.9L887.1,2280.9c0.1-0.1,0.1-0.2,0.2-0.2c0.1,0,0.1,0.1,0.3,0.1
	C887.4,2280.8,887.3,2280.9,887.1,2280.9z M899.3,2235c-0.1-0.1-0.1-0.1-0.2-0.2c0.2,0,0.3,0,0.5-0.1
	C899.5,2234.9,899.4,2235,899.3,2235z M993.5,2293c0.1-0.1,0.2-0.2,0.3-0.3c0.1,0,0.1-0.1,0.2-0.1c0,0,0-0.1,0.1-0.1
	c0.5-0.5,1-1,1.5-1.5C995.1,2291.7,994.4,2292.4,993.5,2293z M1084.1,2254.6c-0.2-0.5-0.4-0.9-0.8-1.2c0.5-0.1,1.1-0.1,1.6-0.2
	C1084.7,2253.7,1084.4,2254.1,1084.1,2254.6z M1299.6,2272.6c-0.2-0.1-0.4-0.2-0.6-0.3c0.4-0.1,0.8-0.1,1.1-0.2
	C1299.9,2272.3,1299.8,2272.4,1299.6,2272.6z M1382.2,2222.5c0.2-0.2,0.3-0.4,0.5-0.6c0.1,0.1,0.3,0.2,0.4,0.3
	C1382.8,2222.3,1382.5,2222.4,1382.2,2222.5z M1488,2226.8c0-0.2,0.1-0.4,0.1-0.6c0.1,0,0.2,0.1,0.3,0.1
	C1488.3,2226.5,1488.2,2226.6,1488,2226.8z M1564.9,2225.1c0.1-0.3,0.2-0.5,0.2-0.9c0.4-0.1,0.8-0.1,1.2-0.1
	C1565.9,2224.6,1565.4,2224.9,1564.9,2225.1z M1663.3,2240.1c0,0-0.1,0.1-0.1,0.1c0,0-0.1-0.1-0.1-0.1
	C1663.1,2240.2,1663.2,2240.1,1663.3,2240.1l0.4-0.4c0.1,0,0.1,0,0.2,0.1C1663.7,2239.9,1663.5,2240,1663.3,2240.1z M1706.8,2239.6
	c-1.3-0.8-3.1-1.2-5.4-1.2c2.2-0.6,4.4-1.2,5.1-2.5c1.5,0.6,3.5,0.9,5.6,1C1710.3,2237.5,1708.5,2238.5,1706.8,2239.6z
	 M1727.9,2212.2c-0.1-0.2-0.2-0.4-0.4-0.5l0,0c0,0,0,0,0,0c0.3,0,0.6,0,0.9,0.1C1728.2,2211.9,1728,2212,1727.9,2212.2z"/>
</svg>
